<svg xmlns="http://www.w3.org/2000/svg" xml:space="preserve" width="200" height="44" style="shape-rendering:geometricPrecision;text-rendering:geometricPrecision;image-rendering:optimizeQuality;fill-rule:evenodd;clip-rule:evenodd" viewBox="0 0 200 43.5"><path d="M164.13 16.86c-2.74 0-4.96 2.16-4.96 4.82s2.22 4.81 4.96 4.81c2.74 0 4.96-2.15 4.96-4.81 0-2.66-2.22-4.82-4.96-4.82zm25.07-5.8c5.9 0 10.69 4.65 10.8 10.42v10.81h-5.86V21.61c0-2.64-2.22-4.8-4.94-4.8s-4.94 2.16-4.94 4.8v10.68h-5.87V11.01h4.42l.59 1.7c1.68-1.04 3.67-1.65 5.8-1.65zm-25.07 0c6.04 0 10.92 4.75 10.92 10.62 0 5.86-4.88 10.61-10.92 10.61-6.03 0-10.93-4.75-10.93-10.61 0-5.87 4.9-10.62 10.93-10.62z" style="fill:#e72f4d"/><path d="M200 43.5h-46.75v-5.66h39.97l.92-2.72H200V43.5zM123.22 8.45h18.66v2.95h-15.63v8.62h13.98v2.95h-13.98v8.83h15.81v2.96h-18.98V8.45h.14zm-22.28 0h18.67v2.95h-15.63v8.62h13.98v2.95h-13.98v8.83h15.8v2.96h-18.97V8.45h.13zm-18.71 5.78c-.06.27-.08.55-.08.84 0 .3.02.59.06.85.05.28.12.53.22.77.08.24.22.47.38.68.17.22.39.43.64.63.24.2.54.39.88.57.35.18.75.35 1.2.52.45.17.96.33 1.54.49.56.15 1.21.31 1.91.45 1.44.33 2.68.72 3.74 1.17 1.07.45 1.95.96 2.64 1.55.69.58 1.21 1.27 1.56 2.09.35.8.52 1.72.52 2.74 0 .56-.05 1.11-.16 1.63-.12.52-.28 1.02-.51 1.48a6.98 6.98 0 0 1-1.83 2.4c-.38.32-.81.62-1.28.88-.47.25-.97.46-1.51.64-.55.17-1.12.3-1.71.39-.59.09-1.21.13-1.85.13-1.03 0-2.02-.08-2.97-.25-.94-.17-1.84-.42-2.7-.76-.86-.34-1.69-.77-2.51-1.3-.81-.52-1.61-1.14-2.38-1.85l-.1-.09 1.98-2.38.1.11c.67.61 1.33 1.14 2.01 1.61.66.45 1.34.83 2.01 1.13 1.35.6 2.91.9 4.67.9.85 0 1.62-.1 2.3-.3.67-.2 1.26-.5 1.77-.9.99-.79 1.5-1.84 1.5-3.13 0-.3-.03-.59-.08-.85a2.96 2.96 0 0 0-.21-.75c-.09-.24-.22-.45-.38-.67-.16-.21-.37-.41-.61-.6-.23-.19-.51-.38-.84-.55-.34-.18-.72-.35-1.15-.5-.43-.17-.92-.32-1.47-.48a30.8 30.8 0 0 0-1.83-.45c-.73-.16-1.42-.33-2.06-.52-.64-.2-1.24-.39-1.79-.61-.56-.21-1.06-.45-1.51-.7-.46-.26-.87-.54-1.22-.85-.37-.3-.69-.63-.95-.99-.27-.35-.5-.74-.68-1.15-.34-.81-.52-1.77-.52-2.88 0-.53.06-1.04.16-1.53s.27-.96.47-1.4c.21-.44.47-.85.77-1.24.3-.38.64-.73 1.03-1.05.38-.33.81-.62 1.26-.87a8.4 8.4 0 0 1 1.46-.65c1.03-.37 2.18-.55 3.41-.55.94 0 1.83.06 2.66.19.83.14 1.6.33 2.31.6.71.27 1.41.6 2.09 1a18 18 0 0 1 2.03 1.4l.1.09-1.85 2.49-.11-.09c-.59-.49-1.19-.92-1.78-1.27-.59-.36-1.19-.65-1.79-.87-.59-.22-1.2-.38-1.82-.5-.62-.1-1.26-.16-1.91-.16-.41 0-.8.03-1.17.08-.36.06-.71.14-1.04.25-.32.11-.63.24-.92.38-.28.14-.53.31-.76.48-.22.18-.43.39-.61.6-.17.22-.32.45-.45.71-.12.25-.21.51-.28.77zm-22.65 4.45h4.71c1.16 0 2.05-.19 2.66-.56.59-.38.89-.95.89-1.72v-.08c0-.72-.27-1.27-.84-1.66-.57-.39-1.42-.59-2.55-.59h-4.87v4.61zm0 10.04h5.79c1.16 0 2.05-.2 2.68-.62.62-.42.93-1.01.93-1.8v-.07c0-.73-.29-1.31-.89-1.73-.59-.43-1.52-.65-2.79-.65h-5.72v4.87zm-7.36 5.9V8.18h13.89c1.7 0 3.16.2 4.38.61 1.2.4 2.21.99 3 1.77.55.52.98 1.14 1.29 1.85.32.7.47 1.5.47 2.41v.07c0 1.54-.39 2.78-1.18 3.71-.79.95-1.8 1.66-3.01 2.17 1.65.53 2.96 1.29 3.93 2.29.97.99 1.46 2.4 1.46 4.19v.08c0 2.29-.9 4.08-2.7 5.35-1.8 1.3-4.31 1.94-7.57 1.94H52.22zm-27.48-11.6V8.18h7.62v14.7c0 1.92.45 3.33 1.35 4.25.9.91 2.12 1.37 3.65 1.37 1.52 0 2.74-.44 3.63-1.31.9-.88 1.36-2.26 1.36-4.13V8.18h7.62v14.65c0 2.15-.31 3.98-.91 5.53-.6 1.55-1.45 2.82-2.55 3.82-1.1 1-2.43 1.73-3.99 2.22-1.55.47-3.3.71-5.25.71-1.93 0-3.68-.24-5.23-.71-1.54-.49-2.85-1.22-3.94-2.22-1.07-1-1.91-2.26-2.49-3.78-.58-1.52-.87-3.32-.87-5.38zM0 30.69l4.19-4.87c2.71 2.12 5.64 3.17 8.78 3.17 1.02 0 1.78-.15 2.3-.47.53-.32.78-.75.78-1.33v-.1c0-.28-.06-.53-.18-.73-.13-.21-.36-.42-.71-.62-.35-.21-.81-.4-1.4-.59-.58-.18-1.33-.38-2.25-.59-1.46-.32-2.8-.69-4.04-1.07-1.24-.39-2.32-.9-3.24-1.51-.9-.61-1.62-1.38-2.15-2.31-.54-.92-.79-2.05-.79-3.4v-.07c0-1.24.23-2.37.71-3.41a7.784 7.784 0 0 1 2.09-2.7c.92-.75 2.02-1.33 3.3-1.75 1.29-.4 2.75-.62 4.38-.62 2.31 0 4.39.3 6.21.9 1.82.58 3.46 1.45 4.93 2.61l-3.76 5.18c-1.23-.86-2.5-1.52-3.8-1.95-1.31-.43-2.56-.65-3.77-.65-.91 0-1.59.16-2.04.49-.46.32-.68.73-.68 1.21v.07c0 .3.07.57.21.79.15.23.39.43.75.63.34.18.82.37 1.42.56.62.2 1.38.39 2.3.59 1.55.32 2.95.71 4.21 1.14 1.26.44 2.32.98 3.19 1.61.87.63 1.54 1.39 2.01 2.29.47.89.7 1.95.7 3.19v.08c0 1.36-.26 2.58-.79 3.63a7.872 7.872 0 0 1-2.23 2.68c-.96.75-2.11 1.32-3.45 1.71-1.34.4-2.84.6-4.48.6-2.43 0-4.74-.37-6.91-1.1-2.17-.74-4.11-1.83-5.79-3.29zM153.25 0H200v5.66h-39.97l-.92 2.72h-5.86V0z" style="fill:#313846"/></svg>