<svg xmlns="http://www.w3.org/2000/svg" xml:space="preserve" width="202" height="56" style="shape-rendering:geometricPrecision;text-rendering:geometricPrecision;image-rendering:optimizeQuality;fill-rule:evenodd;clip-rule:evenodd" viewBox="0 0 202 56.12"><path d="M1.2 38.91.15 30.68h19.1v-7.97H9.59C4.3 22.71 0 18.41 0 13.12V9.59C0 4.3 4.3 0 9.59 0h16.85l1.06 8.23H9.52v6.28h9.66c5.29 0 9.59 4.3 9.59 9.59v5.22c0 5.29-4.3 9.59-9.59 9.59H1.2zM55.93 53.8c0-2.66-3.78-1.82-3.78-3.33 0-.62.44-.91 1.02-.89.63.01 1.02.4 1.05.9h1.63c-.09-1.37-1.13-2.16-2.64-2.16-1.52 0-2.6.82-2.6 2.19-.01 2.74 3.79 1.75 3.79 3.39 0 .54-.41.92-1.11.92-.68 0-1.07-.4-1.11-1.01h-1.59c.02 1.43 1.21 2.26 2.74 2.26 1.68 0 2.6-1.08 2.6-2.27zm4.21 2.19h1.48v-7.56h-1.48v7.56zm5.48-6.34h1.96v6.34h1.48v-6.34h1.96v-1.22h-5.4v1.22zm13.68-1.23h-4.27v7.57h4.27v-1.23h-2.79v-2.01h2.48v-1.2h-2.48v-1.9h2.79v-1.23zm9.43 5.38c0-2.66-3.78-1.82-3.78-3.33 0-.62.43-.91 1.01-.89.63.01 1.03.4 1.06.9h1.62c-.09-1.37-1.13-2.16-2.64-2.16-1.52 0-2.59.82-2.59 2.19-.01 2.74 3.79 1.75 3.79 3.39 0 .54-.42.92-1.11.92-.69 0-1.08-.4-1.12-1.01h-1.59c.03 1.43 1.21 2.26 2.74 2.26 1.68 0 2.61-1.08 2.61-2.27zm11.66-3.62c.05-1.04-.67-1.91-2.05-1.91-1.35 0-2.16.8-2.16 1.83 0 .5.14.91.53 1.39-1.08.5-1.62 1.34-1.62 2.31 0 1.41 1.08 2.32 2.72 2.32 1.01 0 1.82-.31 2.5-.94l.81.81h1.81l-1.78-1.81c.16-.25.3-.51.45-.8l.74-1.33h-1.54l-.6 1.03c-.02.03-.03.06-.05.08l-1.86-1.88c-.47-.5-.68-.83-.68-1.19 0-.37.29-.64.69-.64.39 0 .67.25.65.73h1.44zm-2.54 4.68c-.8 0-1.3-.51-1.3-1.14 0-.56.32-1.01 1.02-1.33l1.82 1.85c-.44.41-.93.62-1.54.62zm15.89 1.13h1.48v-7.56h-1.48v3.11h-3.16v-3.11h-1.48v7.56h1.48v-3.22h3.16v3.22zm13.05-3.8c0-2.27-1.66-3.87-3.76-3.87-2.09 0-3.78 1.6-3.78 3.87s1.69 3.88 3.78 3.88 3.76-1.61 3.76-3.88zm-6.02 0c0-1.54.91-2.5 2.26-2.5 1.33 0 2.24.96 2.24 2.5s-.91 2.52-2.24 2.52c-1.35 0-2.26-.98-2.26-2.52zm9.66-2.54h1.97v6.34h1.47v-6.34h1.97v-1.22h-5.41v1.22zM145 53.8c0-2.66-3.78-1.82-3.78-3.33 0-.62.43-.91 1.01-.89.63.01 1.02.4 1.06.9h1.62c-.09-1.37-1.13-2.16-2.64-2.16-1.52 0-2.6.82-2.6 2.19-.01 2.74 3.8 1.75 3.8 3.39 0 .54-.42.92-1.11.92-.69 0-1.08-.4-1.12-1.01h-1.59c.02 1.43 1.21 2.26 2.74 2.26 1.68 0 2.61-1.08 2.61-2.27zm4.2 2.19h1.48v-7.56h-1.48v7.56zm5.48-6.34h1.96v6.34h1.48v-6.34h1.96v-1.22h-5.4v1.22zm13.69-1.23h-4.28v7.57h4.28v-1.23h-2.8v-2.01h2.48v-1.2h-2.48v-1.9h2.8v-1.23zm9.42 5.38c0-2.66-3.78-1.82-3.78-3.33 0-.62.43-.91 1.01-.89.64.01 1.03.4 1.06.9h1.62c-.09-1.37-1.13-2.16-2.64-2.16-1.52 0-2.59.82-2.59 2.19-.01 2.74 3.79 1.75 3.79 3.39 0 .54-.41.92-1.11.92-.69 0-1.08-.4-1.12-1.01h-1.58c.02 1.43 1.2 2.26 2.73 2.26 1.68 0 2.61-1.08 2.61-2.27zm14.69-23.12H177.7V8.23h14.78v22.45zM192.41 0h-14.64c-5.29 0-9.59 4.3-9.59 9.59v19.73c0 5.29 4.3 9.59 9.59 9.59h14.64c5.29 0 9.59-4.3 9.59-9.59V9.59C202 4.3 197.7 0 192.41 0zm-77.26 0h-7.13l-1.06 8.23h8.26v30.68h9.53V9.59c0-5.29-4.31-9.59-9.6-9.59zM92.68 30.7h-13.7V8.23h9.7v6.25h-4.35l-1.06 8.23h9.41v7.99zm5.09-14.71c.28-.9.44-1.87.44-2.87V9.59C98.21 4.3 93.9 0 88.61 0H69.46v38.91h23.15c5.3 0 9.59-4.3 9.59-9.59v-5.24c0-3.4-1.77-6.38-4.43-8.09zm56.04 14.69h-14.78V8.23h14.78v22.45zM153.74 0H139.1c-5.29 0-9.59 4.3-9.59 9.59v19.73c0 5.29 4.3 9.59 9.59 9.59h14.64c5.29 0 9.59-4.3 9.59-9.59V9.59c0-5.29-4.3-9.59-9.59-9.59zM43.13 38.91c-5.29 0-9.59-4.3-9.59-9.59V0h9.52v30.68h12.11V0h9.52v29.32c0 5.29-4.3 9.59-9.59 9.59H43.13z" style="fill:#686af1;fill-rule:nonzero"/></svg>