<svg xmlns="http://www.w3.org/2000/svg" xml:space="preserve" width="200" height="56" style="shape-rendering:geometricPrecision;text-rendering:geometricPrecision;image-rendering:optimizeQuality;fill-rule:evenodd;clip-rule:evenodd" viewBox="0 0 200 55.51"><path d="M1.19 38.52.14 30.38h18.92v-7.89H9.5c-5.24 0-9.5-4.26-9.5-9.5V9.5C0 4.26 4.26 0 9.5 0h16.68l1.05 8.14H9.43v6.22h9.56c5.24 0 9.5 4.26 9.5 9.5v5.17c0 5.23-4.26 9.49-9.5 9.49H1.19zm89.78 9.43h-2.55v7.49h2.55c2.33 0 3.85-1.47 3.85-3.74 0-2.27-1.52-3.75-3.85-3.75zm-1.09 6.21v-4.95h1.04c1.54 0 2.4.94 2.4 2.49 0 1.56-.86 2.46-2.4 2.46h-1.04zm13.89 1.28h1.55l-2.63-7.5h-1.7l-2.62 7.5h1.53l.48-1.43h2.91l.48 1.43zm-.88-2.63h-2.11l1.06-3.13 1.05 3.13zm11.41.46c0-2.64-3.74-1.8-3.74-3.3 0-.62.43-.91 1-.88.63.01 1.02.39 1.05.89h1.61c-.1-1.35-1.12-2.14-2.61-2.14-1.51 0-2.58.82-2.58 2.17-.01 2.71 3.76 1.74 3.76 3.35 0 .54-.41.92-1.1.92-.68 0-1.07-.4-1.11-1h-1.57c.02 1.41 1.19 2.23 2.71 2.23 1.66 0 2.58-1.06 2.58-2.24zm8.76 2.17h1.46v-7.49h-1.46v3.08h-3.13v-3.08h-1.46v7.49h1.46v-3.19h3.13v3.19zm9.87-2.21c0 .63-.42.98-1.13.98h-1.47V52.2h1.44c.71 0 1.16.38 1.16 1.03zm-.18-3.12c0 .61-.39.93-1.08.93h-1.34v-1.88h1.34c.69 0 1.08.34 1.08.95zm1.67 3.3c0-.88-.59-1.66-1.42-1.81.71-.24 1.25-.81 1.25-1.72 0-1.12-.85-1.93-2.38-1.93h-3.01v7.49h3.15c1.52 0 2.41-.84 2.41-2.03zm11.19-1.74c0-2.24-1.66-3.83-3.74-3.83-2.06 0-3.74 1.59-3.74 3.83 0 2.25 1.68 3.84 3.74 3.84 2.07 0 3.74-1.59 3.74-3.84zm-5.97 0c0-1.52.91-2.48 2.23-2.48 1.32 0 2.23.96 2.23 2.48s-.91 2.5-2.23 2.5c-1.32 0-2.23-.98-2.23-2.5zm14.91 3.77h1.55l-2.63-7.5h-1.7l-2.63 7.5h1.54l.48-1.43h2.91l.48 1.43zm-.88-2.63h-2.11l1.05-3.13 1.06 3.13zm10.18-2.53c0 .67-.37 1.11-1.18 1.11h-1.23v-2.2h1.23c.81 0 1.18.42 1.18 1.09zm-3.87-2.33v7.49h1.46v-2.92h.69l1.61 2.92h1.7l-1.75-3.04c1.17-.32 1.66-1.24 1.66-2.16 0-1.25-.88-2.29-2.63-2.29h-2.74zm12.15 0h-2.55v7.49h2.55c2.33 0 3.85-1.47 3.85-3.74 0-2.27-1.52-3.75-3.85-3.75zm-1.09 6.21v-4.95h1.04c1.54 0 2.4.94 2.4 2.49 0 1.56-.86 2.46-2.4 2.46h-1.04zm19.53-23.78h-14.63V8.14h14.63v22.24zM190.5 0h-14.49c-5.24 0-9.5 4.26-9.5 9.5v19.53c0 5.23 4.26 9.49 9.5 9.49h14.49c5.24 0 9.5-4.26 9.5-9.49V9.5c0-5.24-4.26-9.5-9.5-9.5zm-76.49 0h-7.06l-1.04 8.14h8.17v30.38h9.43V9.5c0-5.24-4.26-9.5-9.5-9.5zM91.76 30.4H78.2V8.14h9.61v6.2h-4.32l-1.04 8.15h9.31v7.91zm5.04-14.56c.28-.9.44-1.86.44-2.85V9.5c0-5.24-4.27-9.5-9.5-9.5H68.77v38.52h22.92c5.25 0 9.5-4.25 9.5-9.49v-5.19a9.46 9.46 0 0 0-4.39-8zm55.49 14.54h-14.64V8.14h14.64v22.24zM152.22 0h-14.5c-5.23 0-9.49 4.26-9.49 9.5v19.53c0 5.23 4.26 9.49 9.49 9.49h14.5c5.23 0 9.49-4.26 9.49-9.49V9.5c0-5.24-4.26-9.5-9.49-9.5zM42.7 38.52c-5.24 0-9.5-4.26-9.5-9.49V0h9.43v30.38h12V0h9.42v29.03c0 5.23-4.26 9.49-9.49 9.49H42.7z" style="fill:#686af1;fill-rule:nonzero"/></svg>