<svg xmlns="http://www.w3.org/2000/svg" xml:space="preserve" width="394.484" height="396.707" style="shape-rendering:geometricPrecision;text-rendering:geometricPrecision;image-rendering:optimizeQuality;fill-rule:evenodd;clip-rule:evenodd" viewBox="0 0 10437.44 10496.22"><path d="M7273.56 10337.66c852.09 464.78 2679.84-56.69 3042.7-2037.3 373.1-2036.43-687.91-2090.19-502.71-2831.03 743.28-1103.71 875.8-2512.25 105.84-3360.2C8014.4 124.76 7538.15 2506.01 5950.66 1050.8 5308.86 409.01 4336.7-351.48 2934.42 177.68 951.81 925.83 1426.3 2487.21 1426.3 3617.25c0 397.88-1263.79 1145.86-1402.28 2169.58-174.64 1290.79 635 2989.78 1402.28 3571.87 1217.08 1375.82 3095.62 1058.33 3942.27 582.07 727.01-408.94 1322.91 79.38 1904.99 396.88v.01z" style="fill:#c8c5e2;fill-rule:nonzero"/></svg>