<svg xmlns="http://www.w3.org/2000/svg" xml:space="preserve" width="160px" height="44px" version="1.1" style="shape-rendering:geometricPrecision; text-rendering:geometricPrecision; image-rendering:optimizeQuality; fill-rule:evenodd; clip-rule:evenodd" viewBox="0 0 160 44"><defs><style type="text/css"><![CDATA[.fil0 {fill:#FEFEFE;fill-rule:nonzero}]]></style></defs><g><path class="fil0" d="M0.95 30.82l-0.84 -6.52 15.14 0 0 -6.31 -7.65 0c-4.19,0 -7.6,-3.41 -7.6,-7.6l0 -2.79c0,-4.19 3.41,-7.6 7.6,-7.6l13.35 0 0.83 6.52 -14.24 0 0 4.97 7.65 0c4.19,0 7.6,3.41 7.6,7.6l0 4.13c0,4.19 -3.41,7.6 -7.6,7.6l-14.24 0zm60.3 13.12l1.17 0 0 -5.99 -1.17 0 0 5.99zm4.64 0l1.17 0 0 -3.9 1.57 3.9 0.89 0 1.56 -3.9 0 3.9 1.17 0 0 -5.99 -1.32 0 -1.85 4.45 -1.86 -4.45 -1.33 0 0 5.99zm15.53 -3.01c0,-1.8 -1.32,-3.07 -2.98,-3.07 -1.65,0 -3,1.27 -3,3.07 0,1.8 1.35,3.07 3,3.07 1.65,0 2.98,-1.27 2.98,-3.07zm-4.77 0c0,-1.22 0.73,-1.98 1.79,-1.98 1.05,0 1.78,0.76 1.78,1.98 0,1.22 -0.73,2 -1.78,2 -1.06,0 -1.79,-0.78 -1.79,-2zm11.22 1.24c0,0.51 -0.34,0.79 -0.91,0.79l-1.17 0 0 -1.61 1.15 0c0.57,0 0.93,0.31 0.93,0.82zm-0.14 -2.5c0,0.49 -0.32,0.75 -0.87,0.75l-1.07 0 0 -1.5 1.07 0c0.55,0 0.87,0.27 0.87,0.75zm1.33 2.65c0,-0.71 -0.47,-1.33 -1.13,-1.45 0.57,-0.19 0.99,-0.65 0.99,-1.37 0,-0.9 -0.68,-1.55 -1.9,-1.55l-2.41 0 0 5.99 2.52 0c1.21,0 1.93,-0.67 1.93,-1.62zm3.25 1.62l1.17 0 0 -5.99 -1.17 0 0 5.99zm4.65 -5.99l0 5.99 3.09 0 0 -0.95 -1.92 0 0 -5.04 -1.17 0zm6.16 5.99l1.17 0 0 -5.99 -1.17 0 0 5.99zm8.61 0l1.23 0 -2.09 -6 -1.37 0 -2.1 6 1.23 0 0.39 -1.14 2.32 0 0.39 1.14zm-2.56 -7.19l0 0.86 1.92 -0.9 0 -0.98 -1.92 1.02zm1.85 5.09l-1.68 0 0.84 -2.51 0.84 2.51zm8.15 -2.03c0,0.54 -0.3,0.89 -0.95,0.89l-0.98 0 0 -1.75 0.98 0c0.65,0 0.95,0.33 0.95,0.86zm-3.1 -1.86l0 5.99 1.17 0 0 -2.33 0.55 0 1.29 2.33 1.36 0 -1.4 -2.43c0.94,-0.26 1.33,-0.99 1.33,-1.72 0,-1.01 -0.7,-1.84 -2.11,-1.84l-2.19 0zm7.68 5.99l1.17 0 0 -5.99 -1.17 0 0 5.99zm8.61 0l1.24 0 -2.1 -6 -1.36 0 -2.1 6 1.23 0 0.38 -1.14 2.33 0 0.38 1.14zm-0.7 -2.1l-1.69 0 0.84 -2.51 0.85 2.51zm9.13 0.37c0,-2.11 -3,-1.45 -3,-2.65 0,-0.49 0.35,-0.72 0.81,-0.7 0.5,0.01 0.81,0.32 0.83,0.71l1.29 0c-0.07,-1.08 -0.89,-1.71 -2.09,-1.71 -1.2,0 -2.06,0.66 -2.06,1.74 -0.01,2.17 3.01,1.39 3.01,2.68 0,0.43 -0.33,0.73 -0.88,0.73 -0.55,0 -0.86,-0.32 -0.89,-0.8l-1.25 0c0.01,1.14 0.95,1.79 2.16,1.79 1.33,0 2.07,-0.85 2.07,-1.79zm11.67 -17.91l-11.71 0 0 -17.78 11.71 0 0 17.78zm-0.06 -24.3l-11.59 0c-4.19,0 -7.6,3.41 -7.6,7.6l0 15.62c0,4.19 3.41,7.6 7.6,7.6l11.59 0c4.19,0 7.6,-3.41 7.6,-7.6l0 -15.62c0,-4.19 -3.41,-7.6 -7.6,-7.6zm-61.19 0l-5.65 0 -0.84 6.52 6.55 0 0 24.3 7.54 0 0 -23.22c0,-4.19 -3.41,-7.6 -7.6,-7.6zm-17.8 24.32l-10.85 0 0 -17.8 7.69 0 0 4.95 -3.45 0 -0.84 6.52 7.45 0 0 6.33zm4.03 -11.65c0.22,-0.72 0.35,-1.48 0.35,-2.28l0 -2.79c0,-4.19 -3.41,-7.6 -7.6,-7.6l-7.63 0 -7.55 0 0 30.82 18.35 0c4.19,0 7.59,-3.4 7.59,-7.6l0 -4.15c0,-2.69 -1.4,-5.05 -3.51,-6.4zm44.39 11.63l-11.71 0 0 -17.78 11.71 0 0 17.78zm-0.06 -24.3l-11.59 0c-4.19,0 -7.6,3.41 -7.6,7.6l0 15.62c0,4.19 3.41,7.6 7.6,7.6l11.59 0c4.19,0 7.6,-3.41 7.6,-7.6l0 -15.62c0,-4.19 -3.41,-7.6 -7.6,-7.6zm-87.61 30.82c-4.19,0 -7.6,-3.41 -7.6,-7.6l0 -23.22 7.54 0 0 24.3 9.6 0 0 -24.3 7.54 0 0 23.22c0,4.19 -3.41,7.6 -7.6,7.6l-9.48 0z"/></g></svg>