<svg xmlns="http://www.w3.org/2000/svg" xml:space="preserve" width="200" height="39" style="shape-rendering:geometricPrecision;text-rendering:geometricPrecision;image-rendering:optimizeQuality;fill-rule:evenodd;clip-rule:evenodd" viewBox="0 0 49.99 9.63"><path d="M.3 9.63.04 7.59h4.72V5.62H2.37C1.07 5.62 0 4.56 0 3.25v-.88C0 1.07 1.07 0 2.37 0h4.18l.26 2.04H2.36v1.55h2.39c1.31 0 2.37 1.06 2.37 2.37v1.3c0 1.3-1.06 2.37-2.37 2.37H.3zm41.32 0h8.37V8.06l-8.37.66v.91zm1.2-8.13h5.97v3.88h-5.97V1.5zm2.98 5.35-.43-.43.43-.43.43.43-.43.43zM48.01 0H43.6c-1.1 0-1.98.89-1.98 1.98v3.49c0 1.1.88 1.98 1.98 1.98h4.41c1.09 0 1.98-.88 1.98-1.98V1.98C49.99.89 49.1 0 48.01 0zm-4.59 4.77h4.77V2.11h-4.77v2.66zM28.5 0h-1.77l-.26 2.04h2.04v7.59h2.36V2.37c0-1.3-1.06-2.37-2.37-2.37zm-5.56 7.6h-3.4V2.04h2.41v1.55h-1.08l-.26 2.03h2.33V7.6zm1.25-3.64c.07-.23.11-.47.11-.71v-.88c0-1.3-1.06-2.37-2.37-2.37h-4.74v9.63h5.73c1.31 0 2.37-1.06 2.37-2.37v-1.3c0-.84-.44-1.58-1.1-2zM10.67 9.63c-1.31 0-2.37-1.07-2.37-2.37V0h2.36v7.59h2.99V0h2.36v7.26c0 1.3-1.06 2.37-2.37 2.37h-2.97z" style="fill:#686af1;fill-rule:nonzero"/><path d="m34.11 4.19-1.05-1.05 1.05-1.05 1.05 1.05-1.05 1.05zM38.44 0h-.18c-.98 0-1.81.71-1.96 1.67l-.07.42-.06-.42A1.98 1.98 0 0 0 34.21 0h-.18c-1.1 0-1.98.89-1.98 1.98v2.56c0 .51.2 1.01.56 1.38l3.62 3.71 3.63-3.71c.36-.37.56-.87.56-1.38V1.98C40.42.89 39.53 0 38.44 0z" style="fill:#1cd9a4;fill-rule:nonzero"/></svg>