<svg xmlns="http://www.w3.org/2000/svg" xml:space="preserve" width="200" height="79" style="shape-rendering:geometricPrecision;text-rendering:geometricPrecision;image-rendering:optimizeQuality;fill-rule:evenodd;clip-rule:evenodd"><path d="M107.01 70.09c2.96.99 6.08 1.47 9.37 1.47 2.24 0 4.26-.26 6.09-.77 1.82-.51 3.38-1.25 4.67-2.22 1.3-.96 2.3-2.14 3.02-3.52.73-1.37 1.08-2.94 1.08-4.73v-.09c0-1.62-.32-3.01-.95-4.18-.62-1.15-1.54-2.14-2.73-2.97-1.17-.83-2.61-1.52-4.32-2.09-1.7-.57-3.61-1.08-5.71-1.51-1.25-.25-2.3-.49-3.12-.73-.81-.24-1.47-.48-1.93-.74-.48-.24-.8-.5-1-.78-.2-.29-.3-.62-.3-1.03v-.09c0-.61.3-1.13.92-1.55.61-.41 1.53-.63 2.77-.63 1.64 0 3.33.29 5.11.86 1.76.55 3.49 1.38 5.17 2.47l5.09-6.79a21.8 21.8 0 0 0-6.7-3.52c-2.46-.8-5.28-1.2-8.4-1.2-2.22 0-4.21.27-5.94.82-1.76.54-3.25 1.3-4.5 2.29s-2.18 2.15-2.83 3.51c-.66 1.36-.97 2.83-.97 4.43v.09c0 1.78.36 3.26 1.08 4.47.72 1.21 1.69 2.2 2.93 3 1.24.8 2.7 1.45 4.38 1.97 1.68.51 3.51.97 5.48 1.38 1.25.27 2.27.54 3.05.76.8.23 1.43.49 1.9.75.46.25.8.52.96.78.16.28.26.59.26.94v.11c0 .76-.36 1.33-1.06 1.73-.71.41-1.74.59-3.11.59-4.28 0-8.25-1.34-11.92-4.06l-5.69 6.35c2.29 1.96 4.9 3.44 7.85 4.43zm-64.5-12.31 16.35 9.52 19.17-11.29-16.26-9.59-19.26 11.36zM38.93 0 19.37 10.87v33.66l19.56 11.14 19.58-11.14V10.87L38.93 0zM0 56.01l16.26-9.59 22.75 13.42 16.63 9.36L39.01 79 0 56.01zM185.86 9.37h-1.63l-7.04 15.14h1.8l1.82-3.96h8.4l1.8 3.96h1.88l-7.03-15.14zm2.66 9.65h-7.02l3.52-7.67 3.5 7.67zm-14.99-6.69v12.18h1.74V9.48h-1.76l-5.62 8.21-5.62-8.21h-1.77v15.03h1.7V12.36l5.62 8.03h.09l5.62-8.06zm-15.68-2.85h-11.16v15.03h11.26v-1.54h-9.52v-5.26h8.42v-1.55h-8.42v-5.14h9.42V9.48zm-19.13 1.57h5.18V9.48h-12.12v1.57h5.17v13.46h1.77V11.05zm-17.26 2.19c0-1.37 1.27-2.45 3.28-2.45 1.59 0 3.02.5 4.45 1.63l1.02-1.31c-1.57-1.22-3.18-1.84-5.43-1.84-2.93 0-5.07 1.72-5.07 4.12 0 2.5 1.64 3.61 5.19 4.36 3.23.67 4.01 1.46 4.01 2.88 0 1.53-1.38 2.57-3.44 2.57-2.14 0-3.69-.7-5.3-2.12l-1.07 1.25c1.85 1.61 3.86 2.4 6.3 2.4 3.07 0 5.27-1.67 5.27-4.27 0-2.32-1.59-3.54-5.03-4.27-3.39-.71-4.18-1.51-4.18-2.95zm-6.61-3.76v15.03h1.74V9.48h-1.74zm-11.57 3.76c0-1.37 1.27-2.45 3.28-2.45 1.59 0 3.02.5 4.45 1.63l1.01-1.31c-1.56-1.22-3.17-1.84-5.42-1.84-2.93 0-5.07 1.72-5.07 4.12 0 2.5 1.63 3.61 5.18 4.36 3.24.67 4.02 1.46 4.02 2.88 0 1.53-1.38 2.57-3.44 2.57-2.14 0-3.69-.7-5.3-2.12l-1.07 1.25c1.85 1.61 3.85 2.4 6.3 2.4 3.07 0 5.27-1.67 5.27-4.27 0-2.32-1.59-3.54-5.03-4.27-3.39-.71-4.18-1.51-4.18-2.95zM200 71.56v-9.21h-17.85v-26.6h-9.45v35.81H200zm-64.87-10.6c1.02 2.19 2.41 4.06 4.19 5.62 1.78 1.57 3.9 2.81 6.33 3.67 2.42.87 5.06 1.31 7.93 1.31 3.32 0 6.27-.49 8.89-1.52 2.61-1.02 4.89-2.28 6.83-3.79V51.09h-16.8v7.17h7.35v3.8c-1.54.88-3.49 1.31-5.85 1.31-1.46 0-2.8-.22-3.99-.69-1.2-.45-2.24-1.1-3.12-1.9-.88-.8-1.56-1.77-2.05-2.92-.49-1.14-.74-2.37-.74-3.71v-.1c0-1.24.25-2.42.74-3.55a9.65 9.65 0 0 1 1.98-2.89c.82-.82 1.8-1.46 2.94-1.95 1.12-.46 2.34-.7 3.68-.7 1.78 0 3.36.27 4.73.79 1.36.52 2.72 1.29 4.04 2.28l5.86-6.84a22.688 22.688 0 0 0-6.4-4c-2.33-.95-5.11-1.44-8.28-1.44-2.84 0-5.48.47-7.91 1.38-2.44.91-4.53 2.17-6.26 3.8a18.055 18.055 0 0 0-4.12 5.71c-1 2.17-1.5 4.5-1.5 7v.09c0 2.64.51 5.06 1.53 7.23z" style="fill:#1fac94"/></svg>