<svg xmlns="http://www.w3.org/2000/svg" xml:space="preserve" width="540" height="300" style="shape-rendering:geometricPrecision;text-rendering:geometricPrecision;image-rendering:optimizeQuality;fill-rule:evenodd;clip-rule:evenodd"><defs><style>.fil2,.fil3{fill:#00d29b}.fil3{fill-rule:nonzero}</style></defs><g id="Camada_x0020_1"><g id="_1601823654640"><path d="M463.04 285.1c-.04-1.06-.11-2.13-.12-2.61 0-.16-.01-.33-.02-.5.23.88.44 1.63.53 1.92-.07.38-.2.78-.39 1.19zM56.74 103.92c1.39 0 2.6.27 3.65.8 1.04.53 1.84 1.29 2.41 2.29.57.99.86 2.15.86 3.48 0 1.32-.29 2.47-.86 3.45-.57.97-1.37 1.72-2.41 2.24-1.05.52-2.26.78-3.65.78h-4.26v-13.04h4.26zm0 11.29c1.52 0 2.69-.41 3.5-1.24.82-.82 1.22-1.98 1.22-3.48 0-1.52-.4-2.7-1.22-3.55-.81-.85-1.98-1.27-3.5-1.27h-2.12v9.54h2.12zm18.5-3.67c0 .38-.02.73-.07 1.05h-7.89c.06.82.36 1.48.91 1.98s1.23.75 2.03.75c1.15 0 1.96-.48 2.44-1.44h2.3a4.64 4.64 0 0 1-1.69 2.33c-.82.61-1.84.91-3.05.91-.99 0-1.87-.22-2.65-.66a4.69 4.69 0 0 1-1.84-1.88c-.45-.8-.67-1.74-.67-2.8 0-1.06.22-2 .65-2.8.43-.81 1.04-1.43 1.82-1.87.78-.44 1.68-.65 2.69-.65.97 0 1.84.21 2.61.63.76.43 1.35 1.02 1.78 1.79.42.77.63 1.66.63 2.66zm-2.23-.68c-.01-.79-.29-1.42-.84-1.89-.55-.48-1.23-.71-2.04-.71-.74 0-1.37.23-1.9.7-.52.47-.84 1.1-.94 1.9h5.72zm8.08 6.26c-.81 0-1.54-.14-2.18-.44-.64-.29-1.15-.69-1.53-1.2a3.04 3.04 0 0 1-.6-1.69h2.21c.04.43.25.8.63 1.09.38.3.86.44 1.44.44.6 0 1.06-.11 1.39-.34.33-.23.5-.53.5-.89 0-.39-.18-.68-.55-.87-.37-.18-.96-.39-1.76-.61-.77-.22-1.4-.42-1.89-.62s-.91-.51-1.26-.92c-.36-.41-.54-.96-.54-1.63 0-.55.16-1.06.49-1.51.32-.46.79-.82 1.4-1.08.6-.26 1.3-.39 2.09-.39 1.17 0 2.12.29 2.84.89.71.59 1.1 1.4 1.15 2.42h-2.14c-.04-.46-.22-.83-.56-1.1-.34-.28-.79-.41-1.37-.41-.56 0-.99.1-1.29.31-.3.22-.45.5-.45.85 0 .27.1.5.3.69.2.19.44.34.73.44.28.11.71.24 1.27.41.75.19 1.37.4 1.85.6.48.21.9.51 1.25.91s.53.93.54 1.6c0 .59-.16 1.11-.49 1.57-.32.46-.78.83-1.37 1.09-.6.26-1.3.39-2.1.39zm5.55-5.34c0-1.06.22-2 .65-2.8.43-.81 1.03-1.43 1.79-1.87.76-.44 1.64-.65 2.63-.65 1.25 0 2.28.29 3.1.89.82.59 1.37 1.44 1.66 2.54h-2.31c-.18-.52-.48-.92-.9-1.2-.41-.29-.93-.43-1.55-.43-.88 0-1.58.3-2.09.92-.52.62-.78 1.49-.78 2.6s.26 1.98.78 2.61c.51.62 1.21.93 2.09.93 1.23 0 2.05-.54 2.45-1.63h2.31c-.3 1.05-.86 1.89-1.69 2.51-.82.61-1.85.92-3.07.92-.99 0-1.87-.22-2.63-.66a4.701 4.701 0 0 1-1.79-1.88c-.43-.8-.65-1.74-.65-2.8zm21.32-5.16v10.34h-2.13v-1.22c-.34.42-.78.76-1.33 1-.54.24-1.12.37-1.73.37-.81 0-1.54-.17-2.19-.51-.64-.34-1.15-.84-1.51-1.5-.37-.66-.56-1.46-.56-2.4v-6.08h2.12v5.76c0 .93.23 1.63.7 2.13.46.49 1.09.74 1.89.74.8 0 1.43-.25 1.9-.74.47-.5.71-1.2.71-2.13v-5.76h2.13zm4.95 1.54c.36-.5.86-.91 1.49-1.23.63-.32 1.34-.47 2.11-.47.92 0 1.74.21 2.48.65.73.44 1.32 1.06 1.74 1.87.43.8.64 1.72.64 2.76 0 1.04-.21 1.97-.64 2.79-.42.82-1.01 1.45-1.75 1.91-.75.46-1.57.68-2.47.68-.8 0-1.51-.15-2.12-.46-.62-.32-1.12-.72-1.48-1.2v1.5h-2.13v-13.88h2.13v5.08zm6.28 3.58c0-.71-.14-1.33-.44-1.84-.29-.52-.68-.92-1.16-1.19-.48-.26-1-.4-1.55-.4-.53 0-1.04.14-1.52.41-.49.28-.87.68-1.17 1.2-.29.53-.44 1.15-.44 1.86 0 .71.15 1.33.44 1.87.3.53.68.93 1.17 1.21.48.27.99.41 1.52.41.55 0 1.07-.14 1.55-.42.48-.29.87-.7 1.16-1.23.3-.54.44-1.16.44-1.88zm6.43-3.62c.32-.52.73-.93 1.25-1.22.52-.3 1.14-.44 1.85-.44v2.21h-.55c-.83 0-1.47.21-1.9.64-.43.42-.65 1.16-.65 2.21v5.44h-2.13v-10.34h2.13v1.5zm4.35 3.62c0-1.04.22-1.95.65-2.75.43-.8 1.02-1.43 1.76-1.87.75-.44 1.57-.66 2.47-.66.81 0 1.52.15 2.13.47.6.32 1.09.72 1.45 1.19v-1.5h2.16v10.34h-2.16v-1.54c-.36.49-.86.89-1.48 1.22-.62.32-1.34.48-2.14.48-.88 0-1.7-.22-2.44-.68a4.902 4.902 0 0 1-1.75-1.91c-.43-.82-.65-1.75-.65-2.79zm8.46.04c0-.71-.15-1.33-.44-1.86-.29-.52-.68-.92-1.15-1.2-.48-.27-.99-.41-1.54-.41s-1.06.14-1.54.4c-.47.27-.86.67-1.15 1.19-.29.51-.44 1.13-.44 1.84 0 .72.15 1.34.44 1.88.29.53.68.94 1.16 1.23.48.28.99.42 1.53.42.55 0 1.06-.14 1.54-.41.47-.28.86-.68 1.15-1.21.29-.54.44-1.16.44-1.87zm9.13-.04c0-1.04.22-1.95.65-2.75.43-.8 1.02-1.43 1.76-1.87.75-.44 1.57-.66 2.47-.66.81 0 1.52.15 2.13.47.6.32 1.09.72 1.45 1.19v-1.5h2.16v10.34h-2.16v-1.54c-.36.49-.86.89-1.48 1.22-.63.32-1.34.48-2.14.48-.89 0-1.7-.22-2.44-.68a4.902 4.902 0 0 1-1.75-1.91c-.43-.82-.65-1.75-.65-2.79zm8.46.04c0-.71-.15-1.33-.44-1.86-.3-.52-.68-.92-1.15-1.2-.48-.27-.99-.41-1.54-.41s-1.07.14-1.54.4c-.47.27-.86.67-1.15 1.19-.3.51-.44 1.13-.44 1.84 0 .72.14 1.34.44 1.88.29.53.68.94 1.16 1.23.48.28.99.42 1.53.42.55 0 1.06-.14 1.54-.41.47-.28.85-.68 1.15-1.21.29-.54.44-1.16.44-1.87zm9.13-5.32c.8 0 1.51.15 2.13.47.62.32 1.1.72 1.45 1.19v-1.5h2.16v10.5c0 .95-.2 1.8-.6 2.54-.4.75-.98 1.33-1.74 1.76-.75.42-1.66.64-2.71.64-1.4 0-2.56-.33-3.48-.99-.93-.66-1.45-1.55-1.58-2.67h2.12c.16.54.51.97 1.04 1.3.53.33 1.17.5 1.9.5.87 0 1.56-.26 2.09-.79.54-.52.8-1.29.8-2.29v-1.72c-.36.49-.85.9-1.47 1.23-.62.33-1.32.49-2.11.49-.9 0-1.72-.22-2.47-.68a4.852 4.852 0 0 1-1.76-1.91c-.43-.82-.65-1.75-.65-2.79s.22-1.95.65-2.75c.43-.8 1.02-1.43 1.76-1.87.75-.44 1.57-.66 2.47-.66zm3.58 5.32c0-.71-.15-1.33-.44-1.86-.29-.52-.68-.92-1.15-1.2-.48-.27-.99-.41-1.54-.41s-1.06.14-1.54.4c-.47.27-.86.67-1.15 1.19-.29.51-.44 1.13-.44 1.84 0 .72.15 1.34.44 1.88.29.53.68.94 1.16 1.23.48.28.99.42 1.53.42.55 0 1.06-.14 1.54-.41.47-.28.86-.68 1.15-1.21.29-.54.44-1.16.44-1.87zm9.45 5.34c-.97 0-1.86-.22-2.64-.66a4.803 4.803 0 0 1-1.86-1.88c-.45-.8-.67-1.74-.67-2.8 0-1.05.23-1.98.69-2.79.46-.82 1.09-1.44 1.89-1.88.8-.44 1.7-.65 2.68-.65.99 0 1.89.21 2.69.65.8.44 1.43 1.06 1.89 1.88.46.81.69 1.74.69 2.79s-.23 1.98-.71 2.79c-.47.82-1.12 1.44-1.94 1.89-.82.44-1.72.66-2.71.66zm0-1.85c.55 0 1.07-.13 1.55-.4.48-.26.87-.65 1.17-1.18.3-.52.45-1.16.45-1.91s-.14-1.38-.43-1.9-.67-.91-1.15-1.17c-.47-.27-.98-.4-1.53-.4s-1.06.13-1.53.4c-.47.26-.84.65-1.12 1.17-.27.52-.41 1.15-.41 1.9 0 1.11.29 1.97.85 2.58.57.6 1.29.91 2.15.91zm9.62-7.15c.31-.52.73-.93 1.25-1.22.51-.3 1.13-.44 1.84-.44v2.21h-.54c-.84 0-1.47.21-1.9.64-.44.42-.65 1.16-.65 2.21v5.44h-2.14v-10.34h2.14v1.5zm4.35 3.62c0-1.04.21-1.95.65-2.75.43-.8 1.02-1.43 1.76-1.87.74-.44 1.56-.66 2.46-.66.82 0 1.53.15 2.13.47.61.32 1.09.72 1.46 1.19v-1.5h2.15v10.34h-2.15v-1.54c-.37.49-.86.89-1.49 1.22-.62.32-1.33.48-2.13.48-.89 0-1.7-.22-2.44-.68-.74-.46-1.32-1.09-1.75-1.91-.44-.82-.65-1.75-.65-2.79zm8.46.04c0-.71-.15-1.33-.45-1.86-.29-.52-.67-.92-1.15-1.2a3.118 3.118 0 0 0-3.07-.01c-.48.27-.86.67-1.16 1.19-.29.51-.44 1.13-.44 1.84 0 .72.15 1.34.44 1.88.3.53.69.94 1.17 1.23.48.28.99.42 1.52.42.55 0 1.07-.14 1.54-.41.48-.28.86-.68 1.15-1.21.3-.54.45-1.16.45-1.87zm9.13-.04c0-1.04.21-1.95.64-2.75.43-.8 1.02-1.43 1.77-1.87.74-.44 1.56-.66 2.46-.66.81 0 1.52.15 2.13.47.61.32 1.09.72 1.45 1.19v-1.5h2.16v10.34h-2.16v-1.54c-.36.49-.85.89-1.48 1.22-.62.32-1.34.48-2.14.48-.88 0-1.7-.22-2.43-.68a4.852 4.852 0 0 1-1.76-1.91c-.43-.82-.64-1.75-.64-2.79zm8.45.04c0-.71-.14-1.33-.44-1.86-.29-.52-.68-.92-1.15-1.2-.48-.27-.99-.41-1.54-.41s-1.06.14-1.54.4c-.47.27-.85.67-1.15 1.19-.29.51-.44 1.13-.44 1.84 0 .72.15 1.34.44 1.88.3.53.68.94 1.16 1.23.49.28.99.42 1.53.42.55 0 1.06-.14 1.54-.41.47-.28.86-.68 1.15-1.21.3-.54.44-1.16.44-1.87zm8.72 5.34c-.81 0-1.54-.14-2.18-.44-.65-.29-1.16-.69-1.53-1.2-.38-.5-.58-1.07-.6-1.69h2.21c.04.43.25.8.63 1.09.38.3.86.44 1.43.44.6 0 1.07-.11 1.4-.34.33-.23.5-.53.5-.89 0-.39-.19-.68-.56-.87-.36-.18-.95-.39-1.75-.61-.77-.22-1.4-.42-1.89-.62s-.91-.51-1.27-.92c-.35-.41-.53-.96-.53-1.63 0-.55.16-1.06.49-1.51.32-.46.79-.82 1.39-1.08.61-.26 1.31-.39 2.09-.39 1.18 0 2.12.29 2.84.89.72.59 1.11 1.4 1.16 2.42h-2.14c-.04-.46-.23-.83-.56-1.1-.34-.28-.8-.41-1.37-.41-.56 0-1 .1-1.3.31-.3.22-.45.5-.45.85 0 .27.1.5.3.69.2.19.45.34.74.44.28.11.71.24 1.27.41.75.19 1.37.4 1.85.6.48.21.89.51 1.24.91s.54.93.55 1.6c0 .59-.16 1.11-.49 1.57-.32.46-.78.83-1.38 1.09-.59.26-1.29.39-2.09.39zm13.28-8.98c.36-.47.85-.87 1.48-1.2.62-.32 1.33-.48 2.12-.48.9 0 1.72.22 2.46.66.75.44 1.33 1.07 1.76 1.87.42.8.63 1.71.63 2.75s-.21 1.97-.63 2.79c-.43.82-1.01 1.45-1.76 1.91-.74.46-1.56.68-2.46.68-.79 0-1.49-.16-2.1-.47-.62-.32-1.12-.72-1.5-1.19v6.41h-2.14v-15.25h2.14v1.52zm6.28 3.6c0-.71-.15-1.33-.44-1.84-.3-.52-.68-.92-1.17-1.19-.48-.26-.99-.4-1.54-.4-.54 0-1.05.14-1.53.41-.48.28-.87.68-1.16 1.2-.3.53-.44 1.15-.44 1.86 0 .71.14 1.33.44 1.87.29.53.68.93 1.16 1.21.48.27.99.41 1.53.41.55 0 1.06-.14 1.54-.42.49-.29.87-.7 1.17-1.23.29-.54.44-1.16.44-1.88zm6.43-3.62c.31-.52.73-.93 1.25-1.22.51-.3 1.13-.44 1.84-.44v2.21h-.54c-.84 0-1.47.21-1.9.64-.44.42-.65 1.16-.65 2.21v5.44h-2.14v-10.34h2.14v1.5zm6.15-2.86c-.39 0-.71-.14-.98-.4-.26-.26-.39-.59-.39-.97 0-.39.13-.72.39-.98.27-.26.59-.39.98-.39a1.334 1.334 0 0 1 1.35 1.37 1.347 1.347 0 0 1-1.35 1.37zm1.05 1.36v10.34h-2.14v-10.34h2.14zm8.02-.16c.82 0 1.54.16 2.19.5.64.34 1.15.84 1.51 1.5.36.66.54 1.46.54 2.4v6.1h-2.12v-5.78c0-.93-.23-1.63-.69-2.13-.46-.49-1.09-.74-1.89-.74-.8 0-1.44.25-1.91.74-.47.5-.7 1.2-.7 2.13v5.78h-2.14v-10.34h2.14v1.19c.35-.43.8-.76 1.34-1s1.12-.35 1.73-.35zm6.25 5.32c0-1.06.21-2 .64-2.8.44-.81 1.03-1.43 1.8-1.87.76-.44 1.63-.65 2.62-.65 1.25 0 2.29.29 3.1.89.82.59 1.38 1.44 1.66 2.54h-2.3c-.19-.52-.49-.92-.9-1.2-.42-.29-.93-.43-1.56-.43-.87 0-1.57.3-2.09.92-.52.62-.78 1.49-.78 2.6s.26 1.98.78 2.61c.52.62 1.22.93 2.09.93 1.24 0 2.06-.54 2.46-1.63h2.3c-.3 1.05-.86 1.89-1.68 2.51-.83.61-1.85.92-3.08.92-.99 0-1.86-.22-2.62-.66a4.725 4.725 0 0 1-1.8-1.88c-.43-.8-.64-1.74-.64-2.8zm13.05-6.52c-.39 0-.71-.14-.98-.4-.26-.26-.39-.59-.39-.97 0-.39.13-.72.39-.98.27-.26.59-.39.98-.39.37 0 .69.13.95.39.27.26.4.59.4.98 0 .38-.13.71-.4.97-.26.26-.58.4-.95.4zm1.05 1.36v10.34h-2.14v-10.34h2.14zm4.95 1.52c.36-.47.85-.87 1.48-1.2.62-.32 1.33-.48 2.12-.48.9 0 1.72.22 2.46.66.75.44 1.33 1.07 1.76 1.87.42.8.63 1.71.63 2.75s-.21 1.97-.63 2.79c-.43.82-1.01 1.45-1.76 1.91-.74.46-1.56.68-2.46.68-.79 0-1.49-.16-2.1-.47a4.85 4.85 0 0 1-1.5-1.19v6.41h-2.14v-15.25h2.14v1.52zm6.28 3.6c0-.71-.15-1.33-.44-1.84-.29-.52-.68-.92-1.16-1.19-.48-.26-1-.4-1.55-.4-.54 0-1.05.14-1.53.41-.48.28-.87.68-1.16 1.2-.29.53-.44 1.15-.44 1.86 0 .71.15 1.33.44 1.87.29.53.68.93 1.16 1.21.48.27.99.41 1.53.41.55 0 1.07-.14 1.55-.42.48-.29.87-.7 1.16-1.23.29-.54.44-1.16.44-1.88zm3.58 0c0-1.04.22-1.95.65-2.75.43-.8 1.02-1.43 1.76-1.87.74-.44 1.57-.66 2.47-.66.81 0 1.52.15 2.12.47.61.32 1.09.72 1.46 1.19v-1.5h2.15v10.34h-2.15v-1.54c-.37.49-.86.89-1.48 1.22-.63.32-1.34.48-2.14.48-.89 0-1.7-.22-2.44-.68-.74-.46-1.32-1.09-1.75-1.91-.43-.82-.65-1.75-.65-2.79zm8.46.04c0-.71-.15-1.33-.44-1.86-.3-.52-.68-.92-1.16-1.2-.47-.27-.98-.41-1.53-.41s-1.07.14-1.54.4c-.48.27-.86.67-1.16 1.19-.29.51-.44 1.13-.44 1.84 0 .72.15 1.34.44 1.88.3.53.69.94 1.17 1.23a3.024 3.024 0 0 0 3.06.01c.48-.28.86-.68 1.16-1.21.29-.54.44-1.16.44-1.87zm6.05-6.52c-.39 0-.71-.14-.97-.4s-.4-.59-.4-.97c0-.39.14-.72.4-.98s.58-.39.97-.39a1.334 1.334 0 0 1 1.35 1.37c0 .38-.13.71-.39.97s-.58.4-.96.4zm1.05 1.36v10.34h-2.13v-10.34h2.13zm6.57 10.5c-.82 0-1.55-.14-2.19-.44-.64-.29-1.15-.69-1.53-1.2a3.04 3.04 0 0 1-.6-1.69h2.22c.03.43.24.8.62 1.09.38.3.86.44 1.44.44.6 0 1.06-.11 1.39-.34.34-.23.5-.53.5-.89 0-.39-.18-.68-.55-.87-.37-.18-.95-.39-1.75-.61-.78-.22-1.41-.42-1.9-.62s-.91-.51-1.26-.92c-.36-.41-.54-.96-.54-1.63 0-.55.16-1.06.49-1.51.32-.46.79-.82 1.4-1.08.6-.26 1.3-.39 2.09-.39 1.17 0 2.12.29 2.84.89.72.59 1.1 1.4 1.15 2.42h-2.14c-.03-.46-.22-.83-.56-1.1-.34-.28-.79-.41-1.37-.41-.56 0-.99.1-1.29.31-.3.22-.45.5-.45.85 0 .27.1.5.3.69.2.19.44.34.73.44.29.11.71.24 1.27.41.75.19 1.37.4 1.85.6.48.21.9.51 1.25.91s.53.93.54 1.6c0 .59-.16 1.11-.49 1.57-.32.46-.78.83-1.37 1.09-.6.26-1.29.39-2.09.39zm15.46-8.75h-1.91v8.59h-2.15v-8.59h-1.22v-1.75h1.22v-.73c0-1.19.31-2.05.94-2.59.63-.55 1.62-.82 2.97-.82v1.78c-.65 0-1.1.12-1.36.37-.27.24-.4.66-.4 1.26v.73h1.91v1.75zm11.25-1.75v10.34h-2.13v-1.22c-.34.42-.78.76-1.33 1-.54.24-1.12.37-1.73.37-.81 0-1.54-.17-2.18-.51a3.66 3.66 0 0 1-1.52-1.5c-.37-.66-.56-1.46-.56-2.4v-6.08h2.12v5.76c0 .93.23 1.63.7 2.13.46.49 1.09.74 1.89.74.8 0 1.43-.25 1.9-.74.47-.5.71-1.2.71-2.13v-5.76h2.13zm8.03-.16c.81 0 1.54.16 2.18.5.65.34 1.15.84 1.51 1.5.37.66.55 1.46.55 2.4v6.1h-2.12v-5.78c0-.93-.23-1.63-.7-2.13-.46-.49-1.09-.74-1.89-.74-.8 0-1.43.25-1.9.74-.47.5-.71 1.2-.71 2.13v5.78h-2.13v-10.34h2.13v1.19c.36-.43.8-.76 1.34-1 .55-.24 1.13-.35 1.74-.35zm6.24 5.32c0-1.06.22-2 .65-2.8.43-.81 1.03-1.43 1.79-1.87.76-.44 1.64-.65 2.63-.65 1.25 0 2.28.29 3.1.89.82.59 1.37 1.44 1.66 2.54h-2.31c-.18-.52-.48-.92-.9-1.2-.41-.29-.93-.43-1.55-.43-.88 0-1.58.3-2.09.92-.52.62-.78 1.49-.78 2.6s.26 1.98.78 2.61c.51.62 1.21.93 2.09.93 1.23 0 2.05-.54 2.45-1.63h2.31c-.3 1.05-.86 1.89-1.69 2.51-.82.61-1.85.92-3.07.92-.99 0-1.87-.22-2.63-.66a4.701 4.701 0 0 1-1.79-1.88c-.43-.8-.65-1.74-.65-2.8zm13.05-6.52c-.38 0-.71-.14-.97-.4s-.39-.59-.39-.97a1.334 1.334 0 0 1 1.36-1.37 1.334 1.334 0 0 1 1.35 1.37c0 .38-.13.71-.39.97s-.58.4-.96.4zm1.05 1.36v10.34h-2.13v-10.34h2.13zm7.3 10.5c-.98 0-1.86-.22-2.65-.66-.78-.45-1.4-1.07-1.85-1.88-.45-.8-.68-1.74-.68-2.8 0-1.05.23-1.98.7-2.79.46-.82 1.09-1.44 1.89-1.88.8-.44 1.69-.65 2.68-.65.99 0 1.88.21 2.68.65.8.44 1.43 1.06 1.9 1.88.46.81.69 1.74.69 2.79s-.24 1.98-.71 2.79c-.48.82-1.12 1.44-1.94 1.89-.82.44-1.72.66-2.71.66zm0-1.85c.55 0 1.06-.13 1.54-.4.49-.26.88-.65 1.18-1.18.3-.52.45-1.16.45-1.91s-.15-1.38-.43-1.9c-.29-.52-.67-.91-1.15-1.17-.47-.27-.99-.4-1.54-.4s-1.06.13-1.52.4c-.47.26-.84.65-1.12 1.17-.28.52-.41 1.15-.41 1.9 0 1.11.28 1.97.85 2.58.57.6 1.29.91 2.15.91zm12.69-8.81c.81 0 1.54.16 2.18.5.65.34 1.15.84 1.51 1.5.37.66.55 1.46.55 2.4v6.1h-2.12v-5.78c0-.93-.23-1.63-.69-2.13-.47-.49-1.1-.74-1.9-.74-.8 0-1.43.25-1.9.74-.47.5-.7 1.2-.7 2.13v5.78h-2.14v-10.34h2.14v1.19c.35-.43.79-.76 1.34-1 .54-.24 1.12-.35 1.73-.35zm6.24 5.28c0-1.04.22-1.95.65-2.75.43-.8 1.02-1.43 1.76-1.87.75-.44 1.57-.66 2.47-.66.81 0 1.52.15 2.13.47.6.32 1.09.72 1.45 1.19v-1.5h2.16v10.34h-2.16v-1.54c-.36.49-.86.89-1.48 1.22-.62.32-1.34.48-2.14.48-.88 0-1.7-.22-2.44-.68a4.902 4.902 0 0 1-1.75-1.91c-.43-.82-.65-1.75-.65-2.79zm8.46.04c0-.71-.15-1.33-.44-1.86-.29-.52-.68-.92-1.15-1.2-.48-.27-.99-.41-1.54-.41s-1.06.14-1.54.4c-.47.27-.86.67-1.15 1.19-.29.51-.44 1.13-.44 1.84 0 .72.15 1.34.44 1.88.29.53.68.94 1.16 1.23.48.28.99.42 1.53.42.55 0 1.06-.14 1.54-.41.47-.28.86-.68 1.15-1.21.29-.54.44-1.16.44-1.87zm7.11-8.7v13.88h-2.14v-13.88h2.14zm3.9 2.18c-.39 0-.72-.14-.98-.4s-.39-.59-.39-.97c0-.39.13-.72.39-.98s.59-.39.98-.39c.37 0 .69.13.95.39.27.26.4.59.4.98 0 .38-.13.71-.4.97-.26.26-.58.4-.95.4zm1.05 1.36v10.34h-2.14v-10.34h2.14zm2.1 5.12c0-1.04.21-1.95.64-2.75.43-.8 1.02-1.43 1.77-1.87.74-.44 1.57-.66 2.48-.66.68 0 1.34.14 2 .44.65.29 1.18.68 1.56 1.17v-4.99h2.16v13.88h-2.16v-1.56c-.35.5-.83.91-1.45 1.24-.62.32-1.33.48-2.13.48-.9 0-1.72-.22-2.46-.68a4.804 4.804 0 0 1-1.77-1.91c-.43-.82-.64-1.75-.64-2.79zm8.45.04c0-.71-.14-1.33-.44-1.86-.29-.52-.68-.92-1.15-1.2-.48-.27-.99-.41-1.54-.41s-1.06.14-1.54.4c-.47.27-.85.67-1.15 1.19-.29.51-.44 1.13-.44 1.84 0 .72.15 1.34.44 1.88.3.53.68.94 1.16 1.23.49.28.99.42 1.53.42.55 0 1.06-.14 1.54-.41.47-.28.86-.68 1.15-1.21.3-.54.44-1.16.44-1.87zm4.26-.04c0-1.04.21-1.95.65-2.75.43-.8 1.02-1.43 1.76-1.87.74-.44 1.56-.66 2.46-.66.82 0 1.53.15 2.13.47.61.32 1.09.72 1.46 1.19v-1.5h2.15v10.34h-2.15v-1.54c-.37.49-.86.89-1.49 1.22-.62.32-1.33.48-2.13.48-.89 0-1.7-.22-2.44-.68-.74-.46-1.32-1.09-1.75-1.91-.44-.82-.65-1.75-.65-2.79zm8.46.04c0-.71-.15-1.33-.45-1.86-.29-.52-.67-.92-1.15-1.2a3.118 3.118 0 0 0-3.07-.01c-.48.27-.86.67-1.16 1.19-.29.51-.44 1.13-.44 1.84 0 .72.15 1.34.44 1.88.3.53.69.94 1.17 1.23.48.28.99.42 1.52.42.55 0 1.07-.14 1.54-.41.48-.28.86-.68 1.15-1.21.3-.54.45-1.16.45-1.87zm4.25-.04c0-1.04.22-1.95.65-2.75.43-.8 1.02-1.43 1.76-1.87.74-.44 1.57-.66 2.49-.66.67 0 1.34.14 1.99.44.66.29 1.18.68 1.57 1.17v-4.99h2.15v13.88h-2.15v-1.56c-.35.5-.84.91-1.46 1.24-.61.32-1.32.48-2.12.48-.9 0-1.73-.22-2.47-.68a4.852 4.852 0 0 1-1.76-1.91c-.43-.82-.65-1.75-.65-2.79zm8.46.04c0-.71-.15-1.33-.44-1.86-.3-.52-.68-.92-1.16-1.2-.47-.27-.98-.41-1.53-.41s-1.07.14-1.54.4c-.48.27-.86.67-1.15 1.19-.3.51-.44 1.13-.44 1.84 0 .72.14 1.34.44 1.88.29.53.68.94 1.16 1.23a3.024 3.024 0 0 0 3.06.01c.48-.28.86-.68 1.16-1.21.29-.54.44-1.16.44-1.87zm14.44-.24c0 .38-.03.73-.08 1.05h-7.89c.06.82.37 1.48.92 1.98.54.5 1.22.75 2.02.75 1.15 0 1.96-.48 2.44-1.44h2.3c-.31.95-.87 1.73-1.69 2.33-.82.61-1.84.91-3.05.91-.99 0-1.87-.22-2.65-.66-.78-.45-1.4-1.07-1.84-1.88-.44-.8-.67-1.74-.67-2.8 0-1.06.22-2 .65-2.8.43-.81 1.04-1.43 1.82-1.87.78-.44 1.68-.65 2.69-.65.98 0 1.84.21 2.61.63.76.43 1.35 1.02 1.78 1.79.42.77.64 1.66.64 2.66zm-2.24-.68c-.01-.79-.29-1.42-.84-1.89-.55-.48-1.23-.71-2.04-.71-.74 0-1.37.23-1.9.7-.52.47-.84 1.1-.93 1.9h5.71zm8.09 6.26c-.82 0-1.55-.14-2.19-.44-.64-.29-1.15-.69-1.53-1.2a3.04 3.04 0 0 1-.6-1.69h2.22c.03.43.24.8.62 1.09.38.3.86.44 1.44.44.6 0 1.06-.11 1.39-.34.34-.23.5-.53.5-.89 0-.39-.18-.68-.55-.87-.37-.18-.95-.39-1.75-.61-.78-.22-1.41-.42-1.9-.62s-.91-.51-1.26-.92c-.36-.41-.54-.96-.54-1.63 0-.55.16-1.06.49-1.51.32-.46.79-.82 1.4-1.08.6-.26 1.3-.39 2.09-.39 1.17 0 2.12.29 2.84.89.72.59 1.1 1.4 1.15 2.42h-2.14c-.03-.46-.22-.83-.56-1.1-.34-.28-.79-.41-1.37-.41-.56 0-.99.1-1.29.31-.3.22-.45.5-.45.85 0 .27.1.5.3.69.2.19.44.34.73.44.29.11.71.24 1.27.41.75.19 1.37.4 1.85.6.48.21.9.51 1.25.91s.53.93.54 1.6c0 .59-.16 1.11-.49 1.57-.32.46-.78.83-1.37 1.09-.6.26-1.29.39-2.09.39zM91.77 135.7c0-1.04.22-1.96.65-2.76.43-.79 1.02-1.42 1.76-1.86.75-.44 1.57-.67 2.49-.67.67 0 1.34.15 1.99.44.66.3 1.18.69 1.57 1.18v-4.99h2.16v13.87h-2.16v-1.55c-.35.5-.84.91-1.45 1.23-.62.33-1.33.49-2.13.49-.9 0-1.72-.23-2.47-.68a4.92 4.92 0 0 1-1.76-1.91c-.43-.82-.65-1.75-.65-2.79zm8.46.04c0-.71-.15-1.33-.44-1.86-.3-.52-.68-.92-1.15-1.2-.48-.27-.99-.41-1.54-.41s-1.07.13-1.54.4c-.48.27-.86.67-1.15 1.18-.3.52-.44 1.14-.44 1.85 0 .71.14 1.34.44 1.88.29.53.68.94 1.16 1.22.48.29.99.43 1.53.43.55 0 1.06-.14 1.54-.42.47-.27.85-.67 1.15-1.21.29-.53.44-1.15.44-1.86zm9.45 5.34c-.98 0-1.86-.22-2.65-.66-.78-.45-1.4-1.07-1.85-1.88-.45-.8-.68-1.74-.68-2.8 0-1.05.23-1.98.7-2.8.46-.81 1.09-1.43 1.89-1.87.8-.44 1.69-.66 2.68-.66.99 0 1.88.22 2.68.66.8.44 1.43 1.06 1.9 1.87.46.82.69 1.75.69 2.8 0 1.05-.24 1.98-.71 2.79-.48.82-1.12 1.44-1.94 1.89-.82.44-1.72.66-2.71.66zm0-1.85c.55 0 1.06-.14 1.54-.4.49-.26.88-.65 1.18-1.18.3-.52.45-1.16.45-1.91s-.15-1.39-.43-1.9c-.29-.52-.67-.91-1.15-1.18-.47-.26-.99-.39-1.54-.39s-1.06.13-1.52.39c-.47.27-.84.66-1.12 1.18-.27.51-.41 1.15-.41 1.9 0 1.11.28 1.97.85 2.58.57.6 1.29.91 2.15.91zm11.64-4.86c0-1.28.3-2.42.89-3.43.6-1.01 1.4-1.8 2.42-2.37 1.02-.57 2.14-.86 3.35-.86 1.39 0 2.62.34 3.7 1.03 1.08.68 1.87 1.64 2.36 2.89h-2.57c-.34-.68-.81-1.2-1.41-1.54-.6-.33-1.29-.5-2.08-.5-.86 0-1.63.19-2.31.58-.67.39-1.2.94-1.58 1.67-.38.72-.57 1.57-.57 2.53 0 .96.19 1.81.57 2.53.38.73.91 1.29 1.58 1.68.68.39 1.45.59 2.31.59.79 0 1.48-.17 2.08-.51.6-.33 1.07-.85 1.41-1.53h2.57c-.49 1.25-1.28 2.21-2.36 2.88-1.08.68-2.31 1.02-3.7 1.02-1.23 0-2.34-.29-3.36-.86a6.447 6.447 0 0 1-2.41-2.37c-.59-1.01-.89-2.16-.89-3.43zm21.98 6.54-3-5.21h-1.64v5.21h-2.13v-13.03h4.5c1 0 1.84.18 2.54.53.69.35 1.21.82 1.55 1.4.35.59.52 1.25.52 1.97 0 .85-.25 1.62-.74 2.32-.49.69-1.25 1.16-2.28 1.41l3.23 5.4h-2.55zm-4.64-6.92h2.37c.8 0 1.4-.19 1.81-.6.4-.4.61-.93.61-1.61 0-.67-.2-1.2-.6-1.58-.4-.38-1.01-.57-1.82-.57h-2.37v4.36zm23.44-6.11v13.03h-2.14v-8.92l-3.97 8.92h-1.48l-4-8.92v8.92h-2.13v-13.03h2.3l4.58 10.22 4.55-10.22h2.29zm9.83 4.22c.36-.47.85-.87 1.48-1.2.63-.32 1.33-.49 2.12-.49.9 0 1.72.23 2.46.67.75.44 1.33 1.07 1.76 1.86.42.8.64 1.72.64 2.76 0 1.04-.22 1.97-.64 2.79-.43.81-1.01 1.45-1.76 1.91-.74.45-1.56.68-2.46.68-.79 0-1.49-.16-2.1-.48-.61-.31-1.11-.71-1.5-1.19v6.42h-2.14v-15.25h2.14v1.52zm6.28 3.6c0-.71-.15-1.33-.44-1.85a3.06 3.06 0 0 0-1.16-1.18c-.48-.27-1-.4-1.55-.4-.54 0-1.05.14-1.53.41-.48.28-.87.68-1.16 1.2-.29.53-.44 1.15-.44 1.86 0 .71.15 1.33.44 1.86.29.54.68.94 1.16 1.21.48.28.99.42 1.53.42.55 0 1.07-.14 1.55-.43.48-.28.87-.69 1.16-1.22.29-.54.44-1.17.44-1.88zm3.58 0c0-1.04.22-1.96.65-2.76.43-.79 1.02-1.42 1.76-1.86.74-.44 1.57-.67 2.47-.67.81 0 1.52.16 2.12.48.61.32 1.09.72 1.46 1.19v-1.5h2.15v10.33h-2.15v-1.53c-.37.48-.86.89-1.48 1.21-.63.33-1.34.49-2.14.49-.89 0-1.7-.23-2.44-.68-.74-.46-1.32-1.1-1.75-1.91-.43-.82-.65-1.75-.65-2.79zm8.46.04c0-.71-.15-1.33-.44-1.86-.3-.52-.68-.92-1.16-1.2-.47-.27-.98-.41-1.53-.41s-1.07.13-1.54.4c-.48.27-.86.67-1.15 1.18-.3.52-.44 1.14-.44 1.85 0 .71.14 1.34.44 1.88.29.53.68.94 1.16 1.22.48.29.99.43 1.53.43.55 0 1.06-.14 1.53-.42.48-.27.86-.67 1.16-1.21.29-.53.44-1.15.44-1.86zm7.1-3.66c.32-.52.73-.93 1.25-1.23.52-.29 1.14-.44 1.85-.44v2.22h-.55c-.83 0-1.47.21-1.9.63-.43.43-.65 1.17-.65 2.22v5.43h-2.13v-10.33h2.13v1.5zm4.35 3.62c0-1.04.22-1.96.65-2.76.43-.79 1.02-1.42 1.76-1.86.75-.44 1.57-.67 2.47-.67.81 0 1.52.16 2.13.48.6.32 1.09.72 1.45 1.19v-1.5h2.16v10.33h-2.16v-1.53c-.36.48-.86.89-1.48 1.21-.63.33-1.34.49-2.14.49-.89 0-1.7-.23-2.44-.68-.73-.46-1.32-1.1-1.75-1.91-.43-.82-.65-1.75-.65-2.79zm8.46.04c0-.71-.15-1.33-.44-1.86-.3-.52-.68-.92-1.15-1.2-.48-.27-.99-.41-1.54-.41s-1.06.13-1.54.4c-.47.27-.86.67-1.15 1.18-.3.52-.44 1.14-.44 1.85 0 .71.14 1.34.44 1.88.29.53.68.94 1.16 1.22.48.29.99.43 1.53.43.55 0 1.06-.14 1.54-.42.47-.27.85-.67 1.15-1.21.29-.53.44-1.15.44-1.86zm9.13 0c0-1.06.22-2 .65-2.8.43-.81 1.03-1.43 1.79-1.87.76-.44 1.64-.66 2.62-.66 1.25 0 2.29.3 3.11.89.82.6 1.37 1.45 1.66 2.54h-2.31c-.19-.51-.49-.91-.9-1.2-.41-.28-.93-.43-1.56-.43-.87 0-1.57.31-2.09.93-.52.62-.77 1.49-.77 2.6s.25 1.98.77 2.6c.52.63 1.22.94 2.09.94 1.24 0 2.06-.54 2.46-1.63h2.31c-.3 1.05-.87 1.89-1.69 2.5-.83.62-1.85.93-3.08.93-.98 0-1.86-.22-2.62-.66a4.701 4.701 0 0 1-1.79-1.88c-.43-.8-.65-1.74-.65-2.8zm16.45 5.34c-.98 0-1.86-.22-2.65-.66-.79-.45-1.4-1.07-1.85-1.88-.45-.8-.68-1.74-.68-2.8 0-1.05.23-1.98.69-2.8.47-.81 1.1-1.43 1.9-1.87.8-.44 1.69-.66 2.68-.66.99 0 1.88.22 2.68.66.8.44 1.43 1.06 1.89 1.87.47.82.7 1.75.7 2.8 0 1.05-.24 1.98-.71 2.79-.48.82-1.13 1.44-1.95 1.89-.82.44-1.72.66-2.7.66zm0-1.85c.54 0 1.06-.14 1.54-.4s.87-.65 1.17-1.18c.3-.52.45-1.16.45-1.91s-.14-1.39-.43-1.9c-.29-.52-.67-.91-1.14-1.18-.48-.26-.99-.39-1.54-.39s-1.06.13-1.53.39c-.47.27-.84.66-1.11 1.18-.28.51-.41 1.15-.41 1.9 0 1.11.28 1.97.85 2.58.57.6 1.28.91 2.15.91zm9.61-7.15c.32-.52.73-.93 1.25-1.23.52-.29 1.14-.44 1.85-.44v2.22h-.55c-.83 0-1.47.21-1.9.63-.43.43-.65 1.17-.65 2.22v5.43h-2.13v-10.33h2.13v1.5zm7.2 0c.32-.52.73-.93 1.25-1.23.52-.29 1.14-.44 1.85-.44v2.22h-.55c-.83 0-1.47.21-1.9.63-.43.43-.65 1.17-.65 2.22v5.43h-2.13v-10.33h2.13v1.5zm14.54 3.41c0 .39-.03.74-.08 1.05h-7.89c.06.83.36 1.49.92 1.99.54.5 1.22.75 2.02.75 1.15 0 1.96-.48 2.44-1.44h2.3c-.31.95-.87 1.73-1.69 2.33-.82.61-1.84.91-3.05.91-.99 0-1.87-.22-2.65-.66a4.69 4.69 0 0 1-1.84-1.88c-.45-.8-.67-1.74-.67-2.8 0-1.06.22-2 .65-2.8.43-.81 1.04-1.43 1.82-1.87.78-.44 1.68-.66 2.69-.66.98 0 1.84.22 2.61.64.76.43 1.35 1.02 1.78 1.79.42.77.64 1.65.64 2.65zm-2.24-.67c-.01-.79-.29-1.42-.84-1.89-.55-.48-1.23-.72-2.04-.72-.74 0-1.37.24-1.9.71-.52.47-.84 1.1-.93 1.9h5.71zm6.83-2.49v5.71c0 .39.09.67.27.84.18.17.49.25.93.25h1.31v1.78h-1.69c-.96 0-1.7-.22-2.21-.67-.51-.45-.77-1.18-.77-2.2v-5.71h-1.22v-1.75h1.22v-2.57h2.16v2.57h2.51v1.75h-2.51zm8.96 8.75c-.97 0-1.85-.22-2.64-.66a4.803 4.803 0 0 1-1.86-1.88c-.45-.8-.67-1.74-.67-2.8 0-1.05.23-1.98.69-2.8.46-.81 1.09-1.43 1.89-1.87.8-.44 1.7-.66 2.69-.66.98 0 1.88.22 2.68.66.8.44 1.43 1.06 1.89 1.87.46.82.69 1.75.69 2.8 0 1.05-.23 1.98-.71 2.79-.47.82-1.12 1.44-1.94 1.89-.82.44-1.72.66-2.71.66zm0-1.85c.55 0 1.07-.14 1.55-.4s.87-.65 1.17-1.18c.3-.52.45-1.16.45-1.91s-.14-1.39-.43-1.9c-.29-.52-.67-.91-1.14-1.18-.48-.26-.99-.39-1.54-.39s-1.06.13-1.53.39c-.47.27-.84.66-1.12 1.18-.27.51-.41 1.15-.41 1.9 0 1.11.29 1.97.85 2.58.57.6 1.29.91 2.15.91zm9.62-7.15c.31-.52.73-.93 1.25-1.23.52-.29 1.13-.44 1.84-.44v2.22h-.54c-.84 0-1.47.21-1.9.63-.43.43-.65 1.17-.65 2.22v5.43h-2.14v-10.33h2.14v1.5zm14.53 3.41c0 .39-.02.74-.07 1.05h-7.9c.07.83.37 1.49.92 1.99s1.23.75 2.03.75c1.15 0 1.96-.48 2.43-1.44h2.31a4.6 4.6 0 0 1-1.7 2.33c-.82.61-1.83.91-3.04.91-.99 0-1.88-.22-2.66-.66a4.73 4.73 0 0 1-1.83-1.88c-.45-.8-.67-1.74-.67-2.8 0-1.06.22-2 .65-2.8.43-.81 1.03-1.43 1.82-1.87.78-.44 1.67-.66 2.69-.66.97 0 1.84.22 2.6.64.76.43 1.36 1.02 1.78 1.79.43.77.64 1.65.64 2.65zm-2.23-.67c-.01-.79-.29-1.42-.84-1.89-.55-.48-1.23-.72-2.05-.72-.74 0-1.37.24-1.89.71-.53.47-.84 1.1-.94 1.9h5.72zm8.08 6.26c-.81 0-1.54-.14-2.18-.44-.65-.29-1.16-.69-1.53-1.2-.38-.5-.58-1.07-.6-1.7h2.21c.04.44.25.81.63 1.1.38.3.86.44 1.43.44.6 0 1.07-.11 1.4-.34.33-.24.5-.53.5-.9 0-.38-.19-.67-.56-.86-.36-.19-.95-.39-1.75-.62-.77-.21-1.4-.42-1.89-.62-.49-.19-.91-.5-1.27-.91-.35-.42-.53-.96-.53-1.64 0-.55.16-1.05.49-1.5.32-.46.79-.82 1.39-1.08.61-.27 1.31-.4 2.09-.4 1.18 0 2.12.3 2.84.89.72.6 1.11 1.41 1.16 2.43h-2.14c-.04-.46-.23-.83-.56-1.1-.34-.28-.8-.42-1.37-.42-.56 0-1 .11-1.3.32-.3.22-.45.5-.45.85 0 .27.1.5.3.69.2.19.45.33.74.44.28.11.71.24 1.27.4.75.2 1.37.41 1.85.61.48.21.89.51 1.24.91s.54.93.55 1.6c0 .58-.16 1.11-.49 1.57-.33.46-.78.83-1.38 1.09-.59.26-1.29.39-2.09.39zm20.61-5.59c0 .39-.03.74-.08 1.05h-7.89c.06.83.37 1.49.92 1.99s1.22.75 2.02.75c1.15 0 1.97-.48 2.44-1.44h2.31c-.32.95-.88 1.73-1.7 2.33-.82.61-1.83.91-3.05.91-.98 0-1.87-.22-2.65-.66a4.821 4.821 0 0 1-1.84-1.88c-.44-.8-.66-1.74-.66-2.8 0-1.06.21-2 .64-2.8.43-.81 1.04-1.43 1.82-1.87.78-.44 1.68-.66 2.69-.66.98 0 1.85.22 2.61.64.76.43 1.36 1.02 1.78 1.79.43.77.64 1.65.64 2.65zm-2.23-.67c-.02-.79-.3-1.42-.85-1.89-.55-.48-1.23-.72-2.04-.72-.74 0-1.37.24-1.89.71-.53.47-.84 1.1-.94 1.9h5.72zm10.29-5.61c-.39 0-.71-.13-.97-.39-.27-.26-.4-.59-.4-.98 0-.38.13-.71.4-.97.26-.26.58-.39.97-.39.38 0 .7.13.96.39s.39.59.39.97a1.334 1.334 0 0 1-1.35 1.37zm1.05 1.37v10.33h-2.14v-10.33h2.14zm15.32-.17c.81 0 1.54.17 2.18.51.65.34 1.15.84 1.52 1.5.37.66.56 1.46.56 2.4v6.09h-2.12v-5.77c0-.93-.23-1.64-.7-2.13-.46-.49-1.09-.74-1.89-.74-.8 0-1.43.25-1.9.74s-.71 1.2-.71 2.13v5.77h-2.11v-5.77c0-.93-.24-1.64-.7-2.13-.46-.49-1.09-.74-1.89-.74-.8 0-1.44.25-1.91.74-.46.49-.7 1.2-.7 2.13v5.77h-2.14v-10.33h2.14v1.18a3.6 3.6 0 0 1 1.33-.99c.54-.24 1.11-.36 1.73-.36.82 0 1.56.18 2.21.53.65.35 1.15.85 1.5 1.52.31-.63.8-1.12 1.46-1.49.66-.37 1.38-.56 2.14-.56zm11.46 10.67c-.98 0-1.86-.22-2.65-.66-.78-.45-1.4-1.07-1.85-1.88-.45-.8-.68-1.74-.68-2.8 0-1.05.23-1.98.7-2.8.46-.81 1.09-1.43 1.89-1.87.8-.44 1.69-.66 2.68-.66.99 0 1.88.22 2.68.66.8.44 1.43 1.06 1.9 1.87.46.82.69 1.75.69 2.8 0 1.05-.24 1.98-.71 2.79a5.03 5.03 0 0 1-1.94 1.89c-.82.44-1.73.66-2.71.66zm0-1.85c.55 0 1.06-.14 1.54-.4s.88-.65 1.18-1.18c.3-.52.45-1.16.45-1.91s-.15-1.39-.44-1.9c-.28-.52-.67-.91-1.14-1.18-.48-.26-.99-.39-1.54-.39s-1.06.13-1.53.39c-.46.27-.84.66-1.11 1.18-.28.51-.41 1.15-.41 1.9 0 1.11.28 1.97.85 2.58.57.6 1.28.91 2.15.91zm9.61-7.11c.37-.5.86-.91 1.49-1.23.64-.32 1.34-.48 2.11-.48.92 0 1.74.22 2.48.66.74.44 1.32 1.06 1.74 1.87.43.8.64 1.72.64 2.76 0 1.04-.21 1.97-.64 2.79-.42.81-1.01 1.45-1.75 1.91-.74.45-1.57.68-2.47.68-.8 0-1.51-.15-2.12-.47-.62-.31-1.11-.71-1.48-1.2v1.5h-2.13v-13.87h2.13v5.08zm6.29 3.58c0-.71-.15-1.33-.45-1.85a3.06 3.06 0 0 0-1.16-1.18c-.48-.27-.99-.4-1.54-.4-.54 0-1.05.14-1.53.41-.48.28-.87.68-1.17 1.2-.29.53-.44 1.15-.44 1.86 0 .71.15 1.33.44 1.86.3.54.69.94 1.17 1.21a2.988 2.988 0 0 0 3.07-.01c.48-.28.87-.69 1.16-1.22.3-.54.45-1.17.45-1.88zm5.38-6.49c-.39 0-.72-.13-.98-.39s-.39-.59-.39-.98a1.334 1.334 0 0 1 1.37-1.36c.37 0 .69.13.95.39.27.26.4.59.4.97 0 .39-.13.72-.4.98-.26.26-.58.39-.95.39zm1.05 1.37v10.33h-2.14v-10.33h2.14zm4.95-3.54v13.87h-2.14v-13.87h2.14zm3.9 2.17c-.39 0-.72-.13-.98-.39s-.39-.59-.39-.98a1.334 1.334 0 0 1 1.37-1.36c.37 0 .69.13.95.39.27.26.4.59.4.97 0 .39-.13.72-.4.98-.26.26-.58.39-.95.39zm1.05 1.37v10.33h-2.14v-10.33h2.14zm2.1 5.12c0-1.04.21-1.96.64-2.76.43-.79 1.02-1.42 1.77-1.86.74-.44 1.56-.67 2.46-.67.81 0 1.52.16 2.13.48.61.32 1.09.72 1.45 1.19v-1.5h2.16v10.33h-2.16v-1.53c-.36.48-.85.89-1.48 1.21-.62.33-1.34.49-2.14.49-.88 0-1.7-.23-2.43-.68a4.92 4.92 0 0 1-1.76-1.91c-.43-.82-.64-1.75-.64-2.79zm8.45.04c0-.71-.14-1.33-.44-1.86-.29-.52-.68-.92-1.15-1.2-.48-.27-.99-.41-1.54-.41s-1.06.13-1.54.4c-.47.27-.85.67-1.15 1.18-.29.52-.44 1.14-.44 1.85 0 .71.15 1.34.44 1.88.3.53.68.94 1.16 1.22.49.29.99.43 1.53.43.55 0 1.06-.14 1.54-.42.47-.27.86-.67 1.15-1.21.3-.53.44-1.15.44-1.86zm-.86-7.93-4.14 2.04v-1.57l4.14-2.29v1.82zm7.97 4.27c.31-.52.73-.93 1.25-1.23.51-.29 1.13-.44 1.84-.44v2.22h-.54c-.84 0-1.47.21-1.9.63-.44.43-.65 1.17-.65 2.22v5.43h-2.14v-10.33h2.14v1.5zm6.15-2.87c-.39 0-.71-.13-.98-.39-.26-.26-.39-.59-.39-.98 0-.38.13-.71.39-.97.27-.26.59-.39.98-.39.37 0 .69.13.96.39.26.26.39.59.39.97a1.334 1.334 0 0 1-1.35 1.37zm1.05 1.37v10.33h-2.14v-10.33h2.14zm2.1 5.12c0-1.04.21-1.96.65-2.76.43-.79 1.01-1.42 1.76-1.86.74-.44 1.56-.67 2.46-.67.82 0 1.53.16 2.13.48.61.32 1.09.72 1.46 1.19v-1.5h2.15v10.33h-2.15v-1.53c-.37.48-.86.89-1.49 1.21-.62.33-1.33.49-2.13.49-.89 0-1.7-.23-2.44-.68-.74-.46-1.32-1.1-1.75-1.91-.44-.82-.65-1.75-.65-2.79zm8.46.04c0-.71-.15-1.33-.45-1.86-.29-.52-.67-.92-1.15-1.2a3.06 3.06 0 0 0-1.54-.41c-.55 0-1.06.13-1.53.4-.48.27-.86.67-1.16 1.18-.29.52-.44 1.14-.44 1.85 0 .71.15 1.34.44 1.88.3.53.68.94 1.17 1.22a2.971 2.971 0 0 0 3.06.01c.48-.27.86-.67 1.15-1.21.3-.53.45-1.15.45-1.86zm8.71 5.34c-.81 0-1.54-.14-2.18-.44-.64-.29-1.15-.69-1.53-1.2-.37-.5-.57-1.07-.6-1.7h2.21c.04.44.25.81.63 1.1.38.3.86.44 1.44.44.6 0 1.06-.11 1.39-.34.33-.24.5-.53.5-.9 0-.38-.18-.67-.55-.86-.37-.19-.96-.39-1.76-.62-.77-.21-1.4-.42-1.89-.62-.49-.19-.91-.5-1.27-.91-.35-.42-.53-.96-.53-1.64 0-.55.16-1.05.49-1.5.32-.46.79-.82 1.39-1.08.61-.27 1.31-.4 2.1-.4 1.17 0 2.12.3 2.84.89.71.6 1.1 1.41 1.15 2.43h-2.14c-.04-.46-.22-.83-.56-1.1-.34-.28-.8-.42-1.37-.42-.56 0-.99.11-1.29.32-.3.22-.45.5-.45.85 0 .27.1.5.3.69.2.19.44.33.73.44.28.11.71.24 1.27.4.75.2 1.37.41 1.85.61.48.21.9.51 1.25.91s.53.93.54 1.6c0 .58-.16 1.11-.49 1.57-.32.46-.78.83-1.38 1.09-.59.26-1.29.39-2.09.39zM13.65 0h512.7C533.89 0 540 6.11 540 13.65v272.7c0 7.54-6.11 13.65-13.65 13.65h-96.82l-.01-3.43h.01l-.01-.56c.57-.65 1.21-1.24 1.92-1.75a.344.344 0 0 1-.22-.09.255.255 0 0 1-.04-.21c-.63.43-1.13.89-1.66 1.43v-2.8c.57-.65 1.21-1.24 1.92-1.76-.1-.01-.18-.04-.22-.09-.04-.05-.06-.12-.04-.21-.63.44-1.13.89-1.66 1.44v-.9l-.01-2.1c-.13.09-.28.07-.46 0v3.02c-.53-.56-1.04-1.02-1.67-1.46.01.08 0 .15-.05.21-.04.05-.11.08-.22.09a11.4 11.4 0 0 1 1.95 1.78v2.8c-.54-.56-1.04-1.02-1.68-1.46.02.09 0 .16-.04.21-.05.05-.12.08-.23.09a11.4 11.4 0 0 1 1.95 1.78l.01 3.97h-20.53v-3.99c.57-.65 1.21-1.24 1.92-1.75-.1-.01-.18-.04-.22-.09a.255.255 0 0 1-.04-.21c-.63.43-1.13.89-1.66 1.43v-2.8c.57-.65 1.2-1.24 1.92-1.76-.11-.01-.18-.04-.22-.09-.05-.05-.06-.12-.04-.21-.64.44-1.13.89-1.66 1.44l-.01-.9v-2.1c-.13.09-.29.07-.46 0v3.02c-.54-.56-1.04-1.02-1.68-1.46.02.08.01.15-.04.21-.04.05-.11.08-.22.09.72.52 1.37 1.12 1.94 1.78l.01 2.8c-.54-.56-1.04-1.02-1.68-1.46.01.09 0 .16-.04.21-.05.05-.12.08-.23.09a11.4 11.4 0 0 1 1.95 1.78V300h-86.06l-.01-3.98c.57-.66 1.21-1.25 1.93-1.76-.11-.01-.18-.04-.23-.09-.04-.06-.05-.13-.04-.21-.63.43-1.13.89-1.66 1.44v-4.9c-.13.09-.29.07-.47 0l.01 4.91c-.54-.56-1.04-1.02-1.68-1.46.02.09 0 .16-.04.21-.05.05-.12.08-.22.09.72.52 1.36 1.12 1.94 1.78l.01 3.97h-9.88l-.01-3.98c.57-.66 1.21-1.25 1.92-1.76a.344.344 0 0 1-.22-.09c-.04-.06-.05-.13-.04-.21-.63.43-1.13.89-1.66 1.44l-.01-4.9c-.13.09-.28.07-.46 0l.01 4.91c-.54-.56-1.04-1.02-1.68-1.46.02.09 0 .16-.04.21-.04.05-.12.08-.22.09.72.52 1.36 1.12 1.94 1.78l.01 3.97h-15.14c-3.45 0-6.36-2.91-6.36-6.35 0-3.46 2.91-6.18 6.36-6.18 3.44 0 6.17 2.72 6.17 6.18 0 3.44-2.73 6.35-6.17 6.35h-24.51c-5.08 0-9.26-4.18-9.26-9.26s4.18-9.26 9.26-9.26c5.09 0 9.26 4.18 9.26 9.26s-4.17 9.26-9.26 9.26H13.65C6.11 300 0 293.89 0 286.35V13.65C0 6.11 6.11 0 13.65 0zm197.47 257.43h-23.75v-11.17c0-4.98-4.03-9.01-9-9.01h-20.08c-4.97 0-9 4.03-9 9.01V300h70.82v-33.55c0-4.98-4.03-9.02-8.99-9.02zm-44.47 35.37h-6.69v-6.72h6.69v6.72zm0-10.07h-6.69v-6.71h6.69v6.71zm0-10.06h-6.69v-6.72h6.69v6.72zm0-10.12h-6.69v-6.72h6.69v6.72zm0-10.08h-6.69v-6.71h6.69v6.71zm10.06 40.33h-6.7v-6.72h6.7v6.72zm0-10.07h-6.7v-6.71h6.7v6.71zm0-10.06h-6.7v-6.72h6.7v6.72zm0-10.12h-6.7v-6.72h6.7v6.72zm0-10.08h-6.7v-6.71h6.7v6.71zm22.69 40.33h-6.7v-6.72h6.7v6.72zm0-10.07h-6.7v-6.71h6.7v6.71zm0-10.06h-6.7v-6.72h6.7v6.72zm10.05 20.13h-6.7v-6.72h6.7v6.72zm0-10.07h-6.7v-6.71h6.7v6.71zm0-10.06h-6.7v-6.72h6.7v6.72zM12.52 299.95v-53.69c0-4.98 4.03-9.01 8.99-9.01h20.07c4.97 0 8.99 4.03 8.99 9.01v53.69H12.52zm17.35-54.2h-6.7v6.71h6.7v-6.71zm0 10.07h-6.7v6.71h6.7v-6.71zm0 10.11h-6.7v6.71h6.7v-6.71zm0 10.06h-6.7v6.71h6.7v-6.71zm0 10.06h-6.7v6.71h6.7v-6.71zm10.05-40.29h-6.71v6.7h6.71v-6.7zm0 10.06h-6.71v6.71h6.71v-6.71zm0 10.11h-6.71v6.71h6.71v-6.71zm0 10.06h-6.71v6.71h6.71v-6.71zm0 10.06h-6.71v6.71h6.71v-6.71zm391.72 7.78c1.45-3.05 4.99-2.59 7.02.69-3.24 1.12-4.77.04-7.02-.69zm-4.87-3.71c-1.33-2.78-4.55-2.36-6.39.63 2.95 1.02 4.34.03 6.39-.63zm4.72 0c1.32-2.78 4.54-2.36 6.39.63-2.95 1.02-4.34.03-6.39-.63zm-4.57 3.7c-1.45-3.05-4.99-2.59-7.02.69 3.24 1.12 4.77.04 7.02-.69zm5.36-10.87c-1.46.75-2.28.6-2.89 1.5-.1.15-.09.28.03.43.2.26.32.44.43.63.11.2.2.36.26.58.03.06.06.3.43.11 1.99-1.05 1.64-2.56 1.74-3.25zm-6.92.42c3.37.2 5.62 3.37 3.78 4.97-3.94-.96-2.47-3.38-3.78-4.97zm-153.79 11c2 0 3.63-1.63 3.63-3.63s-1.63-3.63-3.63-3.63c-1.99 0-3.63 1.63-3.63 3.63s1.64 3.63 3.63 3.63zm11.98-15.98-2.17-7.26h-8.18l-.72 7.26h11.07zm-11.98-9.07h11.08l2.9 9.07 11.98 2.37.72 5.08c-.72-.18-1.45-.36-2.17-.36-4 0-7.44 2.9-7.99 6.71h-5.63c.19-.36.19-.91.19-1.45 0-6.17-4.91-11.07-11.08-11.07h-1.09l1.09-10.35zm24.51 26.87c1.45 0 2.54-1.09 2.54-2.54 0-1.46-1.09-2.55-2.54-2.55-1.46 0-2.54 1.09-2.54 2.55 0 1.45 1.08 2.54 2.54 2.54zm114.57-2.36c1.46-3.05 4.99-2.59 7.02.69-3.23 1.12-4.76.04-7.02-.69zm-4.86-3.71c-1.33-2.78-4.55-2.36-6.4.63 2.95 1.02 4.34.03 6.4-.63zm4.72 0c1.32-2.78 4.54-2.36 6.39.63-2.95 1.02-4.34.03-6.39-.63zm-4.57 3.7c-1.46-3.05-4.99-2.59-7.02.69 3.24 1.12 4.76.04 7.02-.69zm5.36-10.87c-1.47.75-2.28.6-2.89 1.5-.11.15-.09.28.03.43.2.26.31.44.43.63.11.2.19.36.26.58.02.06.06.3.43.11 1.99-1.05 1.63-2.56 1.74-3.25zm-6.92.42c3.37.2 5.62 3.37 3.77 4.97-3.94-.96-2.46-3.38-3.77-4.97zm97.96-10.38c-.1-.28-.71-1.09-.97-1.49-.26-.4-1.51-1.95-1.78-2.28-.27-.33-1.24-1.47-1.65-1.88-.2-.2-.45-.37-.7-.5.03-.1.05-.18.04-.22-.04-.17-.09-.42-.02-.61.08-.19.18-.65.14-.88-.04-.23-.02-.62-.03-.77-.02-.16-.13-.15-.15-.02-.02.13-.08.46-.2.69-.1.19-.29.38-.47.62.04-.19.06-.41.04-.54-.04-.23-.02-.62-.04-.77-.01-.16-.13-.15-.14-.02-.02.13-.08.46-.2.69-.12.24-.37.46-.59.78-.11.16-.23.37-.36.64-.05 0-.1.01-.15.02-.44.08-2.19.67-2.6.87-.42.2-2.61 1.03-3.17 1.35-.55.32-3.29 1.81-3.77 2.18-.48.37-5.12 3.16-6.5 3.39-2.09.35-5.47-.03-6.81-.31-1.34-.27-2.75-.45-3.47-.43-.71.02-2.77.54-3.58.76-.49.14-1.24.56-1.77.88-.4.24-.75.58-1.01.97-.49.73-.68 1.26-1.05 3.07-.47 2.25-1.4 7.06-1.49 8.11-.09 1.06-.1 3.16.51 4.77.16.42.35.69.54.85-.14.97-.01 1.93-.5 2.84-.35.65.23 1.34.5 1.83.27.5-.15 1.61-.24 1.82-.1.21.24.47.92.53.68.06 1.73.01 1.92-.08.19-.09-.04-.46-.36-.98-.31-.52-.91-.84-.95-1.21-.04-.38 0-1.41.05-1.64.06-.23.07-1.03.13-1.33.05-.3.29-2.98.68-3.65.2-.35.65-1.25 1.11-2.11.22.97.28 2.63.21 3.3-.07.69.16 2.75-.19 3.75-.24.7.39 1.3.72 1.76.33.46.05 1.62-.02 1.84-.08.22.3.44.98.41.68-.02 1.72.05 1.9-.06.17-.11-.1-.7-.48-1.18s-1.01-.72-1.1-1.09c-.08-.37-.16-1.39-.14-1.63.03-.24-.05-1.03-.04-1.33.02-.31-.07-3 .24-3.71.3-.72 1.26-3.51 1.71-4.22.2-.32.56-1.21.91-2.22.27-.77 1.14-1.14 1.87-.79.78.38 1.69.78 2.35 1 1.31.43 3.39.96 5.7.81 2.13-.13 3.08-.07 3.36-.15-.02.53-.01 1.1 0 1.45.03.72-.04 2.19-.2 3.12-.16.93-.04 1.27.04 1.61.07.34-.05 1.37-.09 1.7-.05.32-.53 3.03-.58 3.5-.05.46.18.6.41.7.23.1.48.6.56.71.07.1.42.5.33.59-.08.1-.49.2-.31.62.18.43.72.45.86.47.13.02 1.26-.01 1.62-.03.36-.03.22-.14.18-.21-.05-.07-.45-.5-.74-.74-.07-.54-.92-.97-1.12-1.68-.2-.73.15-3.14.19-3.75.03-.61.32-1.03.45-2.25.08-.77.36-1.55.54-1.72.05.15.08.1.13.65.08.94.02 1.27.11 1.61.09.33.01 1.36-.02 1.69-.03.33-.39 3.05-.42 3.52-.03.47.21.6.44.69.23.09.51.58.59.68.07.1.44.48.36.58-.08.1-.49.22-.29.63.2.42.75.41.88.43.13.02 1.26-.06 1.62-.1.36-.04.22-.15.17-.22-.05-.07-.47-.48-.77-.7-.1-.54-.96-.93-1.19-1.64-.23-.71.01-3.14.02-3.75.01-.61.26-1.04.35-2.27.09-1.22.49-3.33.97-4.76.29-.89.45-1.62.52-2.17.57-.6 1.59-1.92 1.82-3.73.21-1.66 3.66-7.24 4.17-7.75.51-.51 1.17-.62 1.29-.48.41.54 1.56.43 1.67.42.1 0 .13.12.26.23.13.11.82.64 1.11.67.29.04 1.08.61 1.25.75.17.13.08.36.26.59.19.22 1.22.25 1.39.23.18-.02.18-.26.39-.27.21 0 .53-.17.69-.39.15-.23-.13-.46.09-.79s.26-.59.16-.87z" style="fill:#686af1"/><path d="M38.94 205.85c.59 0 1.09.5 1.09 1.1 0 .6-.5 1.1-1.09 1.1h-2.59v2.59c0 .6-.5 1.1-1.1 1.1-.6 0-1.1-.5-1.1-1.1v-2.59h-2.59a1.101 1.101 0 0 1 0-2.2h2.59v-2.59c0-.61.5-1.09 1.1-1.09.6 0 1.1.48 1.1 1.09v2.59h2.59zm424.1 79.25c-.04-1.06-.11-2.13-.12-2.61 0-.16-.01-.33-.02-.5.23.88.44 1.63.53 1.92-.07.38-.2.78-.39 1.19zm-296.39 7.7h-6.69v-6.72h6.69v6.72zm0-10.07h-6.69v-6.71h6.69v6.71zm10.06 10.07h-6.7v-6.72h6.7v6.72zm0-10.07h-6.7v-6.71h6.7v6.71zm-146.84-6.74h-6.7v6.71h6.7v-6.71zm0 10.06h-6.7v6.71h6.7v-6.71zm10.05-10.06h-6.71v6.71h6.71v-6.71zm0 10.06h-6.71v6.71h6.71v-6.71zm391.72 7.78c1.45-3.05 4.99-2.59 7.02.69-3.24 1.12-4.77.04-7.02-.69zm-4.87-3.71c-1.33-2.78-4.55-2.36-6.39.63 2.95 1.02 4.34.03 6.39-.63zm4.72 0c1.32-2.78 4.54-2.36 6.39.63-2.95 1.02-4.34.03-6.39-.63zm-4.57 3.7c-1.45-3.05-4.99-2.59-7.02.69 3.24 1.12 4.77.04 7.02-.69zm5.36-10.87c-1.46.75-2.28.6-2.89 1.5-.1.15-.09.28.03.43.2.26.32.44.43.63.11.2.2.36.26.58.03.06.06.3.43.11 1.99-1.05 1.64-2.56 1.74-3.25zm-6.92.42c3.37.2 5.62 3.37 3.78 4.97-3.94-.96-2.47-3.38-3.78-4.97zm-14.71 10.46c1.46-3.05 4.99-2.59 7.02.69-3.23 1.12-4.76.04-7.02-.69zm-.14-3.71c1.32-2.78 4.54-2.36 6.39.63-2.95 1.02-4.34.03-6.39-.63zm.79-7.17c-1.47.75-2.28.6-2.89 1.5-.11.15-.09.28.03.43.2.26.31.44.43.63.11.2.19.36.26.58.02.06.06.3.43.11 1.99-1.05 1.63-2.56 1.74-3.25zm-6.92.42c3.37.2 5.62 3.37 3.77 4.97-3.94-.96-2.46-3.38-3.77-4.97zm125.61-59.15c.6 0 1.1.5 1.1 1.11 0 .59-.5 1.09-1.1 1.09h-2.59v2.6a1.095 1.095 0 0 1-2.19 0v-2.6h-2.59c-.6 0-1.1-.5-1.1-1.09 0-.61.5-1.11 1.1-1.11h2.59v-2.59a1.095 1.095 0 0 1 2.19 0v2.59h2.59zm9.82-14.36v31.49h-9.57c-13.37 0-24.31 10.96-24.31 24.34 0 13.4 10.94 24.36 24.31 24.36l9.57.02c-.57 7.96-6.45 10.24-12.54 9.8h-39.42c.19-.05.08-.15.04-.2-.05-.07-.47-.48-.77-.7-.1-.54-.96-.93-1.19-1.64-.23-.71.01-3.14.02-3.75.01-.61.26-1.04.35-2.27.09-1.22.49-3.33.97-4.76.29-.89.45-1.62.52-2.17.57-.6 1.59-1.92 1.82-3.73.21-1.66 3.66-7.24 4.17-7.75.51-.51 1.17-.62 1.29-.48.41.54 1.56.43 1.67.42.1 0 .13.12.26.23.13.11.82.64 1.11.67.29.04 1.08.61 1.25.75.17.13.08.36.26.59.19.22 1.22.25 1.39.23.18-.02.18-.26.39-.27.21 0 .53-.17.69-.39.15-.23-.13-.46.09-.79s.26-.59.16-.87-.71-1.09-.97-1.49c-.26-.4-1.51-1.95-1.78-2.28-.27-.33-1.24-1.47-1.65-1.88-.2-.2-.45-.37-.7-.5.03-.1.05-.18.04-.22-.04-.17-.09-.42-.02-.61.08-.19.18-.65.14-.88-.04-.23-.02-.62-.03-.77-.02-.16-.13-.15-.15-.02-.02.13-.08.46-.2.69-.1.19-.29.38-.47.62.04-.19.06-.41.04-.54-.04-.23-.02-.62-.04-.77-.01-.16-.13-.15-.14-.02-.02.13-.08.46-.2.69-.12.24-.37.46-.59.78-.11.16-.23.37-.36.64-.05 0-.1.01-.15.02-.44.08-2.19.67-2.6.87-.42.2-2.61 1.03-3.17 1.35-.55.32-3.29 1.81-3.77 2.18-.48.37-5.12 3.16-6.5 3.39-1.68.28-4.19.09-5.8-.14-.19-.35-.55-.58-.97-.58-.28 0-.54.11-.74.28-1.11-.2-2.17-.32-2.77-.3-.71.02-2.77.54-3.58.76-.49.14-1.24.56-1.77.88-.4.24-.75.58-1.01.97-.49.73-.68 1.26-1.05 3.07-.47 2.25-1.4 7.06-1.49 8.11-.09 1.06-.1 3.16.51 4.77.16.42.35.69.54.85-.14.97-.01 1.93-.5 2.84-.35.65.23 1.34.5 1.83.27.5-.15 1.61-.24 1.82-.08.16.11.36.52.47h-31.69l-.01-3.3h.01l-.01-.56c.57-.65 1.21-1.24 1.92-1.75a.344.344 0 0 1-.22-.09.255.255 0 0 1-.04-.21c-.63.43-1.13.89-1.66 1.43v-2.8c.57-.65 1.21-1.24 1.92-1.76-.1-.01-.18-.04-.22-.09-.04-.05-.06-.12-.04-.21-.63.44-1.13.89-1.66 1.44v-.9l-.01-2.1c-.13.09-.28.07-.46 0v3.02c-.53-.56-1.04-1.02-1.67-1.46.01.08 0 .15-.05.21-.04.05-.11.08-.22.09a11.4 11.4 0 0 1 1.95 1.78v2.8c-.54-.56-1.04-1.02-1.68-1.46.02.09 0 .16-.04.21-.05.05-.12.08-.23.09a11.4 11.4 0 0 1 1.95 1.78l.01 3.84h-13.1c6.51-2.76 11.33-4.44 6.88-4.44h-11.4v-.3c-.59-.05-1.17-.15-1.73-.29.23-.2.49-.39.74-.58-.1-.01-.18-.04-.22-.09a.255.255 0 0 1-.04-.21c-.36.24-.66.49-.96.76-.24-.07-.47-.15-.7-.23v-1.9c.57-.65 1.2-1.24 1.92-1.76-.11-.01-.18-.04-.22-.09-.05-.05-.06-.12-.04-.21-.64.44-1.13.89-1.66 1.44l-.01-.9v-2.1c-.13.09-.29.07-.46 0v3.02c-.54-.56-1.04-1.02-1.68-1.46.02.08.01.15-.04.21-.04.05-.11.08-.22.09.72.52 1.37 1.12 1.94 1.78v1.7c-1.8-.73-3.39-1.9-4.63-3.37.77-.22 1.5-.55 2.35-.82-.84-1.74-2.41-2.23-3.92-1.61a11.62 11.62 0 0 1-1.2-5.16c0-5.61 3.96-10.34 9.2-11.53h36.52c10.56 0 19.19-8.65 19.19-19.23 0-10.57-8.63-19.23-19.19-19.23h-26.01c-5.64-.88-9.99-5.79-9.99-11.67 0-6.51 5.31-11.83 11.8-11.83h117.62zm-54.28 90.01h-.83l.12-.01c.36-.03.22-.14.18-.21-.05-.07-.45-.5-.74-.74-.07-.54-.92-.97-1.12-1.68-.2-.73.15-3.14.19-3.75.03-.61.32-1.03.45-2.25.08-.77.36-1.55.54-1.72.05.15.08.1.13.65.08.94.02 1.27.11 1.61.09.33.01 1.36-.02 1.69-.03.33-.39 3.05-.42 3.52-.03.47.21.6.44.69.23.09.51.58.59.68.07.1.44.48.36.58-.08.1-.49.22-.29.63.07.15.19.25.31.31zm-2.5 0h-15.19c.06-.2-.19-.7-.52-1.12-.38-.48-1.01-.72-1.1-1.09-.08-.37-.16-1.39-.14-1.63.03-.24-.05-1.03-.04-1.33.02-.31-.07-3 .24-3.71.3-.72 1.26-3.51 1.71-4.22.2-.32.56-1.21.91-2.22.27-.77 1.14-1.14 1.87-.79.78.38 1.69.78 2.35 1 1.31.43 3.39.96 5.7.81 2.13-.13 3.08-.07 3.36-.15-.02.53-.01 1.1 0 1.45.03.72-.04 2.19-.2 3.12-.16.93-.04 1.27.04 1.61.07.34-.05 1.37-.09 1.7-.05.32-.53 3.03-.58 3.5-.05.46.18.6.41.7.23.1.48.6.56.71.07.1.42.5.33.59-.08.1-.49.2-.31.62.14.32.48.41.69.45zm-17.92 0h-1.61l.04-.02c.19-.09-.04-.46-.36-.98-.31-.52-.91-.84-.95-1.21-.04-.38 0-1.41.05-1.64.06-.23.07-1.03.13-1.33.05-.3.29-2.98.68-3.65.2-.35.65-1.25 1.11-2.11.22.97.28 2.63.21 3.3-.07.69.16 2.75-.19 3.75-.24.7.39 1.3.72 1.76.33.46.05 1.62-.02 1.84-.04.1.03.21.19.29zm25.2-74.41a3.03 3.03 0 0 1 3.03 3.04 3.03 3.03 0 0 1-3.03 3.04c-1.67 0-3.04-1.36-3.04-3.04s1.37-3.04 3.04-3.04zm-145.99 6.34h-3.79v-3.79c0-.88-.72-1.6-1.6-1.6-.87 0-1.6.72-1.6 1.6v3.79h-3.77c-.88 0-1.6.72-1.6 1.6 0 .87.72 1.6 1.6 1.6h3.77v3.78c0 .89.73 1.6 1.6 1.6.88 0 1.6-.71 1.6-1.6V235h3.79c.87 0 1.58-.73 1.58-1.6 0-.88-.71-1.6-1.58-1.6zm32.67 40.76c6 0 10.87 4.88 10.87 10.9 0 6.03-4.87 10.91-10.87 10.91-6.02 0-10.89-4.88-10.89-10.91 0-6.02 4.87-10.9 10.89-10.9zm-227.7 27.31H50.57v-28.2h98.72v28.2zm-136.77.01c-9.22 1-13.09-4.75-12.45-12.55v-74.28a3.02 3.02 0 0 0 2.21-2.92c0-1.4-.93-2.57-2.21-2.93v-15.71H90.4c8.81 0 16.02 7.22 16.02 16.05 0 7.3-4.94 13.51-11.64 15.43H39.19c-10.4 0-19.32 6.63-22.78 15.87a8.994 8.994 0 0 0-3.89 7.42v53.62zm11.03-33.95c1.89 1.59 4.01 2.9 6.32 3.87v2.84h-6.7v-6.71h.38zm9.66 4.99c1.92.49 3.92.75 5.98.75h.73v.97h-6.71v-1.72zm126.75.75h6.69v1h-6.69v-1zm10.05 0h6.7v1h-6.7v-1zm22.69 5.14c1.48 1.7 2.62 3.71 3.29 5.92h-3.29v-5.92zm3.91 9.27c.04.42.06.85.06 1.28 0 1.9-.34 3.74-.96 5.44h-3.01v-6.72h3.91zm-64.47-95.54c7.99 0 14.47 7 14.47 15.61 0 8.62-6.48 15.61-14.47 15.61s-14.47-6.99-14.47-15.61c0-8.61 6.48-15.61 14.47-15.61zM95.42 252.4c.87 0 1.59.72 1.59 1.6 0 .88-.72 1.6-1.59 1.6h-3.79v3.78c0 .88-.71 1.61-1.6 1.61-.87 0-1.59-.73-1.59-1.61v-3.78h-3.78c-.88 0-1.6-.72-1.6-1.6 0-.88.72-1.6 1.6-1.6h3.78v-3.79c0-.88.72-1.59 1.59-1.59.89 0 1.6.71 1.6 1.59v3.79h3.79z" style="fill:#797bf7"/><path d="M497.09 284.98c.26-.09.52-.11.76-.07-.64.37-1.26.88-1.74 1.55-.1-.62.31-1.25.98-1.48zm-354.98-10.54c0 .24-.02.49-.06.72.65.88 1.03 1.96 1.03 3.13 0 .61-.11 1.2-.29 1.75a6.72 6.72 0 0 1 1.73 4.52c0 3.41-2.51 6.21-5.79 6.69V300h-1.93v-8.75c-3.26-.48-5.78-3.28-5.78-6.69 0-1.73.65-3.32 1.73-4.52-.18-.55-.29-1.14-.29-1.75 0-1.17.38-2.25 1.03-3.13a4.338 4.338 0 0 1 4.28-5.07c2.4 0 4.34 1.94 4.34 4.35zm-75.62 0c0 .24-.02.49-.06.72a5.354 5.354 0 0 1 .73 4.88 6.73 6.73 0 0 1 1.74 4.52c0 3.41-2.52 6.21-5.79 6.69V300h-1.93v-8.75c-3.27-.48-5.79-3.28-5.79-6.69 0-1.73.66-3.32 1.74-4.52-.18-.55-.29-1.14-.29-1.75 0-1.17.37-2.25 1.02-3.13a4.338 4.338 0 0 1 4.28-5.07 4.34 4.34 0 0 1 4.35 4.35zM73.67 300v-32.62l14.53 4.58v-4.58l14.53 4.58v-4.58l14 4.42v-14.34h9.52V300H73.67zm14.57-19.01h-6.7v6.71h6.7v-6.71zm10.04 0h-6.7v6.71h6.7v-6.71zm10.05 0h-6.69v6.71h6.69v-6.71zm10.04 0h-6.69v6.71h6.69v-6.71zm117.79-6.56c0 .26-.02.5-.06.73.65.88 1.03 1.96 1.03 3.13 0 .61-.11 1.2-.29 1.75a6.72 6.72 0 0 1 1.73 4.52 6.75 6.75 0 0 1-5.78 6.69V300h-1.93v-8.75a6.76 6.76 0 0 1-5.79-6.69c0-1.73.66-3.32 1.74-4.52-.19-.55-.29-1.14-.29-1.75 0-1.17.37-2.25 1.02-3.13a4.23 4.23 0 0 1-.06-.73c0-2.4 1.94-4.34 4.34-4.34a4.33 4.33 0 0 1 4.34 4.34zm10.51 15.78v-.56h-1.16v.56h1.16zm7.37 0v-.56h-1.16v.56h1.16zm2.37 3.07-2.37.51v-1.67h-1.16v1.92l-2.37.56s-.45 5.4 6.82 5.4c-1.02-.96-2.02-3.74-.92-6.72zm-12.77-2.77h14.29v1.31h-14.29v-1.31zm14.6-.76h3.78v2.83h-3.78v-2.83zm1.25 3.13v.61h1.27v-.61h-1.27zm1.27-4.04h-1.27v.61h1.27v-.61zm-11.71 4.44-2.38.51v-1.67h-1.16v1.92l-2.37.56s-.45 5.4 6.82 5.4c-1.01-.96-2.02-3.74-.91-6.72zm147.86-3.49-4.25 7.44h-8.72l-4.25-7.44 1.27-2.12-3.61-2.13c-.42-2.55-1.49-4.68-2.98-6.59l.43-.21 8.29 5.31.85-1.7h8.72l4.25 7.44zm-46.35-24.87-10.62.85-5.11-12.33-10.2 1.91-.43-3.61 10.63-3.4 5.11 1.7 10.62 14.88zm11.06-1.28v-9.78l13.82 1.07 1.91 8.71h-15.73zm15.52-10.63-17.86-1.48v14.67l-33.16 2.76v14.45l3.82 2.55c1.7-1.91 4.26-3.18 7.23-3.18 5.1 0 9.36 4.03 9.57 8.93h3.19c-.43-1.07-.64-2.34-.64-3.83 0-7.65 6.38-14.03 14.24-14.03 3.4 0 6.8 1.27 9.14 3.4l1.7-.64 5.53-11.27-2.76-12.33zm-39.97 42.52c-1.91 0-3.19-1.27-3.19-3.19 0-1.7 1.28-3.19 3.19-3.19 1.7 0 3.19 1.49 3.19 3.19 0 1.92-1.49 3.19-3.19 3.19zm0-10.63c-4.25 0-7.65 3.4-7.65 7.44 0 4.25 3.4 7.66 7.65 7.66 4.04 0 7.44-3.41 7.44-7.66 0-4.04-3.4-7.44-7.44-7.44zm26.36 9.36c-3.61 0-6.38-2.77-6.38-6.38 0-3.4 2.77-6.17 6.38-6.17 3.4 0 6.17 2.77 6.17 6.17 0 3.61-2.77 6.38-6.17 6.38zm0-18.29c-6.59 0-12.12 5.32-12.12 11.91S356.94 300 363.53 300c6.59 0 11.91-5.53 11.91-12.12 0-6.59-5.32-11.91-11.91-11.91zm88.03-1.53c0 .25-.02.49-.06.72.65.88 1.03 1.96 1.03 3.13 0 .61-.11 1.2-.29 1.75a6.746 6.746 0 0 1 1.73 4.53c0 3.4-2.51 6.2-5.79 6.68V300h-1.92v-8.75c-3.27-.48-5.79-3.28-5.79-6.68 0-1.74.65-3.33 1.73-4.53-.18-.55-.29-1.14-.29-1.75 0-1.17.38-2.25 1.03-3.13a4.338 4.338 0 0 1 4.28-5.07c2.4 0 4.34 1.94 4.34 4.35zm43.69 15.7c.32 2.2 1.12 3.66 1.19 4.13.08.48.01 1.1 0 1.54 0 .44.41 1.28.48 1.66.06.38.01 1.75-.01 1.98-.02.23.04.54.36.17.32.32 1.24.65 1.04-.03-.13-.41-.29-2.39-.17-2.77.12-.39.4-.96.57-1.35.17-.39.51-1.43.56-1.59.04-.17.08.41-.01.78-.08.37.01.7.33.91.15.09.2.71.28 1.09.08.37.25 1.68.28 2.16.03.48.21 1.19.47.72.18.28 1.2.7.92-.02-.29-.73-.35-2.18-.35-2.56 0-.52.1-1.46.23-1.93.04-.14.06-.22.08-.29.1-.38.53-.57.88-.38.67.36 1.38 1.03 4.3 1.06 4.32.05 6.67-2.15 6.86-1.75.02.03.03.06.04.09.15.29.23.6.27.93.07.6.12 1.17.11 1.63-.01.4-.05 1.37-.22 1.88-.17.51.1 1.35.38.79.08.41.62.68 1.03.83.41.15-.03-.79-.06-1.03-.02-.22-.01-.95.2-1.65.04.11.07.2.11.3.13.38.34 1.08.36 1.62.02.55.56 1.21.63.58.21.35.8.38 1.24.35.43-.03-.31-.73-.41-.94-.11-.21-.32-.8-.33-1.71 0-.91.16-3.04.42-3.68.25-.63 2.16-.7 2.9-.73h.25c.36 0 .71.07 1.05.19.7.25 1.64.09 1.8.06.21-.03.91.01 1.29-.14.38-.15.91-.41 1.21-.46.29-.05.63-.06 1.03-.15.14-.04.16-.22.11-.28.04-.06.04-.04.15-.2.12-.16.07-.39.11-.51.04-.11.24-.38.27-.69.02-.31-.07-.32-.14-.35-.08-.03-.22.09-.36.06-.14-.04-.97-.64-1.4-.95-.42-.31-.8-.84-.9-1.22-.41-1.49-.65-1.36-.71-1.75-.07-.38.3-.78.54-1.5.23-.73.01-1.18-.13-1.59-.15-.42-.4-.35-.57-.27-.18.09-.25.42-.34.66-.04.09-.19.3-.35.56-.1-.45-.34-.73-.54-1-.26-.36-.47-.23-.62-.09-.14.13-.11.46-.14.72-.01.15-.21.64-.28 1.12-.93-.35-2.65-.98-5.07-1.11-2.51-.15-5.59.5-8.08.41-2.49-.08-6.25-.47-7.91-.39-.43.03-1.03.15-1.67.39-.53-.38-1.27-.49-1.99-.25-1.11.39-1.73 1.5-1.39 2.49.06.17.15.33.26.47-.39.8-.58 1.79-.44 2.98z" class="fil2"/></g><g id="_1601823662032"><path d="M40.98 40.56c0-1.88.39-3.55 1.18-5.02.78-1.47 1.9-2.62 3.34-3.44 1.45-.82 3.11-1.24 4.99-1.24 2.38 0 4.38.64 6.01 1.91 1.62 1.28 2.67 3.01 3.14 5.19h-5.71c-.35-.72-.82-1.27-1.43-1.65-.6-.38-1.3-.57-2.1-.57-1.22 0-2.2.44-2.93 1.31-.73.88-1.1 2.05-1.1 3.51 0 1.48.37 2.66 1.1 3.54.73.87 1.71 1.31 2.93 1.31.8 0 1.5-.19 2.1-.57.61-.38 1.08-.93 1.43-1.65h5.71c-.47 2.18-1.52 3.91-3.14 5.18-1.63 1.28-3.63 1.91-6.01 1.91-1.88 0-3.54-.41-4.99-1.23a8.446 8.446 0 0 1-3.34-3.44c-.79-1.47-1.18-3.15-1.18-5.05zm28.25 9.78c-1.52 0-2.88-.32-4.08-.95a6.964 6.964 0 0 1-2.83-2.71c-.68-1.17-1.03-2.55-1.03-4.14 0-1.57.35-2.94 1.05-4.12a7.055 7.055 0 0 1 2.84-2.71c1.2-.63 2.56-.95 4.08-.95 1.51 0 2.87.32 4.07.95 1.2.63 2.15 1.54 2.85 2.71.69 1.18 1.04 2.55 1.04 4.12 0 1.57-.35 2.95-1.04 4.13a7.064 7.064 0 0 1-2.86 2.72c-1.21.63-2.58.95-4.09.95zm0-4.61c.74 0 1.36-.27 1.85-.82.5-.55.75-1.34.75-2.37s-.25-1.82-.75-2.36c-.49-.54-1.1-.81-1.82-.81-.73 0-1.33.27-1.82.81s-.73 1.33-.73 2.36c0 1.05.23 1.84.7 2.38.47.54 1.08.81 1.82.81zm30.01-10.91c1.91 0 3.41.58 4.51 1.73 1.09 1.16 1.64 2.74 1.64 4.74v8.86h-5.31V42c0-.82-.23-1.45-.68-1.9-.45-.45-1.07-.68-1.84-.68-.78 0-1.39.23-1.84.68-.46.45-.68 1.08-.68 1.9v8.15h-5.31V42c0-.82-.22-1.45-.66-1.9-.45-.45-1.06-.68-1.83-.68-.8 0-1.42.23-1.87.68-.45.45-.68 1.08-.68 1.9v8.15h-5.31v-15.2h5.31v2.01a5.15 5.15 0 0 1 1.83-1.56c.75-.39 1.61-.58 2.59-.58 1.12 0 2.11.24 2.99.73.88.49 1.57 1.17 2.07 2.06.54-.83 1.26-1.5 2.14-2.02.89-.51 1.86-.77 2.93-.77zm23.56 7.56c0 .41-.03.83-.08 1.24h-10.05c.05.83.28 1.45.69 1.86.41.4.93.61 1.56.61.88 0 1.51-.4 1.89-1.2h5.66a6.64 6.64 0 0 1-1.36 2.81c-.68.82-1.53 1.46-2.56 1.93s-2.17.71-3.41.71c-1.5 0-2.84-.32-4-.95a6.744 6.744 0 0 1-2.74-2.71c-.66-1.17-.98-2.55-.98-4.14 0-1.59.32-2.97.97-4.13a6.733 6.733 0 0 1 2.72-2.7c1.17-.63 2.51-.95 4.03-.95 1.49 0 2.82.31 3.98.93 1.15.61 2.05 1.49 2.7 2.64.65 1.14.98 2.49.98 4.05zm-5.42-1.33c0-.65-.21-1.16-.65-1.53-.43-.37-.97-.56-1.62-.56-.65 0-1.19.18-1.6.53-.42.35-.69.87-.81 1.56h4.68zm6.72 1.49c0-1.57.32-2.94.97-4.12a6.72 6.72 0 0 1 2.73-2.71c1.16-.63 2.49-.95 3.99-.95 1.93 0 3.56.53 4.88 1.59 1.31 1.06 2.16 2.53 2.54 4.43h-5.63c-.33-1-.96-1.49-1.9-1.49-.67 0-1.19.27-1.58.82-.39.55-.58 1.36-.58 2.43 0 1.06.19 1.88.58 2.44.39.56.91.83 1.58.83.96 0 1.59-.49 1.9-1.48h5.63c-.38 1.87-1.23 3.35-2.54 4.41-1.32 1.07-2.95 1.6-4.88 1.6-1.5 0-2.83-.32-3.99-.95a6.66 6.66 0 0 1-2.73-2.71c-.65-1.17-.97-2.55-.97-4.14zm31.82-.16c0 .41-.03.83-.08 1.24h-10.05c.06.83.29 1.45.69 1.86.41.4.93.61 1.56.61.89 0 1.52-.4 1.9-1.2h5.66a6.657 6.657 0 0 1-1.37 2.81c-.68.82-1.53 1.46-2.56 1.93s-2.17.71-3.41.71c-1.5 0-2.83-.32-4-.95a6.781 6.781 0 0 1-2.73-2.71c-.66-1.17-.99-2.55-.99-4.14 0-1.59.32-2.97.97-4.13a6.696 6.696 0 0 1 2.73-2.7c1.16-.63 2.5-.95 4.02-.95 1.5 0 2.82.31 3.98.93 1.15.61 2.06 1.49 2.71 2.64.65 1.14.97 2.49.97 4.05zm-5.41-1.33c0-.65-.22-1.16-.65-1.53-.44-.37-.98-.56-1.63-.56-.65 0-1.18.18-1.6.53-.41.35-.68.87-.81 1.56h4.69zm11.88 1.49c0-1.57.29-2.94.86-4.12.57-1.17 1.34-2.08 2.33-2.71.98-.63 2.08-.95 3.29-.95 1.05 0 1.95.21 2.71.63.75.41 1.34.97 1.76 1.68v-2.12h5.31v15.2h-5.31v-2.11c-.42.7-1.01 1.26-1.78 1.67-.76.42-1.66.63-2.69.63-1.21 0-2.31-.32-3.29-.95-.99-.63-1.76-1.54-2.33-2.72-.57-1.18-.86-2.56-.86-4.13zm10.95 0c0-.98-.27-1.74-.8-2.3-.53-.56-1.19-.84-1.97-.84-.79 0-1.45.27-1.97.82-.53.55-.79 1.33-.79 2.32 0 .97.26 1.74.79 2.31.52.57 1.18.86 1.97.86.78 0 1.44-.28 1.97-.84.53-.56.8-1.34.8-2.33zm29.06-7.59v15.2h-5.34v-2.17c-.45.69-1.07 1.24-1.87 1.67-.79.42-1.7.63-2.73.63-1.77 0-3.17-.58-4.19-1.74-1.02-1.17-1.53-2.75-1.53-4.76v-8.83h5.28v8.16c0 .86.24 1.55.7 2.04.46.5 1.06.75 1.82.75.78 0 1.39-.25 1.85-.75.45-.49.67-1.18.67-2.04v-8.16h5.34zm9.51 15.39c-1.38 0-2.6-.23-3.68-.69-1.07-.46-1.92-1.09-2.54-1.9-.62-.8-.97-1.71-1.04-2.72h5.14c.07.49.3.87.68 1.14.38.27.85.4 1.41.4.43 0 .77-.09 1.03-.27.25-.18.38-.41.38-.7 0-.38-.21-.66-.63-.84-.41-.18-1.1-.38-2.06-.6-1.08-.21-1.98-.46-2.7-.73-.73-.27-1.35-.71-1.89-1.33-.53-.61-.79-1.44-.79-2.49 0-.9.24-1.72.73-2.45.48-.73 1.2-1.31 2.15-1.74.95-.44 2.09-.66 3.43-.66 1.98 0 3.54.49 4.68 1.47 1.14.97 1.8 2.25 1.98 3.84h-4.8c-.09-.48-.3-.86-.63-1.12-.34-.26-.78-.39-1.34-.39-.44 0-.77.08-.99.24-.23.16-.34.39-.34.68 0 .36.21.63.62.82.42.19 1.09.39 2.01.59 1.1.23 2.02.49 2.75.78.73.29 1.37.76 1.92 1.4.55.64.83 1.51.83 2.61 0 .88-.26 1.68-.78 2.38-.51.71-1.24 1.26-2.19 1.67-.95.41-2.06.61-3.34.61zm8.04-7.8c0-1.57.28-2.94.85-4.12.57-1.17 1.35-2.08 2.33-2.71.99-.63 2.08-.95 3.29-.95 1.05 0 1.95.21 2.71.63.76.41 1.35.97 1.76 1.68v-2.12h5.31v15.2h-5.31v-2.11c-.41.7-1.01 1.26-1.77 1.67-.77.42-1.67.63-2.7.63-1.21 0-2.3-.32-3.29-.95-.98-.63-1.76-1.54-2.33-2.72-.57-1.18-.85-2.56-.85-4.13zm10.94 0c0-.98-.27-1.74-.8-2.3-.53-.56-1.19-.84-1.96-.84-.8 0-1.46.27-1.98.82-.52.55-.78 1.33-.78 2.32 0 .97.26 1.74.78 2.31.52.57 1.18.86 1.98.86.77 0 1.43-.28 1.96-.84.53-.56.8-1.34.8-2.33zm13.65-4.9c.6-.87 1.32-1.56 2.17-2.06.85-.51 1.76-.76 2.73-.76v5.66h-1.49c-1.15 0-2.01.23-2.57.68-.56.45-.84 1.23-.84 2.35v6.64h-5.31v-15.2h5.31v2.69zm19.04 12.7c-1.52 0-2.87-.32-4.08-.95a6.964 6.964 0 0 1-2.83-2.71c-.68-1.17-1.03-2.55-1.03-4.14 0-1.57.35-2.94 1.05-4.12a7.055 7.055 0 0 1 2.84-2.71c1.2-.63 2.56-.95 4.08-.95 1.51 0 2.87.32 4.07.95 1.21.63 2.15 1.54 2.85 2.71.69 1.18 1.04 2.55 1.04 4.12 0 1.57-.35 2.95-1.04 4.13a7.064 7.064 0 0 1-2.86 2.72c-1.21.63-2.57.95-4.09.95zm0-4.61c.74 0 1.36-.27 1.86-.82.49-.55.74-1.34.74-2.37s-.25-1.82-.74-2.36c-.5-.54-1.11-.81-1.83-.81s-1.33.27-1.82.81c-.48.54-.73 1.33-.73 2.36 0 1.05.24 1.84.71 2.38.47.54 1.07.81 1.81.81zm14.68-5.17c0-1.88.39-3.55 1.18-5.02.78-1.47 1.9-2.62 3.34-3.44 1.45-.82 3.11-1.24 4.99-1.24 2.38 0 4.38.64 6.01 1.91 1.62 1.28 2.67 3.01 3.14 5.19h-5.71c-.35-.72-.82-1.27-1.43-1.65-.6-.38-1.3-.57-2.09-.57-1.23 0-2.21.44-2.94 1.31-.73.88-1.1 2.05-1.1 3.51 0 1.48.37 2.66 1.1 3.54.73.87 1.71 1.31 2.94 1.31.79 0 1.49-.19 2.09-.57.61-.38 1.08-.93 1.43-1.65h5.71c-.47 2.18-1.52 3.91-3.14 5.18-1.63 1.28-3.63 1.91-6.01 1.91-1.88 0-3.54-.41-4.99-1.23a8.446 8.446 0 0 1-3.34-3.44c-.79-1.47-1.18-3.15-1.18-5.05zm30.85 9.59-3.79-7.04h-.57v7.04h-5.31v-19.1h8.37c1.53 0 2.83.27 3.9.8 1.06.54 1.87 1.27 2.41 2.2.54.93.81 1.97.81 3.13 0 1.3-.35 2.44-1.07 3.42-.71.99-1.75 1.68-3.13 2.1l4.31 7.45h-5.93zm-4.36-10.67h2.63c.72 0 1.26-.17 1.62-.52.36-.34.54-.84.54-1.49 0-.61-.18-1.09-.55-1.45-.37-.35-.91-.52-1.61-.52h-2.63v3.98zm34.88-8.43v19.1h-5.31V39.61l-3.6 10.54h-4.44l-3.63-10.62v10.62h-5.31v-19.1h6.42l4.8 12.41 4.68-12.41h6.39zm13.52 0v19.1h-5.31v-19.1h5.31zm22.88 3.77c1.92 0 3.42.58 4.51 1.73 1.09 1.16 1.64 2.74 1.64 4.74v8.86h-5.31V42c0-.82-.22-1.45-.67-1.9-.46-.45-1.07-.68-1.85-.68-.77 0-1.39.23-1.84.68-.45.45-.68 1.08-.68 1.9v8.15h-5.3V42c0-.82-.22-1.45-.67-1.9-.44-.45-1.05-.68-1.83-.68-.79 0-1.41.23-1.86.68-.46.45-.68 1.08-.68 1.9v8.15h-5.31v-15.2h5.31v2.01a5.15 5.15 0 0 1 1.83-1.56c.75-.39 1.61-.58 2.58-.58 1.12 0 2.12.24 3 .73a5.39 5.39 0 0 1 2.07 2.06c.54-.83 1.25-1.5 2.14-2.02a5.74 5.74 0 0 1 2.92-.77zm16.12 15.52c-1.52 0-2.88-.32-4.08-.95a6.964 6.964 0 0 1-2.83-2.71c-.68-1.17-1.03-2.55-1.03-4.14 0-1.57.35-2.94 1.04-4.12.7-1.17 1.65-2.08 2.85-2.71 1.2-.63 2.56-.95 4.07-.95 1.52 0 2.88.32 4.08.95 1.2.63 2.15 1.54 2.84 2.71.7 1.18 1.05 2.55 1.05 4.12 0 1.57-.35 2.95-1.05 4.13a6.977 6.977 0 0 1-2.85 2.72c-1.21.63-2.58.95-4.09.95zm0-4.61c.74 0 1.36-.27 1.85-.82.5-.55.75-1.34.75-2.37s-.25-1.82-.75-2.36a2.37 2.37 0 0 0-1.83-.81c-.72 0-1.32.27-1.81.81s-.73 1.33-.73 2.36c0 1.05.23 1.84.7 2.38.47.54 1.08.81 1.82.81zm15.46-8.66c.42-.73 1-1.29 1.76-1.7.76-.4 1.65-.61 2.68-.61 1.21 0 2.31.32 3.29.95.99.63 1.77 1.54 2.33 2.71.57 1.18.86 2.55.86 4.12 0 1.57-.29 2.95-.86 4.13-.56 1.18-1.34 2.09-2.33 2.72-.98.63-2.08.95-3.29.95-1.03 0-1.92-.2-2.68-.61-.76-.41-1.34-.97-1.76-1.69v2.11h-5.31V30.11h5.31v6.96zm5.53 5.47c0-.99-.27-1.77-.8-2.32-.53-.55-1.19-.82-1.96-.82-.78 0-1.44.28-1.97.84-.53.56-.8 1.32-.8 2.3 0 .99.27 1.77.8 2.33s1.19.84 1.97.84c.77 0 1.43-.29 1.96-.86.53-.57.8-1.34.8-2.31zm10.26-8.99c-.94 0-1.69-.26-2.26-.78-.57-.51-.85-1.16-.85-1.93 0-.8.28-1.46.85-1.98s1.32-.79 2.26-.79c.92 0 1.67.27 2.24.79.57.52.85 1.18.85 1.98 0 .77-.28 1.42-.85 1.93-.57.52-1.32.78-2.24.78zm2.63 1.4v15.2h-5.31v-15.2h5.31zm8.34-4.84v20.04h-5.31V30.11h5.31zm5.72 3.44c-.94 0-1.7-.26-2.26-.78-.57-.51-.86-1.16-.86-1.93 0-.8.29-1.46.86-1.98.56-.52 1.32-.79 2.26-.79.92 0 1.66.27 2.23.79.57.52.85 1.18.85 1.98 0 .77-.28 1.42-.85 1.93-.57.52-1.31.78-2.23.78zm2.62 1.4v15.2h-5.31v-15.2h5.31zm2.17 7.59c0-1.57.28-2.94.85-4.12.57-1.17 1.35-2.08 2.33-2.71.99-.63 2.08-.95 3.29-.95 1.05 0 1.95.21 2.71.63.76.41 1.35.97 1.76 1.68v-2.12h5.31v15.2h-5.31v-2.11c-.41.7-1 1.26-1.77 1.67-.77.42-1.67.63-2.7.63-1.21 0-2.3-.32-3.29-.95-.98-.63-1.76-1.54-2.33-2.72-.57-1.18-.85-2.56-.85-4.13zm10.94 0c0-.98-.26-1.74-.8-2.3-.53-.56-1.18-.84-1.96-.84-.79 0-1.45.27-1.98.82-.52.55-.78 1.33-.78 2.32 0 .97.26 1.74.78 2.31.53.57 1.19.86 1.98.86.78 0 1.43-.28 1.96-.84.54-.56.8-1.34.8-2.33zm1.06-11.27-6.77 2.65v-3.6l6.77-3.06v4.01zm12.59 6.37c.6-.87 1.32-1.56 2.17-2.06.85-.51 1.76-.76 2.73-.76v5.66h-1.48c-1.16 0-2.02.23-2.58.68-.56.45-.84 1.23-.84 2.35v6.64h-5.31v-15.2h5.31v2.69zm9.48-4.09c-.94 0-1.69-.26-2.26-.78-.57-.51-.85-1.16-.85-1.93 0-.8.28-1.46.85-1.98s1.32-.79 2.26-.79c.92 0 1.67.27 2.24.79.57.52.85 1.18.85 1.98 0 .77-.28 1.42-.85 1.93-.57.52-1.32.78-2.24.78zm2.63 1.4v15.2h-5.31v-15.2h5.31zm10.1 15.39c-1.52 0-2.87-.32-4.07-.95a6.843 6.843 0 0 1-2.83-2.71c-.69-1.17-1.03-2.55-1.03-4.14 0-1.57.34-2.94 1.04-4.12a7.055 7.055 0 0 1 2.84-2.71c1.2-.63 2.56-.95 4.08-.95 1.51 0 2.87.32 4.07.95 1.21.63 2.15 1.54 2.85 2.71.69 1.18 1.04 2.55 1.04 4.12 0 1.57-.35 2.95-1.04 4.13a7.064 7.064 0 0 1-2.86 2.72c-1.21.63-2.57.95-4.09.95zm0-4.61c.74 0 1.36-.27 1.86-.82.49-.55.74-1.34.74-2.37s-.25-1.82-.74-2.36c-.5-.54-1.11-.81-1.83-.81s-1.33.27-1.82.81c-.48.54-.73 1.33-.73 2.36 0 1.05.24 1.84.71 2.38.47.54 1.07.81 1.81.81zM145.39 74.71c0-1.57.28-2.94.85-4.11.57-1.18 1.35-2.08 2.34-2.71 1-.63 2.1-.95 3.31-.95.97 0 1.84.2 2.61.61.77.4 1.37.96 1.8 1.66v-6.93h5.34v20.04h-5.34v-2.11c-.41.7-1 1.26-1.76 1.68-.76.42-1.65.62-2.68.62-1.21 0-2.31-.31-3.29-.95-.98-.63-1.76-1.53-2.33-2.72-.57-1.18-.85-2.56-.85-4.13zm10.94 0c0-.97-.27-1.74-.8-2.3-.53-.56-1.19-.84-1.96-.84-.8 0-1.46.28-1.98.83-.52.55-.78 1.32-.78 2.31 0 .98.26 1.75.78 2.32.52.57 1.18.85 1.98.85.77 0 1.43-.28 1.96-.84.53-.56.8-1.33.8-2.33zm22.86-.16c0 .41-.03.83-.08 1.25h-10.05c.05.83.28 1.44.69 1.85.41.41.93.61 1.56.61.88 0 1.51-.4 1.89-1.19h5.66a6.601 6.601 0 0 1-1.36 2.8c-.68.82-1.53 1.47-2.56 1.94s-2.17.7-3.42.7c-1.49 0-2.83-.31-3.99-.95a6.781 6.781 0 0 1-2.74-2.7c-.66-1.18-.99-2.56-.99-4.15 0-1.59.33-2.96.98-4.13a6.77 6.77 0 0 1 2.72-2.69c1.17-.63 2.51-.95 4.02-.95 1.5 0 2.83.31 3.99.92 1.15.61 2.05 1.49 2.7 2.64.65 1.15.98 2.5.98 4.05zm-5.42-1.33c0-.65-.21-1.16-.65-1.53-.43-.37-.97-.55-1.62-.55-.65 0-1.19.17-1.6.53-.42.35-.69.87-.81 1.55h4.68zm32.61-6.23c1.91 0 3.42.58 4.51 1.74 1.09 1.15 1.64 2.73 1.64 4.74v8.85h-5.31v-8.15c0-.81-.23-1.44-.68-1.89-.45-.46-1.06-.68-1.84-.68s-1.39.22-1.84.68c-.45.45-.68 1.08-.68 1.89v8.15h-5.31v-8.15c0-.81-.22-1.44-.66-1.89-.44-.46-1.05-.68-1.83-.68-.79 0-1.42.22-1.87.68-.45.45-.67 1.08-.67 1.89v8.15h-5.31V67.13h5.31v2c.47-.65 1.08-1.17 1.82-1.55.75-.39 1.62-.59 2.59-.59 1.12 0 2.12.25 2.99.73.88.49 1.57 1.18 2.08 2.06.54-.83 1.25-1.5 2.14-2.01a5.65 5.65 0 0 1 2.92-.78zm8.18 7.72c0-1.57.28-2.94.85-4.11.57-1.18 1.35-2.08 2.33-2.71.99-.63 2.08-.95 3.29-.95 1.05 0 1.95.21 2.71.62.76.42 1.35.98 1.76 1.68v-2.11h5.31v15.19h-5.31v-2.11c-.41.7-1.01 1.26-1.77 1.68-.77.42-1.67.62-2.7.62-1.21 0-2.3-.31-3.29-.95-.98-.63-1.76-1.53-2.33-2.72-.57-1.18-.85-2.56-.85-4.13zm10.94 0c0-.97-.26-1.74-.8-2.3-.53-.56-1.18-.84-1.96-.84-.8 0-1.45.28-1.98.83-.52.55-.78 1.32-.78 2.31 0 .98.26 1.75.78 2.32.53.57 1.18.85 1.98.85.78 0 1.43-.28 1.96-.84.54-.56.8-1.33.8-2.33zm18.28-7.72c1.75 0 3.14.59 4.17 1.75 1.03 1.16 1.55 2.74 1.55 4.73v8.85h-5.31v-8.15c0-.87-.23-1.55-.68-2.04-.45-.5-1.05-.75-1.81-.75-.8 0-1.42.25-1.87.75-.45.49-.68 1.17-.68 2.04v8.15h-5.31V67.13h5.31v2.17c.47-.69 1.1-1.25 1.9-1.67.79-.42 1.7-.64 2.73-.64zm23.16 7.56c0 .41-.03.83-.08 1.25h-10.05c.05.83.29 1.44.69 1.85.41.41.93.61 1.56.61.88 0 1.51-.4 1.89-1.19h5.66a6.601 6.601 0 0 1-1.36 2.8c-.68.82-1.53 1.47-2.56 1.94s-2.17.7-3.41.7c-1.5 0-2.84-.31-4-.95a6.843 6.843 0 0 1-2.74-2.7c-.65-1.18-.98-2.56-.98-4.15 0-1.59.32-2.96.97-4.13a6.77 6.77 0 0 1 2.72-2.69c1.17-.63 2.51-.95 4.03-.95 1.49 0 2.82.31 3.98.92 1.15.61 2.05 1.49 2.71 2.64.64 1.15.97 2.5.97 4.05zm-5.42-1.33c0-.65-.21-1.16-.65-1.53-.43-.37-.97-.55-1.62-.55-.65 0-1.19.17-1.6.53-.42.35-.69.87-.81 1.55h4.68zm10.27-7.5c-.94 0-1.7-.26-2.26-.77-.57-.52-.86-1.16-.86-1.94 0-.79.29-1.45.86-1.98.56-.52 1.32-.78 2.26-.78.92 0 1.66.26 2.23.78.57.53.85 1.19.85 1.98 0 .78-.28 1.42-.85 1.94-.57.51-1.31.77-2.23.77zm2.62 1.41v15.19h-5.3V67.13h5.3zm8.35 2.68c.59-.87 1.32-1.55 2.16-2.06.85-.5 1.76-.76 2.74-.76v5.66h-1.49c-1.16 0-2.01.23-2.57.68-.56.45-.84 1.24-.84 2.36v6.63h-5.31V67.13h5.31v2.68zm5.93 4.9c0-1.57.28-2.94.85-4.11.57-1.18 1.35-2.08 2.33-2.71.98-.63 2.08-.95 3.29-.95 1.05 0 1.95.21 2.71.62.76.42 1.34.98 1.76 1.68v-2.11h5.31v15.19h-5.31v-2.11c-.42.7-1.01 1.26-1.77 1.68-.77.42-1.67.62-2.7.62-1.21 0-2.31-.31-3.29-.95-.98-.63-1.76-1.53-2.33-2.72-.57-1.18-.85-2.56-.85-4.13zm10.94 0c0-.97-.27-1.74-.8-2.3-.53-.56-1.19-.84-1.96-.84-.8 0-1.46.28-1.98.83-.52.55-.78 1.32-.78 2.31 0 .98.26 1.75.78 2.32.52.57 1.18.85 1.98.85.77 0 1.43-.28 1.96-.84.53-.56.8-1.33.8-2.33zM318.75 66.94c1.03 0 1.93.21 2.7.62.76.42 1.35.98 1.77 1.68v-2.11h5.31v15.03c0 1.43-.27 2.71-.81 3.86-.55 1.15-1.39 2.06-2.54 2.75-1.14.68-2.59 1.03-4.34 1.03-2.35 0-4.23-.55-5.64-1.65-1.41-1.11-2.21-2.6-2.41-4.5h5.23c.11.49.38.87.81 1.14.44.27.99.4 1.68.4 1.81 0 2.71-1.01 2.71-3.03v-1.95c-.42.7-1.01 1.26-1.77 1.68-.77.42-1.67.62-2.7.62-1.21 0-2.31-.31-3.29-.95-.98-.63-1.76-1.53-2.33-2.72-.57-1.18-.85-2.56-.85-4.13 0-1.57.28-2.94.85-4.11.57-1.18 1.35-2.08 2.33-2.71.98-.63 2.08-.95 3.29-.95zm4.47 7.77c0-.97-.27-1.74-.8-2.3-.53-.56-1.19-.84-1.96-.84-.8 0-1.46.28-1.98.83-.52.55-.78 1.32-.78 2.31 0 .98.26 1.75.78 2.32.52.57 1.18.85 1.98.85.77 0 1.43-.28 1.96-.84.53-.56.8-1.33.8-2.33zm13.65-4.9c.6-.87 1.32-1.55 2.17-2.06.85-.5 1.76-.76 2.73-.76v5.66h-1.49c-1.15 0-2.01.23-2.57.68-.56.45-.84 1.24-.84 2.36v6.63h-5.31V67.13h5.31v2.68zm5.93 4.9c0-1.57.29-2.94.85-4.11.57-1.18 1.35-2.08 2.33-2.71.99-.63 2.08-.95 3.29-.95 1.05 0 1.95.21 2.71.62.76.42 1.35.98 1.76 1.68v-2.11h5.31v15.19h-5.31v-2.11c-.41.7-1 1.26-1.77 1.68-.77.42-1.67.62-2.7.62-1.21 0-2.3-.31-3.29-.95-.98-.63-1.76-1.53-2.33-2.72-.56-1.18-.85-2.56-.85-4.13zm10.94 0c0-.97-.26-1.74-.8-2.3-.53-.56-1.18-.84-1.96-.84-.79 0-1.45.28-1.98.83-.52.55-.78 1.32-.78 2.31 0 .98.26 1.75.78 2.32.53.57 1.19.85 1.98.85.78 0 1.43-.28 1.96-.84.54-.56.8-1.33.8-2.33zm1.06-11.26-6.77 2.65v-3.6l6.77-3.06v4.01zm16.25 14.35v4.52h-2.3c-3.89 0-5.83-1.92-5.83-5.77v-5.01h-1.86v-4.41h1.86v-3.68h5.34v3.68h2.76v4.41h-2.76v5.09c0 .42.1.72.28.9.19.18.51.27.97.27h1.54zm5.12-12.08c-.94 0-1.69-.26-2.26-.77-.57-.52-.86-1.16-.86-1.94 0-.79.29-1.45.86-1.98.57-.52 1.32-.78 2.26-.78.92 0 1.66.26 2.23.78.57.53.86 1.19.86 1.98 0 .78-.29 1.42-.86 1.94-.57.51-1.31.77-2.23.77zm2.63 1.41v15.19h-5.31V67.13h5.31zm9.5 15.38c-1.37 0-2.59-.23-3.67-.69-1.07-.46-1.92-1.09-2.54-1.89-.63-.81-.97-1.72-1.05-2.73h5.15c.07.49.3.87.68 1.14.38.27.85.41 1.41.41.43 0 .77-.09 1.02-.27.26-.18.38-.42.38-.71 0-.38-.2-.66-.62-.84-.41-.18-1.1-.38-2.06-.59-1.08-.22-1.98-.46-2.71-.73-.72-.27-1.35-.72-1.88-1.33-.53-.61-.8-1.44-.8-2.49 0-.91.25-1.72.73-2.45.49-.74 1.21-1.32 2.16-1.75.94-.43 2.09-.65 3.42-.65 1.99 0 3.55.49 4.69 1.46 1.14.98 1.8 2.26 1.98 3.85h-4.8c-.09-.49-.3-.86-.63-1.13-.34-.26-.79-.39-1.35-.39-.43 0-.76.08-.98.24-.23.17-.34.39-.34.68 0 .36.21.64.62.83.42.19 1.08.38 2.01.58 1.1.23 2.01.5 2.74.79.73.28 1.38.75 1.93 1.39.55.64.82 1.51.82 2.61 0 .89-.25 1.68-.77 2.39-.51.7-1.25 1.26-2.19 1.66-.95.41-2.07.61-3.35.61z" class="fil3"/></g><path d="M129.34 161.11h281.25c3.52 0 6.37 3.36 6.37 7.5v45c0 4.14-2.85 7.5-6.37 7.5H129.34c-3.52 0-6.38-3.36-6.38-7.5v-45c0-4.14 2.86-7.5 6.38-7.5z" class="fil2"/><path d="M158.3 183.14v2.8h-3.8v11.53h-3.49v-11.53h-3.8v-2.8h11.09zm12.49 8.45c0 .33-.02.67-.06 1.02h-7.9c.05.71.28 1.25.68 1.63.4.37.9.56 1.48.56.87 0 1.48-.37 1.82-1.11h3.72c-.19.75-.54 1.43-1.03 2.03-.5.59-1.12 1.06-1.87 1.4-.75.34-1.59.52-2.51.52-1.12 0-2.11-.24-2.99-.72a5.134 5.134 0 0 1-2.04-2.04c-.49-.89-.73-1.92-.73-3.1 0-1.19.24-2.22.72-3.11a5.11 5.11 0 0 1 2.03-2.04c.88-.48 1.88-.71 3.01-.71 1.1 0 2.08.23 2.94.69.85.46 1.52 1.12 2.01 1.98.48.86.72 1.86.72 3zm-3.57-.92c0-.6-.21-1.07-.61-1.43-.41-.35-.92-.53-1.54-.53-.58 0-1.07.17-1.48.51-.4.34-.65.83-.74 1.45h4.37zm10.04 6.97c-.99 0-1.87-.18-2.65-.52-.78-.34-1.39-.8-1.84-1.39-.45-.6-.7-1.26-.75-1.99h3.45c.04.39.22.71.55.96.33.24.73.36 1.2.36.44 0 .78-.08 1.01-.25.24-.17.36-.39.36-.67 0-.32-.17-.56-.51-.72-.34-.16-.89-.33-1.65-.52-.82-.19-1.5-.39-2.04-.6-.55-.21-1.02-.55-1.41-1-.4-.46-.6-1.08-.6-1.85 0-.66.18-1.25.55-1.79.36-.54.89-.96 1.59-1.27.7-.32 1.53-.47 2.5-.47 1.43 0 2.55.35 3.38 1.06.82.71 1.29 1.64 1.42 2.81h-3.23c-.05-.39-.23-.7-.52-.93-.29-.24-.68-.35-1.15-.35-.41 0-.72.08-.94.23-.22.16-.33.37-.33.65 0 .32.17.57.52.73.35.17.89.33 1.62.49.85.22 1.54.43 2.07.64.53.22 1 .56 1.4 1.03.4.47.6 1.09.62 1.88 0 .67-.19 1.27-.56 1.79-.38.53-.91.94-1.62 1.24-.7.3-1.51.45-2.44.45zm13.11-3.13v2.96h-1.77c-1.27 0-2.26-.31-2.96-.93-.71-.62-1.07-1.63-1.07-3.03v-4.53h-1.38v-2.9h1.38v-2.78h3.5v2.78h2.28v2.9h-2.28v4.57c0 .34.08.59.24.74.16.15.44.22.82.22h1.24zm12.68-2.92c0 .33-.02.67-.06 1.02h-7.9c.05.71.28 1.25.68 1.63.41.37.9.56 1.48.56.88 0 1.48-.37 1.82-1.11h3.72c-.19.75-.54 1.43-1.03 2.03-.5.59-1.12 1.06-1.87 1.4-.75.34-1.59.52-2.51.52-1.12 0-2.11-.24-2.98-.72a5.096 5.096 0 0 1-2.05-2.04c-.49-.89-.73-1.92-.73-3.1 0-1.19.24-2.22.72-3.11.49-.88 1.16-1.56 2.04-2.04.87-.48 1.87-.71 3-.71 1.1 0 2.08.23 2.94.69.85.46 1.52 1.12 2.01 1.98.48.86.72 1.86.72 3zm-3.57-.92c0-.6-.2-1.07-.61-1.43-.41-.35-.92-.53-1.53-.53-.59 0-1.08.17-1.48.51-.41.34-.65.83-.75 1.45h4.37zm14.07-4.75c.8 0 1.51.16 2.11.49.61.32 1.07.75 1.4 1.28v-1.61h3.49v11.37c0 1.05-.21 2-.62 2.85-.42.85-1.05 1.53-1.9 2.03-.85.51-1.91.76-3.18.76-1.68 0-3.05-.4-4.1-1.2-1.05-.79-1.65-1.87-1.8-3.23h3.45c.11.43.37.78.78 1.03.41.25.91.37 1.51.37.72 0 1.3-.2 1.73-.62.42-.41.64-1.08.64-1.99v-1.61c-.34.53-.81.96-1.41 1.3-.6.33-1.3.5-2.1.5-.94 0-1.79-.25-2.55-.73-.77-.48-1.37-1.17-1.81-2.06-.44-.89-.67-1.92-.67-3.09s.23-2.2.67-3.09c.44-.88 1.04-1.56 1.81-2.04.76-.48 1.61-.71 2.55-.71zm3.51 5.86c0-.88-.24-1.56-.73-2.07-.48-.5-1.07-.75-1.76-.75-.7 0-1.28.25-1.77.74-.48.5-.72 1.18-.72 2.06 0 .87.24 1.56.72 2.07.49.51 1.07.76 1.77.76.69 0 1.28-.25 1.76-.75.49-.51.73-1.19.73-2.06zm9.51-3.8c.41-.63.92-1.12 1.54-1.48.61-.36 1.29-.54 2.04-.54v3.69h-.96c-.87 0-1.53.19-1.96.56-.44.38-.66 1.03-.66 1.97v5.29h-3.49v-11.39h3.49v1.9zm4.56 3.78c0-1.17.22-2.2.66-3.09.44-.88 1.05-1.56 1.81-2.04s1.61-.71 2.55-.71c.8 0 1.51.16 2.11.49.61.32 1.08.75 1.4 1.28v-1.61h3.49v11.39h-3.49v-1.61c-.34.53-.81.96-1.42 1.28-.6.33-1.31.5-2.11.5-.93 0-1.77-.25-2.53-.73-.76-.48-1.37-1.17-1.81-2.06-.44-.89-.66-1.92-.66-3.09zm8.53.02c0-.88-.24-1.56-.72-2.07-.49-.5-1.07-.75-1.77-.75-.69 0-1.28.25-1.76.74-.49.5-.73 1.18-.73 2.06 0 .87.24 1.56.73 2.07.48.51 1.07.76 1.76.76.7 0 1.28-.25 1.77-.75.48-.51.72-1.19.72-2.06zm.27-8.54-4.92 2.06v-2.41l4.92-2.36v2.71zm12.11 11.27v2.96h-1.78c-1.27 0-2.25-.31-2.96-.93-.71-.62-1.06-1.63-1.06-3.03v-4.53h-1.39v-2.9h1.39v-2.78h3.49v2.78h2.29v2.9h-2.29v4.57c0 .34.08.59.24.74.17.15.44.22.82.22h1.25zm3.69-9.62c-.61 0-1.11-.18-1.5-.54-.39-.36-.58-.8-.58-1.33 0-.55.19-1 .58-1.36.39-.36.89-.54 1.5-.54.6 0 1.09.18 1.48.54.39.36.58.81.58 1.36 0 .53-.19.97-.58 1.33-.39.36-.88.54-1.48.54zm1.74 1.19v11.39h-3.49v-11.39h3.49zm7.16 11.56c-.99 0-1.87-.18-2.65-.52-.78-.34-1.39-.8-1.84-1.39-.45-.6-.7-1.26-.75-1.99h3.45c.04.39.22.71.55.96.33.24.73.36 1.2.36.44 0 .78-.08 1.01-.25.24-.17.36-.39.36-.67 0-.32-.17-.56-.51-.72-.34-.16-.89-.33-1.65-.52-.82-.19-1.5-.39-2.05-.6-.54-.21-1.01-.55-1.4-1-.4-.46-.6-1.08-.6-1.85 0-.66.18-1.25.54-1.79.37-.54.9-.96 1.6-1.27.7-.32 1.53-.47 2.5-.47 1.43 0 2.55.35 3.38 1.06.82.71 1.29 1.64 1.42 2.81h-3.23c-.05-.39-.23-.7-.52-.93-.29-.24-.68-.35-1.15-.35-.41 0-.72.08-.94.23-.22.16-.33.37-.33.65 0 .32.17.57.52.73.35.17.89.33 1.62.49.85.22 1.54.43 2.07.64.53.22.99.56 1.4 1.03.4.47.6 1.09.62 1.88 0 .67-.19 1.27-.56 1.79-.38.53-.92.94-1.62 1.24-.7.3-1.51.45-2.44.45zm14.58-9.95c.34-.53.81-.96 1.41-1.28.6-.33 1.3-.49 2.1-.49.94 0 1.79.23 2.56.71.76.48 1.36 1.16 1.8 2.04.45.89.67 1.92.67 3.09s-.22 2.2-.67 3.09c-.44.89-1.04 1.58-1.8 2.06-.77.48-1.62.73-2.56.73-.78 0-1.48-.17-2.09-.5-.6-.32-1.08-.74-1.42-1.26v7.02h-3.49v-16.82h3.49v1.61zm4.98 4.07c0-.88-.24-1.56-.72-2.06-.48-.49-1.08-.74-1.79-.74-.69 0-1.28.25-1.76.75-.49.51-.73 1.19-.73 2.07 0 .87.24 1.55.73 2.06.48.5 1.07.75 1.76.75.7 0 1.29-.25 1.78-.76s.73-1.2.73-2.07zm10.58 5.88c-1.11 0-2.12-.24-3.01-.72a5.282 5.282 0 0 1-2.1-2.04c-.51-.89-.77-1.92-.77-3.1 0-1.17.26-2.21.78-3.1a5.23 5.23 0 0 1 2.12-2.05c.9-.48 1.91-.71 3.02-.71 1.12 0 2.13.23 3.02.71.9.48 1.61 1.16 2.13 2.05.51.89.77 1.93.77 3.1 0 1.17-.26 2.2-.78 3.09-.53.89-1.24 1.57-2.15 2.05-.9.48-1.91.72-3.03.72zm0-3.03c.67 0 1.24-.24 1.71-.73s.7-1.19.7-2.1c0-.92-.23-1.62-.68-2.11-.46-.49-1.02-.73-1.69-.73-.68 0-1.24.24-1.69.72-.45.49-.68 1.19-.68 2.12 0 .91.22 1.61.67 2.1.44.49.99.73 1.66.73zm11.31-6.63c.41-.63.92-1.12 1.53-1.48a4 4 0 0 1 2.05-.54v3.69h-.96c-.88 0-1.53.19-1.96.56-.44.38-.66 1.03-.66 1.97v5.29h-3.49v-11.39h3.49v1.9zm9.35-1.21c.06-1.45.53-2.58 1.43-3.37.9-.79 2.12-1.18 3.66-1.18 1.02 0 1.89.18 2.62.53.73.36 1.28.84 1.66 1.45.37.61.56 1.3.56 2.06 0 .9-.23 1.63-.68 2.2-.45.56-.97.95-1.57 1.15v.08c.78.26 1.39.69 1.84 1.29.45.6.67 1.37.67 2.31 0 .84-.19 1.59-.58 2.23-.39.65-.95 1.16-1.69 1.52-.75.37-1.63.55-2.65.55-1.63 0-2.94-.4-3.91-1.2-.97-.8-1.49-2.01-1.54-3.63h3.39c.01.59.18 1.07.51 1.41.33.35.8.53 1.43.53.53 0 .94-.16 1.23-.46.3-.31.44-.72.44-1.22 0-.65-.2-1.13-.62-1.42-.41-.29-1.08-.44-1.99-.44h-.65v-2.84h.65c.7 0 1.26-.11 1.68-.35.43-.24.65-.67.65-1.28 0-.49-.14-.87-.41-1.14-.27-.27-.65-.41-1.12-.41-.52 0-.91.16-1.16.47-.25.31-.4.7-.44 1.16h-3.41zm12.23 3.04c0-2.34.46-4.18 1.36-5.53.91-1.34 2.37-2.02 4.38-2.02 2.02 0 3.48.68 4.38 2.02.91 1.35 1.36 3.19 1.36 5.53 0 2.37-.45 4.23-1.36 5.58-.9 1.35-2.36 2.02-4.38 2.02-2.01 0-3.47-.67-4.38-2.02-.9-1.35-1.36-3.21-1.36-5.58zm8.05 0c0-1.37-.15-2.43-.45-3.17-.3-.74-.92-1.11-1.86-1.11-.94 0-1.56.37-1.86 1.11-.3.74-.45 1.8-.45 3.17 0 .93.06 1.7.17 2.3.11.61.33 1.1.66 1.47.34.38.83.56 1.48.56.66 0 1.15-.18 1.48-.56.34-.37.56-.86.67-1.47.11-.6.16-1.37.16-2.3zm9.25 1.95c0-1.17.22-2.2.66-3.09.44-.88 1.05-1.56 1.81-2.04s1.61-.71 2.55-.71c.75 0 1.43.15 2.05.47.62.31 1.11.73 1.46 1.26v-5.29h3.49v15.11h-3.49v-1.63c-.32.54-.79.98-1.4 1.3-.6.33-1.3.5-2.11.5-.94 0-1.79-.25-2.55-.73-.76-.48-1.37-1.17-1.81-2.06-.44-.89-.66-1.92-.66-3.09zm8.53.02c0-.88-.24-1.56-.72-2.07-.48-.5-1.07-.75-1.77-.75-.69 0-1.28.25-1.76.74-.49.5-.73 1.18-.73 2.06 0 .87.24 1.56.73 2.07.48.51 1.07.76 1.76.76.7 0 1.29-.25 1.77-.75.48-.51.72-1.19.72-2.06zm7.78-6.89c-.61 0-1.11-.18-1.5-.54-.39-.36-.58-.8-.58-1.33 0-.55.19-1 .58-1.36.39-.36.89-.54 1.5-.54.6 0 1.09.18 1.48.54.39.36.58.81.58 1.36 0 .53-.19.97-.58 1.33-.39.36-.88.54-1.48.54zm1.74 1.19v11.39h-3.49v-11.39h3.49zm1.84 5.68c0-1.17.22-2.2.66-3.09.44-.88 1.04-1.56 1.81-2.04.76-.48 1.61-.71 2.55-.71.8 0 1.51.16 2.11.49.61.32 1.07.75 1.4 1.28v-1.61h3.49v11.39h-3.49v-1.61c-.34.53-.81.96-1.42 1.28-.6.33-1.31.5-2.11.5-.93 0-1.77-.25-2.53-.73-.77-.48-1.37-1.17-1.81-2.06-.44-.89-.66-1.92-.66-3.09zm8.53.02c0-.88-.24-1.56-.72-2.07-.49-.5-1.08-.75-1.77-.75s-1.28.25-1.77.74c-.48.5-.72 1.18-.72 2.06 0 .87.24 1.56.72 2.07.49.51 1.08.76 1.77.76s1.28-.25 1.77-.75c.48-.51.72-1.19.72-2.06zm10.66 5.86c-.99 0-1.88-.18-2.65-.52-.78-.34-1.39-.8-1.84-1.39-.45-.6-.7-1.26-.76-1.99h3.45c.04.39.23.71.55.96.33.24.73.36 1.21.36.43 0 .77-.08 1.01-.25.24-.17.36-.39.36-.67 0-.32-.17-.56-.51-.72-.35-.16-.9-.33-1.66-.52-.81-.19-1.5-.39-2.04-.6-.55-.21-1.01-.55-1.41-1-.39-.46-.59-1.08-.59-1.85 0-.66.18-1.25.54-1.79.36-.54.89-.96 1.59-1.27.7-.32 1.54-.47 2.5-.47 1.43 0 2.56.35 3.38 1.06.83.71 1.3 1.64 1.42 2.81h-3.22c-.06-.39-.23-.7-.52-.93-.3-.24-.68-.35-1.16-.35-.41 0-.72.08-.94.23-.22.16-.32.37-.32.65 0 .32.17.57.52.73.34.17.88.33 1.62.49.84.22 1.53.43 2.06.64.53.22 1 .56 1.4 1.03.4.47.61 1.09.62 1.88 0 .67-.18 1.27-.56 1.79-.37.53-.91.94-1.61 1.24-.7.3-1.52.45-2.44.45z" style="fill:#fefefe;fill-rule:nonzero"/></g></svg>