<svg xmlns="http://www.w3.org/2000/svg" xml:space="preserve" width="770" height="300" style="shape-rendering:geometricPrecision;text-rendering:geometricPrecision;image-rendering:optimizeQuality;fill-rule:evenodd;clip-rule:evenodd" viewBox="0 0 770 300.14"><defs><style>.fil3{fill:#fefefe}</style></defs><g id="_23Layer_x0020_1"><path d="M83.36 299.92v-61.25c0-5.68 4.59-10.27 10.26-10.27h22.89c5.66 0 10.25 4.59 10.25 10.27v61.25h-43.4zM13.65 0h742.63c7.54 0 13.65 6.11 13.65 13.65v272.67c0 7.54-6.11 13.65-13.65 13.65H620.46l-.01-3.9v-.64c.65-.75 1.38-1.42 2.19-2-.12-.02-.2-.05-.25-.11-.05-.06-.07-.14-.05-.24-.72.5-1.28 1.02-1.89 1.64v-3.2c.65-.74 1.37-1.41 2.19-2-.12-.01-.2-.05-.25-.11-.05-.05-.07-.13-.05-.24-.72.5-1.29 1.02-1.89 1.65l-.01-1.03v-2.4c-.15.11-.33.09-.53 0l.01 3.44c-.62-.63-1.19-1.16-1.92-1.66.02.1.01.18-.04.24-.05.05-.14.09-.26.1.83.6 1.56 1.28 2.22 2.03v3.2c-.61-.64-1.19-1.16-1.91-1.67.02.11 0 .19-.05.24-.05.06-.13.1-.25.11.82.59 1.55 1.28 2.21 2.03l.01 4.52h-23.41v-4.54c.65-.75 1.37-1.42 2.19-2-.12-.02-.21-.05-.26-.11a.31.31 0 0 1-.04-.24c-.72.5-1.29 1.02-1.89 1.64l-.01-3.2c.65-.74 1.38-1.41 2.2-2-.12-.01-.21-.05-.26-.11-.05-.05-.06-.13-.04-.24-.73.5-1.29 1.02-1.9 1.65V287.39c-.15.11-.33.09-.53 0v3.44c-.61-.63-1.18-1.16-1.91-1.66.02.1 0 .18-.05.24-.05.05-.13.09-.25.1.82.6 1.56 1.28 2.21 2.03l.01 3.2c-.62-.64-1.19-1.16-1.92-1.67.02.11.01.19-.04.24-.05.06-.14.1-.26.11a13 13 0 0 1 2.22 2.03v4.52h-23.4l-.01-3.9h.01l-.01-.64c.66-.75 1.38-1.42 2.19-2-.12-.02-.2-.05-.25-.11-.05-.06-.06-.14-.05-.24-.71.5-1.28 1.02-1.89 1.64v-3.2c.65-.74 1.38-1.41 2.19-2-.12-.01-.2-.05-.25-.11-.05-.05-.07-.13-.05-.24-.72.5-1.29 1.02-1.89 1.65v-1.03h-.01v-2.4c-.15.11-.33.09-.53 0l.01 3.44c-.61-.63-1.19-1.16-1.92-1.66.02.1.01.18-.04.24-.05.05-.14.09-.26.1.83.6 1.56 1.28 2.22 2.03v3.2c-.61-.64-1.18-1.16-1.91-1.67.02.11 0 .19-.05.24-.05.06-.13.1-.25.11.82.59 1.56 1.28 2.21 2.03l.01 4.52h-23.41v-4.54c.65-.75 1.38-1.42 2.19-2-.12-.02-.2-.05-.25-.11-.05-.06-.07-.14-.05-.24-.72.5-1.29 1.02-1.89 1.64l-.01-3.2c.66-.74 1.38-1.41 2.2-2-.12-.01-.21-.05-.26-.11-.05-.05-.06-.13-.04-.24-.72.5-1.29 1.02-1.9 1.65V287.39c-.15.11-.33.09-.53 0v3.44c-.61-.63-1.18-1.16-1.91-1.66.02.1 0 .18-.05.24-.05.05-.13.09-.25.1.83.6 1.56 1.28 2.22 2.03v3.2c-.62-.64-1.19-1.16-1.92-1.67.02.11.01.19-.04.24-.05.06-.14.1-.26.11a13 13 0 0 1 2.22 2.03l.01 4.52H406.8c-3.94 0-7.25-3.31-7.25-7.24 0-3.94 3.31-7.04 7.25-7.04 3.93 0 7.04 3.1 7.04 7.04 0 3.93-3.11 7.24-7.04 7.24h-27.95c-5.8 0-10.56-4.76-10.56-10.56 0-5.8 4.76-10.56 10.56-10.56 5.79 0 10.55 4.76 10.55 10.56 0 5.8-4.76 10.56-10.55 10.56H13.65C6.11 299.97 0 293.86 0 286.32V13.65C0 6.11 6.11 0 13.65 0zm89.5 238.1h-7.64v7.65h7.64v-7.65zm0 11.48h-7.64v7.66h7.64v-7.66zm0 11.53h-7.64v7.66h7.64v-7.66zm0 11.48h-7.64v7.65h7.64v-7.65zm0 11.47h-7.64v7.66h7.64v-7.66zm11.46-45.96h-7.65v7.65h7.65v-7.65zm0 11.48h-7.65v7.66h7.65v-7.66zm0 11.53h-7.65v7.66h7.65v-7.66zm0 11.48h-7.65v7.66h7.65v-7.66zm0 11.48h-7.65v7.65h7.65v-7.65zm195.28-32.65H282.8v-12.74c0-5.68-4.6-10.28-10.26-10.28h-22.91c-5.67 0-10.26 4.6-10.26 10.28v61.29h80.78v-38.26c0-5.69-4.6-10.29-10.26-10.29zm-50.72 40.35h-7.64v-7.67h7.64v7.67zm0-11.49h-7.64v-7.66h7.64v7.66zm0-11.48h-7.64v-7.67h7.64v7.67zm0-11.54h-7.64v-7.67h7.64v7.67zm0-11.5h-7.64v-7.65h7.64v7.65zm11.48 46.01H263v-7.67h7.65v7.67zm0-11.49H263v-7.66h7.65v7.66zm0-11.48H263v-7.67h7.65v7.67zm0-11.54H263v-7.67h7.65v7.67zm0-11.5H263v-7.65h7.65v7.65zm25.87 46.01h-7.64v-7.67h7.64v7.67zm0-11.49h-7.64v-7.66h7.64v7.66zm0-11.48h-7.64v-7.67h7.64v7.67zm11.46 22.97h-7.64v-7.67h7.64v7.67zm0-11.49h-7.64v-7.66h7.64v7.66zm0-11.48h-7.64v-7.67h7.64v7.67zm70.87 24.75c2.27 0 4.14-1.86 4.14-4.14 0-2.28-1.87-4.14-4.14-4.14-2.28 0-4.14 1.86-4.14 4.14 0 2.28 1.86 4.14 4.14 4.14zm13.66-18.22-2.48-8.28h-9.32l-.83 8.28h12.63zm-13.66-10.35h12.63l3.31 10.35 13.66 2.69.83 5.8c-.83-.21-1.66-.41-2.48-.41-4.56 0-8.49 3.31-9.11 7.66h-6.42c.21-.41.21-1.04.21-1.66 0-7.04-5.6-12.63-12.63-12.63h-1.25l1.25-11.8zm27.95 30.64c1.65 0 2.9-1.24 2.9-2.89 0-1.66-1.25-2.9-2.9-2.9-1.66 0-2.9 1.24-2.9 2.9 0 1.65 1.24 2.89 2.9 2.89zm216.06-2.69c1.66-3.48 5.7-2.95 8.01.79-3.69 1.28-5.44.05-8.01-.79zm-5.55-4.23c-1.51-3.17-5.19-2.69-7.29.72 3.36 1.16 4.95.04 7.29-.72zm5.39 0c1.51-3.17 5.18-2.69 7.29.72-3.37 1.16-4.95.04-7.29-.72zm-5.22 4.22c-1.66-3.48-5.69-2.95-8.01.8 3.7 1.27 5.44.04 8.01-.8zm6.12-12.4c-1.67.87-2.61.69-3.3 1.72-.12.17-.1.31.04.49.22.29.36.51.48.72.14.22.23.41.31.65.02.07.06.35.48.13 2.27-1.19 1.87-2.91 1.99-3.71zm-7.9.48c3.85.23 6.42 3.85 4.31 5.67-4.49-1.09-2.81-3.85-4.31-5.67zm-16.77 11.93c1.66-3.48 5.69-2.95 8.01.79-3.7 1.28-5.44.05-8.01-.79zm-5.56-4.23c-1.51-3.17-5.18-2.69-7.28.72 3.36 1.16 4.94.04 7.28-.72zm5.39 0c1.51-3.17 5.18-2.69 7.29.72-3.36 1.16-4.95.04-7.29-.72zm-5.21 4.22c-1.66-3.48-5.7-2.95-8.01.8 3.69 1.27 5.44.04 8.01-.8zm6.11-12.4c-1.67.87-2.6.69-3.3 1.72-.11.17-.1.31.04.49.23.29.36.51.49.72.13.22.22.41.3.65.02.07.07.35.48.13 2.28-1.19 1.88-2.91 1.99-3.71zm-7.89.48c3.85.23 6.41 3.85 4.3 5.67-4.49-1.09-2.81-3.85-4.3-5.67zm-16.78 11.93c1.66-3.48 5.7-2.95 8.01.79-3.69 1.28-5.44.05-8.01-.79zm-5.55-4.23c-1.51-3.17-5.18-2.69-7.29.72 3.36 1.16 4.95.04 7.29-.72zm5.39 0c1.51-3.17 5.18-2.69 7.29.72-3.37 1.16-4.95.04-7.29-.72zm-5.22 4.22c-1.66-3.48-5.69-2.95-8 .8 3.69 1.27 5.43.04 8-.8zm6.12-12.4c-1.67.87-2.6.69-3.3 1.72-.12.17-.1.31.04.49.23.29.36.51.48.72.14.22.23.41.31.65.02.07.06.35.48.13 2.27-1.19 1.87-2.91 1.99-3.71zm-7.9.48c3.85.23 6.42 3.85 4.31 5.67-4.49-1.09-2.81-3.85-4.31-5.67zm-16.77 11.93c1.66-3.48 5.69-2.95 8.01.79-3.7 1.28-5.44.05-8.01-.79zm-5.55-4.23c-1.52-3.17-5.19-2.69-7.29.72 3.36 1.16 4.95.04 7.29-.72zm5.38 0c1.51-3.17 5.19-2.69 7.29.72-3.36 1.16-4.95.04-7.29-.72zm-5.21 4.22c-1.66-3.48-5.69-2.95-8.01.8 3.7 1.27 5.44.04 8.01-.8zm6.12-12.4c-1.68.87-2.61.69-3.3 1.72-.12.17-.1.31.03.49.23.29.36.51.49.72.13.22.23.41.3.65.03.07.07.35.49.13 2.27-1.19 1.87-2.91 1.99-3.71zm-7.9.48c3.85.23 6.41 3.85 4.31 5.67-4.5-1.09-2.81-3.85-4.31-5.67zm120.07 1.98c-.05-1.21-.14-2.43-.14-2.97l-.03-.58c.27 1.01.5 1.86.61 2.19-.09.44-.23.89-.44 1.36zm44.82-13.81c-.12-.32-.81-1.24-1.11-1.7-.29-.46-1.72-2.23-2.03-2.6-.3-.38-1.41-1.69-1.87-2.15-.24-.23-.52-.42-.81-.57.04-.11.06-.21.05-.25-.04-.2-.11-.48-.02-.69.09-.22.21-.75.16-1.01-.05-.27-.02-.7-.04-.88-.02-.18-.15-.16-.17-.02-.02.15-.09.52-.23.79-.11.22-.32.43-.54.7.05-.22.08-.46.05-.61-.05-.27-.02-.7-.04-.88-.02-.18-.15-.17-.17-.02a3 3 0 0 1-.22.79c-.14.26-.43.52-.68.88-.12.19-.25.42-.41.73-.05.01-.11.02-.17.03-.5.09-2.49.76-2.96.99-.48.23-2.99 1.17-3.61 1.54-.63.36-3.76 2.07-4.31 2.48-.55.42-5.84 3.61-7.41 3.87-2.39.4-6.24-.04-7.77-.35-1.53-.31-3.14-.52-3.95-.49-.82.03-3.17.62-4.1.87-.55.15-1.41.63-2.01 1-.46.28-.86.66-1.16 1.11-.55.83-.77 1.44-1.2 3.5-.53 2.56-1.58 8.05-1.69 9.25-.11 1.2-.12 3.6.58 5.43.18.48.4.79.61.98-.16 1.1 0 2.2-.56 3.24-.4.74.26 1.52.57 2.09.31.56-.17 1.83-.28 2.07-.11.24.28.54 1.05.61.77.07 1.97.01 2.19-.09.22-.1-.04-.53-.4-1.13-.36-.59-1.05-.95-1.09-1.38-.05-.43 0-1.6.06-1.86.06-.27.08-1.18.14-1.52.06-.35.33-3.41.78-4.17.23-.4.74-1.42 1.26-2.4.26 1.11.32 2.99.24 3.76-.08.79.19 3.14-.21 4.28-.28.8.45 1.49.82 2.01.38.53.05 1.84-.03 2.09-.08.25.35.5 1.12.48.78-.03 1.97.05 2.17-.07.2-.13-.11-.81-.54-1.35-.43-.55-1.16-.83-1.26-1.24-.09-.42-.18-1.59-.16-1.86.03-.27-.06-1.17-.04-1.52.01-.35-.08-3.43.27-4.24.34-.81 1.44-4 1.95-4.8.23-.37.64-1.38 1.04-2.54.3-.87 1.3-1.29 2.13-.89.89.42 1.93.88 2.68 1.13 1.49.49 3.87 1.1 6.51.93 2.43-.15 3.5-.09 3.82-.18-.01.61-.01 1.26.01 1.66.03.82-.05 2.5-.24 3.56-.17 1.06-.04 1.45.05 1.84.09.39-.05 1.56-.1 1.93-.06.37-.6 3.46-.66 3.99-.06.53.2.69.47.8.26.12.55.69.63.81.08.12.48.57.38.68-.1.11-.56.22-.35.71.2.48.82.5.97.53.16.03 1.44-.01 1.85-.03.41-.03.26-.17.21-.25-.05-.08-.51-.57-.85-.83-.08-.62-1.04-1.11-1.27-1.93-.23-.82.17-3.58.22-4.27.04-.69.36-1.18.51-2.57.09-.87.4-1.77.61-1.96.07.17.1.11.15.74.09 1.07.02 1.45.13 1.83.1.39.01 1.56-.02 1.94-.04.37-.44 3.48-.48 4.01-.04.53.23.68.5.78.26.11.58.67.67.78.08.12.5.55.41.67-.09.11-.56.24-.33.72.23.47.86.46 1.01.48.15.03 1.43-.06 1.84-.11.41-.05.25-.18.2-.25a7.24 7.24 0 0 0-.88-.8c-.11-.61-1.1-1.06-1.36-1.87-.27-.81.02-3.58.03-4.27.01-.7.3-1.2.39-2.59.1-1.4.57-3.8 1.11-5.44.33-1.01.51-1.84.59-2.47.65-.68 1.81-2.19 2.07-4.25.25-1.9 4.19-8.27 4.77-8.84.58-.58 1.33-.71 1.47-.56.46.63 1.78.49 1.9.49.12-.01.15.13.3.25.15.13.93.73 1.26.78.34.04 1.24.69 1.43.84.19.16.09.41.3.67.21.26 1.39.29 1.59.27.19-.02.2-.3.44-.3.24-.01.61-.2.78-.46.18-.25-.15-.51.11-.89.25-.38.3-.68.18-.99zm40.72 29.72c-.02-.17-.18-.81-.27-1.06-.02.1-.03.21-.04.31-.01.23-.06.79.1 1.07.01.02.03.05.05.07l.05-.05c.02-.05.13-.13.11-.34zm6.87-9.24c-.06 0-.11-.02-.14-.02-.04 0-.08.02-.12.01-.04-.01-.1-.06-.15-.05-.05.01-.18-.01-.2.03-.01.05.06.12.06.18 0 .05-.11.37-.26.39-.16.02-.42-.11-.48-.18-.02.16-.07.63-.11.76-.04.13-.16.62-.21.76-.04.14-.42 1.61-.59 2.05-.18.44-.78 1.88-2.53 2.04-.4.05-1.31.71-1.39 1.23-.09.56-.64.83-.64.83s.01.31.06.54c.05.23.15.78.38 1 .23.23.59.1.66.1.07 0 .15.02.17.03.01.02-.04.07-.04.07s.06.04.11.05c.05.01.29.08.23.15-.06.08-.28.04-.28.04s.03.03.03.06c-.01.02.01.08-.12.07-.13-.01-.51-.07-.66-.11-.02 0-.05 0-.08-.01.01.01.02.01.02.02.05.02.26.15.18.2-.07.06-.28-.04-.28-.04s.02.04.01.07c-.01.02-.01.08-.13.03-.12-.04-.48-.2-.61-.27-.04-.03-.1-.04-.16-.06-.03 0-.07.01-.09.01-.01-.01-.02-.02-.02-.04-.07-.03-.13-.05-.16-.08-.06-.08.02-.16-.05-.2-.07-.04-.28-.01-.32.02-.04.03-.23.01-.28-.01-.05-.01.02-.14.06-.16.03-.02.37-.07.4-.12.04-.04.16-.1.2-.3.04-.17.05-.79.02-1.07-.12-.05-.49-.16-.55-.59-.02-.16.01-.41.02-.48.01-.08-.07.17-.48.2-.4.02-1.13-.02-1.57-.58-.44-.56-.87-1.2-.95-1.79-.07-.6-.15-.41-.23-.68-.02-.1-.05-.15.09-.14-.12-.14-.51-.46-.57-.58-.06-.1-.05-.29.15-.28-.19-.21-.36-.49-.57-.71-.21-.22-.29-.69-.43-.96s-.81-.6-.9-1.23c-.1-.62-.04-1.26 1.03-.92 1.08.34 1.83 1.21 2.24 1.42.4.21 1.35.62 2.15.67.81.04 2.4-.05 3-.33.61-.29 1.39-1.09 1.64-1.32.25-.24.42-.46.9-.54.48-.09.79-.12.86-.17.08-.05.23-.18.23-.18-.08-.23-.06-.89.38-.4.08-.05.18.04.19.11.08-.03.19.03.17.14.13.03.15.09.13.15.11 0 .1.08.12.17.03.08.35.23.19.48.1.02.05.13.05.13s.27.08.22.39zM124.37 98.87c1.69 0 3.18.32 4.45.97 1.28.65 2.26 1.58 2.96 2.8.69 1.21 1.04 2.63 1.04 4.25 0 1.61-.35 3.02-1.04 4.21a6.888 6.888 0 0 1-2.96 2.74c-1.27.63-2.76.95-4.45.95h-5.21V98.87h5.21zm0 13.79c1.86 0 3.29-.5 4.28-1.51.99-1.01 1.49-2.43 1.49-4.26 0-1.85-.5-3.3-1.49-4.33-.99-1.04-2.42-1.56-4.28-1.56h-2.59v11.66h2.59zm22.61-4.49c0 .47-.03.9-.09 1.28h-9.65c.08 1.01.45 1.82 1.13 2.43.67.61 1.49.92 2.47.92 1.41 0 2.4-.59 2.98-1.77h2.82c-.38 1.16-1.07 2.11-2.07 2.86-1.01.74-2.25 1.11-3.73 1.11-1.21 0-2.29-.27-3.24-.82-.96-.54-1.7-1.3-2.25-2.29-.54-.98-.81-2.13-.81-3.42 0-1.3.26-2.44.79-3.43.53-.98 1.27-1.74 2.22-2.28.96-.53 2.05-.8 3.29-.8 1.19 0 2.25.26 3.19.78.93.52 1.65 1.25 2.17 2.19s.78 2.02.78 3.24zm-2.72-.83c-.02-.96-.36-1.73-1.04-2.31-.67-.58-1.5-.87-2.49-.87-.9 0-1.68.29-2.32.86-.64.57-1.02 1.35-1.14 2.32h6.99zm9.87 7.66c-.99 0-1.88-.18-2.67-.54-.78-.36-1.41-.85-1.86-1.47-.46-.62-.71-1.31-.74-2.07h2.71c.04.53.3.98.76 1.34.47.36 1.05.54 1.76.54.73 0 1.3-.14 1.7-.43.41-.28.61-.64.61-1.09 0-.47-.22-.82-.68-1.05-.45-.23-1.16-.48-2.14-.75-.94-.26-1.72-.52-2.31-.76-.6-.25-1.11-.62-1.55-1.12-.43-.51-.65-1.17-.65-2 0-.67.2-1.28.59-1.84.4-.56.97-1 1.71-1.32.74-.32 1.59-.48 2.56-.48 1.43 0 2.59.36 3.47 1.09.88.72 1.35 1.71 1.41 2.97h-2.62c-.04-.57-.27-1.02-.68-1.36-.41-.33-.97-.5-1.68-.5-.68 0-1.21.13-1.58.39-.36.26-.55.6-.55 1.03 0 .34.13.62.37.85.24.23.54.41.89.54.36.13.87.29 1.56.49.92.24 1.67.49 2.26.74.59.26 1.1.63 1.52 1.12.43.48.65 1.13.67 1.94 0 .72-.2 1.36-.6 1.93-.4.56-.96 1.01-1.68 1.33-.73.32-1.58.48-2.56.48zm6.78-6.53c0-1.3.27-2.44.8-3.43.52-.98 1.25-1.74 2.18-2.28.94-.53 2.01-.8 3.21-.8 1.53 0 2.79.36 3.79 1.09 1 .72 1.68 1.76 2.03 3.1h-2.82c-.23-.62-.59-1.11-1.1-1.46-.5-.36-1.13-.53-1.9-.53-1.07 0-1.92.38-2.55 1.13-.64.76-.95 1.82-.95 3.18s.31 2.42.95 3.18c.63.77 1.48 1.15 2.55 1.15 1.51 0 2.52-.67 3-2h2.82c-.36 1.29-1.05 2.31-2.06 3.06-1.01.76-2.26 1.14-3.76 1.14-1.2 0-2.27-.27-3.21-.82a5.6 5.6 0 0 1-2.18-2.29c-.53-.98-.8-2.13-.8-3.42zm26.06-6.3v12.62h-2.61v-1.49c-.42.52-.95.93-1.62 1.23-.66.3-1.37.44-2.12.44-.99 0-1.88-.2-2.67-.61-.78-.42-1.4-1.03-1.85-1.84-.45-.81-.68-1.78-.68-2.93v-7.42h2.59v7.03c0 1.13.28 2 .85 2.6.56.6 1.33.91 2.31.91s1.76-.31 2.33-.91c.57-.6.86-1.47.86-2.6v-7.03h2.61zm6.05 1.87c.44-.61 1.05-1.11 1.82-1.5.77-.39 1.63-.58 2.58-.58 1.11 0 2.12.27 3.02.8.91.54 1.61 1.3 2.13 2.28.52.99.78 2.11.78 3.38s-.26 2.4-.78 3.4-1.23 1.78-2.14 2.34c-.91.56-1.91.84-3.01.84-.98 0-1.85-.19-2.6-.57-.76-.39-1.36-.88-1.8-1.47v1.83h-2.61V97.83h2.61v6.21zm7.68 4.38c0-.87-.18-1.62-.54-2.26-.36-.63-.84-1.11-1.42-1.44-.59-.33-1.22-.49-1.89-.49-.66 0-1.28.17-1.87.5-.59.34-1.06.83-1.42 1.47-.36.64-.54 1.4-.54 2.27 0 .87.18 1.63.54 2.28.36.65.83 1.14 1.42 1.47.59.34 1.21.51 1.87.51.67 0 1.3-.17 1.89-.52.58-.34 1.06-.84 1.42-1.5.36-.65.54-1.42.54-2.29zm7.86-4.42c.38-.64.89-1.14 1.52-1.5.63-.36 1.38-.54 2.26-.54v2.7h-.67c-1.02 0-1.8.26-2.32.78-.53.52-.79 1.42-.79 2.71v6.64h-2.62v-12.62h2.62V104zm5.31 4.42c0-1.27.27-2.39.79-3.37.53-.98 1.25-1.74 2.16-2.28a5.78 5.78 0 0 1 3.01-.81c.99 0 1.86.19 2.6.58.74.39 1.33.88 1.78 1.46v-1.83h2.63v12.62h-2.63v-1.88c-.45.6-1.05 1.09-1.81 1.49-.77.4-1.64.6-2.62.6a5.57 5.57 0 0 1-2.98-.84c-.9-.56-1.61-1.34-2.14-2.34-.52-1-.79-2.13-.79-3.4zm10.34.05c0-.87-.18-1.63-.54-2.27-.36-.64-.83-1.13-1.41-1.47-.58-.33-1.21-.5-1.88-.5-.67 0-1.3.16-1.88.49-.58.33-1.05.81-1.41 1.44-.36.64-.54 1.39-.54 2.26 0 .87.18 1.64.54 2.29.36.66.83 1.16 1.42 1.5.59.35 1.21.52 1.87.52.67 0 1.3-.17 1.88-.51.58-.33 1.05-.82 1.41-1.47.36-.65.54-1.41.54-2.28zm11.16-.05c0-1.27.26-2.39.79-3.37a5.7 5.7 0 0 1 2.15-2.28 5.78 5.78 0 0 1 3.01-.81c1 0 1.86.19 2.6.58.75.39 1.34.88 1.78 1.46v-1.83h2.64v12.62h-2.64v-1.88c-.44.6-1.05 1.09-1.81 1.49-.76.4-1.63.6-2.61.6-1.09 0-2.08-.28-2.98-.84-.9-.56-1.62-1.34-2.14-2.34-.53-1-.79-2.13-.79-3.4zm10.33.05c0-.87-.18-1.63-.54-2.27-.36-.64-.83-1.13-1.41-1.47-.58-.33-1.2-.5-1.88-.5-.67 0-1.29.16-1.88.49-.58.33-1.05.81-1.4 1.44-.36.64-.54 1.39-.54 2.26 0 .87.18 1.64.54 2.29.35.66.83 1.16 1.42 1.5.58.35 1.21.52 1.86.52.68 0 1.3-.17 1.88-.51.58-.33 1.05-.82 1.41-1.47.36-.65.54-1.41.54-2.28zm11.16-6.51c.98 0 1.84.19 2.6.58.76.39 1.35.88 1.78 1.46v-1.83h2.63V115c0 1.16-.24 2.19-.73 3.1-.49.91-1.2 1.63-2.12 2.15-.93.51-2.03.77-3.31.77-1.71 0-3.13-.4-4.26-1.2-1.14-.8-1.78-1.89-1.93-3.26h2.59c.2.65.62 1.18 1.27 1.59.65.4 1.43.61 2.33.61 1.05 0 1.9-.33 2.55-.97.65-.64.98-1.57.98-2.79v-2.11c-.45.6-1.05 1.1-1.8 1.5-.76.4-1.62.61-2.58.61-1.1 0-2.1-.28-3.01-.84-.91-.56-1.63-1.34-2.16-2.34-.52-1-.79-2.13-.79-3.4s.27-2.39.79-3.37c.53-.98 1.25-1.74 2.16-2.28a5.78 5.78 0 0 1 3.01-.81zm4.38 6.51c0-.87-.18-1.63-.54-2.27-.36-.64-.83-1.13-1.41-1.47-.58-.33-1.21-.5-1.88-.5-.67 0-1.3.16-1.88.49-.58.33-1.05.81-1.41 1.44-.36.64-.54 1.39-.54 2.26 0 .87.18 1.64.54 2.29.36.66.83 1.16 1.42 1.5.59.35 1.21.52 1.87.52.67 0 1.3-.17 1.88-.51.58-.33 1.05-.82 1.41-1.47.36-.65.54-1.41.54-2.28zm11.55 6.53c-1.2 0-2.27-.27-3.24-.82-.96-.54-1.72-1.3-2.26-2.29-.55-.98-.83-2.13-.83-3.42s.28-2.42.85-3.42c.56-.99 1.34-1.75 2.31-2.29.98-.53 2.07-.8 3.28-.8s2.3.27 3.28.8c.97.54 1.75 1.3 2.31 2.29.57 1 .85 2.13.85 3.42 0 1.28-.29 2.42-.87 3.41-.58.99-1.37 1.76-2.37 2.3-1 .55-2.11.82-3.31.82zm0-2.27c.67 0 1.3-.16 1.89-.48.58-.32 1.06-.8 1.43-1.45.36-.64.55-1.42.55-2.33 0-.92-.18-1.7-.53-2.33-.35-.63-.82-1.11-1.4-1.43-.58-.32-1.2-.48-1.88-.48-.67 0-1.29.16-1.86.48-.58.32-1.03.8-1.37 1.43-.33.63-.5 1.41-.5 2.33 0 1.36.35 2.41 1.04 3.15.7.74 1.57 1.11 2.63 1.11zm11.75-8.73c.38-.64.89-1.14 1.52-1.5.64-.36 1.39-.54 2.26-.54v2.7h-.66c-1.03 0-1.8.26-2.33.78s-.79 1.42-.79 2.71v6.64h-2.61v-12.62h2.61V104zm5.32 4.42c0-1.27.26-2.39.79-3.37a5.7 5.7 0 0 1 2.15-2.28 5.78 5.78 0 0 1 3.01-.81c1 0 1.87.19 2.61.58.74.39 1.33.88 1.77 1.46v-1.83h2.64v12.62h-2.64v-1.88c-.44.6-1.04 1.09-1.81 1.49-.76.4-1.63.6-2.61.6-1.09 0-2.08-.28-2.98-.84-.9-.56-1.62-1.34-2.14-2.34-.53-1-.79-2.13-.79-3.4zm10.33.05c0-.87-.18-1.63-.54-2.27-.36-.64-.83-1.13-1.41-1.47-.58-.33-1.2-.5-1.88-.5-.67 0-1.29.16-1.87.49-.58.33-1.05.81-1.41 1.44-.36.64-.54 1.39-.54 2.26 0 .87.18 1.64.54 2.29.36.66.83 1.16 1.42 1.5.59.35 1.21.52 1.86.52.68 0 1.3-.17 1.88-.51.58-.33 1.05-.82 1.41-1.47.36-.65.54-1.41.54-2.28zm11.16-.05c0-1.27.26-2.39.79-3.37s1.25-1.74 2.16-2.28c.9-.54 1.91-.81 3.01-.81.99 0 1.86.19 2.6.58.74.39 1.33.88 1.78 1.46v-1.83h2.63v12.62h-2.63v-1.88c-.45.6-1.05 1.09-1.81 1.49-.77.4-1.64.6-2.62.6a5.57 5.57 0 0 1-2.98-.84c-.9-.56-1.61-1.34-2.14-2.34-.53-1-.79-2.13-.79-3.4zm10.34.05c0-.87-.18-1.63-.54-2.27-.36-.64-.83-1.13-1.41-1.47-.58-.33-1.21-.5-1.88-.5-.67 0-1.3.16-1.88.49-.58.33-1.05.81-1.41 1.44-.36.64-.54 1.39-.54 2.26 0 .87.18 1.64.54 2.29.36.66.83 1.16 1.42 1.5.59.35 1.21.52 1.87.52.67 0 1.3-.17 1.88-.51.58-.33 1.05-.82 1.41-1.47.36-.65.54-1.41.54-2.28zm10.65 6.53c-.99 0-1.88-.18-2.67-.54-.79-.36-1.41-.85-1.87-1.47a3.71 3.71 0 0 1-.73-2.07h2.7c.05.53.31.98.77 1.34.47.36 1.05.54 1.75.54.74 0 1.31-.14 1.71-.43.41-.28.61-.64.61-1.09 0-.47-.23-.82-.68-1.05-.45-.23-1.16-.48-2.14-.75-.95-.26-1.72-.52-2.31-.76a4.09 4.09 0 0 1-1.55-1.12c-.44-.51-.65-1.17-.65-2 0-.67.2-1.28.59-1.84.4-.56.97-1 1.71-1.32.74-.32 1.59-.48 2.55-.48 1.44 0 2.6.36 3.48 1.09.87.72 1.34 1.71 1.41 2.97h-2.62c-.04-.57-.27-1.02-.68-1.36-.42-.33-.97-.5-1.68-.5-.69 0-1.21.13-1.58.39-.37.26-.55.6-.55 1.03 0 .34.12.62.37.85.24.23.54.41.89.54.35.13.87.29 1.56.49.92.24 1.67.49 2.26.74.59.26 1.09.63 1.52 1.12.43.48.65 1.13.67 1.94 0 .72-.2 1.36-.6 1.93-.4.56-.96 1.01-1.68 1.33-.73.32-1.58.48-2.56.48zm16.22-10.98c.45-.58 1.05-1.07 1.81-1.46.77-.4 1.63-.6 2.59-.6 1.1 0 2.11.27 3.02.81.91.54 1.62 1.3 2.14 2.28.52.98.78 2.1.78 3.37s-.26 2.4-.78 3.4-1.23 1.78-2.14 2.34c-.91.56-1.92.84-3.02.84-.96 0-1.81-.2-2.56-.59-.75-.39-1.36-.87-1.84-1.45v7.84h-2.61v-18.63h2.61v1.85zm7.68 4.4c0-.87-.18-1.62-.54-2.26-.36-.63-.83-1.11-1.42-1.44-.59-.33-1.22-.49-1.89-.49-.66 0-1.28.17-1.87.5-.58.34-1.06.83-1.42 1.47-.36.64-.54 1.4-.54 2.27 0 .87.18 1.63.54 2.28.36.65.84 1.14 1.42 1.47.59.34 1.21.51 1.87.51.67 0 1.3-.17 1.89-.52.59-.34 1.06-.84 1.42-1.5.36-.65.54-1.42.54-2.29zm7.86-4.42c.38-.64.89-1.14 1.52-1.5.64-.36 1.39-.54 2.26-.54v2.7h-.66c-1.03 0-1.8.26-2.33.78s-.79 1.42-.79 2.71v6.64h-2.61v-12.62h2.61V104zm7.52-3.51c-.48 0-.87-.16-1.19-.48-.33-.32-.49-.72-.49-1.19s.16-.87.49-1.19c.32-.32.71-.48 1.19-.48.46 0 .84.16 1.16.48.33.32.49.72.49 1.19s-.16.87-.49 1.19c-.32.32-.7.48-1.16.48zm1.28 1.68v12.62h-2.61v-12.62h2.61zm9.81-.21c.99 0 1.88.21 2.67.62.78.41 1.4 1.02 1.84 1.83.44.81.67 1.79.67 2.93v7.45h-2.59v-7.06c0-1.13-.29-1.99-.85-2.6-.57-.6-1.34-.9-2.32-.9-.97 0-1.75.3-2.32.9-.57.61-.86 1.47-.86 2.6v7.06h-2.61v-12.62h2.61v1.44c.43-.52.97-.93 1.64-1.22a5.22 5.22 0 0 1 2.12-.43zm7.63 6.51c0-1.3.26-2.44.79-3.43.53-.98 1.25-1.74 2.19-2.28.93-.53 2-.8 3.21-.8 1.52 0 2.79.36 3.79 1.09 1 .72 1.67 1.76 2.03 3.1h-2.82c-.23-.62-.6-1.11-1.1-1.46-.51-.36-1.14-.53-1.9-.53-1.07 0-1.93.38-2.56 1.13-.63.76-.95 1.82-.95 3.18s.32 2.42.95 3.18c.63.77 1.49 1.15 2.56 1.15 1.51 0 2.51-.67 3-2h2.82c-.37 1.29-1.06 2.31-2.07 3.06-1.01.76-2.26 1.14-3.75 1.14-1.21 0-2.28-.27-3.21-.82-.94-.54-1.66-1.3-2.19-2.29-.53-.98-.79-2.13-.79-3.42zm15.95-7.98c-.48 0-.87-.16-1.19-.48-.33-.32-.49-.72-.49-1.19s.16-.87.49-1.19c.32-.32.71-.48 1.19-.48.46 0 .85.16 1.17.48.32.32.48.72.48 1.19s-.16.87-.48 1.19c-.32.32-.71.48-1.17.48zm1.28 1.68v12.62h-2.61v-12.62h2.61zm6.05 1.85c.44-.58 1.05-1.07 1.81-1.46.76-.4 1.63-.6 2.59-.6 1.1 0 2.1.27 3.01.81.91.54 1.62 1.3 2.14 2.28.52.98.78 2.1.78 3.37s-.26 2.4-.78 3.4-1.23 1.78-2.14 2.34c-.91.56-1.91.84-3.01.84-.96 0-1.82-.2-2.57-.59-.75-.39-1.36-.87-1.83-1.45v7.84h-2.61v-18.63h2.61v1.85zm7.68 4.4c0-.87-.18-1.62-.54-2.26-.36-.63-.84-1.11-1.42-1.44-.59-.33-1.22-.49-1.89-.49-.66 0-1.28.17-1.87.5-.59.34-1.06.83-1.42 1.47-.36.64-.54 1.4-.54 2.27 0 .87.18 1.63.54 2.28.36.65.83 1.14 1.42 1.47.59.34 1.21.51 1.87.51.67 0 1.3-.17 1.89-.52.58-.34 1.06-.84 1.42-1.5.36-.65.54-1.42.54-2.29zm4.37 0c0-1.27.27-2.39.79-3.37.53-.98 1.25-1.74 2.16-2.28a5.78 5.78 0 0 1 3.01-.81c.99 0 1.86.19 2.6.58.74.39 1.33.88 1.78 1.46v-1.83h2.63v12.62h-2.63v-1.88c-.45.6-1.05 1.09-1.81 1.49-.77.4-1.64.6-2.62.6a5.57 5.57 0 0 1-2.98-.84c-.9-.56-1.61-1.34-2.14-2.34-.52-1-.79-2.13-.79-3.4zm10.34.05c0-.87-.18-1.63-.54-2.27-.36-.64-.83-1.13-1.41-1.47-.58-.33-1.21-.5-1.88-.5-.67 0-1.3.16-1.88.49-.58.33-1.05.81-1.41 1.44-.36.64-.54 1.39-.54 2.26 0 .87.18 1.64.54 2.29.36.66.83 1.16 1.42 1.5.59.35 1.21.52 1.87.52.67 0 1.3-.17 1.88-.51.58-.33 1.05-.82 1.41-1.47.36-.65.54-1.41.54-2.28zm7.4-7.98c-.48 0-.87-.16-1.19-.48a1.63 1.63 0 0 1-.49-1.19c0-.47.17-.87.49-1.19.32-.32.71-.48 1.19-.48.46 0 .85.16 1.17.48.32.32.48.72.48 1.19s-.16.87-.48 1.19c-.32.32-.71.48-1.17.48zm1.28 1.68v12.62h-2.61v-12.62h2.61zm8.02 12.83c-.99 0-1.88-.18-2.67-.54-.79-.36-1.41-.85-1.87-1.47a3.71 3.71 0 0 1-.73-2.07h2.7c.05.53.31.98.77 1.34.47.36 1.05.54 1.75.54.74 0 1.31-.14 1.71-.43.41-.28.61-.64.61-1.09 0-.47-.23-.82-.68-1.05-.45-.23-1.16-.48-2.14-.75-.95-.26-1.72-.52-2.31-.76a4.09 4.09 0 0 1-1.55-1.12c-.44-.51-.65-1.17-.65-2 0-.67.2-1.28.59-1.84.4-.56.97-1 1.71-1.32.74-.32 1.59-.48 2.55-.48 1.44 0 2.6.36 3.48 1.09.88.72 1.34 1.71 1.41 2.97h-2.62c-.04-.57-.27-1.02-.68-1.36-.42-.33-.97-.5-1.68-.5-.69 0-1.21.13-1.58.39-.37.26-.55.6-.55 1.03 0 .34.12.62.37.85.24.23.54.41.89.54.35.13.87.29 1.56.49.92.24 1.67.49 2.26.74.59.26 1.09.63 1.52 1.12.43.48.65 1.13.67 1.94 0 .72-.2 1.36-.6 1.93-.4.56-.96 1.01-1.68 1.33-.73.32-1.58.48-2.56.48zm18.91-10.7h-2.34v10.49h-2.64V104.3h-1.49v-2.13h1.49v-.9c0-1.45.39-2.51 1.16-3.17.77-.67 1.98-1 3.63-1v2.18c-.79 0-1.35.15-1.67.45-.32.29-.48.81-.48 1.54v.9h2.34v2.13zm13.74-2.13v12.62h-2.61v-1.49c-.41.52-.95.93-1.61 1.23-.67.3-1.37.44-2.12.44-1 0-1.89-.2-2.67-.61a4.515 4.515 0 0 1-1.86-1.84c-.45-.81-.67-1.78-.67-2.93v-7.42h2.59v7.03c0 1.13.28 2 .84 2.6.57.6 1.34.91 2.32.91.97 0 1.75-.31 2.32-.91.58-.6.86-1.47.86-2.6v-7.03h2.61zm9.81-.21c1 0 1.89.21 2.67.62.79.41 1.4 1.02 1.85 1.83.44.81.66 1.79.66 2.93v7.45h-2.59v-7.06c0-1.13-.28-1.99-.85-2.6-.56-.6-1.33-.9-2.31-.9s-1.75.3-2.33.9c-.57.61-.86 1.47-.86 2.6v7.06h-2.61v-12.62h2.61v1.44c.43-.52.98-.93 1.64-1.22.67-.29 1.37-.43 2.12-.43zm7.63 6.51c0-1.3.27-2.44.79-3.43.53-.98 1.26-1.74 2.19-2.28.93-.53 2-.8 3.21-.8 1.53 0 2.79.36 3.79 1.09 1 .72 1.68 1.76 2.03 3.1h-2.82c-.23-.62-.59-1.11-1.1-1.46-.5-.36-1.14-.53-1.9-.53-1.07 0-1.92.38-2.55 1.13-.64.76-.96 1.82-.96 3.18s.32 2.42.96 3.18c.63.77 1.48 1.15 2.55 1.15 1.51 0 2.51-.67 3-2h2.82c-.36 1.29-1.05 2.31-2.06 3.06-1.01.76-2.26 1.14-3.76 1.14-1.21 0-2.28-.27-3.21-.82-.93-.54-1.66-1.3-2.19-2.29-.52-.98-.79-2.13-.79-3.42zm15.95-7.98c-.47 0-.87-.16-1.19-.48-.32-.32-.48-.72-.48-1.19s.16-.87.48-1.19c.32-.32.72-.48 1.19-.48.46 0 .85.16 1.17.48.32.32.48.72.48 1.19s-.16.87-.48 1.19c-.32.32-.71.48-1.17.48zm1.29 1.68v12.62h-2.62v-12.62h2.62zm8.91 12.83c-1.19 0-2.27-.27-3.23-.82-.96-.54-1.72-1.3-2.27-2.29-.55-.98-.83-2.13-.83-3.42s.29-2.42.85-3.42c.57-.99 1.34-1.75 2.32-2.29.98-.53 2.07-.8 3.27-.8 1.21 0 2.3.27 3.28.8.98.54 1.75 1.3 2.32 2.29.56 1 .84 2.13.84 3.42 0 1.28-.29 2.42-.87 3.41-.58.99-1.37 1.76-2.37 2.3-1 .55-2.1.82-3.31.82zm0-2.27c.67 0 1.3-.16 1.89-.48.59-.32 1.07-.8 1.43-1.45.37-.64.55-1.42.55-2.33 0-.92-.17-1.7-.53-2.33-.35-.63-.81-1.11-1.39-1.43-.58-.32-1.21-.48-1.88-.48-.67 0-1.3.16-1.87.48-.57.32-1.03.8-1.36 1.43-.34.63-.51 1.41-.51 2.33 0 1.36.35 2.41 1.05 3.15.69.74 1.57 1.11 2.62 1.11zm15.51-10.77c1 0 1.89.21 2.67.62.79.41 1.4 1.02 1.85 1.83.44.81.66 1.79.66 2.93v7.45h-2.59v-7.06c0-1.13-.28-1.99-.85-2.6-.56-.6-1.33-.9-2.31-.9s-1.75.3-2.33.9c-.57.61-.86 1.47-.86 2.6v7.06h-2.61v-12.62h2.61v1.44c.43-.52.98-.93 1.64-1.22.67-.29 1.37-.43 2.12-.43zm7.63 6.46c0-1.27.27-2.39.79-3.37.53-.98 1.25-1.74 2.16-2.28a5.78 5.78 0 0 1 3.01-.81c.99 0 1.86.19 2.6.58.74.39 1.34.88 1.78 1.46v-1.83h2.63v12.62h-2.63v-1.88c-.44.6-1.05 1.09-1.81 1.49-.77.4-1.64.6-2.61.6-1.09 0-2.08-.28-2.98-.84-.9-.56-1.62-1.34-2.15-2.34-.52-1-.79-2.13-.79-3.4zm10.34.05c0-.87-.18-1.63-.54-2.27-.36-.64-.83-1.13-1.41-1.47-.58-.33-1.21-.5-1.88-.5-.67 0-1.3.16-1.88.49-.58.33-1.05.81-1.41 1.44-.36.64-.54 1.39-.54 2.26 0 .87.18 1.64.54 2.29.36.66.84 1.16 1.42 1.5.59.35 1.21.52 1.87.52.67 0 1.3-.17 1.88-.51.58-.33 1.05-.82 1.41-1.47.36-.65.54-1.41.54-2.28zm8.68-10.64v16.96h-2.61V97.83h2.61zm4.77 2.66c-.47 0-.87-.16-1.19-.48-.32-.32-.48-.72-.48-1.19s.16-.87.48-1.19c.32-.32.72-.48 1.19-.48.46 0 .85.16 1.17.48.32.32.48.72.48 1.19s-.16.87-.48 1.19c-.32.32-.71.48-1.17.48zm1.28 1.68v12.62h-2.61v-12.62h2.61zm2.57 6.25c0-1.27.26-2.39.79-3.37s1.24-1.74 2.15-2.28c.91-.54 1.92-.81 3.04-.81.82 0 1.64.18 2.44.54.8.36 1.44.83 1.91 1.43v-6.1h2.64v16.96h-2.64v-1.9c-.43.61-1.02 1.11-1.77 1.51-.76.4-1.63.6-2.6.6-1.1 0-2.11-.28-3.02-.84-.91-.56-1.62-1.34-2.15-2.34-.53-1-.79-2.13-.79-3.4zm10.33.05c0-.87-.18-1.63-.54-2.27-.35-.64-.82-1.13-1.41-1.47-.58-.33-1.2-.5-1.87-.5-.68 0-1.3.16-1.88.49-.58.33-1.05.81-1.41 1.44-.36.64-.54 1.39-.54 2.26 0 .87.18 1.64.54 2.29.36.66.83 1.16 1.42 1.5.59.35 1.21.52 1.87.52.67 0 1.29-.17 1.87-.51.59-.33 1.06-.82 1.41-1.47.36-.65.54-1.41.54-2.28zm5.2-.05c0-1.27.27-2.39.79-3.37.53-.98 1.25-1.74 2.16-2.28a5.78 5.78 0 0 1 3.01-.81c.99 0 1.86.19 2.6.58.74.39 1.34.88 1.78 1.46v-1.83h2.63v12.62h-2.63v-1.88c-.44.6-1.05 1.09-1.81 1.49-.77.4-1.64.6-2.61.6-1.09 0-2.08-.28-2.98-.84-.9-.56-1.62-1.34-2.15-2.34-.52-1-.79-2.13-.79-3.4zm10.34.05c0-.87-.18-1.63-.54-2.27-.36-.64-.83-1.13-1.41-1.47-.58-.33-1.21-.5-1.88-.5-.67 0-1.3.16-1.88.49-.58.33-1.05.81-1.41 1.44-.36.64-.54 1.39-.54 2.26 0 .87.18 1.64.54 2.29.36.66.84 1.16 1.42 1.5.59.35 1.21.52 1.87.52.67 0 1.3-.17 1.88-.51.58-.33 1.05-.82 1.41-1.47.36-.65.54-1.41.54-2.28zm5.2-.05c0-1.27.26-2.39.79-3.37s1.25-1.74 2.15-2.28c.91-.54 1.93-.81 3.04-.81.83 0 1.64.18 2.44.54.8.36 1.44.83 1.91 1.43v-6.1h2.64v16.96h-2.64v-1.9c-.42.61-1.02 1.11-1.77 1.51-.76.4-1.62.6-2.6.6-1.1 0-2.11-.28-3.02-.84-.9-.56-1.62-1.34-2.15-2.34-.53-1-.79-2.13-.79-3.4zm10.33.05c0-.87-.17-1.63-.53-2.27-.36-.64-.83-1.13-1.41-1.47-.58-.33-1.21-.5-1.88-.5-.67 0-1.3.16-1.88.49-.58.33-1.05.81-1.41 1.44-.36.64-.54 1.39-.54 2.26 0 .87.18 1.64.54 2.29.36.66.83 1.16 1.42 1.5.59.35 1.21.52 1.87.52.67 0 1.3-.17 1.88-.51.58-.33 1.05-.82 1.41-1.47.36-.65.53-1.41.53-2.28zm17.65-.3c0 .47-.03.9-.09 1.28h-9.65c.08 1.01.45 1.82 1.12 2.43.67.61 1.5.92 2.48.92 1.4 0 2.4-.59 2.98-1.77h2.82a5.813 5.813 0 0 1-2.08 2.86c-1 .74-2.24 1.11-3.72 1.11-1.21 0-2.29-.27-3.25-.82-.95-.54-1.7-1.3-2.24-2.29-.54-.98-.81-2.13-.81-3.42 0-1.3.26-2.44.79-3.43.52-.98 1.26-1.74 2.22-2.28.95-.53 2.05-.8 3.29-.8 1.19 0 2.25.26 3.18.78.93.52 1.66 1.25 2.18 2.19.52.94.78 2.02.78 3.24zm-2.73-.83c-.01-.96-.36-1.73-1.03-2.31-.67-.58-1.5-.87-2.5-.87-.9 0-1.67.29-2.31.86-.64.57-1.03 1.35-1.15 2.32h6.99zm9.88 7.66c-.99 0-1.88-.18-2.67-.54-.79-.36-1.41-.85-1.87-1.47-.46-.62-.7-1.31-.73-2.07h2.7c.05.53.3.98.77 1.34.47.36 1.05.54 1.75.54.74 0 1.31-.14 1.71-.43.4-.28.61-.64.61-1.09 0-.47-.23-.82-.68-1.05-.45-.23-1.16-.48-2.14-.75-.95-.26-1.72-.52-2.32-.76-.59-.25-1.11-.62-1.54-1.12-.44-.51-.66-1.17-.66-2 0-.67.2-1.28.6-1.84.4-.56.97-1 1.71-1.32.74-.32 1.59-.48 2.55-.48 1.44 0 2.6.36 3.47 1.09.88.72 1.35 1.71 1.41 2.97h-2.61c-.05-.57-.27-1.02-.69-1.36-.41-.33-.97-.5-1.67-.5-.69 0-1.21.13-1.58.39-.37.26-.55.6-.55 1.03 0 .34.12.62.37.85.24.23.54.41.89.54.35.13.87.29 1.56.49.91.24 1.67.49 2.26.74.58.26 1.09.63 1.52 1.12.43.48.65 1.13.66 1.94 0 .72-.19 1.36-.59 1.93-.4.56-.96 1.01-1.69 1.33-.72.32-1.57.48-2.55.48zm-478.75 19.62c0-1.26.26-2.39.79-3.36.53-.98 1.25-1.74 2.16-2.28.9-.55 1.92-.82 3.03-.82.83 0 1.64.18 2.44.54.8.36 1.44.84 1.92 1.43v-6.09h2.63V141h-2.63v-1.91c-.43.61-1.02 1.12-1.78 1.52-.76.39-1.62.59-2.6.59-1.1 0-2.11-.28-3.01-.84-.91-.55-1.63-1.33-2.16-2.33-.53-1-.79-2.14-.79-3.41zm10.34.05c0-.87-.18-1.63-.54-2.27-.36-.64-.83-1.13-1.41-1.46-.58-.34-1.21-.51-1.88-.51-.67 0-1.3.17-1.88.49-.58.33-1.05.81-1.41 1.45-.36.63-.54 1.38-.54 2.25 0 .88.18 1.64.54 2.3.36.65.83 1.15 1.42 1.5.59.34 1.21.51 1.87.51.67 0 1.3-.17 1.88-.5.58-.34 1.05-.83 1.41-1.48.36-.65.54-1.41.54-2.28zm11.55 6.53c-1.2 0-2.27-.27-3.24-.81a5.79 5.79 0 0 1-2.26-2.29c-.56-.99-.83-2.13-.83-3.43 0-1.28.28-2.42.85-3.41.56-1 1.33-1.76 2.31-2.3.98-.53 2.07-.8 3.28-.8s2.3.27 3.28.8c.97.54 1.74 1.3 2.31 2.3.56.99.85 2.13.85 3.41 0 1.28-.29 2.42-.87 3.42-.58.99-1.37 1.76-2.37 2.3-1 .54-2.11.81-3.31.81zm0-2.27c.67 0 1.3-.16 1.88-.48.59-.32 1.07-.8 1.44-1.44.36-.64.55-1.42.55-2.34 0-.92-.18-1.69-.53-2.33-.35-.63-.82-1.11-1.4-1.43-.58-.32-1.2-.48-1.88-.48-.67 0-1.29.16-1.86.48-.58.32-1.03.8-1.37 1.43-.33.64-.5 1.41-.5 2.33 0 1.36.35 2.41 1.04 3.15.7.74 1.57 1.11 2.63 1.11zm14.22-5.93c0-1.56.37-2.96 1.09-4.2a7.75 7.75 0 0 1 2.96-2.89c1.24-.7 2.61-1.05 4.09-1.05 1.7 0 3.2.42 4.53 1.25 1.32.83 2.28 2.01 2.87 3.54h-3.14c-.41-.84-.98-1.46-1.72-1.88-.73-.41-1.58-.61-2.54-.61-1.06 0-1.99.23-2.82.7a5.09 5.09 0 0 0-1.94 2.04c-.46.89-.69 1.92-.69 3.1 0 1.17.23 2.21.69 3.09.47.89 1.12 1.57 1.94 2.05.83.48 1.76.72 2.82.72.96 0 1.81-.2 2.54-.61.74-.42 1.31-1.04 1.72-1.88h3.14c-.59 1.52-1.55 2.7-2.87 3.53-1.33.82-2.83 1.23-4.53 1.23-1.5 0-2.86-.35-4.1-1.04a7.82 7.82 0 0 1-2.95-2.9c-.72-1.24-1.09-2.63-1.09-4.19zm26.86 8-3.67-6.38h-1.99V141h-2.61v-15.93h5.5c1.22 0 2.26.21 3.1.64.85.43 1.49 1 1.91 1.72.42.72.63 1.52.63 2.41 0 1.03-.31 1.98-.91 2.83-.6.84-1.53 1.42-2.78 1.73l3.94 6.6h-3.12zm-5.66-8.46h2.89c.98 0 1.71-.25 2.21-.73.5-.49.74-1.15.74-1.97 0-.83-.24-1.47-.73-1.94s-1.23-.7-2.22-.7h-2.89v5.34zm28.65-7.47V141h-2.62v-10.91L245.67 141h-1.82l-4.88-10.91V141h-2.61v-15.93h2.82l5.59 12.49 5.57-12.49h2.8zm12 5.16c.45-.59 1.05-1.07 1.81-1.47.77-.4 1.63-.6 2.59-.6 1.1 0 2.11.27 3.02.82.9.54 1.62 1.3 2.14 2.28.52.97.78 2.1.78 3.36 0 1.27-.26 2.41-.78 3.41s-1.24 1.78-2.14 2.33c-.91.56-1.92.84-3.02.84-.96 0-1.82-.19-2.56-.58-.75-.39-1.36-.88-1.84-1.46V147h-2.61v-18.63h2.61v1.86zm7.68 4.39c0-.87-.18-1.62-.54-2.25-.36-.64-.83-1.12-1.42-1.45-.59-.32-1.22-.49-1.89-.49-.66 0-1.28.17-1.87.51-.59.33-1.06.82-1.42 1.46-.36.64-.54 1.4-.54 2.27 0 .87.18 1.63.54 2.28.36.65.83 1.14 1.42 1.48.59.33 1.21.5 1.87.5.67 0 1.3-.17 1.89-.51.59-.35 1.06-.85 1.42-1.5.36-.66.54-1.42.54-2.3zm4.38 0c0-1.26.26-2.39.79-3.36a5.7 5.7 0 0 1 2.15-2.28c.91-.55 1.91-.82 3.01-.82 1 0 1.86.2 2.6.59.74.39 1.34.87 1.78 1.45v-1.83h2.64V141h-2.64v-1.88c-.44.59-1.05 1.09-1.81 1.49-.76.39-1.63.59-2.61.59-1.09 0-2.08-.28-2.98-.84-.9-.55-1.62-1.33-2.14-2.33-.53-1-.79-2.14-.79-3.41zm10.33.05c0-.87-.18-1.63-.54-2.27-.36-.64-.83-1.13-1.41-1.46-.58-.34-1.2-.51-1.88-.51-.67 0-1.3.17-1.88.49-.58.33-1.05.81-1.41 1.45-.35.63-.53 1.38-.53 2.25 0 .88.18 1.64.53 2.3.36.65.84 1.15 1.43 1.5.58.34 1.21.51 1.86.51.68 0 1.3-.17 1.88-.5.58-.34 1.05-.83 1.41-1.48.36-.65.54-1.41.54-2.28zm8.68-4.47c.39-.64.89-1.14 1.53-1.5.63-.36 1.38-.54 2.26-.54v2.71h-.67c-1.02 0-1.8.26-2.32.78-.53.51-.8 1.42-.8 2.7V141h-2.61v-12.63h2.61v1.83zm5.32 4.42c0-1.26.26-2.39.79-3.36.53-.98 1.25-1.74 2.16-2.28.9-.55 1.91-.82 3.01-.82.99 0 1.86.2 2.6.59.74.39 1.33.87 1.78 1.45v-1.83h2.63V141h-2.63v-1.88c-.45.59-1.05 1.09-1.81 1.49-.77.39-1.64.59-2.62.59a5.57 5.57 0 0 1-2.98-.84c-.9-.55-1.61-1.33-2.14-2.33s-.79-2.14-.79-3.41zm10.34.05c0-.87-.18-1.63-.54-2.27-.36-.64-.83-1.13-1.41-1.46-.58-.34-1.21-.51-1.88-.51-.67 0-1.3.17-1.88.49-.58.33-1.05.81-1.41 1.45-.36.63-.54 1.38-.54 2.25 0 .88.18 1.64.54 2.3.36.65.83 1.15 1.42 1.5.59.34 1.21.51 1.87.51.67 0 1.3-.17 1.88-.5.58-.34 1.05-.83 1.41-1.48.36-.65.54-1.41.54-2.28zm11.16 0c0-1.3.26-2.44.79-3.43.52-.98 1.25-1.74 2.18-2.28.94-.53 2.01-.8 3.21-.8 1.53 0 2.79.37 3.79 1.09 1 .73 1.68 1.76 2.03 3.11h-2.82c-.23-.63-.59-1.12-1.1-1.47-.5-.35-1.13-.53-1.9-.53-1.07 0-1.92.38-2.55 1.14-.64.75-.95 1.81-.95 3.17 0 1.36.31 2.42.95 3.19.63.76 1.48 1.14 2.55 1.14 1.51 0 2.52-.66 3-1.99h2.82c-.36 1.28-1.05 2.3-2.06 3.06-1.01.75-2.26 1.13-3.76 1.13-1.2 0-2.27-.27-3.21-.81a5.663 5.663 0 0 1-2.18-2.29c-.53-.99-.79-2.13-.79-3.43zm20.09 6.53c-1.19 0-2.27-.27-3.23-.81a5.88 5.88 0 0 1-2.27-2.29c-.55-.99-.82-2.13-.82-3.43 0-1.28.28-2.42.84-3.41.57-1 1.34-1.76 2.32-2.3.98-.53 2.07-.8 3.28-.8 1.2 0 2.29.27 3.27.8.98.54 1.75 1.3 2.32 2.3.56.99.85 2.13.85 3.41 0 1.28-.3 2.42-.88 3.42-.58.99-1.37 1.76-2.37 2.3-1 .54-2.1.81-3.31.81zm0-2.27c.67 0 1.3-.16 1.89-.48.59-.32 1.07-.8 1.43-1.44.37-.64.55-1.42.55-2.34 0-.92-.17-1.69-.52-2.33-.35-.63-.82-1.11-1.4-1.43-.58-.32-1.21-.48-1.88-.48-.67 0-1.3.16-1.87.48-.57.32-1.02.8-1.36 1.43-.34.64-.5 1.41-.5 2.33 0 1.36.34 2.41 1.04 3.15.69.74 1.57 1.11 2.62 1.11zm11.76-8.73c.38-.64.89-1.14 1.52-1.5.63-.36 1.39-.54 2.26-.54v2.71h-.67c-1.02 0-1.8.26-2.32.78-.53.51-.79 1.42-.79 2.7V141h-2.62v-12.63h2.62v1.83zm8.8 0c.38-.64.89-1.14 1.52-1.5.63-.36 1.39-.54 2.26-.54v2.71h-.67c-1.02 0-1.8.26-2.32.78-.53.51-.79 1.42-.79 2.7V141h-2.62v-12.63h2.62v1.83zm17.76 4.17c0 .48-.03.9-.1 1.29h-9.64c.07 1 .45 1.81 1.12 2.43.67.61 1.5.91 2.47.91 1.41 0 2.4-.59 2.98-1.76h2.82a5.666 5.666 0 0 1-2.07 2.85c-1 .74-2.24 1.11-3.73 1.11-1.2 0-2.28-.27-3.24-.81-.95-.54-1.7-1.31-2.24-2.29-.55-.99-.82-2.13-.82-3.43 0-1.3.27-2.44.79-3.43.53-.98 1.27-1.74 2.23-2.28.95-.53 2.05-.8 3.28-.8 1.2 0 2.26.26 3.19.78.93.52 1.66 1.25 2.18 2.19.52.94.78 2.02.78 3.24zm-2.73-.82c-.02-.96-.36-1.74-1.03-2.32-.68-.58-1.51-.87-2.5-.87-.9 0-1.67.29-2.31.86-.65.58-1.03 1.35-1.15 2.33h6.99zm8.34-3.05v6.99c0 .47.11.81.33 1.02.22.2.6.31 1.14.31h1.6V141h-2.06c-1.18 0-2.08-.28-2.71-.83-.62-.55-.94-1.44-.94-2.68v-6.99h-1.49v-2.13h1.49v-3.14h2.64v3.14h3.07v2.13h-3.07zM398 141.2c-1.19 0-2.26-.27-3.23-.81a5.88 5.88 0 0 1-2.27-2.29c-.55-.99-.82-2.13-.82-3.43 0-1.28.28-2.42.85-3.41.56-1 1.33-1.76 2.31-2.3.98-.53 2.07-.8 3.28-.8 1.2 0 2.3.27 3.27.8.98.54 1.75 1.3 2.32 2.3.56.99.85 2.13.85 3.41 0 1.28-.29 2.42-.87 3.42-.58.99-1.37 1.76-2.38 2.3-1 .54-2.1.81-3.31.81zm0-2.27c.68 0 1.31-.16 1.89-.48.59-.32 1.07-.8 1.44-1.44.36-.64.55-1.42.55-2.34 0-.92-.18-1.69-.53-2.33-.35-.63-.82-1.11-1.4-1.43-.58-.32-1.21-.48-1.88-.48a3.8 3.8 0 0 0-1.87.48c-.57.32-1.02.8-1.36 1.43-.34.64-.5 1.41-.5 2.33 0 1.36.34 2.41 1.04 3.15.69.74 1.57 1.11 2.62 1.11zm11.76-8.73c.38-.64.89-1.14 1.52-1.5.64-.36 1.39-.54 2.26-.54v2.71h-.67c-1.02 0-1.79.26-2.32.78-.53.51-.79 1.42-.79 2.7V141h-2.61v-12.63h2.61v1.83zm17.76 4.17c0 .48-.03.9-.09 1.29h-9.65c.08 1 .45 1.81 1.12 2.43.67.61 1.5.91 2.48.91 1.4 0 2.4-.59 2.98-1.76h2.81a5.666 5.666 0 0 1-2.07 2.85c-1 .74-2.24 1.11-3.72 1.11-1.21 0-2.29-.27-3.25-.81-.95-.54-1.7-1.31-2.24-2.29-.54-.99-.81-2.13-.81-3.43 0-1.3.26-2.44.79-3.43.52-.98 1.26-1.74 2.22-2.28.95-.53 2.05-.8 3.29-.8 1.19 0 2.25.26 3.18.78.93.52 1.66 1.25 2.18 2.19.52.94.78 2.02.78 3.24zm-2.73-.82c-.01-.96-.36-1.74-1.03-2.32-.67-.58-1.5-.87-2.5-.87-.9 0-1.67.29-2.31.86-.64.58-1.03 1.35-1.15 2.33h6.99zm9.88 7.65c-1 0-1.88-.18-2.67-.54-.79-.36-1.41-.84-1.87-1.46-.46-.62-.7-1.31-.73-2.08h2.7c.05.54.3.98.77 1.34.46.36 1.05.54 1.75.54.74 0 1.3-.14 1.71-.42.4-.28.61-.65.61-1.09 0-.47-.23-.83-.68-1.05-.45-.23-1.16-.49-2.14-.76-.95-.26-1.72-.51-2.32-.76-.59-.24-1.11-.62-1.54-1.12-.44-.5-.66-1.17-.66-1.99 0-.68.2-1.29.6-1.85.4-.56.96-1 1.71-1.32.74-.32 1.59-.48 2.55-.48 1.44 0 2.59.37 3.47 1.09.88.73 1.35 1.72 1.41 2.97h-2.61c-.05-.57-.28-1.02-.69-1.35-.41-.34-.97-.51-1.67-.51-.69 0-1.22.13-1.58.39-.37.26-.55.61-.55 1.03 0 .34.12.62.37.85.24.23.54.41.89.54.35.13.87.29 1.56.49.91.25 1.67.49 2.25.75.59.25 1.1.62 1.53 1.11.43.49.65 1.14.66 1.95 0 .71-.2 1.36-.59 1.92-.4.57-.96 1.01-1.69 1.33-.72.32-1.57.48-2.55.48zm25.18-6.83c0 .48-.03.9-.09 1.29h-9.65c.08 1 .45 1.81 1.12 2.43.68.61 1.5.91 2.48.91 1.41 0 2.4-.59 2.98-1.76h2.82a5.744 5.744 0 0 1-2.08 2.85c-1 .74-2.24 1.11-3.72 1.11-1.21 0-2.29-.27-3.24-.81a5.765 5.765 0 0 1-2.25-2.29c-.54-.99-.81-2.13-.81-3.43 0-1.3.26-2.44.79-3.43.53-.98 1.27-1.74 2.22-2.28.96-.53 2.05-.8 3.29-.8 1.19 0 2.25.26 3.19.78.93.52 1.65 1.25 2.17 2.19s.78 2.02.78 3.24zm-2.73-.82c-.01-.96-.35-1.74-1.03-2.32-.67-.58-1.5-.87-2.49-.87-.91 0-1.68.29-2.32.86-.64.58-1.02 1.35-1.14 2.33h6.98zm12.59-6.85c-.48 0-.88-.16-1.2-.48-.32-.33-.48-.72-.48-1.2 0-.47.16-.87.48-1.19.32-.32.72-.48 1.2-.48.45 0 .84.16 1.16.48.32.32.49.72.49 1.19 0 .48-.17.87-.49 1.2-.32.32-.71.48-1.16.48zm1.28 1.67V141h-2.61v-12.63h2.61zm18.72-.21c.99 0 1.88.21 2.67.62.79.41 1.4 1.03 1.85 1.83.46.81.68 1.79.68 2.94V141h-2.59v-7.06c0-1.13-.28-2-.85-2.6-.56-.61-1.33-.91-2.31-.91s-1.75.3-2.33.91c-.57.6-.86 1.47-.86 2.6V141h-2.59v-7.06c0-1.13-.28-2-.84-2.6-.57-.61-1.34-.91-2.32-.91-.98 0-1.75.3-2.32.91-.58.6-.86 1.47-.86 2.6V141h-2.62v-12.63h2.62v1.44c.42-.52.97-.92 1.62-1.21a5.18 5.18 0 0 1 2.11-.44c1.01 0 1.91.22 2.71.64.79.43 1.4 1.05 1.83 1.86.38-.76.98-1.37 1.79-1.82.81-.45 1.68-.68 2.61-.68zm14 13.04c-1.19 0-2.27-.27-3.23-.81a5.88 5.88 0 0 1-2.27-2.29c-.55-.99-.82-2.13-.82-3.43 0-1.28.28-2.42.84-3.41.57-1 1.34-1.76 2.32-2.3.98-.53 2.07-.8 3.28-.8 1.2 0 2.29.27 3.27.8.98.54 1.75 1.3 2.32 2.3.56.99.84 2.13.84 3.41 0 1.28-.29 2.42-.87 3.42-.58.99-1.37 1.76-2.37 2.3-1 .54-2.1.81-3.31.81zm0-2.27c.67 0 1.3-.16 1.89-.48.59-.32 1.07-.8 1.43-1.44.37-.64.55-1.42.55-2.34 0-.92-.17-1.69-.52-2.33-.36-.63-.82-1.11-1.4-1.43-.58-.32-1.21-.48-1.88-.48-.67 0-1.3.16-1.87.48-.57.32-1.03.8-1.36 1.43-.34.64-.51 1.41-.51 2.33 0 1.36.35 2.41 1.05 3.15.69.74 1.57 1.11 2.62 1.11zm11.76-8.68c.44-.61 1.05-1.11 1.82-1.5.77-.39 1.63-.59 2.58-.59 1.11 0 2.12.27 3.02.8.9.54 1.61 1.3 2.13 2.28.52.99.78 2.12.78 3.38 0 1.27-.26 2.41-.78 3.41s-1.23 1.78-2.14 2.33c-.91.56-1.91.84-3.01.84-.98 0-1.85-.19-2.61-.57-.75-.38-1.35-.87-1.79-1.47V141h-2.62v-16.96h2.62v6.21zm7.67 4.37c0-.87-.18-1.62-.54-2.25-.36-.64-.83-1.12-1.42-1.45-.59-.32-1.22-.49-1.89-.49-.65 0-1.28.17-1.87.51-.58.33-1.06.82-1.42 1.46-.36.64-.53 1.4-.53 2.27 0 .87.17 1.63.53 2.28.36.65.84 1.14 1.42 1.48.59.33 1.22.5 1.87.5.67 0 1.3-.17 1.89-.51.59-.35 1.06-.85 1.42-1.5.36-.66.54-1.42.54-2.3zm6.58-7.92c-.47 0-.87-.16-1.19-.48-.32-.33-.48-.72-.48-1.2 0-.47.16-.87.48-1.19.32-.32.72-.48 1.19-.48.46 0 .85.16 1.17.48.32.32.48.72.48 1.19 0 .48-.16.87-.48 1.2-.32.32-.71.48-1.17.48zm1.28 1.67V141h-2.61v-12.63H531zm6.05-4.33V141h-2.61v-16.96h2.61zm4.77 2.66c-.48 0-.87-.16-1.19-.48-.33-.33-.49-.72-.49-1.2 0-.47.16-.87.49-1.19.32-.32.71-.48 1.19-.48.46 0 .84.16 1.16.48.33.32.49.72.49 1.19 0 .48-.16.87-.49 1.2-.32.32-.7.48-1.16.48zm1.28 1.67V141h-2.61v-12.63h2.61zm2.57 6.25c0-1.26.26-2.39.79-3.36a5.7 5.7 0 0 1 2.15-2.28c.91-.55 1.91-.82 3.01-.82 1 0 1.86.2 2.6.59.74.39 1.34.87 1.78 1.45v-1.83h2.64V141H556v-1.88c-.44.59-1.05 1.09-1.81 1.49-.76.39-1.63.59-2.61.59-1.09 0-2.08-.28-2.98-.84-.9-.55-1.62-1.33-2.14-2.33-.53-1-.79-2.14-.79-3.41zm10.33.05c0-.87-.18-1.63-.54-2.27-.36-.64-.83-1.13-1.41-1.46-.58-.34-1.2-.51-1.88-.51-.67 0-1.29.17-1.88.49-.58.33-1.05.81-1.4 1.45-.36.63-.54 1.38-.54 2.25 0 .88.18 1.64.54 2.3.35.65.83 1.15 1.42 1.5.58.34 1.21.51 1.86.51.68 0 1.3-.17 1.88-.5.58-.34 1.05-.83 1.41-1.48.36-.65.54-1.41.54-2.28zm-1.05-9.69-5.07 2.5v-1.93l5.07-2.8v2.23zm9.73 5.22c.39-.64.89-1.14 1.53-1.5.63-.36 1.38-.54 2.26-.54v2.71h-.67c-1.02 0-1.8.26-2.32.78-.53.51-.8 1.42-.8 2.7V141h-2.61v-12.63h2.61v1.83zm7.52-3.5c-.47 0-.87-.16-1.19-.48-.32-.33-.48-.72-.48-1.2 0-.47.16-.87.48-1.19.32-.32.72-.48 1.19-.48.46 0 .85.16 1.17.48.32.32.48.72.48 1.19 0 .48-.16.87-.48 1.2-.32.32-.71.48-1.17.48zm1.28 1.67V141h-2.61v-12.63h2.61zm2.57 6.25c0-1.26.26-2.39.79-3.36.53-.98 1.25-1.74 2.15-2.28.91-.55 1.92-.82 3.02-.82.99 0 1.86.2 2.6.59.74.39 1.33.87 1.78 1.45v-1.83h2.63V141h-2.63v-1.88c-.45.59-1.05 1.09-1.82 1.49-.76.39-1.63.59-2.61.59a5.57 5.57 0 0 1-2.98-.84c-.9-.55-1.61-1.33-2.14-2.33s-.79-2.14-.79-3.41zm10.34.05c0-.87-.18-1.63-.54-2.27-.36-.64-.83-1.13-1.41-1.46-.58-.34-1.21-.51-1.88-.51-.67 0-1.3.17-1.88.49-.58.33-1.05.81-1.41 1.45-.36.63-.54 1.38-.54 2.25 0 .88.18 1.64.54 2.3.36.65.83 1.15 1.42 1.5.59.34 1.21.51 1.87.51.67 0 1.3-.17 1.88-.5.58-.34 1.05-.83 1.41-1.48.36-.65.54-1.41.54-2.28zm10.65 6.53c-.99 0-1.88-.18-2.67-.54-.79-.36-1.41-.84-1.87-1.46-.46-.62-.7-1.31-.73-2.08h2.7c.05.54.3.98.77 1.34.47.36 1.05.54 1.75.54.74 0 1.31-.14 1.71-.42.41-.28.61-.65.61-1.09 0-.47-.23-.83-.68-1.05-.45-.23-1.16-.49-2.14-.76-.95-.26-1.72-.51-2.31-.76-.6-.24-1.12-.62-1.55-1.12-.44-.5-.65-1.17-.65-1.99 0-.68.19-1.29.59-1.85.4-.56.97-1 1.71-1.32.74-.32 1.59-.48 2.55-.48 1.44 0 2.6.37 3.48 1.09.87.73 1.34 1.72 1.4 2.97h-2.61c-.04-.57-.27-1.02-.69-1.35-.41-.34-.96-.51-1.67-.51-.69 0-1.21.13-1.58.39-.37.26-.55.61-.55 1.03 0 .34.12.62.37.85.24.23.54.41.89.54.35.13.87.29 1.56.49.92.25 1.67.49 2.26.75.58.25 1.09.62 1.52 1.11.43.49.65 1.14.67 1.95 0 .71-.2 1.36-.6 1.92-.4.57-.96 1.01-1.69 1.33-.72.32-1.57.48-2.55.48z" style="fill:#686af1"/><path d="M54.23 169.02c.83 0 1.53.69 1.53 1.53 0 .83-.7 1.52-1.53 1.52h-3.6v3.63c0 .83-.7 1.52-1.53 1.52-.84 0-1.53-.69-1.53-1.52v-3.63h-3.61c-.83 0-1.53-.69-1.53-1.52 0-.84.7-1.53 1.53-1.53h3.61v-3.61c0-.85.69-1.52 1.53-1.52.83 0 1.53.67 1.53 1.52v3.61h3.6zm48.92 92.09h-7.64v7.66h7.64v-7.66zm0 11.48h-7.64v7.65h7.64v-7.65zm0 11.47h-7.64v7.66h7.64v-7.66zm11.46-22.95h-7.65v7.66h7.65v-7.66zm0 11.48h-7.65v7.66h7.65v-7.66zm0 11.48h-7.65v7.65h7.65v-7.65zm144.56 7.7h-7.64v-7.67h7.64v7.67zm0-11.49h-7.64v-7.66h7.64v7.66zm11.48 11.49H263v-7.67h7.65v7.67zm0-11.49H263v-7.66h7.65v7.66zm352.21 12.65c1.66-3.48 5.7-2.95 8.01.79-3.69 1.28-5.44.05-8.01-.79zm-5.55-4.23c-1.51-3.17-5.19-2.69-7.29.72 3.36 1.16 4.95.04 7.29-.72zm5.39 0c1.51-3.17 5.18-2.69 7.29.72-3.37 1.16-4.95.04-7.29-.72zm-5.22 4.22c-1.66-3.48-5.69-2.95-8.01.8 3.7 1.27 5.44.04 8.01-.8zm6.12-12.4c-1.67.87-2.61.69-3.3 1.72-.12.17-.1.31.04.49.22.29.36.51.48.72.14.22.23.41.31.65.02.07.06.35.48.13 2.27-1.19 1.87-2.91 1.99-3.71zm-7.9.48c3.85.23 6.42 3.85 4.31 5.67-4.49-1.09-2.81-3.85-4.31-5.67zm-22.33 7.7c-1.51-3.17-5.18-2.69-7.28.72 3.36 1.16 4.94.04 7.28-.72zm5.39 0c1.51-3.17 5.18-2.69 7.29.72-3.36 1.16-4.95.04-7.29-.72zm.9-8.18c-1.67.87-2.6.69-3.3 1.72-.11.17-.1.31.04.49.23.29.36.51.49.72.13.22.22.41.3.65.02.07.07.35.48.13 2.28-1.19 1.88-2.91 1.99-3.71zm-7.89.48c3.85.23 6.41 3.85 4.3 5.67-4.49-1.09-2.81-3.85-4.3-5.67zm-46.26 7.7c-1.52-3.17-5.19-2.69-7.29.72 3.36 1.16 4.95.04 7.29-.72zm6.29-8.18c-1.68.87-2.61.69-3.3 1.72-.12.17-.1.31.03.49.23.29.36.51.49.72.13.22.23.41.3.65.03.07.07.35.49.13 2.27-1.19 1.87-2.91 1.99-3.71zm-7.9.48c3.85.23 6.41 3.85 4.31 5.67-4.5-1.09-2.81-3.85-4.31-5.67zm120.07 1.98c-.05-1.21-.14-2.43-.14-2.97l-.03-.58c.27 1.01.5 1.86.61 2.19-.09.44-.23.89-.44 1.36zm85.54 15.91c-.02-.17-.18-.81-.27-1.06-.02.1-.03.21-.04.31-.01.23-.06.79.1 1.07.01.02.03.05.05.07l.05-.05c.02-.05.13-.13.11-.34zm6.87-9.24c-.06 0-.11-.02-.14-.02-.04 0-.08.02-.12.01-.04-.01-.1-.06-.15-.05-.05.01-.18-.01-.2.03-.01.05.06.12.06.18 0 .05-.11.37-.26.39-.16.02-.42-.11-.48-.18-.02.16-.07.63-.11.76-.04.13-.16.62-.21.76-.04.14-.42 1.61-.59 2.05-.18.44-.78 1.88-2.53 2.04-.4.05-1.31.71-1.39 1.23-.09.56-.64.83-.64.83s.01.31.06.54c.05.23.15.78.38 1 .23.23.59.1.66.1.07 0 .15.02.17.03.01.02-.04.07-.04.07s.06.04.11.05c.05.01.29.08.23.15-.06.08-.28.04-.28.04s.03.03.03.06c-.01.02.01.08-.12.07-.13-.01-.51-.07-.66-.11-.02 0-.05 0-.08-.01.01.01.02.01.02.02.05.02.26.15.18.2-.07.06-.28-.04-.28-.04s.02.04.01.07c-.01.02-.01.08-.13.03-.12-.04-.48-.2-.61-.27-.04-.03-.1-.04-.16-.06-.03 0-.07.01-.09.01-.01-.01-.02-.02-.02-.04-.07-.03-.13-.05-.16-.08-.06-.08.02-.16-.05-.2-.07-.04-.28-.01-.32.02-.04.03-.23.01-.28-.01-.05-.01.02-.14.06-.16.03-.02.37-.07.4-.12.04-.04.16-.1.2-.3.04-.17.05-.79.02-1.07-.12-.05-.49-.16-.55-.59-.02-.16.01-.41.02-.48.01-.08-.07.17-.48.2-.4.02-1.13-.02-1.57-.58-.44-.56-.87-1.2-.95-1.79-.07-.6-.15-.41-.23-.68-.02-.1-.05-.15.09-.14-.12-.14-.51-.46-.57-.58-.06-.1-.05-.29.15-.28-.19-.21-.36-.49-.57-.71-.21-.22-.29-.69-.43-.96s-.81-.6-.9-1.23c-.1-.62-.04-1.26 1.03-.92 1.08.34 1.83 1.21 2.24 1.42.4.21 1.35.62 2.15.67.81.04 2.4-.05 3-.33.61-.29 1.39-1.09 1.64-1.32.25-.24.42-.46.9-.54.48-.09.79-.12.86-.17.08-.05.23-.18.23-.18-.08-.23-.06-.89.38-.4.08-.05.18.04.19.11.08-.03.19.03.17.14.13.03.15.09.13.15.11 0 .1.08.12.17.03.08.35.23.19.48.1.02.05.13.05.13s.27.08.22.39zm-.06-95.04c.83 0 1.52.69 1.52 1.53 0 .84-.69 1.53-1.52 1.53h-3.61v3.62c0 .83-.69 1.52-1.52 1.52-.85 0-1.54-.69-1.54-1.52v-3.62h-3.61c-.83 0-1.52-.69-1.52-1.53 0-.84.69-1.53 1.52-1.53h3.61V191a1.53 1.53 0 0 1 3.06 0v3.61h3.61zm13.68-20v43.85h-13.33c-18.62 0-33.86 15.27-33.86 33.91 0 18.66 15.24 33.92 33.86 33.92l13.33.03c-.81 11.1-9 14.27-17.47 13.65H620.46l-.01-3.9v-.64c.65-.75 1.38-1.42 2.19-2-.12-.02-.2-.05-.25-.11-.05-.06-.07-.14-.05-.24-.72.5-1.28 1.02-1.89 1.64v-3.2c.65-.74 1.37-1.41 2.19-2-.12-.01-.2-.05-.25-.11-.05-.05-.07-.13-.05-.24-.72.5-1.29 1.02-1.89 1.65l-.01-1.03v-2.4c-.15.11-.33.09-.53 0l.01 3.44c-.62-.63-1.19-1.16-1.92-1.66.02.1.01.18-.04.24-.05.05-.14.09-.26.1.83.6 1.56 1.28 2.22 2.03v3.2c-.61-.64-1.19-1.16-1.91-1.67.02.11 0 .19-.05.24-.05.06-.13.1-.25.11.82.59 1.55 1.28 2.21 2.03l.01 4.52H597.5c9.07-3.84 15.78-6.18 9.58-6.18h-.34l.2-.07c-2.32-3.74-6.35-4.27-8.01-.79.85.28 1.62.6 2.39.86h-3.09c.15-.12.31-.25.48-.36-.12-.02-.21-.05-.26-.11a.31.31 0 0 1-.04-.24c-.33.23-.63.46-.92.71h-.97l-.01-2.27c.65-.74 1.38-1.41 2.2-2-.12-.01-.21-.05-.26-.11-.05-.05-.06-.13-.04-.24-.73.5-1.29 1.02-1.9 1.65V287.39c-.15.11-.33.09-.53 0v3.44c-.61-.63-1.18-1.16-1.91-1.66.02.1 0 .18-.05.24-.05.05-.13.09-.25.1.82.6 1.56 1.28 2.21 2.03l.01 2.25H595c-.29-.25-.59-.49-.93-.72.02.11.01.19-.04.24-.05.06-.14.1-.26.11.17.12.33.24.49.37h-3.06v-.02c.76-.26 1.51-.57 2.35-.85-1.42-2.97-4.57-3.02-6.91-.63-1.71-.67-3.29-1.64-4.67-2.82l.15-.05c-.7-1.13-1.57-1.93-2.48-2.4a16.364 16.364 0 0 1-3.45-10.06c0-7.81 5.52-14.4 12.82-16.06h50.87c14.7 0 26.73-12.05 26.73-26.78s-12.03-26.78-26.73-26.78h-36.24c-7.86-1.23-13.91-8.07-13.91-16.26 0-9.06 7.4-16.47 16.44-16.47H770zm-88.91 93.81c.85 0 1.52.68 1.52 1.52 0 .21-.04.41-.12.6 1.82-.5 6.65-3.42 7.17-3.82.55-.41 3.68-2.12 4.31-2.48.62-.37 3.13-1.31 3.61-1.54.47-.23 2.46-.9 2.96-.99.06-.01.12-.02.17-.03.16-.31.29-.54.41-.73.25-.36.54-.62.68-.88a3 3 0 0 0 .22-.79c.02-.15.15-.16.17.02.02.18-.01.61.04.88.03.15 0 .39-.05.61.22-.27.43-.48.54-.7.14-.27.21-.64.23-.79.02-.14.15-.16.17.02.02.18-.01.61.04.88.05.26-.07.79-.16 1.01-.09.21-.02.49.02.69.01.04-.01.14-.05.25.29.15.57.34.81.57.46.46 1.57 1.77 1.87 2.15.31.37 1.74 2.14 2.03 2.6.3.46.99 1.38 1.11 1.7.12.31.07.61-.18.99-.26.38.07.64-.11.89-.17.26-.54.45-.78.46-.24 0-.25.28-.44.3-.2.02-1.38-.01-1.59-.27-.21-.26-.11-.51-.3-.67-.19-.15-1.09-.8-1.43-.84-.33-.05-1.11-.65-1.26-.78-.15-.12-.18-.26-.3-.25-.12 0-1.44.14-1.9-.49-.14-.15-.89-.02-1.47.56-.58.57-4.52 6.94-4.77 8.84-.26 2.06-1.42 3.57-2.07 4.25-.08.63-.26 1.46-.59 2.47-.54 1.64-1.01 4.04-1.11 5.44-.09 1.39-.38 1.89-.39 2.59-.01.69-.3 3.46-.03 4.27.26.81 1.25 1.26 1.36 1.87.34.25.82.72.88.8.05.07.21.2-.2.25-.41.05-1.69.14-1.84.11-.15-.02-.78-.01-1.01-.48-.23-.48.24-.61.33-.72.09-.12-.33-.55-.41-.67-.09-.11-.41-.67-.67-.78-.27-.1-.54-.25-.5-.78.04-.53.44-3.64.48-4.01.03-.38.12-1.55.02-1.94-.11-.38-.04-.76-.13-1.83-.05-.63-.08-.57-.15-.74-.21.19-.52 1.09-.61 1.96-.15 1.39-.47 1.88-.51 2.57-.05.69-.45 3.45-.22 4.27.23.82 1.19 1.31 1.27 1.93.34.26.8.75.85.83.05.08.2.22-.21.25-.41.02-1.69.06-1.85.03-.15-.03-.77-.05-.97-.53-.21-.49.25-.6.35-.71.1-.11-.3-.56-.38-.68-.08-.12-.37-.69-.63-.81-.27-.11-.53-.27-.47-.8.06-.53.6-3.62.66-3.99.05-.37.19-1.54.1-1.93-.09-.39-.22-.78-.05-1.84.19-1.06.27-2.74.24-3.56-.02-.4-.02-1.05-.01-1.66-.32.09-1.39.03-3.82.18-2.64.17-5.02-.44-6.51-.93-.75-.25-1.79-.71-2.68-1.13-.83-.4-1.83.02-2.13.89-.4 1.16-.81 2.17-1.04 2.54-.51.8-1.61 3.99-1.95 4.8-.35.81-.26 3.89-.27 4.24-.02.35.07 1.25.04 1.52-.02.27.07 1.44.16 1.86.1.41.83.69 1.26 1.24.43.54.74 1.22.54 1.35-.2.12-1.39.04-2.17.07-.77.02-1.2-.23-1.12-.48.08-.25.41-1.56.03-2.09-.37-.52-1.1-1.21-.82-2.01.4-1.14.13-3.49.21-4.28.08-.77.02-2.65-.24-3.76-.52.98-1.03 2-1.26 2.4-.45.76-.72 3.82-.78 4.17-.06.34-.08 1.25-.14 1.52-.06.26-.11 1.43-.06 1.86.04.43.73.79 1.09 1.38.36.6.62 1.03.4 1.13-.22.1-1.42.16-2.19.09s-1.16-.37-1.05-.61c.11-.24.59-1.51.28-2.07-.31-.57-.97-1.35-.57-2.09.56-1.04.4-2.14.56-3.24-.21-.19-.43-.5-.61-.98-.7-1.83-.69-4.23-.58-5.43.11-1.2 1.16-6.69 1.69-9.25.43-2.06.65-2.67 1.2-3.5.3-.45.7-.83 1.16-1.11.6-.37 1.46-.85 2.01-1 .62-.17 1.87-.49 2.88-.69 0-.84.68-1.51 1.52-1.51h3.61v-3.62c0-.85.68-1.53 1.52-1.53.85 0 1.52.68 1.52 1.53v3.62h3.61zm19.95-72.08c2.34 0 4.22 1.89 4.22 4.23a4.22 4.22 0 0 1-8.44 0c0-2.34 1.89-4.23 4.22-4.23zm-203.34 8.83h-5.27v-5.29c0-1.23-1-2.23-2.23-2.23-1.22 0-2.23 1-2.23 2.23v5.29h-5.26c-1.23 0-2.22.99-2.22 2.22 0 1.22.99 2.23 2.22 2.23h5.26v5.27c0 1.23 1.01 2.23 2.23 2.23 1.23 0 2.23-1 2.23-2.23v-5.27h5.27c1.21 0 2.21-1.01 2.21-2.23 0-1.23-1-2.22-2.21-2.22zm45.5 56.77c8.37 0 15.15 6.8 15.15 15.18 0 3.64-1.28 6.99-3.41 9.6-1.59-.46-3.18.16-4.05 1.98.52.17.99.35 1.46.53a15.29 15.29 0 0 1-3.38 1.94c.56-.61 1.18-1.16 1.87-1.65-.12-.01-.21-.05-.26-.11-.05-.05-.06-.13-.04-.24-.72.5-1.29 1.02-1.9 1.65V287.39c-.15.11-.33.09-.53 0v3.44c-.61-.63-1.18-1.16-1.91-1.66.02.1 0 .18-.05.24-.05.05-.13.09-.25.1.81.59 1.53 1.25 2.18 1.99-.91.31-1.86.54-2.84.67-1.43-2.03-3.9-2.06-5.93-.37-6.49-1.72-11.27-7.64-11.27-14.68 0-8.38 6.78-15.18 15.16-15.18zm-277.66 38.03H66.61c-.76-.47-1.66-.74-2.63-.74-.95 0-1.85.27-2.61.74H17.56C4.63 301.43-.8 293.41.09 282.51V179.05a4.22 4.22 0 0 0 3.09-4.07c0-1.95-1.3-3.58-3.09-4.08v-21.88H125.92c12.27 0 22.31 10.05 22.31 22.35 0 10.17-6.88 18.82-16.22 21.5H54.58c-18.62 0-33.86 15.26-33.86 33.91 0 18.66 15.24 33.92 33.86 33.92h28.78v39.22h43.4V260.7h112.61v39.27h26.17zm-7.53-38.84c.39.12.78.25 1.16.39v7.28h-7.64v-7.67h6.48zm4.99 2.21c2.38 1.43 4.48 3.28 6.18 5.46H263v-5.46zM184.05 147.7c11.13 0 20.15 9.74 20.15 21.74 0 12-9.02 21.74-20.15 21.74-11.13 0-20.15-9.74-20.15-21.74 0-12 9.02-21.74 20.15-21.74zm-51.15 86.15a2.23 2.23 0 0 1 0 4.46h-5.27v5.27c0 .72-.34 1.36-.87 1.77v-6.68c0-3.12-1.39-5.92-3.58-7.8v-2.29a2.23 2.23 0 0 1 2.23-2.22c1.22 0 2.22.99 2.22 2.22v5.27h5.27z" style="fill:#797bf7"/><path d="M138.01 39.91c0-2.02.42-3.83 1.26-5.41a9.146 9.146 0 0 1 3.61-3.71c1.55-.88 3.34-1.32 5.36-1.32 2.57 0 4.73.68 6.48 2.05 1.75 1.37 2.87 3.24 3.38 5.59h-6.15c-.37-.78-.88-1.37-1.53-1.78-.66-.41-1.41-.61-2.26-.61-1.33 0-2.38.47-3.17 1.41s-1.18 2.2-1.18 3.78c0 1.59.39 2.86 1.18 3.8.79.95 1.84 1.42 3.17 1.42.85 0 1.6-.21 2.26-.61.65-.41 1.16-1.01 1.53-1.78h6.15c-.51 2.35-1.63 4.21-3.38 5.58s-3.91 2.06-6.48 2.06c-2.02 0-3.81-.45-5.36-1.33-1.56-.88-2.76-2.12-3.61-3.7-.84-1.59-1.26-3.4-1.26-5.44zM702.8 282.84c.29-.1.59-.12.87-.07-.74.42-1.44 1-1.99 1.75-.11-.69.35-1.41 1.12-1.68zm-364.34-12.08c0 .28-.03.56-.07.82.74 1 1.17 2.24 1.17 3.58 0 .69-.12 1.36-.33 1.99a7.684 7.684 0 0 1 1.98 5.16c0 3.88-2.87 7.09-6.6 7.63v9.98h-2.21v-9.98c-3.72-.54-6.6-3.75-6.6-7.63 0-1.98.75-3.8 1.98-5.16a6.29 6.29 0 0 1-.33-1.99c0-1.34.43-2.58 1.17-3.58a5.44 5.44 0 0 1-.07-.82 4.96 4.96 0 0 1 4.96-4.96 4.95 4.95 0 0 1 4.95 4.96zm-107.28 0c0 .28-.03.56-.07.82a6.017 6.017 0 0 1 1.17 3.58c0 .69-.12 1.36-.33 1.99a7.684 7.684 0 0 1 1.98 5.16c0 3.89-2.87 7.09-6.6 7.63v9.98h-2.2v-9.98c-3.73-.54-6.61-3.74-6.61-7.63 0-1.98.75-3.79 1.98-5.16a6.29 6.29 0 0 1-.33-1.99c0-1.34.43-2.57 1.17-3.58a5.44 5.44 0 0 1-.07-.82 4.95 4.95 0 0 1 4.96-4.95c2.74 0 4.95 2.21 4.95 4.95zm-86.27 0c0 .28-.02.56-.06.82a6.017 6.017 0 0 1 1.17 3.58c0 .69-.12 1.36-.33 1.99a7.684 7.684 0 0 1 1.98 5.16c0 3.89-2.87 7.09-6.61 7.63v9.98h-2.2v-9.98c-3.72-.54-6.6-3.74-6.6-7.63 0-1.98.75-3.79 1.98-5.16a6.29 6.29 0 0 1-.33-1.99c0-1.34.43-2.57 1.17-3.58a4.942 4.942 0 0 1 4.88-5.77 4.95 4.95 0 0 1 4.96 4.95h-.01zm8.2 29.16v-37.21l16.57 5.23v-5.23l16.57 5.23v-5.23l15.98 5.04V251.4h10.85v48.52h-59.97zm16.62-21.68h-7.64v7.65h7.64v-7.65zm11.45 0h-7.64v7.65h7.64v-7.65zm11.46 0h-7.63v7.65h7.63v-7.65zm11.46 0h-7.64v7.65h7.64v-7.65zm-129.14-7.48c0 .28-.02.56-.07.82.74 1 1.17 2.24 1.17 3.58 0 .69-.12 1.36-.33 1.99a7.684 7.684 0 0 1 1.98 5.16c0 3.88-2.87 7.09-6.6 7.63v9.98h-2.2v-9.98c-3.73-.54-6.6-3.75-6.6-7.63 0-1.98.74-3.8 1.98-5.16a6.29 6.29 0 0 1-.33-1.99c0-1.34.42-2.58 1.16-3.58-.04-.26-.06-.54-.06-.82a4.95 4.95 0 1 1 9.9 0zm-61.42 29.16v-28.9c0-3.23 1.52-6.27 4.09-8.21l13.17-9.92a7.365 7.365 0 0 1 8.87 0l13.17 9.92c2.58 1.94 4.1 4.98 4.1 8.21v28.9h-43.4zm19.78-27.94h-7.63v7.66h7.63v-7.66zm0 11.49h-7.63v7.64h7.63v-7.64zm11.47-11.49h-7.64v7.66h7.64v-7.66zm0 11.49h-7.64v7.64h7.64v-7.64zm305.66 3.61v-.64h-1.33v.64h1.33zm8.4 0v-.64h-1.32v.64h1.32zm2.71 3.51-2.71.57v-1.89h-1.32v2.18l-2.71.64s-.52 6.16 7.78 6.16c-1.16-1.1-2.31-4.26-1.04-7.66zm-14.57-3.17h16.3v1.5h-16.3v-1.5zm16.64-.86h4.32v3.22h-4.32v-3.22zm1.44 3.57v.69h1.44v-.69h-1.44zm1.44-4.61h-1.44v.69h1.44v-.69zm-13.36 5.07-2.7.57v-1.89h-1.33v2.18l-2.7.64s-.52 6.16 7.77 6.16c-1.15-1.1-2.3-4.26-1.04-7.66zm144.16 2.83c-4.12 0-7.27-3.15-7.27-7.27 0-3.88 3.15-7.03 7.27-7.03 3.88 0 7.03 3.15 7.03 7.03 0 4.12-3.15 7.27-7.03 7.27zm0-20.85c-7.52 0-13.82 6.06-13.82 13.58 0 7.52 6.3 13.82 13.82 13.82 7.52 0 13.58-6.3 13.58-13.82 0-7.52-6.06-13.58-13.58-13.58zm-30.07 22.31c-2.18 0-3.64-1.46-3.64-3.64 0-1.94 1.46-3.64 3.64-3.64 1.94 0 3.64 1.7 3.64 3.64 0 2.18-1.7 3.64-3.64 3.64zm0-12.12c-4.85 0-8.73 3.87-8.73 8.48 0 4.85 3.88 8.73 8.73 8.73 4.61 0 8.49-3.88 8.49-8.73 0-4.61-3.88-8.48-8.49-8.48zm27.89-24.25v-11.16l15.76 1.21 2.18 9.95h-17.94zm17.7-12.13-20.37-1.69v16.73l-37.83 3.15v16.49l4.37 2.91c1.94-2.19 4.85-3.64 8.24-3.64 5.82 0 10.67 4.61 10.91 10.18h3.64c-.48-1.21-.73-2.66-.73-4.36 0-8.73 7.28-16 16.25-16 3.88 0 7.76 1.45 10.43 3.87l1.94-.72 6.3-12.85-3.15-14.07zm-30.31 13.58-12.12.97-5.82-14.06-11.64 2.18-.49-4.12 12.13-3.88 5.82 1.94 12.12 16.97zm52.86 28.37-4.85 8.49h-9.94l-4.85-8.49 1.45-2.42-4.12-2.43c-.48-2.91-1.7-5.33-3.39-7.52l.48-.24 9.46 6.06.97-1.94h9.94l4.85 8.49zm165.32.39c.36 2.52 1.28 4.19 1.36 4.72.09.54.01 1.26 0 1.75 0 .5.47 1.47.54 1.9.08.44.02 1.99 0 2.26-.03.26.04.61.4.19.37.37 1.42.74 1.19-.03-.14-.47-.33-2.73-.19-3.17.13-.44.45-1.09.65-1.53.19-.44.58-1.63.63-1.82.06-.19.09.47 0 .89-.09.43.01.8.37 1.05.18.1.23.81.32 1.23.09.43.28 1.92.32 2.47.04.55.24 1.36.54.82.2.32 1.36.8 1.04-.03-.32-.82-.39-2.48-.39-2.92 0-.58.11-1.66.26-2.19.04-.16.07-.26.09-.34.12-.43.61-.64 1.01-.43.76.41 1.57 1.17 4.9 1.21 4.93.06 7.61-2.45 7.83-1.99.02.03.03.06.05.09.16.34.26.7.3 1.06.08.7.14 1.35.13 1.87-.01.46-.06 1.56-.26 2.14-.19.59.12 1.54.44.9.08.47.7.78 1.17.95.47.17-.03-.91-.06-1.18-.03-.24-.02-1.08.22-1.87.04.11.09.23.12.33.15.43.4 1.23.42 1.86.02.62.63 1.37.72.65.23.4.91.43 1.41.4.49-.03-.35-.83-.47-1.07-.12-.24-.36-.91-.37-1.95-.01-1.04.18-3.47.47-4.19.29-.73 2.48-.81 3.31-.83.1-.01.2-.01.29-.01.41 0 .81.08 1.2.22.79.28 1.86.1 2.05.07.24-.04 1.03 0 1.47-.17.44-.17 1.04-.46 1.38-.52.33-.06.72-.07 1.18-.17.16-.04.18-.25.12-.32.05-.06.04-.04.18-.22.13-.18.07-.45.12-.59.04-.13.27-.44.3-.79.03-.35-.08-.36-.16-.39-.08-.04-.24.1-.4.06-.17-.04-1.12-.72-1.6-1.08-.47-.36-.91-.95-1.03-1.39-.47-1.7-.74-1.56-.81-1.99-.08-.44.35-.9.61-1.72.27-.83.02-1.34-.14-1.81-.17-.48-.45-.4-.65-.31-.2.1-.28.48-.39.75-.05.11-.22.34-.4.64-.11-.52-.39-.83-.61-1.14-.29-.41-.54-.26-.71-.11-.16.15-.13.54-.16.83-.02.17-.23.73-.33 1.28-1.05-.41-3.02-1.12-5.77-1.27-2.87-.16-6.37.57-9.21.47-2.85-.09-7.14-.53-9.03-.44-.49.02-1.18.16-1.91.44-.6-.43-1.45-.56-2.26-.28-1.27.43-1.98 1.7-1.59 2.83a2 2 0 0 0 .29.54c-.44.92-.66 2.04-.5 3.39zm-50.96-17.9c0 .28-.02.56-.07.82.74 1 1.17 2.24 1.17 3.58 0 .69-.12 1.36-.33 1.99a7.684 7.684 0 0 1 1.98 5.16c0 3.88-2.87 7.08-6.6 7.62v9.98h-2.2v-9.98c-3.73-.54-6.6-3.74-6.6-7.62 0-1.98.74-3.8 1.98-5.16a6.29 6.29 0 0 1-.33-1.99c0-1.34.42-2.58 1.16-3.58-.04-.26-.06-.54-.06-.82a4.95 4.95 0 1 1 9.9 0zM437.11 64.72c1.11 0 2.07.22 2.9.67.83.45 1.46 1.05 1.91 1.81v-2.28h5.72v16.19c0 1.53-.3 2.92-.88 4.15-.58 1.24-1.49 2.23-2.73 2.96-1.23.74-2.79 1.11-4.68 1.11-2.52 0-4.55-.59-6.06-1.78-1.52-1.18-2.38-2.8-2.6-4.84h5.63c.12.53.41.93.88 1.23.46.29 1.07.43 1.8.43 1.95 0 2.92-1.08 2.92-3.26v-2.1c-.45.76-1.08 1.36-1.91 1.81-.83.44-1.79.67-2.9.67-1.3 0-2.49-.34-3.55-1.02-1.05-.68-1.89-1.66-2.5-2.93-.62-1.28-.92-2.76-.92-4.45 0-1.69.3-3.17.92-4.44.61-1.26 1.45-2.23 2.5-2.91 1.06-.68 2.25-1.02 3.55-1.02zm-181.04 94.59h257.79c3.22 0 5.84 3.08 5.84 6.87v41.25c0 3.79-2.62 6.87-5.84 6.87H256.07c-3.23 0-5.84-3.08-5.84-6.87v-41.25c0-3.79 2.61-6.87 5.84-6.87zm185.85-86.22c0-1.05-.29-1.88-.86-2.48-.57-.6-1.28-.91-2.11-.91-.86 0-1.57.3-2.13.9-.57.59-.85 1.42-.85 2.49 0 1.05.28 1.88.85 2.49.56.61 1.27.92 2.13.92.83 0 1.54-.3 2.11-.9.57-.61.86-1.44.86-2.51zm14.7-5.28c.64-.93 1.42-1.67 2.33-2.22.92-.54 1.9-.81 2.95-.81v6.09h-1.61c-1.24 0-2.16.24-2.77.73-.6.49-.9 1.33-.9 2.54v7.14h-5.72V64.92h5.72v2.89zm6.39 5.28c0-1.69.3-3.17.91-4.44.62-1.26 1.45-2.23 2.51-2.91 1.06-.68 2.24-1.02 3.55-1.02 1.12 0 2.09.22 2.91.67.82.45 1.45 1.05 1.9 1.81v-2.28h5.71v16.36h-5.71v-2.27c-.45.76-1.09 1.36-1.91 1.81-.83.44-1.8.67-2.9.67-1.31 0-2.49-.34-3.55-1.02-1.06-.68-1.89-1.66-2.51-2.93-.61-1.28-.91-2.76-.91-4.45zm11.78 0c0-1.05-.29-1.88-.86-2.48-.58-.6-1.28-.91-2.12-.91-.85 0-1.56.3-2.13.9-.56.59-.84 1.42-.84 2.49 0 1.05.28 1.88.84 2.49.57.61 1.28.92 2.13.92.84 0 1.54-.3 2.12-.9.57-.61.86-1.44.86-2.51zm1.13-12.13-7.29 2.85v-3.87l7.29-3.3v4.32zm17.5 15.45v4.87h-2.48c-4.18 0-6.27-2.07-6.27-6.21v-5.39h-2.01v-4.76h2.01v-3.96h5.75v3.96h2.97v4.76h-2.97v5.48c0 .45.1.77.3.96.21.2.55.29 1.04.29h1.66zm5.52-13c-1.02 0-1.83-.28-2.44-.84-.61-.55-.92-1.24-.92-2.08 0-.86.31-1.57.92-2.13.61-.56 1.42-.85 2.44-.85.99 0 1.79.29 2.4.85.61.56.92 1.27.92 2.13 0 .84-.31 1.53-.92 2.08-.61.56-1.41.84-2.4.84zm2.82 1.51v16.36h-5.71V64.92h5.71zM512 81.49c-1.48 0-2.8-.25-3.95-.75-1.16-.49-2.07-1.17-2.74-2.04a5.31 5.31 0 0 1-1.13-2.93h5.55c.07.53.32.93.72 1.23.41.29.92.43 1.52.43.47 0 .84-.09 1.11-.29.27-.19.41-.45.41-.76 0-.4-.23-.71-.67-.9-.45-.2-1.19-.41-2.22-.64-1.17-.24-2.14-.5-2.92-.79-.77-.29-1.45-.77-2.02-1.43-.58-.66-.86-1.55-.86-2.68 0-.97.26-1.85.78-2.64.53-.79 1.3-1.41 2.32-1.88 1.02-.47 2.25-.7 3.69-.7 2.14 0 3.82.52 5.05 1.57 1.22 1.05 1.93 2.43 2.13 4.14h-5.17c-.09-.52-.32-.92-.68-1.21-.36-.28-.84-.42-1.45-.42-.46 0-.82.09-1.06.26a.86.86 0 0 0-.36.73c0 .39.22.69.67.89.44.21 1.16.42 2.16.63 1.18.25 2.17.53 2.96.85.78.31 1.47.81 2.07 1.5.59.69.88 1.62.88 2.81 0 .95-.27 1.81-.83 2.57-.55.76-1.34 1.35-2.36 1.79-1.02.44-2.22.66-3.6.66zM168.42 50.44c-1.63 0-3.09-.34-4.38-1.02a7.588 7.588 0 0 1-3.05-2.92c-.74-1.27-1.11-2.75-1.11-4.46 0-1.69.37-3.17 1.12-4.44a7.65 7.65 0 0 1 3.06-2.91c1.3-.68 2.76-1.02 4.39-1.02 1.64 0 3.1.34 4.39 1.02 1.29.68 2.32 1.65 3.06 2.91.75 1.27 1.13 2.75 1.13 4.44 0 1.69-.38 3.17-1.13 4.44-.74 1.28-1.77 2.25-3.07 2.94-1.31.68-2.77 1.02-4.41 1.02zm0-4.96c.8 0 1.47-.3 2-.89.54-.59.8-1.45.8-2.55 0-1.11-.26-1.96-.8-2.54-.53-.58-1.19-.88-1.97-.88s-1.43.3-1.95.88c-.53.58-.79 1.43-.79 2.54 0 1.12.25 1.98.76 2.56.51.59 1.16.88 1.95.88zm32.32-11.76c2.06 0 3.68.63 4.85 1.87 1.18 1.25 1.77 2.95 1.77 5.1v9.54h-5.72v-8.78c0-.87-.24-1.55-.73-2.04-.48-.48-1.15-.73-1.98-.73-.84 0-1.5.25-1.99.73-.48.49-.72 1.17-.72 2.04v8.78h-5.72v-8.78c0-.87-.24-1.55-.71-2.04-.48-.48-1.14-.73-1.97-.73-.86 0-1.53.25-2.02.73-.48.49-.72 1.17-.72 2.04v8.78h-5.72V33.87h5.72v2.16c.5-.7 1.16-1.26 1.96-1.68.81-.42 1.74-.63 2.79-.63 1.2 0 2.28.27 3.22.79a5.8 5.8 0 0 1 2.23 2.22 6.68 6.68 0 0 1 2.31-2.17c.95-.56 2-.84 3.15-.84zm25.37 8.14c0 .45-.03.9-.09 1.34H215.2c.06.9.31 1.56.74 2 .44.44 1 .66 1.68.66.95 0 1.63-.43 2.04-1.29h6.1a7.07 7.07 0 0 1-1.48 3.02c-.72.89-1.64 1.58-2.75 2.09-1.11.5-2.33.76-3.68.76-1.61 0-3.04-.34-4.3-1.02a7.438 7.438 0 0 1-2.94-2.92c-.71-1.27-1.07-2.75-1.07-4.46 0-1.72.35-3.2 1.05-4.45.7-1.26 1.68-2.22 2.93-2.9 1.26-.68 2.7-1.02 4.33-1.02 1.62 0 3.05.33 4.29.99 1.25.66 2.22 1.61 2.92 2.84.7 1.24 1.05 2.69 1.05 4.36zm-5.83-1.43c0-.7-.24-1.25-.71-1.65-.46-.39-1.05-.59-1.74-.59-.7 0-1.28.19-1.72.57-.45.37-.74.93-.88 1.67h5.05zm7.23 1.61c0-1.69.35-3.17 1.05-4.44.7-1.26 1.68-2.23 2.93-2.91 1.25-.68 2.69-1.02 4.3-1.02 2.08 0 3.83.56 5.25 1.7s2.33 2.73 2.74 4.77h-6.06c-.35-1.07-1.03-1.6-2.05-1.6-.72 0-1.28.29-1.7.89-.42.59-.63 1.46-.63 2.61 0 1.14.21 2.02.63 2.62.42.6.98.91 1.7.91 1.03 0 1.72-.54 2.05-1.61h6.06c-.41 2.02-1.32 3.61-2.74 4.75-1.42 1.15-3.17 1.73-5.25 1.73-1.61 0-3.05-.34-4.3-1.02a7.35 7.35 0 0 1-2.93-2.92c-.7-1.27-1.05-2.75-1.05-4.46zm34.27-.18c0 .45-.03.9-.09 1.34h-10.82c.06.9.3 1.56.74 2 .44.44 1 .66 1.68.66.95 0 1.63-.43 2.04-1.29h6.1a7.186 7.186 0 0 1-1.48 3.02c-.73.89-1.65 1.58-2.75 2.09-1.11.5-2.34.76-3.68.76-1.61 0-3.05-.34-4.3-1.02a7.463 7.463 0 0 1-2.95-2.92c-.71-1.27-1.06-2.75-1.06-4.46 0-1.72.35-3.2 1.05-4.45.7-1.26 1.68-2.22 2.93-2.9 1.25-.68 2.7-1.02 4.33-1.02 1.62 0 3.04.33 4.29.99 1.24.66 2.22 1.61 2.92 2.84.7 1.24 1.05 2.69 1.05 4.36zm-5.84-1.43c0-.7-.23-1.25-.7-1.65-.46-.39-1.05-.59-1.75-.59s-1.27.19-1.72.57c-.45.37-.74.93-.87 1.67h5.04zm12.81 1.61c0-1.69.3-3.17.92-4.44.61-1.26 1.44-2.23 2.5-2.91 1.06-.68 2.24-1.02 3.55-1.02 1.12 0 2.1.22 2.91.67.82.44 1.45 1.05 1.9 1.81v-2.28h5.71v16.36h-5.71v-2.27c-.45.75-1.09 1.36-1.91 1.8-.83.45-1.8.68-2.9.68-1.31 0-2.49-.34-3.55-1.02-1.06-.69-1.89-1.66-2.5-2.94-.62-1.27-.92-2.75-.92-4.44zm11.78 0c0-1.05-.29-1.88-.86-2.48-.58-.6-1.28-.91-2.12-.91-.85 0-1.56.3-2.12.89-.57.6-.85 1.43-.85 2.5 0 1.05.28 1.88.85 2.49.56.61 1.27.92 2.12.92.84 0 1.54-.3 2.12-.91.57-.6.86-1.43.86-2.5zm31.29-8.17v16.36h-5.74V47.9c-.49.74-1.16 1.33-2.02 1.79-.85.46-1.83.69-2.94.69-1.91 0-3.41-.63-4.51-1.88-1.1-1.26-1.65-2.96-1.65-5.12v-9.51h5.69v8.78c0 .93.25 1.67.75 2.2.49.54 1.15.8 1.96.8.84 0 1.5-.26 1.99-.8.48-.53.73-1.27.73-2.2v-8.78h5.74zm10.24 16.57c-1.48 0-2.8-.25-3.95-.75-1.16-.49-2.08-1.17-2.75-2.04a5.298 5.298 0 0 1-1.12-2.93h5.54c.08.52.32.93.73 1.22.41.3.92.44 1.52.44.46 0 .83-.1 1.11-.29.27-.19.4-.45.4-.76 0-.41-.22-.71-.67-.9-.44-.2-1.18-.41-2.21-.64-1.17-.24-2.14-.5-2.92-.79-.78-.29-1.45-.77-2.03-1.43-.57-.66-.86-1.56-.86-2.68 0-.98.27-1.86.79-2.64.53-.79 1.3-1.42 2.32-1.88 1.02-.47 2.25-.7 3.69-.7 2.14 0 3.82.52 5.04 1.57 1.23 1.05 1.94 2.43 2.13 4.14h-5.16c-.1-.52-.32-.93-.68-1.21-.36-.28-.84-.42-1.45-.42-.46 0-.82.09-1.06.26-.25.18-.37.42-.37.73 0 .39.23.69.67.89.45.2 1.17.41 2.16.63 1.19.25 2.17.53 2.96.84.79.31 1.48.81 2.07 1.51.6.69.89 1.62.89 2.81 0 .95-.27 1.81-.83 2.57-.55.75-1.34 1.35-2.36 1.79-1.02.44-2.22.66-3.6.66zm8.66-8.4c0-1.69.31-3.17.92-4.44.61-1.26 1.45-2.23 2.51-2.91 1.05-.68 2.24-1.02 3.54-1.02 1.13 0 2.1.22 2.92.67.81.44 1.44 1.05 1.89 1.81v-2.28h5.72v16.36h-5.72v-2.27c-.45.75-1.08 1.36-1.91 1.8-.83.45-1.79.68-2.9.68-1.3 0-2.49-.34-3.54-1.02-1.06-.69-1.9-1.66-2.51-2.94-.61-1.27-.92-2.75-.92-4.44zm11.78 0c0-1.05-.29-1.88-.86-2.48-.57-.6-1.28-.91-2.11-.91-.86 0-1.57.3-2.13.89-.57.6-.85 1.43-.85 2.5 0 1.05.28 1.88.85 2.49.56.61 1.27.92 2.13.92.83 0 1.54-.3 2.11-.91.57-.6.86-1.43.86-2.5zm14.7-5.28c.64-.94 1.42-1.67 2.33-2.22.92-.54 1.9-.82 2.95-.82v6.1h-1.61c-1.24 0-2.16.24-2.77.73-.6.48-.9 1.33-.9 2.54v7.14h-5.72V33.87h5.72v2.89zm20.5 13.68c-1.63 0-3.1-.34-4.39-1.02a7.652 7.652 0 0 1-3.05-2.92c-.73-1.27-1.1-2.75-1.1-4.46 0-1.69.37-3.17 1.12-4.44a7.65 7.65 0 0 1 3.06-2.91c1.29-.68 2.76-1.02 4.39-1.02s3.1.34 4.39 1.02a7.65 7.65 0 0 1 3.06 2.91c.75 1.27 1.12 2.75 1.12 4.44 0 1.69-.37 3.17-1.12 4.44a7.619 7.619 0 0 1-3.07 2.94c-1.31.68-2.78 1.02-4.41 1.02zm0-4.96c.8 0 1.46-.3 2-.89.53-.59.8-1.45.8-2.55 0-1.11-.27-1.96-.8-2.54-.54-.58-1.19-.88-1.97-.88s-1.43.3-1.95.88c-.53.58-.79 1.43-.79 2.54 0 1.12.25 1.98.76 2.56.5.59 1.15.88 1.95.88zm15.81-5.57c0-2.02.42-3.83 1.27-5.41a9.06 9.06 0 0 1 3.6-3.71c1.55-.88 3.34-1.32 5.36-1.32 2.57 0 4.73.68 6.48 2.05 1.75 1.37 2.88 3.24 3.38 5.59h-6.15c-.37-.78-.88-1.37-1.53-1.78-.65-.41-1.41-.61-2.26-.61-1.33 0-2.38.47-3.17 1.41-.78.94-1.18 2.2-1.18 3.78 0 1.59.4 2.86 1.18 3.8.79.95 1.84 1.42 3.17 1.42.85 0 1.61-.21 2.26-.61.65-.41 1.16-1.01 1.53-1.78h6.15c-.5 2.35-1.63 4.21-3.38 5.58s-3.91 2.06-6.48 2.06c-2.02 0-3.81-.45-5.36-1.33a9.035 9.035 0 0 1-3.6-3.7c-.85-1.59-1.27-3.4-1.27-5.44zm33.22 10.32-4.09-7.58h-.61v7.58h-5.72V29.67h9.01c1.66 0 3.06.29 4.2.86 1.15.57 2.02 1.36 2.6 2.36.58 1 .88 2.13.88 3.37 0 1.4-.39 2.63-1.16 3.69-.76 1.06-1.89 1.81-3.37 2.26l4.64 8.02h-6.38zm-4.7-11.49h2.83c.78 0 1.36-.18 1.75-.55.39-.37.58-.91.58-1.61 0-.66-.2-1.18-.6-1.56-.39-.38-.97-.57-1.73-.57h-2.83v4.29zm37.56-9.07v20.56h-5.71V38.89L450 50.23h-4.78l-3.91-11.43v11.43h-5.72V29.67h6.91l5.16 13.36 5.05-13.36h6.88zm14.56 0v20.56h-5.72V29.67h5.72zm24.64 4.05c2.06 0 3.68.63 4.85 1.87 1.18 1.25 1.77 2.95 1.77 5.1v9.54h-5.72v-8.78c0-.87-.24-1.55-.73-2.04-.48-.48-1.14-.73-1.98-.73-.83 0-1.5.25-1.98.73-.49.49-.73 1.17-.73 2.04v8.78h-5.72v-8.78c0-.87-.24-1.55-.71-2.04-.48-.48-1.13-.73-1.97-.73-.86 0-1.53.25-2.01.73-.49.49-.73 1.17-.73 2.04v8.78h-5.72V33.87h5.72v2.16c.5-.7 1.16-1.26 1.97-1.68.8-.42 1.73-.63 2.78-.63 1.21 0 2.28.27 3.23.79a5.87 5.87 0 0 1 2.23 2.22 6.65 6.65 0 0 1 2.3-2.17c.95-.56 2-.84 3.15-.84zm17.35 16.72c-1.63 0-3.1-.34-4.39-1.02a7.652 7.652 0 0 1-3.05-2.92c-.74-1.27-1.1-2.75-1.1-4.46 0-1.69.37-3.17 1.12-4.44a7.65 7.65 0 0 1 3.06-2.91c1.29-.68 2.76-1.02 4.39-1.02s3.1.34 4.39 1.02a7.65 7.65 0 0 1 3.06 2.91c.75 1.27 1.12 2.75 1.12 4.44 0 1.69-.37 3.17-1.12 4.44a7.582 7.582 0 0 1-3.08 2.94c-1.3.68-2.77 1.02-4.4 1.02zm0-4.96c.8 0 1.46-.3 2-.89.53-.59.8-1.45.8-2.55 0-1.11-.27-1.96-.8-2.54-.54-.58-1.19-.88-1.97-.88s-1.43.3-1.95.88c-.53.58-.79 1.43-.79 2.54 0 1.12.25 1.98.76 2.56.5.59 1.15.88 1.95.88zm16.65-9.33c.45-.78 1.08-1.39 1.9-1.83.81-.43 1.78-.65 2.89-.65 1.3 0 2.48.34 3.54 1.02 1.06.68 1.89 1.65 2.51 2.91.61 1.27.92 2.75.92 4.44 0 1.69-.31 3.17-.92 4.44-.62 1.28-1.45 2.25-2.51 2.94-1.06.68-2.24 1.02-3.54 1.02-1.11 0-2.08-.22-2.89-.66a4.76 4.76 0 0 1-1.9-1.82v2.27h-5.71V28.65h5.71v7.5zm5.95 5.89c0-1.07-.28-1.9-.86-2.5-.57-.59-1.28-.89-2.11-.89-.84 0-1.54.31-2.12.91-.57.6-.86 1.43-.86 2.48 0 1.07.29 1.9.86 2.5a2.8 2.8 0 0 0 2.12.91c.83 0 1.54-.31 2.11-.92.58-.61.86-1.44.86-2.49zm11.06-9.69c-1.02 0-1.83-.27-2.44-.83-.61-.55-.92-1.25-.92-2.08 0-.86.31-1.57.92-2.13.61-.57 1.42-.85 2.44-.85.99 0 1.79.28 2.4.85.61.56.92 1.27.92 2.13 0 .83-.31 1.53-.92 2.08-.61.56-1.41.83-2.4.83zm2.82 1.52v16.36h-5.71V33.87h5.71zm8.99-5.22v21.58h-5.72V28.65h5.72zm6.15 3.7c-1.01 0-1.82-.27-2.43-.83-.62-.55-.92-1.25-.92-2.08 0-.86.3-1.57.92-2.13.61-.57 1.42-.85 2.43-.85.99 0 1.79.28 2.41.85.61.56.92 1.27.92 2.13 0 .83-.31 1.53-.92 2.08-.62.56-1.42.83-2.41.83zm2.83 1.52v16.36h-5.72V33.87h5.72zm2.33 8.17c0-1.69.31-3.17.92-4.44.61-1.26 1.45-2.23 2.51-2.91 1.06-.68 2.24-1.02 3.54-1.02 1.13 0 2.1.22 2.92.67.82.44 1.45 1.05 1.89 1.81v-2.28h5.72v16.36h-5.72v-2.27c-.44.75-1.08 1.36-1.91 1.8-.82.45-1.79.68-2.9.68-1.3 0-2.48-.34-3.54-1.02-1.06-.69-1.9-1.66-2.51-2.94-.61-1.27-.92-2.75-.92-4.44zm11.78 0c0-1.05-.28-1.88-.86-2.48-.57-.6-1.27-.91-2.11-.91-.86 0-1.57.3-2.13.89-.56.6-.85 1.43-.85 2.5 0 1.05.29 1.88.85 2.49.56.61 1.27.92 2.13.92.84 0 1.54-.3 2.11-.91.58-.6.86-1.43.86-2.5zm1.14-12.14-7.29 2.86v-3.88l7.29-3.29v4.31zm13.56 6.86c.64-.94 1.42-1.67 2.34-2.22.91-.54 1.89-.82 2.94-.82v6.1h-1.6c-1.25 0-2.17.24-2.77.73-.61.48-.91 1.33-.91 2.54v7.14h-5.71V33.87h5.71v2.89zm10.21-4.41c-1.01 0-1.82-.27-2.43-.83-.62-.55-.92-1.25-.92-2.08 0-.86.3-1.57.92-2.13.61-.57 1.42-.85 2.43-.85.99 0 1.79.28 2.41.85.61.56.92 1.27.92 2.13 0 .83-.31 1.53-.92 2.08-.62.56-1.42.83-2.41.83zm2.83 1.52v16.36h-5.72V33.87h5.72zm10.88 16.57c-1.64 0-3.1-.34-4.39-1.02a7.652 7.652 0 0 1-3.05-2.92c-.74-1.27-1.11-2.75-1.11-4.46 0-1.69.38-3.17 1.12-4.44a7.612 7.612 0 0 1 3.07-2.91c1.29-.68 2.75-1.02 4.39-1.02 1.63 0 3.09.34 4.39 1.02a7.65 7.65 0 0 1 3.06 2.91c.75 1.27 1.12 2.75 1.12 4.44 0 1.69-.37 3.17-1.12 4.44a7.644 7.644 0 0 1-3.08 2.94c-1.3.68-2.77 1.02-4.4 1.02zm0-4.96c.79 0 1.46-.3 2-.89.53-.59.8-1.45.8-2.55 0-1.11-.27-1.96-.8-2.54-.54-.58-1.2-.88-1.97-.88-.78 0-1.43.3-1.96.88-.52.58-.79 1.43-.79 2.54 0 1.12.26 1.98.76 2.56.51.59 1.16.88 1.96.88zM250.43 73.09c0-1.69.31-3.17.92-4.44.61-1.26 1.45-2.23 2.52-2.91a6.51 6.51 0 0 1 3.56-1.02c1.05 0 1.99.22 2.81.65.83.44 1.48 1.04 1.94 1.8V59.7h5.75v21.58h-5.75v-2.27c-.44.76-1.07 1.36-1.89 1.81-.82.44-1.78.67-2.89.67-1.3 0-2.48-.34-3.54-1.02-1.06-.68-1.9-1.66-2.51-2.93-.61-1.28-.92-2.76-.92-4.45zm11.78 0c0-1.05-.28-1.88-.86-2.48-.57-.6-1.28-.91-2.11-.91-.86 0-1.57.3-2.13.9-.56.59-.85 1.42-.85 2.49 0 1.05.29 1.88.85 2.49.56.61 1.27.92 2.13.92.83 0 1.54-.3 2.11-.9.58-.61.86-1.44.86-2.51zm24.62-.18c0 .45-.03.9-.09 1.34h-10.82c.06.9.31 1.56.74 2 .44.44 1 .66 1.68.66.95 0 1.63-.43 2.04-1.29h6.1a7.07 7.07 0 0 1-1.48 3.02c-.72.89-1.64 1.58-2.75 2.09-1.11.5-2.33.76-3.68.76-1.61 0-3.04-.34-4.3-1.02-1.25-.68-2.23-1.66-2.94-2.92s-1.07-2.75-1.07-4.46.35-3.2 1.05-4.45c.7-1.25 1.68-2.22 2.93-2.9 1.26-.68 2.7-1.02 4.33-1.02 1.62 0 3.05.33 4.29.99 1.25.66 2.22 1.61 2.92 2.84.7 1.24 1.05 2.69 1.05 4.36zm-5.84-1.43c0-.7-.23-1.25-.7-1.64-.46-.4-1.05-.6-1.74-.6-.7 0-1.28.19-1.73.57-.44.38-.73.93-.87 1.67h5.04zm35.12-6.7c2.06 0 3.68.62 4.85 1.86 1.18 1.25 1.77 2.95 1.77 5.11v9.53h-5.72V72.5c0-.87-.24-1.55-.73-2.04-.48-.48-1.14-.73-1.98-.73-.84 0-1.5.25-1.98.73-.49.49-.73 1.17-.73 2.04v8.78h-5.72V72.5c0-.87-.24-1.55-.71-2.04-.48-.48-1.13-.73-1.97-.73-.86 0-1.53.25-2.01.73-.49.49-.73 1.17-.73 2.04v8.78h-5.72V64.92h5.72v2.16c.5-.7 1.16-1.26 1.97-1.68.8-.41 1.73-.62 2.78-.62 1.21 0 2.28.26 3.22.78.95.53 1.69 1.27 2.24 2.22.58-.89 1.35-1.62 2.3-2.17.95-.56 2-.83 3.15-.83zm8.81 8.31c0-1.69.3-3.17.91-4.44.62-1.26 1.45-2.23 2.51-2.91 1.06-.68 2.24-1.02 3.55-1.02 1.12 0 2.09.22 2.91.67.82.45 1.45 1.05 1.9 1.81v-2.28h5.71v16.36h-5.71v-2.27c-.45.76-1.09 1.36-1.91 1.81-.83.44-1.8.67-2.9.67-1.31 0-2.49-.34-3.55-1.02-1.06-.68-1.89-1.66-2.51-2.93-.61-1.28-.91-2.76-.91-4.45zm11.78 0c0-1.05-.29-1.88-.86-2.48-.58-.6-1.28-.91-2.12-.91-.85 0-1.56.3-2.13.9-.56.59-.84 1.42-.84 2.49 0 1.05.28 1.88.84 2.49.57.61 1.28.92 2.13.92.84 0 1.54-.3 2.12-.9.57-.61.86-1.44.86-2.51zm19.68-8.31c1.89 0 3.39.62 4.49 1.88 1.11 1.25 1.67 2.95 1.67 5.09v9.53h-5.72V72.5c0-.93-.24-1.66-.73-2.2-.48-.53-1.14-.8-1.95-.8-.86 0-1.53.27-2.02.8-.48.54-.72 1.27-.72 2.2v8.78h-5.72V64.92h5.72v2.34c.5-.74 1.18-1.34 2.04-1.8.85-.45 1.83-.68 2.94-.68zm24.94 8.13c0 .45-.03.9-.09 1.34h-10.82c.06.9.31 1.56.74 2 .44.44 1 .66 1.68.66.95 0 1.63-.43 2.04-1.29h6.1a7.07 7.07 0 0 1-1.48 3.02c-.72.89-1.64 1.58-2.75 2.09-1.11.5-2.33.76-3.68.76-1.61 0-3.04-.34-4.3-1.02-1.25-.68-2.23-1.66-2.94-2.92s-1.07-2.75-1.07-4.46.35-3.2 1.05-4.45c.7-1.25 1.68-2.22 2.93-2.9 1.26-.68 2.7-1.02 4.33-1.02 1.62 0 3.05.33 4.29.99 1.25.66 2.22 1.61 2.92 2.84.7 1.24 1.05 2.69 1.05 4.36zm-5.84-1.43c0-.7-.23-1.25-.7-1.64-.46-.4-1.05-.6-1.74-.6-.7 0-1.28.19-1.73.57-.44.38-.73.93-.87 1.67h5.04zm11.06-8.07c-1.01 0-1.82-.28-2.44-.84-.61-.55-.92-1.24-.92-2.08 0-.86.31-1.57.92-2.13.62-.56 1.43-.85 2.44-.85.99 0 1.79.29 2.4.85.62.56.92 1.27.92 2.13 0 .84-.3 1.53-.92 2.08-.61.56-1.41.84-2.4.84zm2.83 1.51v16.36h-5.72V64.92h5.72zm8.98 2.89c.64-.93 1.42-1.67 2.33-2.22.92-.54 1.9-.81 2.95-.81v6.09h-1.61c-1.24 0-2.16.24-2.77.73-.6.49-.9 1.33-.9 2.54v7.14h-5.72V64.92h5.72v2.89zm6.39 5.28c0-1.69.3-3.17.92-4.44.61-1.26 1.44-2.23 2.5-2.91 1.06-.68 2.24-1.02 3.55-1.02 1.12 0 2.1.22 2.91.67.82.45 1.45 1.05 1.9 1.81v-2.28h5.71v16.36h-5.71v-2.27c-.45.76-1.09 1.36-1.91 1.81-.83.44-1.8.67-2.9.67-1.31 0-2.49-.34-3.55-1.02-1.06-.68-1.89-1.66-2.5-2.93-.62-1.28-.92-2.76-.92-4.45zm11.78 0c0-1.05-.29-1.88-.86-2.48-.58-.6-1.28-.91-2.12-.91-.85 0-1.56.3-2.12.9-.57.59-.85 1.42-.85 2.49 0 1.05.28 1.88.85 2.49.56.61 1.27.92 2.12.92.84 0 1.54-.3 2.12-.9.57-.61.86-1.44.86-2.51z" style="fill:#00d29b;fill-rule:nonzero"/><path d="M426.48 293.08c-.02.1 0 .18.05.24s.13.09.25.11c-.82.58-1.54 1.26-2.19 2v4.54h-.52l-.01-4.52a13 13 0 0 0-2.22-2.03c.12-.01.21-.05.26-.11.05-.05.06-.13.04-.24.73.51 1.3 1.03 1.92 1.67l-.01-5.6c.2.08.38.1.53 0l.01 5.59c.6-.63 1.17-1.15 1.89-1.65zM450.41 293.08c-.01.1 0 .18.05.24s.13.09.25.11c-.81.58-1.54 1.26-2.19 2l.01 4.54H448l-.01-4.52c-.65-.75-1.39-1.44-2.21-2.03.12-.01.2-.05.25-.11.05-.05.07-.13.05-.24.72.51 1.3 1.03 1.91 1.67l-.01-5.6c.2.08.38.1.53 0l.01 5.59c.61-.63 1.17-1.15 1.89-1.65zM438.27 293.08c-.02.1 0 .18.05.24s.13.09.25.11c-.81.58-1.54 1.26-2.19 2l.01 4.54h-.53l-.01-4.52c-.65-.75-1.39-1.44-2.21-2.03.12-.01.2-.05.25-.11.05-.05.07-.13.05-.24.73.51 1.3 1.03 1.91 1.67l-.01-5.6c.2.08.38.1.53 0l.01 5.59c.61-.63 1.17-1.15 1.89-1.65z" class="fil3"/><path d="M284.04 180v2.57h-3.49v10.59h-3.2v-10.59h-3.49V180h10.18zm11.47 7.76c0 .3-.02.62-.05.94h-7.26c.05.65.26 1.15.63 1.49.37.34.82.52 1.36.52.8 0 1.35-.34 1.67-1.02h3.41c-.18.69-.49 1.31-.95 1.86-.45.55-1.03.98-1.71 1.29-.69.32-1.46.47-2.31.47-1.03 0-1.94-.22-2.74-.65a4.7 4.7 0 0 1-1.87-1.88c-.45-.81-.68-1.76-.68-2.85s.22-2.04.67-2.85a4.53 4.53 0 0 1 1.86-1.87c.8-.44 1.72-.66 2.76-.66 1.01 0 1.91.21 2.7.64.79.42 1.4 1.03 1.85 1.82.44.78.66 1.7.66 2.75zm-3.28-.84c0-.55-.19-.99-.56-1.31-.38-.33-.84-.49-1.41-.49-.54 0-.99.16-1.36.47-.37.31-.59.75-.68 1.33h4.01zm9.23 6.39c-.92 0-1.73-.15-2.44-.47-.71-.31-1.28-.74-1.69-1.28-.41-.55-.64-1.15-.69-1.83h3.17c.03.36.2.66.5.88.3.23.67.34 1.11.34.4 0 .71-.08.93-.24.21-.15.32-.35.32-.6 0-.3-.15-.53-.46-.67-.32-.14-.82-.3-1.52-.48-.75-.17-1.38-.36-1.88-.55-.5-.19-.93-.5-1.29-.92-.36-.42-.55-.98-.55-1.7 0-.6.17-1.14.5-1.64.33-.49.82-.88 1.46-1.17.65-.29 1.41-.43 2.3-.43 1.31 0 2.35.33 3.1.98.76.65 1.19 1.51 1.31 2.58h-2.97c-.05-.36-.21-.65-.47-.86-.27-.21-.63-.32-1.06-.32-.38 0-.67.07-.87.22-.2.14-.3.34-.3.59 0 .3.16.52.48.67.32.15.82.3 1.49.45.78.2 1.41.4 1.9.59.48.2.91.51 1.28.94.37.43.56 1.01.57 1.73 0 .62-.17 1.16-.51 1.64-.35.49-.84.86-1.48 1.14-.65.27-1.39.41-2.24.41zm12.03-2.87v2.72h-1.63c-1.16 0-2.07-.28-2.72-.85-.65-.57-.97-1.5-.97-2.79v-4.16h-1.28v-2.66h1.28v-2.55h3.2v2.55h2.1v2.66h-2.1v4.2c0 .32.08.54.23.68.15.13.4.2.75.2h1.14zm11.64-2.68c0 .3-.01.62-.05.94h-7.26c.05.65.26 1.15.63 1.49.37.34.82.52 1.36.52.8 0 1.35-.34 1.67-1.02h3.41c-.17.69-.49 1.31-.95 1.86-.45.55-1.02.98-1.71 1.29-.69.32-1.46.47-2.31.47-1.02 0-1.94-.22-2.73-.65a4.662 4.662 0 0 1-1.88-1.88c-.45-.81-.67-1.76-.67-2.85s.22-2.04.66-2.85c.44-.81 1.07-1.44 1.87-1.87.8-.44 1.71-.66 2.75-.66 1.01 0 1.91.21 2.7.64.79.42 1.4 1.03 1.85 1.82.44.78.66 1.7.66 2.75zm-3.28-.84c0-.55-.18-.99-.56-1.31-.37-.33-.84-.49-1.41-.49-.53 0-.99.16-1.35.47-.37.31-.6.75-.69 1.33h4.01zm12.92-4.37c.74 0 1.39.15 1.94.45.56.3.99.69 1.29 1.18v-1.48h3.2v10.44c0 .97-.19 1.84-.57 2.62-.38.78-.96 1.4-1.74 1.86-.78.47-1.76.7-2.92.7-1.55 0-2.8-.37-3.77-1.1-.96-.73-1.51-1.72-1.65-2.97h3.17c.1.4.34.72.71.95.38.23.84.34 1.39.34.66 0 1.19-.19 1.58-.57.4-.38.6-.99.6-1.83v-1.48c-.32.49-.75.89-1.3 1.19-.55.31-1.19.46-1.93.46-.86 0-1.64-.22-2.34-.66-.7-.45-1.26-1.08-1.66-1.9-.41-.82-.61-1.76-.61-2.84 0-1.07.2-2.02.61-2.83.4-.81.96-1.44 1.66-1.87.7-.44 1.48-.66 2.34-.66zm3.23 5.38c0-.8-.23-1.43-.67-1.89-.44-.46-.98-.7-1.62-.7-.64 0-1.18.23-1.62.69-.45.45-.67 1.08-.67 1.88 0 .8.22 1.44.67 1.91.44.46.98.7 1.62.7.64 0 1.18-.23 1.62-.7.44-.46.67-1.09.67-1.89zm8.73-3.49c.38-.57.85-1.02 1.41-1.36.56-.33 1.19-.49 1.87-.49v3.39h-.88c-.8 0-1.4.17-1.8.52-.4.34-.6.94-.6 1.81v4.85h-3.2V182.7h3.2v1.74zm4.18 3.47c0-1.07.21-2.02.61-2.83.41-.81.96-1.44 1.66-1.87.7-.44 1.48-.66 2.35-.66.73 0 1.38.15 1.94.45.55.3.98.69 1.28 1.18v-1.48h3.21v10.46h-3.21v-1.48c-.31.49-.75.88-1.3 1.18-.56.3-1.21.45-1.94.45-.85 0-1.63-.22-2.33-.66-.7-.45-1.25-1.08-1.66-1.9-.4-.82-.61-1.76-.61-2.84zm7.84.02c0-.8-.22-1.43-.66-1.89-.45-.46-.99-.7-1.63-.7-.63 0-1.17.23-1.62.69-.44.45-.66 1.08-.66 1.88 0 .8.22 1.44.66 1.91.45.46.99.7 1.62.7.64 0 1.18-.23 1.63-.7.44-.46.66-1.09.66-1.89zm.24-7.84-4.51 1.9v-2.21l4.51-2.18v2.49zm11.12 10.35v2.72h-1.63c-1.16 0-2.07-.28-2.72-.85-.65-.57-.97-1.5-.97-2.79v-4.16h-1.28v-2.66h1.28v-2.55h3.2v2.55h2.1v2.66h-2.1v4.2c0 .32.08.54.23.68.15.13.4.2.75.2h1.14zm3.4-8.83c-.57 0-1.03-.16-1.38-.49a1.6 1.6 0 0 1-.54-1.23c0-.5.18-.92.54-1.25.35-.33.81-.5 1.38-.5.54 0 1 .17 1.35.5.36.33.54.75.54 1.25 0 .49-.18.9-.54 1.23-.35.33-.81.49-1.35.49zm1.59 1.09v10.46h-3.21V182.7h3.21zm6.58 10.61c-.91 0-1.73-.15-2.44-.47-.71-.31-1.27-.74-1.69-1.28-.41-.55-.64-1.15-.69-1.83h3.17c.04.36.21.66.51.88.3.23.66.34 1.1.34.4 0 .71-.08.93-.24.22-.15.33-.35.33-.6 0-.3-.16-.53-.47-.67-.31-.14-.82-.3-1.52-.48-.75-.17-1.37-.36-1.87-.55-.5-.19-.94-.5-1.3-.92-.36-.42-.54-.98-.54-1.7 0-.6.16-1.14.49-1.64.34-.49.82-.88 1.47-1.17.64-.29 1.41-.43 2.29-.43 1.32 0 2.35.33 3.11.98.75.65 1.19 1.51 1.3 2.58h-2.96c-.05-.36-.21-.65-.48-.86-.27-.21-.62-.32-1.06-.32-.37 0-.66.07-.86.22-.2.14-.3.34-.3.59 0 .3.16.52.48.67.31.15.81.3 1.49.45.77.2 1.4.4 1.89.59.49.2.92.51 1.28.94.37.43.56 1.01.58 1.73 0 .62-.18 1.16-.52 1.64-.34.49-.84.86-1.48 1.14-.64.27-1.39.41-2.24.41zm13.39-9.13c.31-.49.74-.88 1.29-1.18.55-.3 1.19-.45 1.93-.45.86 0 1.64.22 2.34.66.7.43 1.26 1.06 1.66 1.87.41.81.61 1.76.61 2.83 0 1.08-.2 2.02-.61 2.84-.4.82-.96 1.45-1.66 1.9-.7.44-1.48.66-2.34.66-.72 0-1.37-.15-1.92-.45-.56-.3-.99-.69-1.3-1.16v6.45h-3.21V182.7h3.21v1.48zm4.57 3.73c0-.8-.22-1.43-.67-1.88-.44-.46-.99-.69-1.64-.69-.63 0-1.17.24-1.62.7-.44.46-.66 1.09-.66 1.89 0 .8.22 1.43.66 1.89.45.47.99.7 1.62.7.64 0 1.19-.24 1.64-.7.45-.47.67-1.11.67-1.91zm9.71 5.4c-1.02 0-1.95-.22-2.76-.65a4.784 4.784 0 0 1-1.93-1.88c-.47-.81-.71-1.76-.71-2.85 0-1.07.24-2.02.71-2.84a4.83 4.83 0 0 1 1.95-1.88c.83-.44 1.75-.66 2.78-.66 1.02 0 1.95.22 2.77.66.83.43 1.48 1.06 1.95 1.88.48.82.72 1.77.72 2.84 0 1.08-.24 2.02-.73 2.84-.48.82-1.13 1.45-1.96 1.89-.84.43-1.76.65-2.79.65zm0-2.77c.61 0 1.14-.23 1.57-.68.43-.45.64-1.09.64-1.93 0-.84-.21-1.48-.62-1.93-.42-.45-.94-.68-1.55-.68-.63 0-1.14.23-1.56.67-.41.45-.62 1.09-.62 1.94 0 .84.21 1.48.61 1.93.41.45.92.68 1.53.68zm10.39-6.1c.37-.57.84-1.02 1.4-1.36.57-.33 1.19-.49 1.88-.49v3.39h-.88c-.8 0-1.4.17-1.8.52-.4.34-.6.94-.6 1.81v4.85h-3.21V182.7h3.21v1.74zm8.59-1.1c.05-1.34.48-2.37 1.31-3.1.82-.72 1.94-1.08 3.35-1.08.94 0 1.74.16 2.41.48.67.33 1.18.77 1.52 1.34.34.56.52 1.19.52 1.89 0 .82-.21 1.5-.62 2.01-.41.52-.9.88-1.44 1.06v.08c.71.24 1.27.63 1.68 1.18.42.55.62 1.26.62 2.12 0 .77-.18 1.46-.53 2.05-.36.6-.88 1.06-1.56 1.4-.68.34-1.49.5-2.43.5-1.5 0-2.69-.36-3.59-1.1-.89-.74-1.36-1.85-1.41-3.34h3.11c.01.55.17.99.47 1.3.3.32.73.48 1.31.48.49 0 .87-.14 1.13-.42.27-.28.41-.65.41-1.12 0-.6-.19-1.03-.57-1.3-.39-.27-.99-.4-1.83-.4h-.6v-2.61h.6c.64 0 1.15-.11 1.54-.33.4-.21.6-.6.6-1.17 0-.45-.13-.8-.38-1.05s-.59-.37-1.03-.37c-.48 0-.83.14-1.06.43-.23.29-.37.64-.4 1.07h-3.13zm11.22 2.79c0-2.15.42-3.84 1.25-5.08.83-1.24 2.17-1.86 4.02-1.86 1.85 0 3.19.62 4.02 1.86.84 1.24 1.25 2.93 1.25 5.08 0 2.18-.41 3.88-1.25 5.12-.83 1.24-2.17 1.86-4.02 1.86-1.85 0-3.19-.62-4.02-1.86-.83-1.24-1.25-2.94-1.25-5.12zm7.39 0c0-1.26-.14-2.23-.41-2.91-.28-.68-.84-1.03-1.71-1.03-.86 0-1.43.35-1.7 1.03-.28.68-.42 1.65-.42 2.91 0 .85.06 1.55.15 2.11.1.56.31 1.01.61 1.35.31.34.76.52 1.36.52.6 0 1.06-.18 1.36-.52.31-.34.51-.79.61-1.35.1-.56.15-1.26.15-2.11zm8.5 1.78c0-1.07.2-2.02.6-2.83.41-.81.97-1.44 1.66-1.87.7-.44 1.49-.66 2.35-.66.69 0 1.31.14 1.88.43.57.29 1.02.68 1.34 1.16v-4.85h3.21v13.87h-3.21v-1.5c-.3.5-.72.9-1.28 1.2-.56.3-1.2.45-1.94.45-.86 0-1.65-.22-2.35-.66-.69-.45-1.25-1.08-1.66-1.9-.4-.82-.6-1.76-.6-2.84zm7.83.02c0-.8-.22-1.43-.66-1.89-.45-.46-.99-.7-1.62-.7-.64 0-1.18.23-1.63.69-.44.45-.66 1.08-.66 1.88 0 .8.22 1.44.66 1.91.45.46.99.7 1.63.7.63 0 1.17-.23 1.62-.7.44-.46.66-1.09.66-1.89zm7.15-6.32c-.57 0-1.03-.16-1.38-.49a1.6 1.6 0 0 1-.54-1.23c0-.5.18-.92.54-1.25.35-.33.81-.5 1.38-.5.55 0 1 .17 1.35.5.36.33.54.75.54 1.25 0 .49-.18.9-.54 1.23-.35.33-.8.49-1.35.49zm1.59 1.09v10.46h-3.21V182.7h3.21zm1.69 5.21c0-1.07.2-2.02.61-2.83.4-.81.96-1.44 1.65-1.87.71-.44 1.49-.66 2.35-.66.74 0 1.38.15 1.94.45.56.3.98.69 1.28 1.18v-1.48h3.21v10.46h-3.21v-1.48c-.31.49-.74.88-1.3 1.18-.56.3-1.2.45-1.94.45-.85 0-1.62-.22-2.33-.66-.69-.45-1.25-1.08-1.65-1.9-.41-.82-.61-1.76-.61-2.84zm7.83.02c0-.8-.22-1.43-.66-1.89-.45-.46-.99-.7-1.62-.7-.64 0-1.18.23-1.63.69-.44.45-.66 1.08-.66 1.88 0 .8.22 1.44.66 1.91.45.46.99.7 1.63.7.63 0 1.17-.23 1.62-.7.44-.46.66-1.09.66-1.89zm9.79 5.38c-.91 0-1.73-.15-2.44-.47-.71-.31-1.27-.74-1.69-1.28-.41-.55-.64-1.15-.69-1.83h3.17c.04.36.21.66.51.88.3.23.67.34 1.1.34.4 0 .71-.08.93-.24.22-.15.33-.35.33-.6 0-.3-.16-.53-.47-.67-.31-.14-.82-.3-1.52-.48-.75-.17-1.37-.36-1.87-.55-.5-.19-.93-.5-1.3-.92-.36-.42-.54-.98-.54-1.7 0-.6.16-1.14.5-1.64.33-.49.81-.88 1.46-1.17.64-.29 1.41-.43 2.29-.43 1.32 0 2.35.33 3.11.98.75.65 1.19 1.51 1.3 2.58h-2.96c-.05-.36-.21-.65-.48-.86-.27-.21-.62-.32-1.06-.32-.37 0-.66.07-.86.22-.2.14-.3.34-.3.59 0 .3.16.52.48.67.32.15.81.3 1.49.45.77.2 1.4.4 1.89.59.49.2.92.51 1.28.94.37.43.56 1.01.58 1.73 0 .62-.17 1.16-.52 1.64-.34.49-.84.86-1.48 1.14-.64.27-1.39.41-2.24.41z" style="fill:#fefefe;fill-rule:nonzero"/></g></svg>