<svg xmlns="http://www.w3.org/2000/svg" xml:space="preserve" width="50" height="50" style="shape-rendering:geometricPrecision;text-rendering:geometricPrecision;image-rendering:optimizeQuality;fill-rule:evenodd;clip-rule:evenodd" viewBox="0 0 412.45 412.45"><path d="M.01 206.23c0-56.94 23.08-108.5 60.41-145.81C97.73 23.09 149.29.01 206.23.01c56.93 0 108.49 23.08 145.81 60.41 37.32 37.31 60.4 88.87 60.4 145.81 0 56.93-23.08 108.49-60.4 145.81-37.32 37.32-88.88 60.4-145.81 60.4-56.94 0-108.5-23.08-145.81-60.4C23.09 314.72.01 263.16.01 206.23zM148.07 89.82 296.2 206.23l-148.13 116.4V89.82zm-57.9.35c-29.7 29.7-48.07 70.73-48.07 116.06 0 45.32 18.37 86.36 48.07 116.05 29.7 29.7 70.73 48.07 116.06 48.07 45.32 0 86.36-18.37 116.05-48.07 29.7-29.69 48.07-70.73 48.07-116.05 0-45.33-18.37-86.36-48.07-116.06-29.69-29.7-70.73-48.07-116.05-48.07-45.33 0-86.36 18.37-116.06 48.07z" style="fill:#313846;fill-rule:nonzero"/></svg>