<svg xmlns="http://www.w3.org/2000/svg" xml:space="preserve" width="80px" height="126px" version="1.1" style="shape-rendering:geometricPrecision; text-rendering:geometricPrecision; image-rendering:optimizeQuality; fill-rule:evenodd; clip-rule:evenodd" viewBox="0 0 5.84 9.15"><defs><style type="text/css"><![CDATA[.fil00 {fill:white}]]></style></defs><g><path class="fil00" d="M3.49 7.92c0,-0.68 -0.54,-1.21 -1.35,-1.21 -0.83,0 -1.36,0.53 -1.36,1.21 0,0.67 0.53,1.2 1.36,1.2 0.81,0 1.35,-0.53 1.35,-1.2zm-3.45 -5.26l0 0 2.18 0c0,-0.42 0.22,-0.72 0.68,-0.72 0.37,0 0.62,0.23 0.63,0.65 0.03,0.69 -0.65,0.88 -1.65,0.88l-0.85 0 0.07 2.36 2.04 0 0.06 -0.87c1.53,-0.02 2.6,-0.89 2.6,-2.36 0,-1.7 -1.19,-2.56 -2.85,-2.56 -1.99,0 -2.96,1.2 -2.91,2.62z"/></g></svg>
