<svg xmlns="http://www.w3.org/2000/svg" xml:space="preserve" width="1917" height="155" style="shape-rendering:geometricPrecision;text-rendering:geometricPrecision;image-rendering:optimizeQuality;fill-rule:evenodd;clip-rule:evenodd" viewBox="0 0 1922.01 155.38"><path d="M0 8.55c29.31 14.28 60.69 27.54 93.65 39.59 52.26 19.3 108.31 35.57 165.88 49.03 57.59 13.46 116.7 24.28 176.11 32.48 29.72 4.11 59.49 7.68 89.25 10.77 29.76 2.96 59.5 5.54 89.16 7.6 7.42.5 14.82.93 22.22 1.39l11.11.69 11.08.57 22.16 1.13 22.09.89 11.04.45 11.02.34 22.02.66 21.95.46c7.31.14 14.64.33 21.92.37l21.85.22 5.45.06 5.49.02 10.81.04c14.41.05 28.82.1 43.28.02 14.46-.03 28.88-.11 43.25-.23 14.41-.07 28.75-.28 43.11-.47 57.42-.76 114.48-2.24 171.2-4.3 56.72-2.08 113.07-4.76 169.11-7.89 56.02-3.15 111.74-6.73 167.27-10.52l166.45-11.39c55.59-3.58 111.26-6.99 167.54-9.36 28.13-1.17 56.42-2.08 84.9-2.59 10.52-.2 21.06-.35 31.64-.43v-4.99c-11.4.07-22.77.21-34.11.39-28.63.51-57.12 1.29-85.45 2.34-56.67 2.07-112.86 4.91-168.86 7.99-56.05 2.96-111.91 6.2-167.96 9.06-56.03 2.91-112.15 5.62-168.47 7.91-28.18 1.13-56.35 2.23-84.59 3.2-28.26.96-56.58 1.79-84.92 2.54-56.71 1.52-113.59 2.63-170.71 3.26l-42.87.39c-14.3.12-28.61.2-42.91.22l-43.07.07h-16.11l-5.37-.04-21.47-.14c-7.15-.02-14.35-.18-21.52-.29l-21.56-.38-21.62-.58-10.81-.29-10.83-.41-21.67-.8-21.73-1.05-10.86-.52-10.88-.64c-7.26-.43-14.51-.82-21.77-1.29-29.04-1.89-58.13-4.14-87.24-6.87-29.11-2.81-58.21-6.08-87.25-9.9-58.04-7.69-115.82-17.54-172.24-30.09-28.2-6.26-56.01-13.24-83.29-20.87-27.3-7.6-54.04-15.92-79.91-24.98C66.21 28.91 31.97 15.08 0 0v8.55z" style="fill:#6769ef;fill-rule:nonzero"/></svg>