<svg xmlns="http://www.w3.org/2000/svg" xml:space="preserve" width="337px" height="529px" version="1.1" style="shape-rendering:geometricPrecision; text-rendering:geometricPrecision; image-rendering:optimizeQuality; fill-rule:evenodd; clip-rule:evenodd" viewBox="0 0 24.59 38.56"><defs><style type="text/css"><![CDATA[.str0 {stroke:#EDEDED;stroke-width:0.3;stroke-linejoin:round;stroke-miterlimit:22.9256}.fil0 {fill:white}]]></style></defs><g id="__x0023_Layer_x0020_1"><metadata id="CorelCorpID_0Corel-Layer"/><path class="fil0 str0" d="M14.69 33.35c0,-2.84 -2.24,-5.1 -5.68,-5.1 -3.48,0 -5.72,2.26 -5.72,5.1 0,2.85 2.24,5.06 5.72,5.06 3.44,0 5.68,-2.21 5.68,-5.06zm-14.53 -22.15l0 0 9.2 0c0,-1.75 0.9,-3.05 2.84,-3.05 1.59,0 2.64,1 2.69,2.75 0.1,2.9 -2.74,3.7 -6.97,3.7l-3.58 0 0.3 9.96 8.61 0 0.24 -3.66c6.42,-0.1 10.95,-3.75 10.95,-9.95 0,-7.15 -5.02,-10.8 -11.99,-10.8 -8.41,0 -12.49,5.05 -12.29,11.05z"/></g></svg>