<?xml version="1.0" encoding="UTF-8"?>
<svg id="Camada_1" data-name="Camada 1" xmlns="http://www.w3.org/2000/svg" viewBox="0 0 347.8 326.58">
  <defs>
    <style>
      .cls-1 {
        fill: #fff;
      }

      .cls-2, .cls-3, .cls-4, .cls-5, .cls-6 {
        fill: #5d5fef;
      }

      .cls-2, .cls-5 {
        fill-rule: evenodd;
      }

      .cls-4, .cls-5, .cls-7, .cls-8, .cls-9, .cls-6 {
        stroke-linejoin: round;
      }

      .cls-4, .cls-5, .cls-7, .cls-8, .cls-6 {
        stroke: #fff;
      }

      .cls-4, .cls-7, .cls-9 {
        stroke-width: 1px;
      }

      .cls-5, .cls-8, .cls-6 {
        stroke-width: 2px;
      }

      .cls-7, .cls-8, .cls-9 {
        fill: none;
        stroke-linecap: round;
      }

      .cls-9 {
        stroke: #686af0;
      }
    </style>
  </defs>
  <g id="_Layer_1" data-name=" #Layer_1">
    <g id="_2865539874736" data-name=" 2865539874736">
      <g>
        <path class="cls-8" d="m214.75,227.7c9.15,5.11,10.83,25.38,10.69,38.05-.06,5.31-.18,14.93-8.04,13.24-3.8-.81-5.03-5.12-3.92-9.31"/>
        <line class="cls-8" x1="213.48" y1="269.68" x2="205.88" y2="217.47"/>
        <path class="cls-8" d="m205.88,217.47c.8-.32-.28,5.13,8.87,10.23"/>
        <path class="cls-6" d="m207.08,225.68c7.21,12.25,10.05,31.63,1.96,48.17,1.27,13.43,1.24,19.69-.33,32.01,3.13,7.19,2.98,17.35-3.55,19.17-8.28,2.29-15.03-2.59-16.75-14.27-1.13-7.62.24-17.88.23-19.11-.08-5.94-.92-12.5-1.08-15.42-1.52.17-2.97.19-4.44,0-.16,2.92-1,8.31-1.07,14.26-.02,1.22,4.75,9.25,3.63,16.87-1.42,9.66-8.28,12.34-13.54,11.48-8.77-1.43-9.81-9.38-6.77-16.39-.69-3.36-2.92-6.16-4.11-10.96-.94-3.76-.23-11.2.38-17.64-5.55-27.28,1.58-39.39,2.25-49.58.39-5.39-2.51-14.63-3.3-27.63-.12-6.9-1.61-12.57,1.96-16.74,2.55-2.98,6.48-5.63,10.13-4.2,4.1,1.61,4.97,5.75,3.71,9.51.73,1.57,2.99,5.26-.1,10.32.22,6.2,4.06,15.25,8.21,19.32,6.26,3.57,19.71,5.95,22.58,10.83h0Z"/>
        <path class="cls-7" d="m162.88,214c-.43-2.74-.96-5.87-1.43-9.5,2.27.77,3.82,2.99,3.65,5.49-.11,1.67-.97,3.11-2.22,4.01Z"/>
        <path class="cls-7" d="m170.87,191.12s4.08-2.52,6.09-7.04"/>
        <path class="cls-7" d="m214.75,265.17s1.17,2.93,2.81,4.12c1.64,1.2-.55,2.42.32,4.19.63,1.26,2.53,1.42,3.69-.62,1.15-2.03.83-5.49.83-5.49"/>
        <g>
          <path class="cls-5" d="m214.92,253.45l.2-3.59c3.5,2.53,5.72,6.95,2.54,9.83-2.26,2.04-8.56,1.29-13.18-1.96-.65-.93.22-4.59,1.85-4.08,3.68,2.21,10.52,3.1,8.59-.2h0Z"/>
          <path class="cls-5" d="m158.54,254l.12-3.6c-4.25,2.54-5.8,7.26-2.67,9.85,2.94,2.44,10.53.73,15.03-2.52.68-.93-.23-4.59-1.95-4.08-3.86,2.21-12.55,3.65-10.53.35h0Z"/>
          <path class="cls-5" d="m200.06,240.15c5.25-.22,5.31,3.78,5.31,6.07.08,3.3-.03,9.63-.36,13.08-.45,4.68-7.96,6.15-15.91,6.25-9.33.12-19.28-1.84-19.21-5.87.08-4.34.26-9.57.22-14.59-.03-3.22,1.31-5.71,5.74-5.48,7.58.4,18.54.76,24.21.54h0Z"/>
        </g>
        <path class="cls-7" d="m165.37,302.45c4.03-1.55,9.02-1.31,12.08,0"/>
        <path class="cls-7" d="m168.91,282.21c-2.65-.18-4.94,1.82-5.12,4.46-.18,2.65,1.81,4.94,4.46,5.12,2.64.18,4.93-1.82,5.11-4.46.19-2.64-1.81-4.93-4.45-5.12Z"/>
        <path class="cls-7" d="m200.91,282.21c-2.65-.18-4.94,1.82-5.12,4.46-.18,2.65,1.82,4.94,4.46,5.12,2.64.18,4.94-1.82,5.12-4.46s-1.82-4.93-4.46-5.12Z"/>
      </g>
      <g>
        <g>
          <line class="cls-7" x1="174.02" y1="138.82" x2="174.02" y2="176.42"/>
          <line class="cls-8" x1="173.55" y1="129.53" x2="174.5" y2="129.53"/>
          <path class="cls-8" d="m174.5,129.53c2.24,0,5.77,3.54,5.77,5.78s-1.83,3.51-4.07,3.51"/>
          <line class="cls-8" x1="176.2" y1="138.82" x2="171.84" y2="138.82"/>
          <path class="cls-8" d="m171.84,138.82c-2.24,0-4.07-1.27-4.07-3.51s3.53-5.78,5.78-5.78"/>
          <path class="cls-7" d="m174.02,224.6c1.28-6.48-2.82-7.9-2.82-14.45s2.82-4.9,2.82-22.14"/>
        </g>
        <path class="cls-5" d="m174.43,1c35.92,0,65.05,29.13,65.05,65.06s-29.13,65.05-65.05,65.05-65.06-29.13-65.06-65.05S138.5,1,174.43,1h0Z"/>
        <path class="cls-7" d="m159.37,103.55c-19.79-1.73-37.25-11.6-49.02-26.24"/>
        <path class="cls-7" d="m202.87,93.29c-5.78,4.44-11.95,6.26-18.58,8.06"/>
        <path class="cls-7" d="m235.7,44.16c-2.11,17.57-15,33.81-15.1,33.59"/>
        <path class="cls-7" d="m128.87,57.31c2.71-2.71,6.39-4.24,10.22-4.24,7.99,0,14.46,6.48,14.46,14.46s-6.47,14.46-14.46,14.46c-6.54,0-12.27-4.4-13.96-10.72"/>
        <path class="cls-7" d="m184.32,100.49c.76,6.32-4.4,11.45-11.52,11.45s-13.5-5.13-14.25-11.45c-.76-6.33,4.4-11.46,11.52-11.46"/>
        <path class="cls-9" d="m181.91,94.76c1.34,1.74,2.17,3.72,2.41,5.73"/>
        <path class="cls-7" d="m205.43,80.48c-2.01,2.06-3.27,4.66-3.56,7.35-.68,6.3,4,11.4,10.46,11.4s12.25-5.1,12.94-11.4c.56-5.16-2.51-9.67-7.47-11.01"/>
        <path class="cls-7" d="m174.55,58.61c-.83-1.44-1.27-3.08-1.27-4.74,0-5.24,4.24-9.48,9.48-9.48s9.47,4.24,9.47,9.48-4.24,9.48-9.47,9.48"/>
        <path class="cls-7" d="m214.1,45.54c-.65-1.06-1.11-2.26-1.33-3.48-.68-3.85,1.11-6.97,4.02-6.97s5.82,3.12,6.51,6.97c.56,3.15-.54,5.91-2.7,6.72"/>
        <path class="cls-7" d="m155.26,22.23c.28-1.33-.1-2.48-1.06-3.22-2.05-1.58-6.12-.9-9.09,1.51-2.98,2.42-3.73,5.65-1.69,7.23"/>
        <line class="cls-9" x1="143.42" y1="27.75" x2="143.51" y2="27.82"/>
        <path class="cls-7" d="m173.06,24.99c-.96-1.17-1.49-2.61-1.49-4.09,0-3.64,3.09-6.58,6.89-6.58s6.89,2.94,6.89,6.58c0,3.28-2.52,6.06-5.92,6.52"/>
      </g>
      <g>
        <g>
          <path class="cls-5" d="m246.49,172.57c-14.76-14.08-32.16-13.82-46.16-4.56-4.89-3.84-8.43-3.17-14.97,3.61-7.21,7.49-7.13,11.07-1.69,16.63-4.72,13.3-.67,28.17,10.6,39.11,11.32,10.97,26.32,14.53,39.45,9.23,6.18,5.86,9.78,6.06,17.22-1.83,6.8-7.21,7.05-10.84,2.38-15.96,8.6-14.57,7.98-32.1-6.83-46.23h0Z"/>
          <g>
            <path class="cls-2" d="m234.89,236.08l18.16-17.16c-1.83,3.09-4.06,6.04-6.67,8.8-3.5,3.7-7.38,6.47-11.49,8.36h0Z"/>
            <path class="cls-7" d="m253.05,218.92c-1.83,3.09-4.06,6.04-6.67,8.8-3.5,3.7-7.38,6.47-11.49,8.36"/>
            <path class="cls-2" d="m201.11,168.6l-16.94,20.32c1.66-4.64,4.4-9.09,8.27-13.11,2.69-2.8,5.6-5.22,8.67-7.21Z"/>
            <path class="cls-7" d="m184.17,188.92c1.66-4.64,4.4-9.09,8.27-13.11,2.69-2.8,5.6-5.22,8.67-7.21"/>
          </g>
          <path class="cls-4" d="m238.25,181.78c13.23,12.65,18.14,29.15,4.33,43.75-13.87,14.68-29.27,9.13-42.51-3.69-13.19-12.77-19.22-27.9-5.33-42.36,13.82-14.39,30.33-10.31,43.51,2.3Z"/>
          <path class="cls-1" d="m250.86,203.16l8.09-3.81c-2.84,1.81-5.49,2.89-8.09,3.81Z"/>
          <path class="cls-7" d="m258.95,199.35c-2.84,1.81-5.49,2.89-8.09,3.81"/>
          <path class="cls-1" d="m216.46,170.2l3.42-8.22c-1.67,2.91-2.62,5.59-3.42,8.22Z"/>
          <path class="cls-7" d="m219.88,161.98c-1.67,2.91-2.62,5.59-3.42,8.22"/>
        </g>
        <path class="cls-3" d="m250.8,208.04l-39.16-37.55c7.72,1.83,15.91,7.12,23.58,14.46,7.69,7.36,13.37,15.38,15.58,23.09h0Z"/>
        <path class="cls-7" d="m211.64,170.49c7.72,1.83,15.91,7.12,23.58,14.46,7.69,7.36,13.37,15.38,15.58,23.09"/>
      </g>
    </g>
    <g id="_2865539875408" data-name=" 2865539875408">
      <polygon class="cls-8" points="1 105.31 1 76.15 47.98 9.15 85.66 9.15 85.66 75.04 97.01 75.04 97.01 105.31 85.66 105.31 85.66 122.65 50.35 122.65 50.35 105.31 1 105.31"/>
      <polygon class="cls-8" points="53.18 49.03 36.16 75.04 53.18 75.04 53.18 49.03"/>
      <polygon class="cls-8" points="250.8 105.31 250.8 76.15 297.77 9.15 335.45 9.15 335.45 75.04 346.8 75.04 346.8 105.31 335.45 105.31 335.45 122.65 300.14 122.65 300.14 105.31 250.8 105.31"/>
      <polygon class="cls-8" points="302.98 49.03 285.95 75.04 302.98 75.04 302.98 49.03"/>
    </g>
  </g>
</svg>