<svg xmlns="http://www.w3.org/2000/svg" xml:space="preserve" width="30" height="30" style="shape-rendering:geometricPrecision;text-rendering:geometricPrecision;image-rendering:optimizeQuality;fill-rule:evenodd;clip-rule:evenodd" viewBox="0 0 1.89 1.89"><defs><style>.fil2{fill:#fff;fill-rule:nonzero}</style></defs><g id="Camada_x0020_1"><g id="_2805953798848"><path d="m1.87 1.1-.93.59-.93-.59c.08.45.47.79.93.79.47 0 .86-.34.93-.79zM.01.79l.93-.6.93.6A.937.937 0 0 0 .94 0C.48 0 .09.34.01.79z" style="fill:#47b71d;fill-rule:nonzero"/><path d="M.47.82C.46.86.45.9.45.94c0 .27.22.49.49.49.22 0 .41-.14.47-.34.01-.02.01-.05.02-.08V.94A.49.49 0 0 0 .94.45c-.2 0-.37.12-.45.3C.48.77.48.8.47.82zm1.42.12c0 .06-.01.11-.02.16l-.93.59-.93-.59C0 1.05 0 1 0 .94c0-.05 0-.1.01-.15l.93-.6.93.6c.01.05.02.1.02.15z" style="fill:#fff200;fill-rule:nonzero"/><path class="fil2" d="M.44.83z"/><path d="M.98.78c.24.07.38.17.45.23V.94A.49.49 0 0 0 .94.45c-.2 0-.37.12-.45.3C.56.74.75.71.98.78zM.47.82C.46.86.45.9.45.94c0 .27.22.49.49.49.22 0 .41-.14.47-.34A1.12 1.12 0 0 0 .96.84C.74.78.54.81.47.82z" style="fill:#0f33af;fill-rule:nonzero"/><path class="fil2" d="M.98.78C.75.71.56.74.49.75.48.77.48.8.47.82.54.81.74.78.96.84c.24.07.4.2.45.25.01-.02.01-.05.02-.08C1.36.95 1.22.85.98.78z"/><path d="M.53.8V.79h.01V.77H.53V.76H.52C.52.77.51.77.51.77v.02h.01C.52.8.52.8.53.8zM.57.77h.02V.76H.57v.01zm.04.02H.6S.59.79.59.78H.57c0 .01 0 .01.01.02H.57C.57.78.56.77.56.75H.6v.03C.6.79.6.79.61.79zM.66.77V.76H.65L.64.75.63.76v.03h.01S.65.79.65.78h.01V.77zm.01 0C.67.79.66.79.64.79H.63C.63.78.62.77.62.75h.02c.02 0 .03 0 .03.02zm.05.02H.69V.75h.03v.01H.7v.01h.02v.01C.71.77.71.77.7.77v.02h.02zM.79.8H.78V.77C.78.78.77.79.77.8H.76C.76.78.76.78.75.77V.8L.74.79c0-.01 0-.02.01-.04h.01c0 .01 0 .02.01.03 0-.01 0-.02.01-.03h.01V.8zm.08.01H.84c0-.02 0-.03.01-.04h.03v.01C.87.78.86.78.85.77v.01c.01 0 .02.01.03.01H.85V.8h.03L.87.81zM.97.8H.95V.79h.02V.8zm0-.01V.78H.94C.94.8.93.81.93.82c0 0 .01 0 .01.01V.81h.03S.98.81.98.8V.79H.97zm.05.03H1c0-.01 0-.01.01-.02 0 .01 0 .01.01.01v.01zm.01-.01V.8h-.01C1.01.8 1.01.8 1 .79.99.81.99.82.99.84 1 .83 1 .83 1 .82c0 0 .01 0 .01.01h.01v.02-.02s.01 0 .01-.01V.81zm.05.04c0 .01 0 .01-.01.01h-.01V.83h.02v.02zm.01-.03h-.03l-.01.01v.03c.01 0 .01 0 .01.01h.01s.01 0 .01-.01h.01V.82zm.05.03V.84h-.02s-.01 0-.01.01L1.1.86v.01c0 .01.01.01.01.01s0 .01.01.01h.02s0-.01.01-.02c-.01 0-.01 0-.02-.01 0 .01 0 .01-.01.01.01 0 .01 0 .02.01h-.03V.86l.01-.01h.02v.01s.01 0 .01.01V.85h-.01zm.05.04h-.01s0-.01-.01-.01c0 0 .01 0 .01-.01l.01.01c.01 0 .01 0 0 .01zM1.2.88V.87h-.01S1.18.86 1.17.86c0 .02-.01.03-.02.04.01 0 .01.01.01.01 0-.01.01-.01.01-.02h.01v.03h.01V.9h.01V.88zm.06.03C1.25.9 1.24.9 1.23.89c-.01.02-.02.02-.03.04l.04.02V.94c-.01 0-.01-.01-.02-.01V.92c.01 0 .02 0 .02.01.01 0 .01 0 .01-.01-.01 0-.01 0-.02-.01V.9c.01.01.02.01.03.01zm.04.02h-.01V.92c-.01 0-.01.01-.01.01s-.01 0-.01.01c.01 0 .01 0 .01.01 0 0 .01 0 .01.01v.01h-.01L1.27.96V.95h-.01v.01l.01.01c.01 0 .01 0 .01.01h.01V.97h.01V.96L1.29.95V.94h-.01c0-.01.01-.01.01-.01v.01c.01 0 .01 0 .01.01h.01V.94L1.3.93zm.05.04V.96h-.02l-.01.01c0 .01.01.01.01.01 0 .01 0 .01.01.01V1h-.02V.98h-.01V1c.01 0 .01 0 .01.01h.02V1h.01V.99h-.01V.98h-.01V.97h.01c.01 0 .01.01.01.01v.01l.01-.01V.97h-.01zm.05.05c0 .01 0 .01-.01.01v.01h-.02v-.03h.01V1h.01v.01h.01v.01zm.01-.01L1.4 1h-.03v.01c-.01 0-.01 0-.01.01v.02h.01s0 .01.01.01h.01v-.01h.01c0-.01.01-.01.01-.01v-.02zM.52.75h.01l.01.01.01.01v.02H.54V.8H.51V.79C.5.79.5.79.5.78V.77L.51.76.52.75z" style="fill:#26b516;fill-rule:nonzero"/><path class="fil2" d="M.75 1.18v.02h.02l-.02.01.01.01-.01-.01-.02.01.01-.01-.01-.01h.01l.01-.02zm.19-.04.01.02h.01l-.01.01.01.01-.02-.01-.01.01.01-.01-.02-.01h.02v-.02zM.54.83l.01.02h.01L.55.86l.01.01L.54.86.53.87.54.86.52.85h.02V.83zm.75.26v.02h.02l-.02.01.01.01-.01-.01-.02.01.01-.01-.01-.01h.01l.01-.02zM1.1.77v.01h.02L1.1.79l.01.02L1.1.8l-.02.01.01-.02-.01-.01h.01L1.1.77zm-.46.25v.02-.01l-.01.01v-.01l.01-.01zm.28.07v.01h.01-.01v.01-.01l-.01.01.01-.01H.91h.01v-.01zm-.23 0v.02h.02H.7v.01H.68v-.01H.67h.01l.01-.02zM.76.95v.01h.01-.01l.01.02L.76.97.75.98V.96H.74h.01L.76.95zm.18.06.01.01h.01-.01v.02l-.01-.01-.01.01.01-.02H.93h.01v-.01zm.06.04v.01h.02l-.01.01v.01L1 1.07l-.01.01v-.01l-.01-.01H1v-.01zm-.33.09.01.01h.01l-.01.01v.01H.66l.01-.01-.01-.01h.01v-.01zm.52.1v.02h.02-.02l.01.02-.01-.01-.01.01v-.02h-.01.01l.01-.02zm-.1.02v.01h.02l-.01.01v.01l-.01-.01-.01.01v-.01l-.01-.01h.02v-.01zm.19-.08v.01h.01l-.01.01.01.01-.01-.01-.01.01V1.2l-.01-.01h.01l.01-.01zm.03-.04v.01h.01l-.01.01.01.01H1.3v-.01l-.01-.01h.01l.01-.01zm-.78-.05v.01h.01l-.01.01.01.01-.01-.01-.01.01v-.01L.51 1.1h.01l.01-.01zm.36-.04.01.01h.01l-.01.01v.01l-.01-.01v.01-.01l-.01-.01h.01v-.01zm.19-.14v.01h.01-.01v.01-.01l-.01.01V.92h-.01.01l.01-.01zm.16.3v.01h.01-.01l.01.01h-.02v-.01h-.01.01l.01-.01zm-.05.09v.01h.01-.01l.01.01h-.02v-.01h-.01.01l.01-.01zm.16-.19.01.01h.01-.01v.01l-.01-.01v.01-.01h-.01.01v-.01zm-.16.09v.01h.01-.01v.01h-.01v-.01h-.01.01l.01-.01zm-.06.02v.01h.01v.01h-.02l.01-.01h-.01.01v-.01zm-.08-.02v.01h.01v.02l-.01-.01-.01.01.01-.01-.01-.01h.01V1.2zm-.11.12h.01v.01H.94v-.01zm-.35-.28v.01h.02l-.02.01.01.02-.01-.01-.02.01.01-.02-.01-.01h.01l.01-.01z"/></g></g></svg>