<svg xmlns="http://www.w3.org/2000/svg" xml:space="preserve" width="30" height="30" style="shape-rendering:geometricPrecision;text-rendering:geometricPrecision;image-rendering:optimizeQuality;fill-rule:evenodd;clip-rule:evenodd" viewBox="0 0 0.47 0.47" xmlns:xlink="http://www.w3.org/1999/xlink"><defs><clipPath id="id0"><path d="M.44.35V.32h.01C.45.33.44.34.44.35zM.46.29H.44V.25h.03c0 .01 0 .03-.01.04zM.47.22H.44V.18h.02C.47.19.47.2.47.22zM.45.14H.44V.12c0 .01.01.02.01.02z"/></clipPath><clipPath id="id1"><path d="M.45.32H.44V.29h.02C.46.3.46.31.45.32zM.47.25H.44V.22h.03v.03zM.46.18H.44V.14h.01c.01.02.01.03.01.04z"/></clipPath><style>.fil0{fill:#f4f4f4}</style></defs><g id="Camada_x0020_1"><g id="_2805953966096"><path class="fil0" d="M.36.43H.11C.09.42.08.41.07.4H.4C.39.41.38.42.36.43zM.47.25c0 .01 0 .03-.01.04H.01C0 .28 0 .26 0 .25h.47zM.45.32C.45.34.44.35.43.36H.04C.03.35.02.34.02.32h.43zM.36.04C.38.05.39.06.4.07H.24V.04h.12zm.07.07c.01.01.02.02.02.03H.24V.11h.19zm.03.07C.47.19.47.2.47.22H.24V.18h.22z"/><path d="M.07.07H.4C.41.08.42.1.43.11H.04C.05.1.05.08.07.07zm.4.16v.02H0V.22h.47v.01zM.46.29C.46.3.46.31.45.32H.02C.01.31.01.3.01.29h.45zM.43.36C.42.37.41.39.4.4H.07C.05.39.05.37.04.36h.39zM.36.43C.32.46.28.47.23.47.19.47.15.46.11.43h.25zM.01.18c0-.01 0-.02.01-.04h.43c.01.02.01.03.01.04H.01zm.1-.14C.15.01.19 0 .23 0c.05 0 .09.01.13.04H.11z" style="fill:#ff1612"/><path d="M0 .25h.24V0H.23C.1 0 0 .1 0 .23v.02z" style="fill:#0437a0"/><path class="fil0" d="M.21.06v.01h.01L.21.08l.01.01L.21.08.2.09V.07h.01V.06zM0 .21V.19.2h.02-.01v.01H0zM.03.13V.12h.01v.02L.03.13.02.14.03.13zM.15.02h.01v.02L.15.03.14.04V.02h.01zm0 .04v.01h.01v.02L.15.08.14.09V.07h.01V.06zm-.06 0v.01H.1v.02L.09.08.08.09.09.08.08.07h.01V.06zm0 .05v.01H.1v.02L.09.13.08.14.09.13.08.12h.01V.11zm0 .05v.01H.1v.02L.09.18.08.19.09.18.08.17h.01V.16zm0 .05v.01H.1v.02L.09.23.08.24.09.23.08.22h.01V.21zM.03.16v.01h.01v.02L.03.18.02.19.03.18.02.17h.01V.16zm0 .05v.01h.01v.02L.03.23.02.24.03.23.02.22h.01V.21zM.06.09V.1h.01v.01H.05L.06.1H.05h.01V.09zm.06 0V.1h.01v.01H.11L.12.1H.11h.01V.09zm.06 0V.1h.01-.01l.01.01H.17V.1h.01V.09zM.12.04v.01h.01v.01H.11L.12.05H.11h.01V.04zm.06 0v.01h.01-.01l.01.01H.17V.05h.01V.04zm.03.17v.01h.01L.21.23l.01.01L.21.23.2.24V.22h.01V.21zm-.06 0v.01h.01v.02L.15.23.14.24V.22h.01V.21zM.06.19V.2h.01v.01H.05L.06.2H.05h.01V.19zm.06 0V.2h.01v.01H.11L.12.2H.11h.01V.19zm.06 0V.2h.01-.01l.01.01H.17V.2h.01V.19zM.15.16v.01h.01v.02L.15.18.14.19V.17h.01V.16zm.06 0v.01h.01L.21.18l.01.01L.21.18.2.19V.17h.01V.16zm0-.05v.01h.01L.21.13l.01.01L.21.13.2.14V.12h.01V.11zm-.06 0v.01h.01v.02L.15.13.14.14V.12h.01V.11zM.06.14v.01h.01v.01H.05L.06.15H.05h.01V.14zm.06 0v.01h.01v.01H.11L.12.15H.11h.01V.14zm.06 0v.01h.01-.01l.01.01H.17V.15h.01V.14zM.21.01v.01h.01L.21.03l.01.01L.21.03.2.04V.02h.01V.01z"/><image x=".44" y=".12" width=".04" height=".23" xlink:href="bandUsa_Images\bandUsa_ImgID1.png?date20231013" style="clip-path:url(#id0)"/><image x=".44" y=".14" width=".04" height=".19" xlink:href="bandUsa_Images\bandUsa_ImgID2.png?date20231013" style="clip-path:url(#id1)"/></g></g></svg>