<svg xmlns="http://www.w3.org/2000/svg" xml:space="preserve" width="412" height="280" style="shape-rendering:geometricPrecision;ext-rendering:geometricPrecision;image-rendering:optimizeQuality;fill-rule:evenodd;clip-rule:evenodd"><defs><style>.fil2,.fil3{fill:#00d29b}.fil3{fill-rule:nonzero}</style></defs><g id="Camada_x0020_1"><path d="M353.28 268.63c-.03-.81-.09-1.62-.09-1.99 0-.12-.01-.25-.02-.38.18.67.34 1.25.41 1.47-.06.28-.16.59-.3.9zM22.25 91.13c1.19 0 2.24.23 3.14.69.9.45 1.6 1.11 2.09 1.97.49.85.73 1.85.73 3 0 1.14-.24 2.13-.73 2.97-.49.84-1.19 1.48-2.09 1.93-.9.45-1.95.67-3.14.67h-3.67V91.13h3.67zm0 9.73c1.31 0 2.32-.36 3.02-1.07.7-.71 1.05-1.71 1.05-3 0-1.31-.35-2.33-1.05-3.06-.7-.73-1.71-1.1-3.02-1.1h-1.83v8.23h1.83zm15.95-3.17c0 .33-.03.64-.07.91h-6.8c.05.71.32 1.28.79 1.71.47.43 1.06.64 1.75.64.99 0 1.69-.41 2.1-1.24h1.98c-.27.82-.75 1.49-1.46 2.01-.7.52-1.58.79-2.62.79-.85 0-1.62-.2-2.29-.58-.67-.38-1.2-.92-1.58-1.61-.39-.7-.58-1.5-.58-2.42 0-.92.19-1.72.56-2.42.37-.69.89-1.23 1.57-1.6.67-.38 1.44-.57 2.32-.57.84 0 1.58.18 2.24.55.66.37 1.17.88 1.54 1.54.36.67.55 1.43.55 2.29zm-1.93-.58c-.01-.68-.25-1.22-.72-1.63-.48-.41-1.06-.62-1.76-.62-.64 0-1.18.2-1.64.61-.45.4-.72.95-.8 1.64h4.92zm6.97 5.4c-.7 0-1.33-.13-1.89-.38-.55-.26-.99-.6-1.31-1.04-.32-.43-.5-.92-.52-1.46h1.91c.03.38.21.69.54.94.33.26.74.38 1.24.38.51 0 .91-.1 1.2-.29.28-.2.43-.46.43-.77 0-.34-.16-.58-.48-.75-.32-.16-.82-.34-1.51-.53-.67-.18-1.21-.36-1.63-.53-.42-.17-.79-.44-1.09-.79-.31-.36-.46-.83-.46-1.41 0-.47.14-.91.42-1.3.28-.39.68-.7 1.2-.93.52-.23 1.12-.34 1.8-.34 1.01 0 1.83.26 2.45.77.62.51.95 1.21.99 2.09h-1.84c-.03-.4-.19-.71-.48-.95s-.69-.36-1.18-.36-.86.09-1.12.28c-.26.18-.38.42-.38.72 0 .24.08.44.25.6a2 2 0 0 0 .63.38c.25.09.62.21 1.1.35.65.17 1.18.35 1.59.52.42.18.78.44 1.08.79.3.34.46.8.47 1.37 0 .51-.14.96-.42 1.36-.28.4-.68.71-1.19.94-.51.22-1.11.34-1.8.34zm4.78-4.61c0-.92.19-1.72.56-2.42.37-.69.88-1.23 1.54-1.6.66-.38 1.41-.57 2.26-.57 1.08 0 1.97.26 2.68.77.7.51 1.18 1.24 1.43 2.19H54.5c-.16-.44-.42-.79-.78-1.04-.35-.24-.8-.37-1.34-.37-.75 0-1.35.27-1.8.8-.45.54-.67 1.28-.67 2.24 0 .96.22 1.71.67 2.25.45.54 1.05.8 1.8.8 1.07 0 1.77-.46 2.12-1.4h1.99c-.26.9-.75 1.62-1.46 2.16-.71.53-1.59.8-2.65.8-.85 0-1.6-.2-2.26-.58-.66-.38-1.17-.92-1.54-1.61-.37-.7-.56-1.5-.56-2.42zm18.37-4.44v8.9h-1.84v-1.05c-.29.37-.67.65-1.14.86-.47.21-.97.32-1.49.32-.7 0-1.33-.15-1.89-.44a3.19 3.19 0 0 1-1.31-1.29c-.31-.57-.47-1.26-.47-2.07v-5.23h1.82v4.96c0 .79.2 1.41.6 1.83.4.43.94.64 1.63.64s1.24-.21 1.64-.64c.41-.42.61-1.04.61-1.83v-4.96h1.84zm4.27 1.32c.31-.43.74-.78 1.28-1.06.55-.27 1.15-.41 1.82-.41.78 0 1.5.19 2.13.57.64.37 1.14.91 1.5 1.6.37.7.55 1.49.55 2.39 0 .89-.18 1.69-.55 2.4-.36.7-.87 1.25-1.51 1.65-.64.39-1.35.59-2.12.59-.69 0-1.3-.14-1.84-.41-.53-.27-.95-.61-1.26-1.03v1.29h-1.85V90.4h1.85v4.38zm5.41 3.09c0-.62-.13-1.15-.38-1.59-.25-.45-.59-.79-1-1.02-.42-.23-.86-.35-1.34-.35-.46 0-.9.12-1.31.36-.42.23-.75.58-1 1.03-.26.45-.38.99-.38 1.6 0 .61.12 1.15.38 1.61.25.46.58.8 1 1.04.41.24.85.36 1.31.36a2.651 2.651 0 0 0 2.34-1.43c.25-.46.38-1 .38-1.61zm5.54-3.12c.27-.45.63-.81 1.08-1.06.44-.25.97-.38 1.59-.38v1.91h-.47c-.72 0-1.27.18-1.64.55-.37.36-.56 1-.56 1.9v4.69h-1.84v-8.9h1.84v1.29zm3.75 3.12c0-.9.18-1.69.56-2.38.37-.69.87-1.22 1.52-1.6.64-.39 1.34-.58 2.12-.58.7 0 1.31.14 1.83.41.53.28.94.62 1.26 1.03v-1.29h1.85v8.9h-1.85v-1.33c-.32.43-.74.77-1.28 1.05-.54.29-1.15.43-1.84.43-.77 0-1.47-.2-2.1-.59-.64-.4-1.14-.95-1.51-1.65-.38-.71-.56-1.51-.56-2.4zm7.29.03c0-.61-.13-1.15-.38-1.6-.26-.45-.59-.8-1-1.03a2.57 2.57 0 0 0-1.32-.36c-.48 0-.92.12-1.33.35-.41.23-.74.57-.99 1.02-.25.44-.38.97-.38 1.59 0 .61.13 1.15.38 1.61.25.47.59.82 1 1.06.42.24.85.37 1.32.37.47 0 .91-.12 1.32-.36.41-.24.74-.58 1-1.04.25-.46.38-1 .38-1.61zm7.86-.03c0-.9.19-1.69.56-2.38.37-.69.88-1.22 1.52-1.6a4.01 4.01 0 0 1 2.13-.58c.7 0 1.31.14 1.83.41.52.28.94.62 1.25 1.03v-1.29h1.86v8.9h-1.86v-1.33c-.31.43-.74.77-1.27 1.05-.54.29-1.16.43-1.85.43-.76 0-1.46-.2-2.1-.59-.63-.4-1.14-.95-1.51-1.65-.37-.71-.56-1.51-.56-2.4zm7.29.03c0-.61-.12-1.15-.38-1.6-.25-.45-.58-.8-.99-1.03-.41-.24-.85-.36-1.33-.36-.47 0-.91.12-1.32.35-.41.23-.74.57-.99 1.02-.26.44-.38.97-.38 1.59 0 .61.12 1.15.38 1.61.25.47.58.82 1 1.06a2.571 2.571 0 0 0 2.64.01c.41-.24.74-.58.99-1.04.26-.46.38-1 .38-1.61zm7.87-4.59c.69 0 1.3.14 1.84.41.53.28.94.62 1.25 1.03v-1.29h1.85v9.05c0 .81-.17 1.54-.51 2.18a3.72 3.72 0 0 1-1.5 1.52c-.65.36-1.43.54-2.33.54-1.21 0-2.21-.28-3.01-.84-.79-.57-1.25-1.34-1.35-2.31h1.82c.14.47.44.84.9 1.13.46.28 1 .43 1.64.43.74 0 1.34-.23 1.8-.68.46-.46.69-1.11.69-1.97v-1.49c-.32.42-.74.77-1.27 1.06-.53.28-1.14.43-1.82.43-.78 0-1.48-.2-2.12-.59-.65-.4-1.15-.95-1.52-1.65-.37-.71-.56-1.51-.56-2.4 0-.9.19-1.69.56-2.38.37-.69.87-1.22 1.52-1.6.64-.39 1.34-.58 2.12-.58zm3.09 4.59c0-.61-.13-1.15-.38-1.6-.26-.45-.59-.8-1-1.03a2.57 2.57 0 0 0-1.32-.36c-.48 0-.92.12-1.33.35-.41.23-.74.57-.99 1.02-.25.44-.38.97-.38 1.59 0 .61.13 1.15.38 1.61.25.47.59.82 1 1.06.42.24.86.37 1.32.37.47 0 .91-.12 1.32-.36.41-.24.74-.58 1-1.04.25-.46.38-1 .38-1.61zm8.14 4.61c-.84 0-1.6-.2-2.28-.58-.68-.38-1.21-.92-1.6-1.61-.39-.7-.58-1.5-.58-2.42 0-.9.2-1.71.6-2.41.4-.7.94-1.24 1.63-1.61.69-.38 1.46-.57 2.31-.57.85 0 1.62.19 2.31.57.69.37 1.23.91 1.63 1.61.4.7.6 1.51.6 2.41 0 .9-.2 1.71-.61 2.41-.41.7-.97 1.24-1.68 1.62-.7.38-1.48.58-2.33.58zm0-1.6c.47 0 .92-.12 1.33-.34.42-.23.75-.57 1.01-1.02.26-.45.39-1 .39-1.65 0-.65-.12-1.19-.37-1.64-.25-.45-.58-.78-.99-1.01a2.65 2.65 0 0 0-1.32-.34c-.48 0-.91.11-1.32.34-.4.23-.72.56-.96 1.01-.24.45-.35.99-.35 1.64 0 .96.24 1.7.73 2.22.49.52 1.11.79 1.85.79zm8.29-6.16c.27-.45.63-.81 1.07-1.06.45-.25.98-.38 1.6-.38v1.91h-.47c-.73 0-1.27.18-1.64.55-.37.36-.56 1-.56 1.9v4.69h-1.84v-8.9h1.84v1.29zm3.75 3.12c0-.9.18-1.69.55-2.38.38-.69.88-1.22 1.52-1.6a4.01 4.01 0 0 1 2.13-.58c.7 0 1.31.14 1.83.41.52.28.94.62 1.25 1.03v-1.29h1.86v8.9h-1.86v-1.33c-.31.43-.73.77-1.27 1.05-.54.29-1.15.43-1.84.43-.77 0-1.47-.2-2.1-.59-.64-.4-1.14-.95-1.52-1.65-.37-.71-.55-1.51-.55-2.4zm7.28.03c0-.61-.12-1.15-.38-1.6-.25-.45-.58-.8-.99-1.03a2.57 2.57 0 0 0-1.32-.36c-.48 0-.92.12-1.33.35-.41.23-.74.57-.99 1.02-.26.44-.38.97-.38 1.59 0 .61.12 1.15.38 1.61.25.47.58.82 1 1.06a2.57 2.57 0 0 0 2.64.01c.41-.24.74-.58.99-1.04.26-.46.38-1 .38-1.61zm7.87-.03c0-.9.19-1.69.56-2.38.37-.69.88-1.22 1.52-1.6a4 4 0 0 1 2.12-.58c.7 0 1.32.14 1.84.41.52.28.94.62 1.25 1.03v-1.29h1.86v8.9h-1.86v-1.33c-.31.43-.74.77-1.28 1.05-.53.29-1.15.43-1.84.43-.76 0-1.46-.2-2.1-.59-.63-.4-1.14-.95-1.51-1.65-.37-.71-.56-1.51-.56-2.4zm7.29.03c0-.61-.13-1.15-.38-1.6-.25-.45-.58-.8-.99-1.03-.41-.24-.85-.36-1.33-.36-.47 0-.91.12-1.32.35-.41.23-.74.57-1 1.02-.25.44-.38.97-.38 1.59 0 .61.13 1.15.38 1.61.26.47.59.82 1 1.06a2.579 2.579 0 0 0 2.65.01c.41-.24.74-.58.99-1.04.25-.46.38-1 .38-1.61zm7.51 4.61c-.7 0-1.32-.13-1.88-.38-.55-.26-.99-.6-1.32-1.04-.32-.43-.49-.92-.51-1.46h1.9c.04.38.22.69.54.94.33.26.75.38 1.24.38.52 0 .92-.1 1.21-.29.28-.2.42-.46.42-.77 0-.34-.16-.58-.47-.75-.32-.16-.83-.34-1.51-.53-.67-.18-1.22-.36-1.64-.53-.42-.17-.78-.44-1.09-.79-.3-.36-.46-.83-.46-1.41 0-.47.14-.91.42-1.3.28-.39.68-.7 1.21-.93.52-.23 1.12-.34 1.8-.34 1.01 0 1.83.26 2.45.77.62.51.95 1.21.99 2.09h-1.84c-.03-.4-.2-.71-.49-.95s-.68-.36-1.18-.36c-.48 0-.85.09-1.11.28-.26.18-.39.42-.39.72 0 .24.09.44.26.6.17.16.38.29.63.38.25.09.61.21 1.1.35.64.17 1.18.35 1.59.52.41.18.77.44 1.07.79.31.34.46.8.47 1.37 0 .51-.14.96-.42 1.36-.28.4-.67.71-1.19.94-.51.22-1.11.34-1.8.34zm11.44-7.74c.32-.41.74-.76 1.28-1.04s1.15-.42 1.83-.42a4 4 0 0 1 2.12.58c.64.38 1.14.91 1.51 1.6.37.69.55 1.48.55 2.38 0 .89-.18 1.69-.55 2.4-.37.7-.87 1.25-1.51 1.65-.64.39-1.35.59-2.12.59-.68 0-1.29-.14-1.81-.42-.53-.27-.96-.61-1.3-1.02v5.52h-1.84V93.46h1.84v1.31zm5.42 3.1c0-.62-.13-1.15-.38-1.59-.26-.45-.59-.79-1.01-1.02-.41-.23-.86-.35-1.33-.35-.46 0-.9.12-1.32.36-.41.23-.74.58-1 1.03-.25.45-.38.99-.38 1.6 0 .61.13 1.15.38 1.61.26.46.59.8 1 1.04.42.24.86.36 1.32.36.47 0 .92-.13 1.33-.37.42-.24.75-.59 1.01-1.06.25-.46.38-1 .38-1.61zm5.54-3.12c.27-.45.63-.81 1.07-1.06.45-.25.98-.38 1.59-.38v1.91h-.46c-.73 0-1.27.18-1.65.55-.37.36-.55 1-.55 1.9v4.69h-1.84v-8.9h1.84v1.29zm5.3-2.47c-.34 0-.62-.12-.84-.34-.23-.23-.34-.51-.34-.84 0-.34.11-.62.34-.84.22-.23.5-.34.84-.34.32 0 .6.11.82.34.23.22.34.5.34.84 0 .33-.11.61-.34.84-.22.22-.5.34-.82.34zm.9 1.18v8.9h-1.84v-8.9h1.84zm6.92-.15c.7 0 1.33.15 1.88.44.55.29.99.72 1.3 1.29.31.57.47 1.26.47 2.07v5.25h-1.83v-4.98c0-.79-.2-1.41-.59-1.83-.4-.43-.95-.64-1.64-.64s-1.23.21-1.64.64c-.4.42-.6 1.04-.6 1.83v4.98h-1.84v-8.9h1.84v1.01c.3-.36.68-.65 1.15-.85.47-.21.97-.31 1.5-.31zm5.38 4.59c0-.92.18-1.72.56-2.42.37-.69.88-1.23 1.54-1.6.66-.38 1.41-.57 2.26-.57 1.08 0 1.97.26 2.67.77.71.51 1.19 1.24 1.43 2.19h-1.98c-.16-.44-.42-.79-.78-1.04-.35-.24-.8-.37-1.34-.37-.75 0-1.35.27-1.8.8-.45.54-.67 1.28-.67 2.24 0 .96.22 1.71.67 2.25.45.54 1.05.8 1.8.8 1.07 0 1.77-.46 2.12-1.4h1.98c-.25.9-.74 1.62-1.45 2.16-.71.53-1.59.8-2.65.8-.85 0-1.6-.2-2.26-.58-.66-.38-1.17-.92-1.54-1.61-.38-.7-.56-1.5-.56-2.42zm11.24-5.62c-.33 0-.61-.12-.84-.34-.22-.23-.34-.51-.34-.84 0-.34.12-.62.34-.84.23-.23.51-.34.84-.34.33 0 .6.11.83.34.22.22.34.5.34.84 0 .33-.12.61-.34.84-.23.22-.5.34-.83.34zm.91 1.18v8.9h-1.84v-8.9h1.84zm4.27 1.31c.31-.41.73-.76 1.27-1.04s1.15-.42 1.83-.42a4 4 0 0 1 2.12.58c.64.38 1.15.91 1.51 1.6.37.69.55 1.48.55 2.38 0 .89-.18 1.69-.55 2.4-.36.7-.87 1.25-1.51 1.65-.64.39-1.35.59-2.12.59-.68 0-1.28-.14-1.81-.42-.53-.27-.96-.61-1.29-1.02v5.52h-1.85V93.46h1.85v1.31zm5.41 3.1c0-.62-.13-1.15-.38-1.59-.26-.45-.59-.79-1-1.02-.42-.23-.86-.35-1.34-.35-.46 0-.9.12-1.31.36-.42.23-.75.58-1.01 1.03-.25.45-.37.99-.37 1.6 0 .61.12 1.15.37 1.61.26.46.59.8 1.01 1.04.41.24.85.36 1.31.36.48 0 .92-.13 1.34-.37.41-.24.74-.59 1-1.06.25-.46.38-1 .38-1.61zm3.08 0c0-.9.19-1.69.56-2.38.37-.69.88-1.22 1.52-1.6a4 4 0 0 1 2.12-.58c.7 0 1.32.14 1.84.41.52.28.94.62 1.25 1.03v-1.29h1.86v8.9h-1.86v-1.33c-.31.43-.74.77-1.28 1.05-.53.29-1.15.43-1.84.43-.76 0-1.46-.2-2.1-.59-.63-.4-1.14-.95-1.51-1.65-.37-.71-.56-1.51-.56-2.4zm7.29.03c0-.61-.13-1.15-.38-1.6-.25-.45-.58-.8-.99-1.03-.41-.24-.85-.36-1.33-.36-.47 0-.91.12-1.32.35-.41.23-.74.57-1 1.02-.25.44-.38.97-.38 1.59 0 .61.13 1.15.38 1.61.26.47.59.82 1 1.06a2.579 2.579 0 0 0 2.65.01c.41-.24.74-.58.99-1.04.25-.46.38-1 .38-1.61zm5.22-5.62c-.33 0-.61-.12-.84-.34-.23-.23-.34-.51-.34-.84 0-.34.11-.62.34-.84.23-.23.51-.34.84-.34.32 0 .6.11.82.34.23.22.34.5.34.84 0 .33-.11.61-.34.84-.22.22-.5.34-.82.34zm.9 1.18v8.9h-1.84v-8.9h1.84zm5.66 9.05c-.7 0-1.33-.13-1.88-.38-.56-.26-1-.6-1.32-1.04a2.64 2.64 0 0 1-.52-1.46h1.91c.03.38.21.69.54.94.33.26.74.38 1.24.38.51 0 .92-.1 1.2-.29.29-.2.43-.46.43-.77 0-.34-.16-.58-.48-.75-.31-.16-.82-.34-1.51-.53-.67-.18-1.21-.36-1.63-.53-.42-.17-.78-.44-1.09-.79-.31-.36-.46-.83-.46-1.41 0-.47.14-.91.42-1.3.28-.39.68-.7 1.2-.93.53-.23 1.13-.34 1.8-.34 1.02 0 1.83.26 2.45.77.62.51.95 1.21 1 2.09h-1.85c-.03-.4-.19-.71-.48-.95s-.68-.36-1.18-.36c-.48 0-.86.09-1.12.28a.85.85 0 0 0-.38.72c0 .24.08.44.26.6.17.16.38.29.63.38.24.09.61.21 1.09.35.65.17 1.18.35 1.6.52.41.18.77.44 1.07.79.3.34.46.8.47 1.37 0 .51-.14.96-.42 1.36-.28.4-.68.71-1.19.94-.51.22-1.11.34-1.8.34zm13.33-7.55h-1.65v7.4h-1.86v-7.4h-1.05v-1.5h1.05v-.63c0-1.03.28-1.77.82-2.24.54-.47 1.4-.7 2.56-.7v1.53c-.56 0-.95.11-1.18.32-.23.21-.34.57-.34 1.09v.63h1.65v1.5zm9.69-1.5v8.9h-1.84v-1.05c-.29.37-.67.65-1.14.86-.46.21-.96.32-1.49.32-.7 0-1.33-.15-1.88-.44-.56-.29-.99-.72-1.31-1.29-.32-.57-.48-1.26-.48-2.07v-5.23h1.83v4.96c0 .79.2 1.41.59 1.83.4.43.95.64 1.64.64s1.23-.21 1.64-.64c.4-.42.6-1.04.6-1.83v-4.96h1.84zm6.92-.15c.7 0 1.33.15 1.88.44.56.29.99.72 1.3 1.29.31.57.47 1.26.47 2.07v5.25h-1.82v-4.98c0-.79-.2-1.41-.6-1.83-.4-.43-.95-.64-1.63-.64-.69 0-1.24.21-1.64.64-.41.42-.61 1.04-.61 1.83v4.98h-1.84v-8.9h1.84v1.01c.3-.36.69-.65 1.16-.85.46-.21.96-.31 1.49-.31zm5.38 4.59c0-.92.18-1.72.56-2.42.37-.69.88-1.23 1.54-1.6.66-.38 1.41-.57 2.26-.57 1.08 0 1.97.26 2.68.77.7.51 1.18 1.24 1.43 2.19h-1.99c-.16-.44-.42-.79-.78-1.04-.35-.24-.8-.37-1.34-.37-.75 0-1.35.27-1.8.8-.45.54-.67 1.28-.67 2.24 0 .96.22 1.71.67 2.25.45.54 1.05.8 1.8.8 1.07 0 1.77-.46 2.12-1.4h1.99c-.26.9-.75 1.62-1.46 2.16-.71.53-1.59.8-2.65.8-.85 0-1.6-.2-2.26-.58-.66-.38-1.17-.92-1.54-1.61-.38-.7-.56-1.5-.56-2.42zm11.24-5.62c-.33 0-.61-.12-.84-.34a1.17 1.17 0 0 1-.33-.84c0-.34.11-.62.33-.84.23-.23.51-.34.84-.34.33 0 .6.11.83.34.23.22.34.5.34.84 0 .33-.11.61-.34.84-.23.22-.5.34-.83.34zm.91 1.18v8.9h-1.84v-8.9h1.84zm6.29 9.05c-.84 0-1.6-.2-2.28-.58-.68-.38-1.21-.92-1.6-1.61-.39-.7-.58-1.5-.58-2.42 0-.9.2-1.71.59-2.41.4-.7.95-1.24 1.64-1.61.68-.38 1.45-.57 2.31-.57.85 0 1.62.19 2.31.57.69.37 1.23.91 1.63 1.61.4.7.6 1.51.6 2.41 0 .9-.21 1.71-.62 2.41-.41.7-.96 1.24-1.67 1.62-.71.38-1.48.58-2.33.58zm0-1.6c.47 0 .91-.12 1.33-.34.41-.23.75-.57 1.01-1.02.26-.45.39-1 .39-1.65 0-.65-.13-1.19-.38-1.64a2.45 2.45 0 0 0-.98-1.01 2.66 2.66 0 0 0-1.33-.34c-.47 0-.91.11-1.31.34-.41.23-.73.56-.96 1.01-.24.45-.36.99-.36 1.64 0 .96.25 1.7.74 2.22.49.52 1.1.79 1.85.79zm10.93-7.6c.7 0 1.33.15 1.89.44.55.29.99.72 1.3 1.29.31.57.47 1.26.47 2.07v5.25h-1.83v-4.98c0-.79-.2-1.41-.6-1.83-.4-.43-.94-.64-1.63-.64s-1.24.21-1.64.64c-.4.42-.61 1.04-.61 1.83v4.98h-1.84v-8.9h1.84v1.01c.31-.36.69-.65 1.16-.85.47-.21.97-.31 1.49-.31zm5.38 4.56c0-.9.19-1.69.56-2.38.37-.69.88-1.22 1.52-1.6a4.01 4.01 0 0 1 2.13-.58c.7 0 1.31.14 1.83.41.52.28.94.62 1.25 1.03v-1.29h1.86v8.9h-1.86v-1.33c-.31.43-.74.77-1.28 1.05-.53.29-1.15.43-1.84.43-.76 0-1.46-.2-2.1-.59-.63-.4-1.14-.95-1.51-1.65-.37-.71-.56-1.51-.56-2.4zm7.29.03c0-.61-.12-1.15-.38-1.6-.25-.45-.58-.8-.99-1.03-.41-.24-.85-.36-1.33-.36-.47 0-.91.12-1.32.35-.41.23-.74.57-1 1.02-.25.44-.38.97-.38 1.59 0 .61.13 1.15.38 1.61.26.47.59.82 1.01 1.06a2.571 2.571 0 0 0 2.64.01c.41-.24.74-.58.99-1.04.26-.46.38-1 .38-1.61zm6.13-7.5v11.96h-1.85V90.4h1.85zm3.36 1.88c-.34 0-.62-.12-.84-.34-.23-.23-.34-.51-.34-.84 0-.34.11-.62.34-.84.22-.23.5-.34.84-.34.32 0 .59.11.82.34.23.22.34.5.34.84 0 .33-.11.61-.34.84-.23.22-.5.34-.82.34zm.9 1.18v8.9h-1.84v-8.9h1.84zm1.81 4.41c0-.9.19-1.69.56-2.38.37-.69.88-1.22 1.52-1.6.64-.39 1.35-.58 2.14-.58.58 0 1.15.13 1.72.38.56.25 1.01.59 1.35 1.01v-4.3h1.86v11.96h-1.86v-1.34c-.3.43-.72.78-1.25 1.06-.54.29-1.15.43-1.84.43-.77 0-1.48-.2-2.12-.59a4.25 4.25 0 0 1-1.52-1.65c-.37-.71-.56-1.51-.56-2.4zm7.29.03c0-.61-.13-1.15-.38-1.6-.25-.45-.59-.8-1-1.03a2.632 2.632 0 0 0-2.64-.01c-.41.23-.75.57-1 1.02-.25.44-.38.97-.38 1.59 0 .61.13 1.15.38 1.61.25.47.59.82 1 1.06.42.24.86.37 1.32.37.47 0 .91-.12 1.32-.36.41-.24.75-.58 1-1.04.25-.46.38-1 .38-1.61zm3.67-.03c0-.9.18-1.69.55-2.38.38-.69.88-1.22 1.52-1.6a4.01 4.01 0 0 1 2.13-.58c.7 0 1.31.14 1.83.41.52.28.94.62 1.25 1.03v-1.29h1.86v8.9h-1.86v-1.33c-.31.43-.74.77-1.27 1.05-.54.29-1.16.43-1.85.43-.76 0-1.46-.2-2.1-.59-.63-.4-1.13-.95-1.51-1.65-.37-.71-.55-1.51-.55-2.4zm7.28.03c0-.61-.12-1.15-.38-1.6-.25-.45-.58-.8-.99-1.03-.41-.24-.85-.36-1.33-.36-.47 0-.91.12-1.32.35-.41.23-.74.57-.99 1.02-.26.44-.38.97-.38 1.59 0 .61.12 1.15.38 1.61.25.47.58.82 1 1.06a2.571 2.571 0 0 0 2.64.01c.41-.24.74-.58.99-1.04.26-.46.38-1 .38-1.61zm3.67-.03c0-.9.19-1.69.56-2.38.37-.69.88-1.22 1.52-1.6.64-.39 1.35-.58 2.14-.58.58 0 1.15.13 1.72.38.56.25 1.01.59 1.35 1.01v-4.3h1.86v11.96h-1.86v-1.34c-.3.43-.72.78-1.25 1.06-.54.29-1.15.43-1.84.43-.77 0-1.48-.2-2.12-.59a4.25 4.25 0 0 1-1.52-1.65c-.37-.71-.56-1.51-.56-2.4zm7.29.03c0-.61-.13-1.15-.38-1.6-.26-.45-.59-.8-1-1.03a2.57 2.57 0 0 0-1.32-.36c-.47 0-.92.12-1.33.35-.4.23-.74.57-.99 1.02-.25.44-.38.97-.38 1.59 0 .61.13 1.15.38 1.61.25.47.59.82 1 1.06.42.24.86.37 1.32.37.47 0 .91-.12 1.32-.36.41-.24.74-.58 1-1.04.25-.46.38-1 .38-1.61zm12.44-.21c0 .33-.02.64-.07.91h-6.8c.06.71.32 1.28.79 1.71.48.43 1.06.64 1.75.64.99 0 1.69-.41 2.1-1.24h1.99c-.27.82-.76 1.49-1.47 2.01-.7.52-1.58.79-2.62.79-.85 0-1.62-.2-2.29-.58-.67-.38-1.2-.92-1.58-1.61-.38-.7-.57-1.5-.57-2.42 0-.92.18-1.72.55-2.42.37-.69.9-1.23 1.57-1.6.67-.38 1.45-.57 2.32-.57.84 0 1.59.18 2.24.55.66.37 1.17.88 1.54 1.54.37.67.55 1.43.55 2.29zm-1.92-.58c-.02-.68-.26-1.22-.73-1.63-.47-.41-1.06-.62-1.76-.62-.64 0-1.18.2-1.63.61-.46.4-.73.95-.81 1.64h4.93zm6.96 5.4c-.7 0-1.33-.13-1.88-.38-.56-.26-1-.6-1.32-1.04a2.64 2.64 0 0 1-.52-1.46h1.91c.03.38.21.69.54.94.33.26.74.38 1.24.38.51 0 .92-.1 1.2-.29.29-.2.43-.46.43-.77 0-.34-.16-.58-.48-.75-.31-.16-.82-.34-1.51-.53-.67-.18-1.21-.36-1.63-.53-.42-.17-.78-.44-1.09-.79-.31-.36-.46-.83-.46-1.41 0-.47.14-.91.42-1.3.28-.39.68-.7 1.2-.93.53-.23 1.13-.34 1.81-.34 1.01 0 1.82.26 2.44.77.62.51.95 1.21 1 2.09h-1.85c-.03-.4-.19-.71-.48-.95s-.68-.36-1.18-.36c-.48 0-.86.09-1.11.28-.26.18-.39.42-.39.72 0 .24.08.44.26.6.17.16.38.29.63.38.24.09.61.21 1.1.35.64.17 1.17.35 1.59.52.41.18.77.44 1.07.79.3.34.46.8.47 1.37 0 .51-.14.96-.42 1.36-.28.4-.68.71-1.19.94-.51.22-1.11.34-1.8.34zM52.44 120.36c0-.89.18-1.68.55-2.37.38-.69.88-1.23 1.52-1.61a4.13 4.13 0 0 1 2.14-.57c.59 0 1.16.12 1.73.38.56.25 1.01.59 1.34 1.01v-4.3h1.86v11.96h-1.86v-1.35c-.3.43-.71.79-1.25 1.07-.53.28-1.14.42-1.83.42-.78 0-1.49-.2-2.13-.59-.64-.39-1.14-.94-1.52-1.65-.37-.7-.55-1.5-.55-2.4zm7.28.04c0-.62-.12-1.15-.38-1.6-.25-.46-.58-.8-.99-1.04a2.66 2.66 0 0 0-1.32-.35c-.48 0-.92.11-1.33.34-.41.24-.74.57-.99 1.02-.26.45-.38.98-.38 1.59 0 .62.12 1.16.38 1.62.25.46.58.82 1 1.06.41.24.85.36 1.32.36.47 0 .91-.12 1.32-.35.41-.24.74-.59.99-1.05.26-.45.38-.99.38-1.6zm8.15 4.6c-.84 0-1.6-.19-2.28-.57-.68-.39-1.21-.92-1.6-1.62-.39-.69-.58-1.5-.58-2.41 0-.91.2-1.71.6-2.41.39-.7.94-1.24 1.63-1.62.69-.37 1.46-.56 2.31-.56.85 0 1.62.19 2.31.56.69.38 1.23.92 1.63 1.62.4.7.6 1.5.6 2.41 0 .9-.21 1.7-.62 2.4-.4.7-.96 1.24-1.67 1.63-.7.38-1.48.57-2.33.57zm0-1.6c.47 0 .92-.11 1.33-.34.42-.22.75-.56 1.01-1.02.26-.45.39-1 .39-1.64 0-.65-.13-1.2-.37-1.64-.25-.45-.58-.79-.99-1.01a2.65 2.65 0 0 0-1.32-.34c-.48 0-.92.11-1.32.34-.4.22-.73.56-.96 1.01-.24.44-.36.99-.36 1.64 0 .95.25 1.69.74 2.22.49.52 1.1.78 1.85.78zm10.03-4.18c0-1.1.26-2.09.77-2.96.51-.87 1.21-1.55 2.08-2.04.88-.49 1.84-.74 2.89-.74 1.19 0 2.26.29 3.19.88.93.59 1.61 1.42 2.03 2.5h-2.22c-.29-.6-.69-1.04-1.21-1.33-.52-.29-1.11-.43-1.79-.43-.75 0-1.41.16-1.99.5-.58.33-1.04.81-1.36 1.43-.33.63-.5 1.36-.5 2.19 0 .83.17 1.55.5 2.18.32.62.78 1.1 1.36 1.44.58.34 1.24.51 1.99.51.68 0 1.27-.14 1.79-.43s.92-.74 1.21-1.33h2.22c-.42 1.08-1.1 1.91-2.03 2.49-.93.58-2 .87-3.19.87-1.06 0-2.02-.24-2.89-.73a5.39 5.39 0 0 1-2.08-2.05c-.51-.87-.77-1.86-.77-2.95zm18.94 5.64-2.59-4.5h-1.4v4.5h-1.84v-11.23h3.87c.87 0 1.6.15 2.19.45.6.3 1.05.7 1.34 1.21.3.51.45 1.07.45 1.7 0 .73-.21 1.39-.64 1.99-.43.6-1.08 1.01-1.96 1.22l2.78 4.66h-2.2zm-3.99-5.97h2.03c.69 0 1.21-.17 1.56-.51.35-.35.53-.81.53-1.39 0-.59-.17-1.04-.52-1.37-.34-.33-.87-.49-1.57-.49h-2.03v3.76zm20.2-5.26v11.23h-1.85v-7.7l-3.42 7.7h-1.28l-3.44-7.7v7.7h-1.84v-11.23h1.99l3.94 8.8 3.92-8.8h1.98zm8.46 3.63c.31-.41.74-.75 1.28-1.03s1.15-.42 1.82-.42c.78 0 1.49.19 2.13.57.64.38 1.14.92 1.51 1.61.37.69.55 1.48.55 2.37 0 .9-.18 1.7-.55 2.4-.37.71-.87 1.26-1.51 1.65-.64.39-1.35.59-2.13.59-.67 0-1.28-.14-1.81-.41-.52-.28-.95-.62-1.29-1.03v5.53h-1.84v-13.14h1.84v1.31zm5.41 3.1c0-.61-.12-1.14-.37-1.59-.26-.45-.59-.78-1.01-1.02a2.716 2.716 0 0 0-2.65.01c-.41.24-.75.58-1 1.04-.25.45-.38.98-.38 1.6 0 .61.13 1.15.38 1.6.25.46.59.81 1 1.05.42.23.86.35 1.32.35.47 0 .92-.12 1.33-.36.42-.24.75-.6 1.01-1.06.25-.46.37-1 .37-1.62zm3.09 0c0-.89.19-1.68.56-2.37.37-.69.88-1.23 1.52-1.61.64-.38 1.35-.57 2.12-.57.7 0 1.31.13 1.84.41.52.27.93.62 1.25 1.03v-1.3h1.86v8.91h-1.86v-1.33c-.32.42-.74.77-1.28 1.05s-1.15.42-1.84.42c-.77 0-1.47-.2-2.1-.59-.64-.39-1.14-.94-1.51-1.65-.37-.7-.56-1.5-.56-2.4zm7.29.04c0-.62-.13-1.15-.38-1.6-.26-.46-.59-.8-1-1.04a2.66 2.66 0 0 0-1.32-.35c-.47 0-.92.11-1.32.34-.41.24-.75.57-1 1.02-.25.45-.38.98-.38 1.59 0 .62.13 1.16.38 1.62.25.46.59.82 1 1.06a2.623 2.623 0 0 0 2.64.01c.41-.24.74-.59 1-1.05.25-.45.38-.99.38-1.6zm6.12-3.15c.27-.46.63-.81 1.08-1.06.44-.26.97-.38 1.59-.38v1.9h-.47c-.72 0-1.27.19-1.64.55-.37.37-.56 1-.56 1.91v4.69h-1.84v-8.91h1.84v1.3zm3.75 3.11c0-.89.18-1.68.56-2.37.37-.69.87-1.23 1.52-1.61.64-.38 1.34-.57 2.12-.57.7 0 1.31.13 1.83.41.53.27.94.62 1.26 1.03v-1.3h1.85v8.91h-1.85v-1.33c-.32.42-.74.77-1.28 1.05s-1.15.42-1.84.42c-.77 0-1.47-.2-2.1-.59-.64-.39-1.14-.94-1.51-1.65-.38-.7-.56-1.5-.56-2.4zm7.29.04c0-.62-.13-1.15-.38-1.6-.26-.46-.59-.8-1-1.04a2.66 2.66 0 0 0-1.32-.35c-.48 0-.92.11-1.33.34-.41.24-.74.57-.99 1.02-.25.45-.38.98-.38 1.59 0 .62.13 1.16.38 1.62.25.46.59.82 1 1.06a2.623 2.623 0 0 0 2.64.01c.41-.24.74-.59 1-1.05.25-.45.38-.99.38-1.6zm7.87 0c0-.92.18-1.73.55-2.42.37-.69.89-1.23 1.55-1.61.65-.37 1.41-.56 2.26-.56 1.08 0 1.97.25 2.67.76.71.52 1.18 1.25 1.43 2.19h-1.99c-.16-.44-.42-.78-.77-1.03-.36-.25-.8-.37-1.34-.37-.76 0-1.36.26-1.8.8-.45.53-.67 1.28-.67 2.24 0 .95.22 1.7.67 2.24.44.54 1.04.81 1.8.81 1.06 0 1.77-.47 2.11-1.41h1.99c-.26.91-.74 1.63-1.45 2.16-.71.53-1.6.8-2.65.8-.85 0-1.61-.19-2.26-.57-.66-.39-1.18-.92-1.55-1.62-.37-.69-.55-1.5-.55-2.41zm14.17 4.6c-.84 0-1.6-.19-2.28-.57-.68-.39-1.21-.92-1.6-1.62-.39-.69-.58-1.5-.58-2.41 0-.91.2-1.71.59-2.41.4-.7.95-1.24 1.64-1.62.68-.37 1.45-.56 2.31-.56.85 0 1.62.19 2.31.56.69.38 1.23.92 1.63 1.62.4.7.6 1.5.6 2.41 0 .9-.21 1.7-.62 2.4-.41.7-.96 1.24-1.67 1.63-.71.38-1.48.57-2.33.57zm0-1.6c.47 0 .91-.11 1.33-.34.41-.22.75-.56 1.01-1.02.26-.45.39-1 .39-1.64 0-.65-.13-1.2-.38-1.64-.24-.45-.57-.79-.98-1.01a2.66 2.66 0 0 0-1.33-.34c-.47 0-.91.11-1.31.34-.41.22-.73.56-.96 1.01-.24.44-.36.99-.36 1.64 0 .95.25 1.69.74 2.22.49.52 1.1.78 1.85.78zm8.29-6.15c.26-.46.62-.81 1.07-1.06.45-.26.98-.38 1.59-.38v1.9h-.47c-.72 0-1.27.19-1.64.55-.37.37-.55 1-.55 1.91v4.69h-1.85v-8.91h1.85v1.3zm6.2 0c.27-.46.63-.81 1.07-1.06.45-.26.98-.38 1.6-.38v1.9h-.47c-.73 0-1.27.19-1.64.55-.38.37-.56 1-.56 1.91v4.69h-1.84v-8.91h1.84v1.3zm12.52 2.93c0 .34-.02.64-.06.91h-6.81c.06.71.32 1.28.8 1.71.47.43 1.05.65 1.74.65.99 0 1.69-.42 2.1-1.25h1.99c-.27.82-.76 1.49-1.46 2.02-.71.52-1.58.78-2.63.78-.85 0-1.61-.19-2.29-.57-.67-.39-1.2-.92-1.58-1.62-.38-.69-.57-1.5-.57-2.41 0-.92.18-1.73.55-2.42.38-.69.9-1.23 1.57-1.61.68-.37 1.45-.56 2.32-.56.84 0 1.59.18 2.25.55.65.36 1.16.88 1.53 1.54.37.66.55 1.42.55 2.28zm-1.92-.58c-.01-.68-.26-1.22-.73-1.63-.47-.41-1.06-.61-1.76-.61-.64 0-1.18.2-1.63.6-.45.41-.72.95-.81 1.64h4.93zm5.88-2.14v4.92c0 .34.08.58.23.72.16.15.43.22.8.22h1.14v1.54h-1.46c-.83 0-1.46-.2-1.91-.59-.44-.38-.66-1.01-.66-1.89v-4.92h-1.05v-1.51h1.05v-2.21h1.86v2.21h2.17v1.51h-2.17zm7.72 7.54c-.84 0-1.6-.19-2.27-.57-.68-.39-1.22-.92-1.61-1.62-.38-.69-.58-1.5-.58-2.41 0-.91.2-1.71.6-2.41.4-.7.94-1.24 1.63-1.62.69-.37 1.46-.56 2.31-.56.85 0 1.62.19 2.31.56.69.38 1.24.92 1.64 1.62.39.7.59 1.5.59 2.41 0 .9-.2 1.7-.61 2.4s-.97 1.24-1.67 1.63c-.71.38-1.49.57-2.34.57zm0-1.6c.48 0 .92-.11 1.34-.34.41-.22.75-.56 1.01-1.02.25-.45.38-1 .38-1.64 0-.65-.12-1.2-.37-1.64-.25-.45-.57-.79-.98-1.01a2.66 2.66 0 0 0-1.33-.34c-.47 0-.91.11-1.31.34-.41.22-.73.56-.97 1.01-.23.44-.35.99-.35 1.64 0 .95.24 1.69.73 2.22.49.52 1.11.78 1.85.78zm8.29-6.15c.27-.46.63-.81 1.08-1.06.44-.26.97-.38 1.59-.38v1.9h-.47c-.72 0-1.27.19-1.64.55-.37.37-.56 1-.56 1.91v4.69h-1.84v-8.91h1.84v1.3zm12.52 2.93c0 .34-.02.64-.06.91h-6.8c.05.71.31 1.28.79 1.71.47.43 1.05.65 1.74.65.99 0 1.69-.42 2.1-1.25h1.99c-.27.82-.75 1.49-1.46 2.02-.71.52-1.58.78-2.63.78-.85 0-1.61-.19-2.28-.57-.68-.39-1.2-.92-1.59-1.62-.38-.69-.57-1.5-.57-2.41 0-.92.19-1.73.56-2.42.37-.69.89-1.23 1.57-1.61.67-.37 1.44-.56 2.31-.56.84 0 1.59.18 2.25.55.66.36 1.17.88 1.53 1.54.37.66.55 1.42.55 2.28zm-1.92-.58c-.01-.68-.25-1.22-.73-1.63-.47-.41-1.06-.61-1.76-.61-.63 0-1.18.2-1.63.6-.45.41-.72.95-.81 1.64h4.93zm6.97 5.4c-.7 0-1.33-.13-1.89-.38-.55-.25-.99-.6-1.31-1.03-.33-.44-.5-.93-.52-1.47h1.91c.03.38.21.7.54.95.33.25.74.38 1.23.38.52 0 .92-.1 1.21-.3.28-.2.42-.46.42-.77 0-.33-.15-.58-.47-.74-.32-.16-.82-.34-1.51-.53-.67-.19-1.21-.36-1.63-.54-.42-.17-.79-.43-1.09-.79-.31-.35-.46-.82-.46-1.4 0-.48.13-.91.41-1.3.29-.4.69-.71 1.21-.93.52-.23 1.12-.34 1.8-.34 1.01 0 1.83.25 2.45.76.62.52.95 1.21.99 2.1h-1.84c-.03-.4-.19-.72-.48-.96-.3-.23-.69-.35-1.18-.35s-.86.09-1.12.27c-.26.19-.39.43-.39.73 0 .24.09.44.26.6.17.16.38.29.63.38.25.09.62.2 1.1.34.65.18 1.18.35 1.59.53.42.18.77.44 1.08.78.3.35.45.81.46 1.38 0 .5-.14.96-.42 1.35-.28.4-.67.71-1.18.94-.51.23-1.11.34-1.8.34zm17.75-4.82c0 .34-.02.64-.06.91h-6.8c.05.71.31 1.28.79 1.71.47.43 1.05.65 1.74.65.99 0 1.69-.42 2.1-1.25h1.99c-.27.82-.76 1.49-1.46 2.02-.71.52-1.58.78-2.63.78-.85 0-1.61-.19-2.28-.57-.68-.39-1.2-.92-1.59-1.62-.38-.69-.57-1.5-.57-2.41 0-.92.18-1.73.56-2.42.37-.69.89-1.23 1.56-1.61.68-.37 1.45-.56 2.32-.56.84 0 1.59.18 2.25.55.66.36 1.17.88 1.53 1.54.37.66.55 1.42.55 2.28zm-1.92-.58c-.01-.68-.25-1.22-.73-1.63-.47-.41-1.06-.61-1.76-.61-.63 0-1.18.2-1.63.6-.45.41-.72.95-.81 1.64h4.93zm8.87-4.83c-.33 0-.61-.11-.84-.34-.22-.22-.34-.5-.34-.84 0-.33.12-.61.34-.84.23-.22.51-.34.84-.34.32 0 .6.12.82.34.23.23.34.51.34.84 0 .34-.11.62-.34.84-.22.23-.5.34-.82.34zm.91 1.18v8.91h-1.85v-8.91h1.85zm13.2-.14c.7 0 1.33.14 1.88.43.55.29.99.73 1.31 1.3.32.57.47 1.26.47 2.06v5.26h-1.82v-4.98c0-.8-.2-1.41-.6-1.84-.4-.42-.94-.63-1.63-.63s-1.24.21-1.64.63c-.4.43-.61 1.04-.61 1.84v4.98h-1.82v-4.98c0-.8-.2-1.41-.6-1.84-.4-.42-.94-.63-1.63-.63s-1.24.21-1.64.63c-.41.43-.61 1.04-.61 1.84v4.98h-1.84v-8.91h1.84v1.02c.3-.37.69-.65 1.15-.86.46-.2.96-.3 1.49-.3.71 0 1.34.15 1.9.45.56.3.99.74 1.29 1.31.27-.54.69-.97 1.27-1.29.57-.31 1.18-.47 1.84-.47zm9.87 9.19c-.84 0-1.6-.19-2.28-.57-.68-.39-1.21-.92-1.6-1.62-.39-.69-.58-1.5-.58-2.41 0-.91.2-1.71.6-2.41.4-.7.94-1.24 1.63-1.62.69-.37 1.46-.56 2.31-.56.85 0 1.62.19 2.31.56.69.38 1.23.92 1.63 1.62.4.7.6 1.5.6 2.41 0 .9-.2 1.7-.61 2.4s-.97 1.24-1.68 1.63c-.7.38-1.48.57-2.33.57zm0-1.6c.47 0 .92-.11 1.33-.34.42-.22.75-.56 1.01-1.02.26-.45.39-1 .39-1.64 0-.65-.12-1.2-.37-1.64-.25-.45-.58-.79-.99-1.01a2.65 2.65 0 0 0-1.32-.34c-.48 0-.91.11-1.32.34-.4.22-.72.56-.96 1.01-.24.44-.36.99-.36 1.64 0 .95.25 1.69.74 2.22.49.52 1.11.78 1.85.78zm8.29-6.12c.31-.43.74-.79 1.28-1.06.55-.28 1.15-.41 1.82-.41.79 0 1.5.19 2.13.56.64.38 1.14.92 1.51 1.61.36.69.55 1.49.55 2.38 0 .9-.19 1.7-.55 2.4-.37.71-.87 1.26-1.51 1.65-.65.39-1.35.59-2.13.59-.69 0-1.3-.13-1.83-.4-.54-.27-.96-.62-1.27-1.04v1.3h-1.84V112.9h1.84v4.38zm5.41 3.08c0-.61-.13-1.14-.38-1.59-.25-.45-.59-.78-1-1.02-.41-.23-.86-.34-1.33-.34-.47 0-.91.12-1.32.35-.41.24-.75.58-1 1.04-.25.45-.38.98-.38 1.6 0 .61.13 1.15.38 1.6.25.46.59.81 1 1.05.41.23.85.35 1.32.35.47 0 .92-.12 1.33-.36.41-.24.75-.6 1-1.06.25-.46.38-1 .38-1.62zm4.64-5.59c-.33 0-.61-.11-.84-.34-.23-.22-.34-.5-.34-.84 0-.33.11-.61.34-.84.23-.22.51-.34.84-.34.32 0 .6.12.82.34.23.23.34.51.34.84 0 .34-.11.62-.34.84-.22.23-.5.34-.82.34zm.9 1.18v8.91h-1.84v-8.91h1.84zm4.27-3.05v11.96h-1.84V112.9h1.84zm3.36 1.87c-.33 0-.61-.11-.84-.34-.22-.22-.34-.5-.34-.84 0-.33.12-.61.34-.84.23-.22.51-.34.84-.34.32 0 .6.12.82.34.23.23.34.51.34.84 0 .34-.11.62-.34.84-.22.23-.5.34-.82.34zm.91 1.18v8.91h-1.85v-8.91h1.85zm1.81 4.41c0-.89.18-1.68.55-2.37.38-.69.88-1.23 1.52-1.61.64-.38 1.35-.57 2.13-.57.7 0 1.31.13 1.83.41.52.27.94.62 1.25 1.03v-1.3h1.86v8.91h-1.86v-1.33c-.31.42-.74.77-1.27 1.05-.54.28-1.16.42-1.85.42-.76 0-1.46-.2-2.1-.59-.63-.39-1.13-.94-1.51-1.65-.37-.7-.55-1.5-.55-2.4zm7.28.04c0-.62-.12-1.15-.38-1.6-.25-.46-.58-.8-.99-1.04a2.67 2.67 0 0 0-1.33-.35c-.47 0-.91.11-1.32.34-.41.24-.74.57-.99 1.02-.26.45-.38.98-.38 1.59 0 .62.12 1.16.38 1.62.25.46.58.82 1 1.06.41.24.85.36 1.31.36.48 0 .92-.12 1.33-.35.41-.24.74-.59.99-1.05.26-.45.38-.99.38-1.6zm-.74-6.84-3.57 1.76v-1.35l3.57-1.98v1.57zm6.87 3.69c.27-.46.62-.81 1.07-1.06.45-.26.98-.38 1.59-.38v1.9h-.47c-.72 0-1.26.19-1.64.55-.37.37-.55 1-.55 1.91v4.69h-1.85v-8.91h1.85v1.3zm5.3-2.48c-.34 0-.62-.11-.84-.34-.23-.22-.34-.5-.34-.84 0-.33.11-.61.34-.84.22-.22.5-.34.84-.34.32 0 .59.12.82.34.23.23.34.51.34.84 0 .34-.11.62-.34.84-.23.23-.5.34-.82.34zm.9 1.18v8.91h-1.84v-8.91h1.84zm1.81 4.41c0-.89.19-1.68.56-2.37.37-.69.88-1.23 1.52-1.61.64-.38 1.35-.57 2.12-.57.7 0 1.31.13 1.84.41.52.27.94.62 1.25 1.03v-1.3h1.86v8.91h-1.86v-1.33c-.31.42-.74.77-1.28 1.05s-1.15.42-1.84.42c-.77 0-1.47-.2-2.1-.59-.64-.39-1.14-.94-1.51-1.65-.37-.7-.56-1.5-.56-2.4zm7.29.04c0-.62-.13-1.15-.38-1.6-.25-.46-.59-.8-1-1.04a2.66 2.66 0 0 0-1.32-.35c-.47 0-.92.11-1.32.34-.41.24-.75.57-1 1.02-.25.45-.38.98-.38 1.59 0 .62.13 1.16.38 1.62.25.46.59.82 1 1.06a2.623 2.623 0 0 0 2.64.01c.41-.24.75-.59 1-1.05.25-.45.38-.99.38-1.6zm7.51 4.6c-.7 0-1.33-.13-1.88-.38-.56-.25-.99-.6-1.32-1.03-.32-.44-.49-.93-.51-1.47h1.9c.03.38.21.7.54.95.33.25.74.38 1.24.38.52 0 .92-.1 1.2-.3.29-.2.43-.46.43-.77 0-.33-.16-.58-.48-.74-.31-.16-.82-.34-1.51-.53-.66-.19-1.21-.36-1.63-.54-.42-.17-.78-.43-1.09-.79-.31-.35-.46-.82-.46-1.4 0-.48.14-.91.42-1.3.28-.4.68-.71 1.2-.93.53-.23 1.13-.34 1.81-.34 1.01 0 1.82.25 2.44.76.62.52.95 1.21 1 2.1H357c-.04-.4-.2-.72-.49-.96-.29-.23-.68-.35-1.18-.35-.48 0-.86.09-1.11.27-.26.19-.39.43-.39.73 0 .24.08.44.26.6.17.16.38.29.63.38.24.09.61.2 1.1.34.64.18 1.17.35 1.59.53.41.18.77.44 1.07.78.3.35.46.81.47 1.38 0 .5-.14.96-.42 1.35-.28.4-.68.71-1.19.94-.51.23-1.11.34-1.8.34zM10.41 0h391.17C407.34 0 412 4.66 412 10.41v259.17c0 5.76-4.66 10.42-10.42 10.42h-73.87v-3.04c.44-.5.92-.95 1.47-1.34-.08-.01-.14-.03-.17-.07-.04-.04-.05-.09-.04-.16-.48.33-.86.68-1.26 1.1v-2.14c.43-.5.92-.95 1.46-1.34-.08-.01-.13-.03-.17-.07-.03-.04-.04-.09-.03-.16-.48.33-.86.68-1.26 1.1v-.69h-.01v-1.6c-.1.07-.22.05-.35 0v2.3a8.03 8.03 0 0 0-1.28-1.12c.01.07 0 .12-.03.16-.03.04-.09.06-.17.07.55.4 1.04.86 1.48 1.36v2.14a8.03 8.03 0 0 0-1.28-1.12c.02.07.01.13-.03.17a.3.3 0 0 1-.17.07c.55.39 1.04.85 1.49 1.35V280H311.7v-3.04c.44-.5.92-.95 1.47-1.34-.08-.01-.14-.03-.17-.07-.04-.04-.05-.09-.04-.16-.48.33-.85.68-1.26 1.1v-2.14c.43-.5.92-.95 1.46-1.34-.08-.01-.13-.03-.17-.07-.03-.04-.04-.09-.03-.16-.48.33-.86.68-1.26 1.1v-.69l-.01-1.6c-.1.07-.22.05-.35 0v2.3a8.03 8.03 0 0 0-1.28-1.12c.02.07 0 .12-.03.16-.03.04-.09.06-.17.07.55.4 1.04.86 1.48 1.36l.01 2.14c-.42-.43-.8-.78-1.29-1.12.02.07.01.13-.03.17a.3.3 0 0 1-.17.07c.56.39 1.05.85 1.49 1.35V280h-65.66l-.01-3.04c.44-.5.92-.95 1.47-1.34-.08-.01-.14-.03-.17-.07-.03-.04-.04-.09-.03-.16-.48.33-.86.68-1.27 1.1v-3.74c-.1.07-.22.06-.36 0l.01 3.75a8.03 8.03 0 0 0-1.28-1.12c.01.07 0 .13-.03.17-.04.03-.09.06-.17.07.55.39 1.04.85 1.48 1.35V280h-7.53l-.01-3.04c.44-.5.92-.95 1.47-1.34-.08-.01-.14-.03-.17-.07-.03-.04-.04-.09-.03-.16-.48.33-.86.68-1.27 1.1v-3.74c-.1.07-.22.06-.36 0l.01 3.75a8.03 8.03 0 0 0-1.28-1.12c.01.07 0 .13-.03.17-.04.03-.09.06-.17.07.55.39 1.04.85 1.48 1.35l.01 3.03h-11.56c-2.63 0-4.84-2.22-4.84-4.85 0-2.63 2.21-4.71 4.84-4.71s4.71 2.08 4.71 4.71-2.08 4.85-4.71 4.85H207.2c-3.88 0-7.06-3.19-7.06-7.06 0-3.88 3.18-7.07 7.06-7.07 3.88 0 7.06 3.19 7.06 7.07 0 3.87-3.18 7.06-7.06 7.06H10.41C4.66 280 0 275.34 0 269.58V10.41C0 4.66 4.66 0 10.41 0zm150.67 247.52h-18.12V239c0-3.8-3.08-6.88-6.87-6.88h-15.32c-3.79 0-6.86 3.08-6.86 6.88v41h54.03v-25.6c0-3.8-3.08-6.87-6.86-6.87v-.01zm-33.93 26.99h-5.11v-5.13h5.11v5.13zm0-7.68h-5.11v-5.13h5.11v5.13zm0-7.68h-5.11v-5.13h5.11v5.13zm0-7.72h-5.11v-5.13h5.11v5.13zm0-7.69h-5.11v-5.12h5.11v5.12zm7.67 30.77h-5.11v-5.13h5.11v5.13zm0-7.68h-5.11v-5.13h5.11v5.13zm0-7.68h-5.11v-5.13h5.11v5.13zm0-7.72h-5.11v-5.13h5.11v5.13zm0-7.69h-5.11v-5.12h5.11v5.12zm17.31 30.77h-5.11v-5.13h5.11v5.13zm0-7.68h-5.11v-5.13h5.11v5.13zm0-7.68h-5.11v-5.13h5.11v5.13zm7.67 15.36h-5.11v-5.13h5.11v5.13zm0-7.68h-5.11v-5.13h5.11v5.13zm0-7.68h-5.11v-5.13h5.11v5.13zM9.55 279.96V239c0-3.8 3.07-6.88 6.86-6.88h15.31c3.79 0 6.86 3.08 6.86 6.88v40.96H9.55zm13.24-41.35h-5.11v5.12h5.11v-5.12zm0 7.68h-5.11v5.12h5.11v-5.12zm0 7.71h-5.11v5.13h5.11V254zm0 7.68h-5.11v5.12h5.11v-5.12zm0 7.68h-5.11v5.12h5.11v-5.12zm7.67-30.75h-5.12v5.12h5.12v-5.12zm0 7.68h-5.12v5.13h5.12v-5.13zm0 7.72h-5.12v5.12h5.12v-5.12zm0 7.67h-5.12v5.13h5.12v-5.13zm0 7.68h-5.12v5.12h5.12v-5.12zm298.86 5.93c1.11-2.33 3.81-1.97 5.36.53-2.47.85-3.64.03-5.36-.53zm-3.71-2.83c-1.01-2.12-3.47-1.8-4.88.48 2.25.78 3.31.03 4.88-.48zm3.6 0c1.01-2.12 3.47-1.8 4.88.48-2.25.78-3.31.03-4.88-.48zm-3.49 2.83c-1.11-2.33-3.81-1.98-5.35.52 2.47.86 3.63.03 5.35-.52zm4.09-8.3c-1.11.58-1.74.46-2.2 1.15-.08.11-.07.21.02.33.15.19.24.33.33.48.09.15.15.27.2.43.02.05.04.24.32.09 1.52-.8 1.26-1.95 1.33-2.48zm-5.28.32c2.58.15 4.29 2.57 2.88 3.79-3-.72-1.88-2.57-2.88-3.79zM207.2 275.7c1.52 0 2.77-1.24 2.77-2.76 0-1.53-1.25-2.77-2.77-2.77s-2.77 1.24-2.77 2.77c0 1.52 1.25 2.76 2.77 2.76zm9.14-12.18-1.66-5.54h-6.24l-.55 5.54h8.45zm-9.14-6.93h8.45l2.21 6.93 9.14 1.8.56 3.88c-.56-.14-1.11-.28-1.67-.28-3.04 0-5.67 2.22-6.09 5.12h-4.29c.14-.27.14-.69.14-1.1 0-4.71-3.74-8.45-8.45-8.45h-.83l.83-7.9zm18.69 20.5c1.11 0 1.94-.83 1.94-1.94 0-1.11-.83-1.94-1.94-1.94-1.1 0-1.93.83-1.93 1.94 0 1.11.83 1.94 1.93 1.94zm87.42-1.8c1.11-2.33 3.81-1.97 5.36.53-2.47.85-3.64.03-5.36-.53zm-3.71-2.83c-1.01-2.12-3.47-1.8-4.88.48 2.25.78 3.31.03 4.88-.48zm3.6 0c1.01-2.12 3.47-1.8 4.88.48-2.25.78-3.31.03-4.88-.48zm-3.49 2.83c-1.11-2.33-3.8-1.98-5.35.52 2.47.86 3.63.03 5.35-.52zm4.09-8.3c-1.11.58-1.74.46-2.2 1.15-.08.11-.07.21.02.33.16.19.24.33.33.48.09.15.15.27.2.43.02.05.05.24.32.09 1.52-.8 1.26-1.95 1.33-2.48zm-5.28.32c2.58.15 4.29 2.57 2.88 3.79-3-.72-1.88-2.57-2.88-3.79zm74.75-7.92c-.08-.21-.55-.83-.75-1.13-.19-.31-1.15-1.49-1.35-1.74-.21-.25-.95-1.13-1.26-1.44-.16-.15-.34-.28-.54-.38.03-.07.04-.14.04-.17-.03-.13-.08-.32-.02-.46s.14-.5.11-.67c-.03-.18-.02-.47-.03-.59-.01-.12-.1-.11-.11-.01-.01.09-.06.34-.15.52-.08.15-.22.29-.36.47.03-.14.05-.31.03-.41-.03-.18-.02-.47-.03-.59-.01-.12-.1-.11-.11-.01-.01.1-.06.35-.15.53-.09.18-.29.35-.45.59-.09.12-.17.28-.28.49-.04 0-.07.01-.11.01-.34.07-1.67.52-1.98.67-.32.15-2 .78-2.42 1.03-.42.24-2.51 1.38-2.88 1.66-.37.28-3.9 2.41-4.96 2.59-1.59.26-4.17-.03-5.19-.24-1.03-.2-2.1-.34-2.65-.33-.55.02-2.11.42-2.74.59-.37.1-.94.42-1.34.66-.31.19-.58.44-.78.74-.37.56-.51.97-.8 2.35-.35 1.71-1.06 5.38-1.13 6.19-.07.8-.08 2.41.39 3.63.12.32.26.53.41.65-.11.74-.01 1.48-.38 2.17-.27.5.17 1.02.38 1.4.21.38-.11 1.23-.19 1.38-.07.16.19.36.71.41.51.05 1.32.01 1.46-.06.14-.07-.03-.36-.27-.75-.24-.4-.7-.64-.73-.93-.03-.28 0-1.07.04-1.24.04-.18.06-.79.1-1.02.04-.23.22-2.28.52-2.79.15-.26.49-.95.84-1.6.18.74.22 2 .16 2.51-.05.53.13 2.1-.14 2.87-.18.53.3.99.55 1.34.25.35.04 1.23-.02 1.4-.05.17.23.33.75.32.52-.02 1.32.03 1.45-.05.13-.09-.08-.54-.36-.91-.29-.36-.77-.54-.84-.82-.06-.28-.12-1.07-.11-1.25.02-.18-.04-.78-.03-1.01.01-.24-.05-2.29.18-2.84.23-.54.97-2.67 1.31-3.21.15-.25.42-.92.69-1.7.21-.58.87-.86 1.43-.6.6.29 1.29.6 1.79.76 1 .33 2.59.73 4.35.63 1.63-.11 2.35-.06 2.56-.12-.01.4 0 .83.01 1.1.02.55-.04 1.67-.16 2.39-.12.71-.03.97.03 1.23s-.03 1.04-.07 1.29c-.03.25-.4 2.31-.44 2.67-.04.35.14.46.31.53.18.08.37.46.43.54.05.08.32.38.25.46-.06.07-.37.15-.23.47.13.33.55.34.65.36.1.02.96-.01 1.24-.03.27-.01.17-.11.13-.16a4.71 4.71 0 0 0-.56-.56c-.06-.41-.7-.74-.85-1.29-.15-.55.11-2.39.14-2.85.03-.47.25-.79.34-1.72.06-.59.28-1.18.41-1.31.05.11.07.07.11.49.05.72.01.97.08 1.23s.01 1.04-.01 1.29c-.03.25-.3 2.33-.33 2.69-.02.35.16.45.34.52.18.07.39.44.45.52.05.08.33.37.27.45-.06.07-.37.16-.22.48.16.32.57.31.67.32.11.02.97-.04 1.24-.07.27-.03.17-.12.13-.17-.04-.05-.36-.37-.59-.53-.07-.41-.73-.71-.91-1.26-.17-.54.01-2.39.02-2.85.01-.47.2-.8.27-1.74.06-.93.37-2.54.73-3.63.23-.68.35-1.24.4-1.66.44-.45 1.21-1.46 1.39-2.84.16-1.27 2.8-5.53 3.19-5.91.38-.39.89-.48.98-.37.31.41 1.19.32 1.27.32.08 0 .1.09.2.17.1.09.62.49.85.52.22.03.82.46.95.57.13.1.06.27.2.44.14.18.93.2 1.06.18.14-.01.14-.2.3-.2.16-.01.4-.13.52-.3.12-.18-.1-.35.07-.6.17-.26.2-.46.13-.67z" style="fill:#686af1"/><path d="M29.71 208.17c.45 0 .83.38.83.84 0 .45-.38.83-.83.83h-1.98v1.99c0 .45-.38.83-.83.83-.47 0-.84-.38-.84-.83v-1.99h-1.98a.834.834 0 0 1 0-1.67h1.98v-1.98c0-.46.37-.83.84-.83.45 0 .83.37.83.83v1.98h1.98zm323.57 60.46c-.03-.81-.09-1.62-.09-1.99 0-.12-.01-.25-.02-.38.18.67.34 1.25.41 1.47-.06.28-.16.59-.3.9zm-226.13 5.88h-5.11v-5.13h5.11v5.13zm0-7.68h-5.11v-5.13h5.11v5.13zm7.67 7.68h-5.11v-5.13h5.11v5.13zm0-7.68h-5.11v-5.13h5.11v5.13zm-112.03-5.15h-5.11v5.12h5.11v-5.12zm0 7.68h-5.11v5.12h5.11v-5.12zm7.67-7.68h-5.12v5.13h5.12v-5.13zm0 7.68h-5.12v5.12h5.12v-5.12zm298.86 5.93c1.11-2.33 3.81-1.97 5.36.53-2.47.85-3.64.03-5.36-.53zm-3.71-2.83c-1.01-2.12-3.47-1.8-4.88.48 2.25.78 3.31.03 4.88-.48zm3.6 0c1.01-2.12 3.47-1.8 4.88.48-2.25.78-3.31.03-4.88-.48zm-3.49 2.83c-1.11-2.33-3.81-1.98-5.35.52 2.47.86 3.63.03 5.35-.52zm4.09-8.3c-1.11.58-1.74.46-2.2 1.15-.08.11-.07.21.02.33.15.19.24.33.33.48.09.15.15.27.2.43.02.05.04.24.32.09 1.52-.8 1.26-1.95 1.33-2.48zm-5.28.32c2.58.15 4.29 2.57 2.88 3.79-3-.72-1.88-2.57-2.88-3.79zm-11.22 7.98c1.11-2.33 3.81-1.97 5.36.53-2.47.85-3.64.03-5.36-.53zm-.11-2.83c1.01-2.12 3.47-1.8 4.88.48-2.25.78-3.31.03-4.88-.48zm.6-5.47c-1.11.58-1.74.46-2.2 1.15-.08.11-.07.21.02.33.16.19.24.33.33.48.09.15.15.27.2.43.02.05.05.24.32.09 1.52-.8 1.26-1.95 1.33-2.48zm-5.28.32c2.58.15 4.29 2.57 2.88 3.79-3-.72-1.88-2.57-2.88-3.79zm95.84-45.12c.46 0 .84.37.84.84 0 .45-.38.83-.84.83h-1.97v1.99c0 .45-.38.83-.84.83-.46 0-.84-.38-.84-.83v-1.99h-1.97c-.46 0-.84-.38-.84-.83 0-.47.38-.84.84-.84h1.97v-1.98c0-.46.38-.84.84-.84.46 0 .84.38.84.84v1.98h1.97zm7.5-10.96v24.02h-7.31c-10.2 0-18.54 8.36-18.54 18.58 0 10.22 8.34 18.58 18.54 18.58l7.31.01c-.44 6.08-4.93 7.82-9.57 7.48h-30.08c.14-.04.06-.11.03-.15-.04-.05-.36-.37-.59-.53-.07-.41-.73-.71-.91-1.26-.17-.54.01-2.39.02-2.85.01-.47.2-.8.27-1.74.06-.93.37-2.54.73-3.63.23-.68.35-1.24.4-1.66.44-.45 1.21-1.46 1.39-2.84.16-1.27 2.8-5.53 3.19-5.91.38-.39.89-.48.98-.37.31.41 1.19.32 1.27.32.08 0 .1.09.2.17.1.09.62.49.85.52.22.03.82.46.95.57.13.1.06.27.2.44.14.18.93.2 1.06.18.14-.01.14-.2.3-.2.16-.01.4-.13.52-.3.12-.18-.1-.35.07-.6.17-.26.2-.46.13-.67-.08-.21-.55-.83-.75-1.13-.19-.31-1.15-1.49-1.35-1.74-.21-.25-.95-1.13-1.26-1.44-.16-.15-.34-.28-.54-.38.03-.07.04-.14.04-.17-.03-.13-.08-.32-.02-.46s.14-.5.11-.67c-.03-.18-.02-.47-.03-.59-.01-.12-.1-.11-.11-.01-.01.09-.06.34-.15.52-.08.15-.22.29-.36.47.03-.14.05-.31.03-.41-.03-.18-.02-.47-.03-.59-.01-.12-.1-.11-.11-.01-.01.1-.06.35-.15.53-.09.18-.29.35-.45.59-.09.12-.17.28-.28.49-.04 0-.07.01-.11.01-.34.07-1.67.52-1.98.67-.32.15-2 .78-2.42 1.03-.42.24-2.51 1.38-2.88 1.66-.37.28-3.9 2.41-4.96 2.59-1.28.21-3.19.06-4.43-.11a.826.826 0 0 0-.73-.44c-.22 0-.42.08-.57.21-.84-.15-1.66-.24-2.11-.23-.55.02-2.11.42-2.74.59-.37.1-.94.42-1.34.66-.31.19-.58.44-.78.74-.37.56-.51.97-.8 2.35-.35 1.71-1.06 5.38-1.13 6.19-.07.8-.08 2.41.39 3.63.12.32.26.53.41.65-.11.74-.01 1.48-.38 2.17-.27.5.17 1.02.38 1.4.21.38-.11 1.23-.19 1.38-.06.13.09.28.41.36h-24.19v-2.94c.44-.5.92-.95 1.47-1.34-.08-.01-.14-.03-.17-.07-.04-.04-.05-.09-.04-.16-.48.33-.86.68-1.26 1.1v-2.14c.43-.5.92-.95 1.46-1.34-.08-.01-.13-.03-.17-.07-.03-.04-.04-.09-.03-.16-.48.33-.86.68-1.26 1.1v-.69h-.01v-1.6c-.1.07-.22.05-.35 0v2.3a8.03 8.03 0 0 0-1.28-1.12c.01.07 0 .12-.03.16-.03.04-.09.06-.17.07.55.4 1.04.86 1.48 1.36v2.14a8.03 8.03 0 0 0-1.28-1.12c.02.07.01.13-.03.17a.3.3 0 0 1-.17.07c.55.39 1.04.85 1.49 1.35v2.93h-9.99c4.97-2.1 8.64-3.38 5.24-3.38h-8.69v-.24c-.45-.04-.89-.11-1.32-.21.18-.16.37-.31.57-.45-.08-.01-.14-.03-.17-.07-.04-.04-.05-.09-.04-.16-.26.18-.5.38-.73.58-.18-.05-.36-.11-.53-.17v-1.45c.43-.5.92-.95 1.46-1.34-.08-.01-.13-.03-.17-.07-.03-.04-.04-.09-.03-.16-.48.33-.86.68-1.26 1.1v-.69l-.01-1.6c-.1.07-.22.05-.35 0v2.3a8.03 8.03 0 0 0-1.28-1.12c.02.07 0 .12-.03.16-.03.04-.09.06-.17.07.55.4 1.04.86 1.48 1.36v1.3a9.136 9.136 0 0 1-3.53-2.57c.59-.17 1.15-.42 1.79-.63-.64-1.33-1.84-1.7-2.99-1.23a8.802 8.802 0 0 1-.91-3.93c0-4.28 3.02-7.89 7.02-8.8h27.86c8.05 0 14.64-6.6 14.64-14.67s-6.59-14.67-14.64-14.67h-19.85c-4.3-.67-7.62-4.42-7.62-8.91 0-4.96 4.05-9.02 9.01-9.02h89.74zm-41.42 68.67h-.63l.09-.01c.27-.01.17-.11.13-.16a4.71 4.71 0 0 0-.56-.56c-.06-.41-.7-.74-.85-1.29-.15-.55.11-2.39.14-2.85.03-.47.25-.79.34-1.72.06-.59.28-1.18.41-1.31.05.11.07.07.11.49.05.72.01.97.08 1.23s.01 1.04-.01 1.29c-.03.25-.3 2.33-.33 2.69-.02.35.16.45.34.52.18.07.39.44.45.52.05.08.33.37.27.45-.06.07-.37.16-.22.48.06.11.15.18.24.23zm-1.9 0h-11.6c.05-.15-.14-.53-.39-.86-.29-.36-.77-.54-.84-.82-.06-.28-.12-1.07-.11-1.25.02-.18-.04-.78-.03-1.01.01-.24-.05-2.29.18-2.84.23-.54.97-2.67 1.31-3.21.15-.25.42-.92.69-1.7.21-.58.87-.86 1.43-.6.6.29 1.29.6 1.79.76 1 .33 2.59.73 4.35.63 1.63-.11 2.35-.06 2.56-.12-.01.4 0 .83.01 1.1.02.55-.04 1.67-.16 2.39-.12.71-.03.97.03 1.23s-.03 1.04-.07 1.29c-.03.25-.4 2.31-.44 2.67-.04.35.14.46.31.53.18.08.37.46.43.54.05.08.32.38.25.46-.06.07-.37.15-.23.47.1.25.36.31.53.34zm-13.68 0h-1.23l.03-.01c.14-.07-.03-.36-.27-.75-.24-.4-.7-.64-.73-.93-.03-.28 0-1.07.04-1.24.04-.18.06-.79.1-1.02.04-.23.22-2.28.52-2.79.15-.26.49-.95.84-1.6.18.74.22 2 .16 2.51-.05.53.13 2.1-.14 2.87-.18.53.3.99.55 1.34.25.35.04 1.23-.02 1.4-.02.08.03.16.15.22zm19.22-56.77c1.29 0 2.32 1.04 2.32 2.32a2.315 2.315 0 1 1-4.63 0 2.32 2.32 0 0 1 2.31-2.32zm-111.38 4.84h-2.89v-2.9c0-.67-.54-1.22-1.22-1.22-.66 0-1.22.55-1.22 1.22v2.9h-2.88c-.67 0-1.22.55-1.22 1.22 0 .66.55 1.22 1.22 1.22h2.88v2.89c0 .67.56 1.22 1.22 1.22.68 0 1.22-.55 1.22-1.22v-2.89h2.89c.67 0 1.21-.56 1.21-1.22 0-.67-.54-1.22-1.21-1.22zm24.93 31.1c4.58 0 8.3 3.72 8.3 8.31a8.305 8.305 0 1 1-16.61 0c0-4.59 3.71-8.31 8.31-8.31zM113.91 279.9H38.58v-21.51h75.33v21.51zm-104.36.01c-7.03.76-9.99-3.62-9.5-9.58v-56.67a2.31 2.31 0 0 0 1.69-2.23c0-1.06-.71-1.96-1.69-2.23v-11.99h68.92c6.73 0 12.23 5.51 12.23 12.25 0 5.57-3.77 10.31-8.89 11.77H29.9c-7.93 0-14.74 5.06-17.38 12.11A6.875 6.875 0 0 0 9.55 239v40.91zM17.97 254c1.44 1.22 3.06 2.22 4.82 2.96v2.17h-5.11V254h.29zm7.37 3.82c1.46.37 2.99.57 4.56.57h.56v.74h-5.12v-1.31zm96.7.57h5.11v.76h-5.11v-.76zm7.67 0h5.11v.76h-5.11v-.76zm17.31 3.92c1.13 1.3 2 2.83 2.51 4.52h-2.51v-4.52zm2.99 7.07c.02.32.04.65.04.97 0 1.46-.26 2.86-.73 4.16h-2.3v-5.13h2.99zm-49.19-72.89c6.09 0 11.04 5.33 11.04 11.91 0 6.57-4.95 11.91-11.04 11.91-6.1 0-11.04-5.34-11.04-11.91 0-6.58 4.94-11.91 11.04-11.91zM72.8 243.68c.67 0 1.21.55 1.21 1.22 0 .68-.54 1.22-1.21 1.22h-2.89v2.89c0 .67-.54 1.23-1.22 1.23-.66 0-1.22-.56-1.22-1.23v-2.89h-2.88c-.67 0-1.22-.54-1.22-1.22 0-.67.55-1.22 1.22-1.22h2.88v-2.88c0-.68.56-1.22 1.22-1.22.68 0 1.22.54 1.22 1.22v2.88h2.89z" style="fill:#797bf7"/><path d="M379.26 268.54c.19-.07.39-.08.58-.05-.49.28-.97.67-1.33 1.18-.07-.47.24-.95.75-1.13zm-270.84-8.04c0 .19-.01.37-.04.55.49.67.78 1.49.78 2.39 0 .46-.08.91-.22 1.33.82.91 1.32 2.13 1.32 3.45 0 2.6-1.92 4.74-4.41 5.1V280h-1.47v-6.68c-2.5-.36-4.42-2.5-4.42-5.1 0-1.32.5-2.53 1.33-3.45a4.021 4.021 0 0 1 .55-3.72c-.02-.18-.04-.36-.04-.55a3.31 3.31 0 0 1 3.31-3.32c1.84 0 3.32 1.48 3.32 3.32h-.01zm-57.69 0c0 .19-.02.37-.05.55.49.67.78 1.49.78 2.39 0 .46-.08.91-.22 1.33.82.91 1.33 2.13 1.33 3.45 0 2.6-1.92 4.74-4.42 5.1V280h-1.47v-6.68c-2.5-.36-4.42-2.5-4.42-5.1 0-1.32.5-2.53 1.33-3.45-.14-.42-.22-.87-.22-1.33 0-.9.28-1.72.78-2.39a3.31 3.31 0 0 1 3.26-3.87c1.84 0 3.32 1.48 3.32 3.32zm5.48 19.5v-24.89l11.08 3.5v-3.5l11.09 3.5v-3.5l10.68 3.38v-10.94h7.26V280H56.21zm11.11-14.5h-5.11v5.12h5.11v-5.12zm7.66 0h-5.11v5.12h5.11v-5.12zm7.67 0h-5.11v5.12h5.11v-5.12zm7.66 0h-5.1v5.12h5.1v-5.12zm89.87-5.01c0 .2-.01.38-.04.56.49.67.78 1.49.78 2.39 0 .46-.08.91-.22 1.33.82.91 1.32 2.13 1.32 3.45 0 2.6-1.92 4.74-4.41 5.1V280h-1.48v-6.68a5.153 5.153 0 0 1-4.41-5.1c0-1.32.5-2.54 1.32-3.45-.14-.42-.22-.87-.22-1.33 0-.9.29-1.72.78-2.39-.03-.18-.04-.36-.04-.56 0-1.83 1.48-3.31 3.31-3.31s3.31 1.48 3.31 3.31zm8.02 12.04v-.43h-.88v.43h.88zm5.63 0v-.43h-.89v.43h.89zm1.8 2.35-1.8.38v-1.27h-.89v1.47l-1.81.42s-.35 4.12 5.2 4.12c-.77-.73-1.54-2.85-.7-5.12zm-9.74-2.12h10.9v1h-10.9v-1zm11.13-.58h2.89v2.16h-2.89v-2.16zm.96 2.39v.46h.97v-.46h-.97zm.97-3.08h-.97v.46h.97v-.46zm-8.94 3.39-1.81.38v-1.27h-.88v1.47l-1.81.42s-.35 4.12 5.2 4.12c-.77-.73-1.55-2.85-.7-5.12zm112.82-2.67-3.25 5.68h-6.65l-3.24-5.68.97-1.62-2.76-1.62c-.32-1.95-1.13-3.57-2.27-5.03l.33-.16 6.32 4.06.65-1.3h6.65l3.25 5.67zm-35.36-18.97-8.11.64-3.9-9.4-7.78 1.46-.33-2.76 8.11-2.59 3.9 1.29 8.11 11.36zm8.43-.98v-7.46l10.54.81 1.46 6.65h-12zm11.84-8.11-13.62-1.13v11.19l-25.31 2.11v11.03l2.92 1.94c1.3-1.45 3.25-2.43 5.52-2.43 3.89 0 7.14 3.08 7.3 6.81h2.43c-.32-.81-.49-1.78-.49-2.92 0-5.84 4.87-10.7 10.87-10.7 2.59 0 5.19.97 6.97 2.59l1.3-.48 4.22-8.6-2.11-9.41zm-30.49 32.44c-1.46 0-2.44-.97-2.44-2.43 0-1.3.98-2.43 2.44-2.43 1.3 0 2.43 1.13 2.43 2.43 0 1.46-1.13 2.43-2.43 2.43zm0-8.11c-3.24 0-5.84 2.6-5.84 5.68 0 3.24 2.6 5.84 5.84 5.84 3.08 0 5.67-2.6 5.67-5.84 0-3.08-2.59-5.68-5.67-5.68zm20.11 7.14c-2.76 0-4.87-2.11-4.87-4.87 0-2.59 2.11-4.7 4.87-4.7 2.59 0 4.7 2.11 4.7 4.7 0 2.76-2.11 4.87-4.7 4.87zm0-13.95c-5.03 0-9.24 4.05-9.24 9.08s4.21 9.25 9.24 9.25 9.08-4.22 9.08-9.25a9.06 9.06 0 0 0-9.08-9.08zm67.16-1.17c0 .19-.01.37-.04.55.49.67.78 1.49.78 2.39 0 .46-.08.91-.22 1.33.82.91 1.32 2.13 1.32 3.45 0 2.6-1.92 4.74-4.41 5.1V280h-1.47v-6.68c-2.5-.36-4.42-2.5-4.42-5.1 0-1.32.5-2.53 1.32-3.45-.14-.42-.22-.87-.22-1.33 0-.9.29-1.72.78-2.39-.03-.18-.04-.36-.04-.55a3.31 3.31 0 1 1 6.62 0zm33.34 11.97c.24 1.69.85 2.8.91 3.16.05.36 0 .84 0 1.17-.01.34.31.98.36 1.27.05.29.01 1.34-.01 1.51-.01.18.03.41.27.13.25.25.95.49.8-.02-.1-.31-.22-1.82-.13-2.12.09-.29.3-.73.43-1.02.13-.3.39-1.09.43-1.22.04-.13.06.31 0 .6-.06.28.01.53.25.69.12.07.15.54.21.83a19 19 0 0 1 .21 1.65c.03.37.17.91.37.55.13.21.91.53.69-.02-.22-.55-.26-1.66-.26-1.95 0-.39.07-1.11.17-1.47.03-.1.05-.17.06-.22.08-.29.41-.44.68-.29.5.27 1.05.78 3.28.81 3.29.04 5.09-1.64 5.23-1.34.01.03.02.05.03.07.11.22.18.46.21.71.05.46.09.9.08 1.24 0 .31-.04 1.05-.17 1.44-.13.39.08 1.03.29.6.06.31.47.52.79.64.31.11-.02-.61-.04-.8-.02-.16-.02-.72.14-1.25.03.08.06.15.09.23.1.29.26.82.28 1.24.01.41.42.92.47.43.16.27.62.29.95.27.33-.02-.23-.56-.31-.72-.08-.16-.25-.6-.25-1.3-.01-.69.12-2.32.32-2.8.19-.49 1.65-.54 2.21-.56h.19c.27 0 .54.05.8.15.53.18 1.25.06 1.38.04.16-.03.69 0 .98-.11.29-.11.69-.31.92-.35.22-.04.48-.05.79-.12.11-.02.12-.16.08-.21.04-.04.03-.03.12-.15s.05-.3.08-.39c.03-.09.18-.29.2-.53.02-.23-.05-.24-.1-.26-.06-.02-.17.07-.28.04-.1-.03-.74-.49-1.06-.72-.32-.24-.61-.64-.69-.93-.31-1.14-.49-1.04-.54-1.34-.05-.29.23-.59.41-1.15.17-.55.01-.89-.1-1.21-.11-.32-.3-.26-.44-.2-.13.07-.18.32-.26.5-.03.07-.14.23-.26.43-.08-.35-.26-.56-.41-.77-.2-.27-.36-.17-.47-.07-.11.1-.09.36-.11.56-.01.11-.16.49-.22.85-.7-.27-2.02-.75-3.86-.85-1.92-.11-4.27.38-6.17.32-1.9-.07-4.77-.36-6.03-.3-.33.02-.79.11-1.28.3-.4-.29-.97-.38-1.51-.19-.85.29-1.33 1.14-1.07 1.9.05.13.12.25.2.36-.3.61-.44 1.36-.33 2.26z" class="fil2"/><g id="_1601102280384"><path d="M12.23 36.96c0-1.59.33-3.01.99-4.25a7.146 7.146 0 0 1 2.83-2.91c1.22-.7 2.63-1.04 4.22-1.04 2.02 0 3.71.53 5.09 1.61 1.37 1.08 2.26 2.54 2.66 4.39h-4.84c-.29-.61-.69-1.08-1.2-1.4-.51-.32-1.11-.48-1.78-.48-1.04 0-1.87.37-2.49 1.11-.61.74-.92 1.73-.92 2.97 0 1.25.31 2.25.92 2.99.62.74 1.45 1.11 2.49 1.11.67 0 1.27-.16 1.78-.48.51-.32.91-.79 1.2-1.4h4.84c-.4 1.85-1.29 3.31-2.66 4.39-1.38 1.08-3.07 1.62-5.09 1.62-1.59 0-3-.35-4.22-1.05a7.146 7.146 0 0 1-2.83-2.91c-.66-1.24-.99-2.66-.99-4.27zm23.9 8.27c-1.29 0-2.44-.26-3.45-.8a5.882 5.882 0 0 1-2.4-2.29c-.58-.99-.87-2.16-.87-3.51 0-1.33.3-2.49.89-3.48.58-.99 1.39-1.76 2.4-2.29 1.02-.54 2.17-.8 3.45-.8 1.28 0 2.43.26 3.45.8 1.02.53 1.82 1.3 2.41 2.29.58.99.88 2.15.88 3.48s-.3 2.5-.88 3.5c-.59 1-1.4 1.77-2.42 2.3-1.03.54-2.18.8-3.46.8zm0-3.89c.62 0 1.15-.24 1.57-.7.42-.47.63-1.14.63-2.01 0-.87-.21-1.53-.63-1.99-.42-.46-.94-.69-1.55-.69-.61 0-1.12.23-1.54.69-.41.46-.61 1.12-.61 1.99 0 .89.19 1.56.59 2.02.4.46.91.69 1.54.69zm25.39-9.24c1.62 0 2.89.49 3.81 1.47.93.98 1.39 2.31 1.39 4.01v7.49h-4.49v-6.89c0-.69-.19-1.23-.57-1.61-.39-.38-.91-.57-1.56-.57-.66 0-1.18.19-1.56.57-.38.38-.57.92-.57 1.61v6.89h-4.49v-6.89c0-.69-.19-1.23-.57-1.61-.37-.38-.89-.57-1.54-.57-.68 0-1.2.19-1.58.57-.39.38-.58.92-.58 1.61v6.89h-4.49V32.22h4.49v1.69c.4-.55.91-.99 1.55-1.32.63-.32 1.36-.49 2.19-.49.94 0 1.79.21 2.53.62.74.41 1.32.99 1.75 1.74.46-.7 1.07-1.27 1.81-1.7a4.82 4.82 0 0 1 2.48-.66zm19.94 6.4c0 .35-.03.7-.07 1.05h-8.5c.04.7.24 1.23.58 1.57.34.34.78.52 1.32.52.75 0 1.28-.34 1.6-1.01h4.79c-.2.88-.58 1.67-1.16 2.37a6.02 6.02 0 0 1-2.16 1.64c-.87.4-1.84.59-2.89.59-1.27 0-2.39-.26-3.38-.8a5.66 5.66 0 0 1-2.31-2.29c-.56-.99-.84-2.16-.84-3.51 0-1.34.28-2.51.82-3.49.55-.99 1.32-1.75 2.31-2.28.98-.54 2.12-.8 3.4-.8 1.27 0 2.39.26 3.37.78s1.74 1.26 2.29 2.23.83 2.11.83 3.43zm-4.59-1.13c0-.55-.18-.98-.55-1.29-.36-.32-.82-.47-1.37-.47-.55 0-1 .15-1.35.45-.36.29-.58.73-.69 1.31h3.96zm5.69 1.26c0-1.33.27-2.49.82-3.48.55-.99 1.32-1.76 2.3-2.29.99-.54 2.12-.8 3.38-.8 1.64 0 3.01.44 4.13 1.34 1.11.89 1.83 2.14 2.15 3.74h-4.76c-.28-.84-.81-1.26-1.61-1.26-.56 0-1.01.24-1.34.7-.33.47-.49 1.15-.49 2.05 0 .9.16 1.59.49 2.07.33.47.78.71 1.34.71.81 0 1.35-.42 1.61-1.26h4.76c-.32 1.59-1.04 2.83-2.15 3.73-1.12.9-2.49 1.35-4.13 1.35-1.26 0-2.39-.26-3.38-.8-.98-.53-1.75-1.3-2.3-2.29-.55-.99-.82-2.16-.82-3.51zm26.92-.13c0 .35-.02.7-.07 1.05h-8.5c.05.7.24 1.23.59 1.57.34.34.78.52 1.31.52.75 0 1.29-.34 1.61-1.01h4.79c-.2.88-.59 1.67-1.16 2.37a6.02 6.02 0 0 1-2.16 1.64c-.88.4-1.84.59-2.89.59-1.27 0-2.4-.26-3.38-.8-.99-.53-1.76-1.3-2.32-2.29-.55-.99-.83-2.16-.83-3.51 0-1.34.27-2.51.82-3.49.55-.99 1.32-1.75 2.3-2.28.99-.54 2.12-.8 3.41-.8 1.27 0 2.39.26 3.37.78s1.74 1.26 2.29 2.23.82 2.11.82 3.43zm-4.58-1.13c0-.55-.18-.98-.55-1.29-.37-.32-.82-.47-1.37-.47-.56 0-1.01.15-1.36.45-.35.29-.58.73-.68 1.31h3.96zm10.06 1.26c0-1.33.24-2.49.72-3.48.48-.99 1.14-1.76 1.97-2.29.84-.54 1.76-.8 2.79-.8.88 0 1.65.17 2.29.52.64.35 1.14.83 1.49 1.42v-1.78h4.49v12.85h-4.49v-1.78c-.35.59-.85 1.06-1.5 1.42-.65.35-1.41.52-2.28.52-1.03 0-1.95-.26-2.79-.8-.83-.53-1.49-1.3-1.97-2.3-.48-1-.72-2.17-.72-3.5zm9.26 0c0-.82-.23-1.47-.68-1.94-.45-.48-1-.71-1.66-.71-.67 0-1.23.23-1.67.69-.44.47-.67 1.12-.67 1.96 0 .83.23 1.48.67 1.96.44.48 1 .72 1.67.72.66 0 1.21-.23 1.66-.71.45-.47.68-1.13.68-1.97zm24.59-6.41v12.85h-4.52v-1.83c-.38.58-.9 1.05-1.58 1.41-.67.36-1.44.54-2.31.54-1.5 0-2.68-.49-3.54-1.48-.87-.99-1.3-2.33-1.3-4.02v-7.47h4.47v6.89c0 .74.2 1.31.59 1.73.39.43.9.64 1.54.64.66 0 1.18-.21 1.56-.64.38-.42.57-.99.57-1.73v-6.89h4.52zm8.04 13.01c-1.16 0-2.19-.19-3.1-.58-.91-.39-1.63-.93-2.16-1.6-.52-.69-.82-1.45-.88-2.31h4.35c.07.41.26.74.58.96.32.23.71.35 1.19.35.37 0 .66-.08.87-.23.21-.15.32-.35.32-.6 0-.32-.17-.55-.53-.71-.35-.15-.93-.32-1.74-.5-.92-.18-1.68-.39-2.29-.62a3.89 3.89 0 0 1-1.59-1.12c-.45-.52-.68-1.23-.68-2.11 0-.77.21-1.46.62-2.08.41-.61 1.02-1.11 1.82-1.47.8-.37 1.77-.55 2.9-.55 1.68 0 3 .41 3.97 1.23.96.83 1.52 1.91 1.67 3.26h-4.06c-.07-.41-.25-.73-.54-.95-.28-.22-.66-.33-1.13-.33-.37 0-.65.06-.84.2-.19.14-.28.33-.28.57 0 .31.17.54.52.7.36.16.92.33 1.7.5.93.19 1.71.42 2.33.66.61.24 1.16.64 1.62 1.18.47.54.7 1.28.7 2.21 0 .75-.22 1.42-.65 2.02-.44.59-1.06 1.06-1.86 1.41-.8.34-1.74.51-2.83.51zm6.81-6.6c0-1.33.24-2.49.72-3.48.48-.99 1.14-1.76 1.97-2.29.83-.54 1.76-.8 2.79-.8.88 0 1.65.17 2.29.52.64.35 1.14.83 1.49 1.42v-1.78h4.49v12.85h-4.49v-1.78c-.35.59-.86 1.06-1.5 1.42-.65.35-1.41.52-2.28.52-1.03 0-1.96-.26-2.79-.8-.83-.53-1.49-1.3-1.97-2.3-.48-1-.72-2.17-.72-3.5zm9.26 0c0-.82-.23-1.47-.68-1.94-.45-.48-1-.71-1.66-.71-.67 0-1.23.23-1.67.69-.45.47-.67 1.12-.67 1.96 0 .83.22 1.48.67 1.96.44.48 1 .72 1.67.72.66 0 1.21-.23 1.66-.71.45-.47.68-1.13.68-1.97zm11.55-4.14c.5-.74 1.11-1.32 1.83-1.75a4.52 4.52 0 0 1 2.31-.64v4.79h-1.26c-.97 0-1.7.19-2.17.57-.48.39-.71 1.05-.71 2v5.61h-4.49V32.22h4.49v2.27zm16.11 10.74c-1.29 0-2.44-.26-3.45-.8a5.882 5.882 0 0 1-2.4-2.29c-.58-.99-.87-2.16-.87-3.51 0-1.33.3-2.49.89-3.48.58-.99 1.39-1.76 2.4-2.29 1.02-.54 2.17-.8 3.45-.8 1.28 0 2.43.26 3.45.8 1.02.53 1.82 1.3 2.41 2.29.58.99.88 2.15.88 3.48s-.3 2.5-.88 3.5c-.59 1-1.4 1.77-2.42 2.3-1.03.54-2.18.8-3.46.8zm0-3.89c.62 0 1.15-.24 1.57-.7.42-.47.63-1.14.63-2.01 0-.87-.21-1.53-.63-1.99-.42-.46-.94-.69-1.55-.69-.61 0-1.12.23-1.54.69-.41.46-.61 1.12-.61 1.99 0 .89.19 1.56.59 2.02.4.46.91.69 1.54.69zM213 36.96c0-1.59.33-3.01.99-4.25a7.146 7.146 0 0 1 2.83-2.91c1.23-.7 2.63-1.04 4.22-1.04 2.02 0 3.71.53 5.09 1.61 1.37 1.08 2.26 2.54 2.66 4.39h-4.84c-.29-.61-.69-1.08-1.2-1.4-.51-.32-1.11-.48-1.78-.48-1.04 0-1.86.37-2.48 1.11-.62.74-.93 1.73-.93 2.97 0 1.25.31 2.25.93 2.99.62.74 1.44 1.11 2.48 1.11.67 0 1.27-.16 1.78-.48.51-.32.91-.79 1.2-1.4h4.84c-.4 1.85-1.29 3.31-2.66 4.39-1.38 1.08-3.07 1.62-5.09 1.62-1.59 0-2.99-.35-4.22-1.05a7.146 7.146 0 0 1-2.83-2.91c-.66-1.24-.99-2.66-.99-4.27zm26.1 8.11-3.21-5.96h-.48v5.96h-4.49V28.92H238c1.3 0 2.4.22 3.3.67.9.45 1.58 1.07 2.04 1.86.46.79.69 1.67.69 2.65 0 1.1-.3 2.06-.91 2.89-.6.84-1.48 1.43-2.64 1.78l3.64 6.3h-5.02zm-3.69-9.03h2.22c.61 0 1.07-.14 1.38-.43.3-.29.46-.71.46-1.26 0-.52-.16-.93-.47-1.23-.32-.3-.77-.44-1.37-.44h-2.22v3.36zm29.52-7.12v16.15h-4.5v-8.91l-3.04 8.91h-3.76l-3.07-8.98v8.98h-4.49V28.92h5.43l4.05 10.49 3.97-10.49h5.41zm11.43 0v16.15h-4.49V28.92h4.49zm19.37 3.18c1.62 0 2.89.49 3.81 1.47.93.98 1.39 2.31 1.39 4.01v7.49h-4.49v-6.89c0-.69-.19-1.23-.58-1.61-.38-.38-.9-.57-1.55-.57-.66 0-1.18.19-1.56.57-.38.38-.57.92-.57 1.61v6.89h-4.5v-6.89c0-.69-.18-1.23-.56-1.61-.37-.38-.89-.57-1.55-.57-.67 0-1.19.19-1.58.57-.38.38-.57.92-.57 1.61v6.89h-4.49V32.22h4.49v1.69c.4-.55.91-.99 1.55-1.32.63-.32 1.36-.49 2.19-.49.94 0 1.79.21 2.53.62.74.41 1.32.99 1.75 1.74.46-.7 1.06-1.27 1.81-1.7a4.82 4.82 0 0 1 2.48-.66zm13.63 13.13c-1.28 0-2.43-.26-3.45-.8a5.918 5.918 0 0 1-2.39-2.29c-.58-.99-.87-2.16-.87-3.51 0-1.33.29-2.49.88-3.48.59-.99 1.39-1.76 2.41-2.29 1.01-.54 2.16-.8 3.45-.8 1.28 0 2.43.26 3.44.8 1.02.53 1.82 1.3 2.41 2.29.59.99.88 2.15.88 3.48s-.29 2.5-.88 3.5c-.59 1-1.39 1.77-2.42 2.3-1.02.54-2.17.8-3.46.8zm0-3.89c.63 0 1.15-.24 1.57-.7.42-.47.63-1.14.63-2.01 0-.87-.21-1.53-.63-1.99-.42-.46-.93-.69-1.54-.69-.62 0-1.13.23-1.54.69-.41.46-.62 1.12-.62 1.99 0 .89.2 1.56.6 2.02.39.46.91.69 1.53.69zM322.45 34c.35-.61.84-1.08 1.49-1.43.64-.34 1.39-.51 2.27-.51 1.02 0 1.95.26 2.78.8.83.53 1.49 1.3 1.97 2.29s.72 2.15.72 3.48-.24 2.5-.72 3.5-1.14 1.77-1.97 2.3c-.83.54-1.76.8-2.78.8-.88 0-1.63-.17-2.27-.51a3.67 3.67 0 0 1-1.49-1.43v1.78h-4.49V28.11h4.49V34zm4.67 4.63c0-.84-.22-1.49-.67-1.96-.45-.46-1.01-.69-1.66-.69-.66 0-1.22.23-1.67.71-.45.47-.67 1.12-.67 1.94 0 .84.22 1.5.67 1.97.45.48 1.01.71 1.67.71.65 0 1.21-.24 1.66-.72.45-.48.67-1.13.67-1.96zm8.69-7.6c-.8 0-1.43-.22-1.92-.66-.48-.43-.72-.98-.72-1.64 0-.67.24-1.23.72-1.67.49-.44 1.12-.66 1.92-.66.78 0 1.41.22 1.89.66.48.44.72 1 .72 1.67 0 .66-.24 1.21-.72 1.64-.48.44-1.11.66-1.89.66zm2.22 1.19v12.85h-4.49V32.22h4.49zm7.06-4.11v16.96h-4.49V28.11h4.49zm4.83 2.92c-.79 0-1.43-.22-1.91-.66-.48-.43-.72-.98-.72-1.64 0-.67.24-1.23.72-1.67.48-.44 1.12-.66 1.91-.66.78 0 1.41.22 1.89.66.49.44.73 1 .73 1.67 0 .66-.24 1.21-.73 1.64-.48.44-1.11.66-1.89.66zm2.23 1.19v12.85h-4.49V32.22h4.49zm1.83 6.41c0-1.33.24-2.49.72-3.48.48-.99 1.14-1.76 1.97-2.29.84-.54 1.76-.8 2.79-.8.88 0 1.65.17 2.29.52.64.35 1.14.83 1.49 1.42v-1.78h4.49v12.85h-4.49v-1.78c-.35.59-.85 1.06-1.5 1.42-.65.35-1.41.52-2.28.52-1.03 0-1.95-.26-2.79-.8-.83-.53-1.49-1.3-1.97-2.3-.48-1-.72-2.17-.72-3.5zm9.26 0c0-.82-.23-1.47-.68-1.94-.45-.48-1-.71-1.66-.71-.67 0-1.23.23-1.67.69-.44.47-.67 1.12-.67 1.96 0 .83.23 1.48.67 1.96.44.48 1 .72 1.67.72.66 0 1.21-.23 1.66-.71.45-.47.68-1.13.68-1.97zm.89-9.53-5.73 2.25V28.3l5.73-2.59v3.39zm10.66 5.39c.5-.74 1.11-1.32 1.83-1.75.72-.42 1.49-.64 2.32-.64v4.79h-1.26c-.98 0-1.71.19-2.18.57-.47.39-.71 1.05-.71 2v5.61h-4.49V32.22h4.49v2.27zm8.02-3.46c-.79 0-1.43-.22-1.91-.66-.48-.43-.73-.98-.73-1.64 0-.67.25-1.23.73-1.67.48-.44 1.12-.66 1.91-.66.78 0 1.41.22 1.89.66.48.44.72 1 .72 1.67 0 .66-.24 1.21-.72 1.64-.48.44-1.11.66-1.89.66zm2.22 1.19v12.85h-4.49V32.22h4.49zm8.55 13.01c-1.28 0-2.43-.26-3.45-.8a5.918 5.918 0 0 1-2.39-2.29c-.58-.99-.87-2.16-.87-3.51 0-1.33.29-2.49.88-3.48.59-.99 1.39-1.76 2.4-2.29 1.02-.54 2.17-.8 3.45-.8 1.29 0 2.44.26 3.45.8 1.02.53 1.82 1.3 2.41 2.29.59.99.88 2.15.88 3.48s-.29 2.5-.88 3.5c-.59 1-1.4 1.77-2.42 2.3-1.02.54-2.18.8-3.46.8zm0-3.89c.63 0 1.15-.24 1.57-.7.42-.47.63-1.14.63-2.01 0-.87-.21-1.53-.63-1.99-.42-.46-.93-.69-1.55-.69-.61 0-1.12.23-1.53.69-.41.46-.62 1.12-.62 1.99 0 .89.2 1.56.6 2.02.39.46.9.69 1.53.69zM100.57 65.86c0-1.33.24-2.49.72-3.49.48-.99 1.14-1.75 1.98-2.29.84-.53 1.77-.8 2.8-.8.82 0 1.56.17 2.21.52.65.34 1.16.81 1.52 1.41v-5.87h4.52V72.3h-4.52v-1.79c-.35.6-.84 1.07-1.49 1.42-.64.35-1.39.53-2.27.53a5.07 5.07 0 0 1-2.78-.8c-.83-.54-1.49-1.31-1.97-2.31s-.72-2.16-.72-3.49zm9.26 0c0-.83-.23-1.48-.68-1.95-.45-.47-1-.71-1.66-.71-.67 0-1.23.23-1.67.7-.45.46-.67 1.12-.67 1.96 0 .82.22 1.48.67 1.96.44.48 1 .72 1.67.72.66 0 1.21-.24 1.66-.71.45-.48.68-1.13.68-1.97zm19.34-.14c0 .35-.03.7-.07 1.05h-8.5c.04.71.24 1.23.58 1.57.35.35.78.52 1.32.52.75 0 1.28-.34 1.6-1.01h4.79c-.2.89-.58 1.68-1.15 2.37-.58.7-1.3 1.24-2.17 1.64-.87.4-1.83.6-2.89.6-1.27 0-2.39-.27-3.38-.8-.98-.54-1.75-1.3-2.31-2.3-.56-.99-.84-2.16-.84-3.5 0-1.35.28-2.51.83-3.5.55-.98 1.31-1.74 2.3-2.28.99-.53 2.12-.8 3.4-.8 1.27 0 2.39.26 3.37.78s1.74 1.26 2.29 2.23.83 2.12.83 3.43zm-4.59-1.12c0-.55-.18-.98-.55-1.3-.36-.31-.82-.47-1.37-.47-.55 0-1 .15-1.35.45-.35.3-.58.74-.69 1.32h3.96zm27.6-5.27c1.62 0 2.89.49 3.81 1.46.93.98 1.39 2.32 1.39 4.01v7.5h-4.49v-6.9c0-.69-.19-1.22-.58-1.61-.38-.38-.9-.57-1.55-.57-.66 0-1.18.19-1.56.57-.39.39-.58.92-.58 1.61v6.9h-4.49v-6.9c0-.69-.18-1.22-.56-1.61-.37-.38-.89-.57-1.55-.57-.67 0-1.2.19-1.58.57-.38.39-.57.92-.57 1.61v6.9h-4.49V59.44h4.49v1.7c.4-.55.91-.99 1.55-1.32.63-.33 1.36-.49 2.18-.49.95 0 1.8.2 2.54.62.74.41 1.32.99 1.75 1.74a5.3 5.3 0 0 1 1.81-1.71c.75-.44 1.58-.65 2.48-.65zm6.92 6.53c0-1.33.24-2.49.72-3.49.48-.99 1.14-1.75 1.97-2.29.83-.53 1.76-.8 2.78-.8.89 0 1.65.18 2.3.53.64.35 1.13.82 1.48 1.42v-1.79h4.5V72.3h-4.5v-1.79c-.35.6-.85 1.07-1.5 1.42-.64.35-1.41.53-2.28.53a5.07 5.07 0 0 1-2.78-.8c-.83-.54-1.49-1.31-1.97-2.31s-.72-2.16-.72-3.49zm9.25 0c0-.83-.22-1.48-.67-1.95-.45-.47-1-.71-1.66-.71-.67 0-1.23.23-1.67.7-.45.46-.67 1.12-.67 1.96 0 .82.22 1.48.67 1.96.44.48 1 .72 1.67.72.66 0 1.21-.24 1.66-.71.45-.48.67-1.13.67-1.97zm15.47-6.53c1.49 0 2.66.49 3.53 1.47.87.99 1.31 2.32 1.31 4v7.5h-4.49v-6.9c0-.73-.19-1.31-.58-1.73-.38-.42-.89-.63-1.53-.63-.67 0-1.2.21-1.58.63-.38.42-.57 1-.57 1.73v6.9h-4.5V59.44h4.5v1.83c.39-.58.93-1.05 1.6-1.4.67-.36 1.44-.54 2.31-.54zm19.6 6.39c0 .35-.03.7-.07 1.05h-8.5c.04.71.24 1.23.58 1.57.35.35.78.52 1.32.52.75 0 1.28-.34 1.6-1.01h4.79c-.2.89-.58 1.68-1.15 2.37-.58.7-1.3 1.24-2.17 1.64-.87.4-1.83.6-2.89.6-1.27 0-2.39-.27-3.38-.8-.98-.54-1.76-1.3-2.31-2.3-.56-.99-.84-2.16-.84-3.5 0-1.35.28-2.51.83-3.5.55-.98 1.31-1.74 2.3-2.28.99-.53 2.12-.8 3.4-.8 1.27 0 2.39.26 3.37.78s1.74 1.26 2.29 2.23.83 2.12.83 3.43zm-4.59-1.12c0-.55-.18-.98-.55-1.3-.36-.31-.82-.47-1.37-.47-.55 0-1 .15-1.35.45-.35.3-.58.74-.69 1.32h3.96zm8.69-6.35c-.79 0-1.43-.22-1.91-.65-.49-.44-.73-.99-.73-1.64 0-.67.24-1.23.73-1.68.48-.44 1.12-.66 1.91-.66.78 0 1.41.22 1.89.66.48.45.72 1.01.72 1.68 0 .65-.24 1.2-.72 1.64-.48.43-1.11.65-1.89.65zm2.22 1.19V72.3h-4.49V59.44h4.49zm7.06 2.27c.5-.73 1.12-1.31 1.83-1.74.72-.43 1.49-.64 2.32-.64v4.79h-1.26c-.98 0-1.71.19-2.18.57-.47.38-.71 1.05-.71 1.99v5.62h-4.49V59.44h4.49v2.27zm5.02 4.15c0-1.33.24-2.49.72-3.49.48-.99 1.14-1.75 1.97-2.29.84-.53 1.76-.8 2.79-.8.88 0 1.65.18 2.29.53.64.35 1.14.82 1.49 1.42v-1.79h4.49V72.3h-4.49v-1.79c-.35.6-.85 1.07-1.5 1.42-.65.35-1.41.53-2.28.53-1.03 0-1.95-.27-2.79-.8-.83-.54-1.49-1.31-1.97-2.31s-.72-2.16-.72-3.49zm9.26 0c0-.83-.23-1.48-.68-1.95-.45-.47-1-.71-1.66-.71-.67 0-1.23.23-1.67.7-.45.46-.67 1.12-.67 1.96 0 .82.22 1.48.67 1.96.44.48 1 .72 1.67.72.66 0 1.21-.24 1.66-.71.45-.48.68-1.13.68-1.97zM247.26 59.28c.87 0 1.63.18 2.28.53.65.35 1.15.82 1.5 1.42v-1.79h4.49v12.72c0 1.21-.23 2.3-.69 3.27-.46.97-1.17 1.74-2.14 2.32-.97.58-2.2.87-3.68.87-1.99 0-3.57-.46-4.77-1.4-1.19-.93-1.87-2.2-2.04-3.8h4.43c.09.41.32.73.69.96.36.23.84.35 1.42.35 1.52 0 2.29-.86 2.29-2.57v-1.65c-.35.6-.85 1.07-1.5 1.42-.65.35-1.41.53-2.28.53-1.03 0-1.95-.27-2.79-.8-.83-.54-1.49-1.31-1.97-2.31s-.72-2.16-.72-3.49.24-2.49.72-3.49c.48-.99 1.14-1.75 1.97-2.29.84-.53 1.76-.8 2.79-.8zm3.78 6.58c0-.83-.23-1.48-.68-1.95-.45-.47-1-.71-1.66-.71-.67 0-1.23.23-1.67.7-.45.46-.67 1.12-.67 1.96 0 .82.22 1.48.67 1.96.44.48 1 .72 1.67.72.66 0 1.21-.24 1.66-.71.45-.48.68-1.13.68-1.97zm11.55-4.15c.5-.73 1.11-1.31 1.83-1.74.72-.43 1.49-.64 2.32-.64v4.79h-1.26c-.98 0-1.71.19-2.18.57-.48.38-.71 1.05-.71 1.99v5.62h-4.49V59.44h4.49v2.27zm5.02 4.15c0-1.33.24-2.49.72-3.49.48-.99 1.14-1.75 1.97-2.29.83-.53 1.76-.8 2.78-.8.89 0 1.65.18 2.3.53.64.35 1.13.82 1.48 1.42v-1.79h4.5V72.3h-4.5v-1.79c-.35.6-.85 1.07-1.5 1.42-.64.35-1.41.53-2.28.53a5.07 5.07 0 0 1-2.78-.8c-.83-.54-1.49-1.31-1.97-2.31s-.72-2.16-.72-3.49zm9.25 0c0-.83-.22-1.48-.67-1.95-.45-.47-1-.71-1.66-.71-.67 0-1.23.23-1.68.7-.44.46-.66 1.12-.66 1.96 0 .82.22 1.48.66 1.96.45.48 1.01.72 1.68.72.66 0 1.21-.24 1.66-.71.45-.48.67-1.13.67-1.97zm.9-9.54-5.73 2.25v-3.05l5.73-2.59v3.39zm13.75 12.15v3.83h-1.95c-3.28 0-4.93-1.63-4.93-4.88v-4.24h-1.58v-3.74h1.58v-3.12h4.52v3.12h2.34v3.74h-2.34v4.3c0 .36.08.61.24.76.16.15.43.23.81.23h1.31zm4.33-10.22c-.79 0-1.43-.22-1.91-.65a2.14 2.14 0 0 1-.72-1.64c0-.67.24-1.23.72-1.68.48-.44 1.12-.66 1.91-.66.78 0 1.41.22 1.89.66.48.45.72 1.01.72 1.68 0 .65-.24 1.2-.72 1.64-.48.43-1.11.65-1.89.65zm2.22 1.19V72.3h-4.49V59.44h4.49zm8.05 13.02c-1.16 0-2.2-.2-3.11-.59-.91-.39-1.63-.92-2.15-1.6-.53-.68-.82-1.45-.88-2.3h4.35c.06.41.25.73.57.96.32.23.72.34 1.19.34.37 0 .66-.07.88-.23.21-.15.32-.35.32-.59 0-.32-.18-.56-.53-.71-.35-.16-.93-.32-1.74-.51-.92-.18-1.68-.39-2.29-.62-.62-.23-1.15-.6-1.6-1.12-.45-.52-.67-1.22-.67-2.11 0-.76.2-1.45.62-2.07.41-.62 1.02-1.11 1.82-1.48.8-.37 1.77-.55 2.9-.55 1.68 0 3 .41 3.96 1.24.96.82 1.52 1.91 1.67 3.25h-4.05c-.08-.41-.26-.73-.54-.95-.28-.22-.66-.33-1.13-.33-.37 0-.65.07-.84.21a.65.65 0 0 0-.29.57c0 .3.18.54.53.7.35.16.92.32 1.69.49.94.2 1.71.42 2.33.66.62.25 1.16.64 1.63 1.18.46.55.7 1.28.7 2.22 0 .74-.22 1.42-.66 2.01-.43.6-1.05 1.07-1.85 1.41-.8.35-1.75.52-2.83.52z" class="fil3"/></g><path d="M88.12 144.01h235.76c2.95 0 5.34 2.81 5.34 6.28v37.73c0 3.47-2.39 6.28-5.34 6.28H88.12c-2.95 0-5.34-2.81-5.34-6.28v-37.73c0-3.47 2.39-6.28 5.34-6.28z" class="fil2"/><path d="M116.13 161.54v2.28h-3.1v9.42h-2.85v-9.42h-3.09v-2.28h9.04zm10.2 6.9c0 .27-.01.54-.04.83h-6.45c.04.58.23 1.02.55 1.33.33.3.73.45 1.21.45.71 0 1.21-.3 1.49-.9h3.03c-.16.62-.44 1.17-.84 1.65-.41.49-.92.88-1.53 1.16-.61.27-1.29.41-2.05.41-.91 0-1.72-.19-2.43-.58-.71-.39-1.27-.95-1.67-1.67-.4-.72-.6-1.57-.6-2.53 0-.97.2-1.81.59-2.53.4-.73.95-1.28 1.66-1.67.71-.39 1.53-.58 2.45-.58.9 0 1.7.18 2.4.56.7.38 1.25.92 1.64 1.62.4.7.59 1.52.59 2.45zm-2.91-.75c0-.49-.17-.88-.5-1.17-.34-.29-.75-.43-1.25-.43-.48 0-.88.14-1.21.42-.33.27-.53.67-.61 1.18h3.57zm8.2 5.68c-.81 0-1.54-.14-2.17-.41-.63-.28-1.13-.66-1.5-1.15a2.91 2.91 0 0 1-.61-1.62h2.81c.04.32.19.58.45.78.27.2.6.3.98.3.36 0 .64-.07.83-.21.19-.14.29-.32.29-.54 0-.26-.14-.46-.41-.59-.28-.13-.73-.27-1.35-.42-.67-.16-1.23-.32-1.67-.5-.45-.17-.83-.44-1.15-.81-.32-.38-.48-.88-.48-1.51 0-.53.14-1.02.44-1.46.29-.44.72-.79 1.3-1.04.57-.26 1.25-.38 2.04-.38 1.17 0 2.08.28 2.76.86.67.58 1.05 1.35 1.15 2.3h-2.63a1.08 1.08 0 0 0-.42-.76c-.24-.19-.56-.29-.95-.29-.33 0-.58.07-.76.19-.18.13-.27.31-.27.53 0 .27.14.47.43.6.28.13.72.27 1.32.4.69.18 1.25.35 1.68.52.44.18.82.45 1.15.84.32.38.49.89.5 1.54 0 .54-.15 1.03-.45 1.46-.31.42-.75.76-1.32 1-.57.25-1.24.37-1.99.37zm10.7-2.55v2.42h-1.45c-1.04 0-1.84-.25-2.42-.76-.58-.51-.87-1.33-.87-2.48v-3.69h-1.13v-2.37h1.13v-2.27h2.85v2.27h1.87v2.37h-1.87v3.73c0 .28.07.48.2.6.14.12.36.18.67.18h1.02zm10.35-2.38c0 .27-.02.54-.05.83h-6.45c.04.58.23 1.02.56 1.33.32.3.73.45 1.2.45.72 0 1.21-.3 1.49-.9h3.03c-.15.62-.43 1.17-.84 1.65-.41.49-.91.88-1.53 1.16-.61.27-1.29.41-2.05.41-.91 0-1.72-.19-2.43-.58-.71-.39-1.27-.95-1.67-1.67-.4-.72-.6-1.57-.6-2.53 0-.97.2-1.81.6-2.53.39-.73.94-1.28 1.65-1.67.72-.39 1.53-.58 2.45-.58.9 0 1.7.18 2.4.56.7.38 1.25.92 1.65 1.62.39.7.59 1.52.59 2.45zm-2.92-.75c0-.49-.17-.88-.5-1.17-.33-.29-.75-.43-1.25-.43-.48 0-.88.14-1.21.42-.32.27-.53.67-.61 1.18h3.57zm11.48-3.88c.66 0 1.23.13 1.73.4.49.26.87.61 1.14 1.05v-1.32h2.85v9.28c0 .86-.17 1.63-.51 2.33-.34.69-.85 1.24-1.55 1.65-.69.42-1.56.62-2.59.62-1.38 0-2.49-.32-3.35-.97-.85-.65-1.34-1.53-1.47-2.65h2.82c.09.36.3.64.63.85.34.2.75.31 1.24.31.59 0 1.06-.17 1.41-.51.35-.34.52-.88.52-1.63v-1.31c-.28.43-.66.78-1.15 1.05-.49.28-1.06.41-1.72.41-.76 0-1.46-.2-2.08-.59-.62-.39-1.11-.96-1.47-1.68-.36-.73-.55-1.57-.55-2.53 0-.95.19-1.79.55-2.51.36-.73.85-1.28 1.47-1.67.62-.39 1.32-.58 2.08-.58zm2.87 4.78c0-.71-.2-1.27-.59-1.68-.39-.42-.88-.62-1.44-.62-.57 0-1.05.2-1.44.61-.4.4-.6.96-.6 1.67s.2 1.28.6 1.69c.39.42.87.63 1.44.63.56 0 1.05-.21 1.44-.62.39-.41.59-.97.59-1.68zm7.77-3.1c.33-.51.75-.91 1.25-1.21.5-.29 1.05-.44 1.66-.44v3.01H174c-.71 0-1.24.16-1.6.46-.36.31-.53.85-.53 1.61v4.32h-2.85v-9.3h2.85v1.55zm3.71 3.08c0-.95.19-1.79.55-2.51.36-.73.85-1.28 1.47-1.67.62-.39 1.32-.58 2.08-.58.66 0 1.23.13 1.73.4.49.26.87.61 1.14 1.05v-1.32h2.85v9.3h-2.85v-1.32c-.28.44-.66.78-1.16 1.05-.49.27-1.07.4-1.72.4-.76 0-1.45-.2-2.07-.59-.62-.39-1.11-.96-1.47-1.68-.36-.73-.55-1.57-.55-2.53zm6.97.02c0-.71-.2-1.27-.59-1.68-.39-.42-.88-.62-1.44-.62-.57 0-1.05.2-1.44.61-.4.4-.6.96-.6 1.67s.2 1.28.6 1.69c.39.42.87.63 1.44.63.56 0 1.05-.21 1.44-.62.39-.41.59-.97.59-1.68zm.22-6.97-4.02 1.69v-1.97l4.02-1.93v2.21zm9.88 9.2v2.42h-1.45c-1.03 0-1.84-.25-2.42-.76-.57-.51-.86-1.33-.86-2.48v-3.69h-1.14v-2.37h1.14v-2.27h2.85v2.27h1.86v2.37h-1.86v3.73c0 .28.06.48.2.6.13.12.35.18.66.18h1.02zm3.02-7.85c-.5 0-.91-.15-1.23-.44-.31-.29-.47-.66-.47-1.09 0-.45.16-.82.47-1.11.32-.29.73-.44 1.23-.44.49 0 .89.15 1.2.44.32.29.48.66.48 1.11 0 .43-.16.8-.48 1.09-.31.29-.71.44-1.2.44zm1.41.97v9.3h-2.85v-9.3h2.85zm5.85 9.43c-.81 0-1.53-.14-2.16-.41-.64-.28-1.14-.66-1.5-1.15-.37-.48-.58-1.02-.62-1.62h2.82c.03.32.18.58.45.78.26.2.59.3.98.3.36 0 .63-.07.83-.21.19-.14.29-.32.29-.54 0-.26-.14-.46-.42-.59-.28-.13-.73-.27-1.35-.42-.67-.16-1.22-.32-1.67-.5a2.95 2.95 0 0 1-1.15-.81c-.32-.38-.48-.88-.48-1.51 0-.53.15-1.02.44-1.46.3-.44.73-.79 1.3-1.04.57-.26 1.26-.38 2.04-.38 1.17 0 2.09.28 2.76.86.67.58 1.06 1.35 1.16 2.3h-2.63c-.05-.32-.19-.58-.43-.76-.24-.19-.55-.29-.94-.29-.33 0-.59.07-.77.19a.64.64 0 0 0-.26.53c0 .27.14.47.42.6.29.13.73.27 1.33.4.69.18 1.25.35 1.68.52.43.18.81.45 1.14.84.33.38.5.89.51 1.54 0 .54-.15 1.03-.46 1.46-.3.42-.74.76-1.31 1-.58.25-1.24.37-2 .37zm11.9-8.11c.28-.44.67-.79 1.16-1.05.48-.27 1.06-.4 1.71-.4.77 0 1.46.19 2.08.58.63.39 1.12.94 1.48 1.67.36.72.54 1.56.54 2.51 0 .96-.18 1.8-.54 2.53-.36.72-.85 1.29-1.48 1.68-.62.39-1.31.59-2.08.59-.64 0-1.21-.13-1.71-.4-.49-.27-.88-.61-1.16-1.03v5.73h-2.85v-13.73h2.85v1.32zm4.07 3.31c0-.71-.2-1.27-.59-1.67-.4-.41-.88-.61-1.46-.61-.56 0-1.05.2-1.44.62-.39.41-.59.97-.59 1.68s.2 1.27.59 1.68c.39.41.88.62 1.44.62.57 0 1.05-.21 1.45-.63.4-.41.6-.98.6-1.69zm8.63 4.8c-.91 0-1.73-.19-2.45-.58-.73-.39-1.3-.95-1.72-1.67-.42-.72-.63-1.57-.63-2.53 0-.96.22-1.8.64-2.53.42-.72 1-1.28 1.73-1.67.73-.39 1.56-.58 2.47-.58.91 0 1.73.19 2.46.58.74.39 1.32.95 1.74 1.67.42.73.63 1.57.63 2.53 0 .95-.21 1.8-.64 2.52-.43.73-1.01 1.29-1.75 1.68-.74.39-1.57.58-2.48.58zm0-2.47c.55 0 1.01-.19 1.4-.6.38-.39.57-.97.57-1.71 0-.75-.19-1.32-.56-1.72-.37-.4-.83-.6-1.37-.6-.56 0-1.02.2-1.39.59-.36.4-.55.97-.55 1.73 0 .74.18 1.32.55 1.71.36.41.81.6 1.35.6zm9.24-5.41c.33-.51.75-.91 1.25-1.21.5-.29 1.05-.44 1.66-.44v3.01h-.78c-.71 0-1.24.16-1.6.46-.36.31-.53.85-.53 1.61v4.32h-2.85v-9.3h2.85v1.55zm7.63-.98c.05-1.19.44-2.11 1.17-2.75.73-.65 1.73-.97 2.98-.97.84 0 1.55.14 2.14.43.6.29 1.05.69 1.35 1.19.31.5.46 1.06.46 1.68 0 .73-.18 1.33-.55 1.79-.36.46-.79.78-1.28.94v.07c.63.21 1.13.56 1.5 1.05.37.49.55 1.12.55 1.88 0 .69-.16 1.3-.48 1.83-.31.52-.77.94-1.38 1.24-.61.3-1.32.45-2.16.45-1.33 0-2.4-.33-3.19-.98-.79-.66-1.21-1.65-1.26-2.97h2.77c.01.49.15.87.42 1.16.26.28.65.42 1.16.42.44 0 .77-.12 1.01-.37s.36-.58.36-.99c0-.54-.17-.92-.51-1.16-.34-.24-.88-.36-1.62-.36h-.54v-2.32h.54c.56 0 1.02-.1 1.37-.29.35-.19.52-.54.52-1.04 0-.4-.11-.71-.33-.93-.22-.23-.53-.34-.91-.34-.43 0-.74.13-.95.39-.2.25-.32.57-.36.95h-2.78zm9.98 2.48c0-1.91.37-3.42 1.11-4.52.74-1.1 1.93-1.65 3.58-1.65 1.64 0 2.83.55 3.57 1.65.74 1.1 1.11 2.61 1.11 4.52 0 1.93-.37 3.45-1.11 4.55-.74 1.1-1.93 1.65-3.57 1.65-1.65 0-2.84-.55-3.58-1.65-.74-1.1-1.11-2.62-1.11-4.55zm6.57 0c0-1.12-.12-1.99-.37-2.59-.24-.61-.75-.91-1.51-.91-.77 0-1.27.3-1.52.91-.24.6-.36 1.47-.36 2.59 0 .75.04 1.38.13 1.87.09.5.27.9.54 1.2.27.31.68.46 1.21.46.53 0 .93-.15 1.21-.46.27-.3.45-.7.54-1.2.09-.49.13-1.12.13-1.87zm7.55 1.58c0-.95.18-1.79.54-2.51.36-.73.86-1.28 1.48-1.67.62-.39 1.31-.58 2.08-.58.61 0 1.17.12 1.68.38.5.25.9.6 1.19 1.03v-4.31h2.85v12.33h-2.85v-1.33c-.27.44-.65.79-1.14 1.06-.5.27-1.07.4-1.73.4-.77 0-1.46-.2-2.08-.59-.62-.39-1.12-.96-1.48-1.68-.36-.73-.54-1.57-.54-2.53zm6.97.02c0-.71-.2-1.27-.59-1.68-.4-.42-.88-.62-1.45-.62-.56 0-1.04.2-1.44.61-.39.4-.59.96-.59 1.67s.2 1.28.59 1.69c.4.42.88.63 1.44.63.57 0 1.05-.21 1.45-.62.39-.41.59-.97.59-1.68zm6.35-5.62c-.5 0-.91-.15-1.23-.44-.31-.29-.47-.66-.47-1.09 0-.45.16-.82.47-1.11.32-.29.73-.44 1.23-.44.49 0 .89.15 1.21.44.31.29.47.66.47 1.11 0 .43-.16.8-.47 1.09-.32.29-.72.44-1.21.44zm1.41.97v9.3h-2.85v-9.3h2.85zm1.5 4.63c0-.95.19-1.79.55-2.51.36-.73.85-1.28 1.47-1.67.62-.39 1.32-.58 2.08-.58.66 0 1.23.13 1.73.4.49.26.87.61 1.14 1.05v-1.32h2.85v9.3h-2.85v-1.32c-.28.44-.66.78-1.16 1.05-.49.27-1.07.4-1.72.4-.76 0-1.45-.2-2.07-.59-.62-.39-1.11-.96-1.47-1.68-.36-.73-.55-1.57-.55-2.53zm6.97.02c0-.71-.2-1.27-.59-1.68-.39-.42-.88-.62-1.44-.62-.57 0-1.05.2-1.44.61-.4.4-.6.96-.6 1.67s.2 1.28.6 1.69c.39.42.87.63 1.44.63.56 0 1.05-.21 1.44-.62.39-.41.59-.97.59-1.68zm8.7 4.78c-.81 0-1.53-.14-2.17-.41-.63-.28-1.13-.66-1.5-1.15-.36-.48-.57-1.02-.61-1.62h2.81c.04.32.19.58.45.78.27.2.6.3.99.3.35 0 .63-.07.82-.21.2-.14.29-.32.29-.54 0-.26-.13-.46-.41-.59-.28-.13-.73-.27-1.35-.42-.67-.16-1.22-.32-1.67-.5-.44-.17-.83-.44-1.15-.81-.32-.38-.48-.88-.48-1.51 0-.53.14-1.02.44-1.46.29-.44.73-.79 1.3-1.04.57-.26 1.25-.38 2.04-.38 1.17 0 2.09.28 2.76.86.67.58 1.06 1.35 1.16 2.3h-2.64a1.08 1.08 0 0 0-.42-.76c-.24-.19-.55-.29-.94-.29-.34 0-.59.07-.77.19-.18.13-.27.31-.27.53 0 .27.15.47.43.6s.72.27 1.32.4c.69.18 1.25.35 1.69.52.43.18.81.45 1.14.84.33.38.5.89.51 1.54 0 .54-.16 1.03-.46 1.46-.31.42-.75.76-1.32 1-.57.25-1.23.37-1.99.37z" style="fill:#fefefe;fill-rule:nonzero"/></g></svg>