<svg xmlns="http://www.w3.org/2000/svg" xml:space="preserve" width="1200" height="300" style="shape-rendering:geometricPrecision;text-rendering:geometricPrecision;image-rendering:optimizeQuality;fill-rule:evenodd;clip-rule:evenodd" viewBox="0 0 1198.06 299.67"><path d="M13.72 0h1170.71c7.53 0 13.63 6.1 13.63 13.63v272.24c0 7.52-6.1 13.62-13.63 13.62H13.72c-7.53 0-13.63-6.1-13.63-13.62V13.63C.09 6.1 6.19 0 13.72 0zM114.8 243.83h31.02v-14.59c0-6.51 5.27-11.78 11.76-11.78h26.23c6.49 0 11.75 5.27 11.75 11.78v70.19h-92.51v-43.82c0-6.51 5.27-11.78 11.75-11.78zm58.09 46.2h8.75v-8.78h-8.75v8.78zm0-13.15h8.75v-8.78h-8.75v8.78zm0-13.15h8.75v-8.78h-8.75v8.78zm0-13.22h8.75v-8.78h-8.75v8.78zm0-13.17h8.75v-8.76h-8.75v8.76zm-13.14 52.69h8.75v-8.78h-8.75v8.78zm0-13.15h8.75v-8.78h-8.75v8.78zm0-13.15h8.75v-8.78h-8.75v8.78zm0-13.22h8.75v-8.78h-8.75v8.78zm0-13.17h8.75v-8.76h-8.75v8.76zm-29.64 52.69h8.75v-8.78h-8.75v8.78zm0-13.15h8.75v-8.78h-8.75v8.78zm0-13.15h8.75v-8.78h-8.75v8.78zm-13.13 26.3h8.76v-8.78h-8.76v8.78zm0-13.15h8.76v-8.78h-8.76v8.78zm0-13.15h8.76v-8.78h-8.76v8.78zm188.88 35.7v-70.19c0-6.51 5.26-11.78 11.76-11.78h26.23c6.49 0 11.75 5.27 11.75 11.78v70.19h-49.74zm22.68-70.85h-8.75v8.77h8.75v-8.77zm0 13.16h-8.75v8.77h8.75v-8.77zm0 13.21h-8.75v8.78h8.75v-8.78zm0 13.16h-8.75v8.77h8.75v-8.77zm0 13.15h-8.75v8.78h8.75v-8.78zm13.14-52.67h-8.77v8.76h8.77v-8.76zm0 13.15h-8.77v8.78h8.77v-8.78zm0 13.21h-8.77v8.78h8.77v-8.78zm0 13.16h-8.77v8.78h8.77v-8.78zm0 13.15h-8.77v8.78h8.77v-8.78zm223.8-37.41h-31.04v-14.6c0-6.52-5.28-11.79-11.77-11.79h-26.25c-6.5 0-11.76 5.27-11.76 11.79v70.24h92.58v-43.85c0-6.51-5.27-11.79-11.76-11.79zm-58.13 46.24h-8.75v-8.79h8.75v8.79zm0-13.17h-8.75v-8.78h8.75v8.78zm0-13.16h-8.75v-8.78h8.75v8.78zm0-13.22h-8.75v-8.79h8.75v8.79zm0-13.18h-8.75v-8.77h8.75v8.77zm13.15 52.73h-8.75v-8.79h8.75v8.79zm0-13.17h-8.75v-8.78h8.75v8.78zm0-13.16h-8.75v-8.78h8.75v8.78zm0-13.22h-8.75v-8.79h8.75v8.79zm0-13.18h-8.75v-8.77h8.75v8.77zm29.66 52.73h-8.76v-8.79h8.76v8.79zm0-13.17h-8.76v-8.78h8.76v8.78zm0-13.16h-8.76v-8.78h8.76v8.78zm13.14 26.33h-8.76v-8.79h8.76v8.79zm0-13.17h-8.76v-8.78h8.76v8.78zm0-13.16h-8.76v-8.78h8.76v8.78zm149.32 27.83c-.02.12 0 .21.05.28.06.06.16.11.29.12-.93.67-1.76 1.45-2.51 2.3l.01 5.2h-.61v-5.18c-.76-.86-1.6-1.65-2.54-2.33.13-.01.23-.05.29-.12.05-.07.07-.16.05-.27.83.57 1.49 1.18 2.19 1.91l-.01-6.43c.23.1.44.13.61 0l.01 6.41c.69-.72 1.34-1.32 2.17-1.89zm13.91 0c-.02.12 0 .21.06.28.05.06.15.11.29.12-.94.67-1.77 1.45-2.52 2.3l.01 5.2h-.6l-.01-5.18c-.76-.86-1.6-1.65-2.54-2.33.14-.01.23-.05.29-.12.06-.07.07-.16.05-.27.84.57 1.49 1.18 2.2 1.91l-.01-6.43c.23.1.43.13.6 0l.01 6.41c.7-.72 1.35-1.32 2.17-1.89zm-27.43 0c-.02.12 0 .21.06.28.05.06.15.11.29.12-.94.67-1.77 1.45-2.52 2.3l.01 5.2h-.6l-.01-5.18c-.76-.86-1.6-1.65-2.54-2.33.14-.01.23-.05.29-.12.06-.07.07-.16.05-.27.84.57 1.49 1.18 2.2 1.91l-.01-6.43c.23.1.43.13.6 0l.01 6.41c.7-.72 1.35-1.32 2.17-1.89zm-54.59.55c2.61 0 4.75-2.14 4.75-4.75s-2.14-4.75-4.75-4.75-4.74 2.14-4.74 4.75 2.13 4.75 4.74 4.75zm0-16.85c6.65 0 12.1 5.46 12.1 12.1s-5.45 12.1-12.1 12.1c-6.64 0-12.1-5.46-12.1-12.1s5.46-12.1 12.1-12.1zm15.66-4.04-2.85-9.49h-10.67l-.95 9.49h14.47zm-15.66-11.86h14.48l3.79 11.86 15.66 3.09.95 6.64c-.95-.23-1.9-.47-2.84-.47-5.23 0-9.73 3.79-10.45 8.78h-7.35c.24-.47.24-1.19.24-1.9 0-8.07-6.41-14.48-14.48-14.48h-1.43l1.43-13.52zm32.04 35.12c1.89 0 3.32-1.42 3.32-3.32s-1.43-3.33-3.32-3.33c-1.9 0-3.33 1.43-3.33 3.33 0 1.9 1.43 3.32 3.33 3.32zm0-11.39c4.5 0 8.06 3.56 8.06 8.07s-3.56 8.3-8.06 8.3c-4.51 0-8.31-3.79-8.31-8.3 0-4.51 3.8-8.07 8.31-8.07zm247.62 8.31c1.91-3.99 6.53-3.39 9.18.9-4.23 1.46-6.23.05-9.18-.9zm-.59-4.31c-.03.11-.01.21.05.27.06.07.15.11.29.12-.94.68-1.77 1.45-2.51 2.3v3.67c.69-.72 1.34-1.32 2.17-1.89-.02.12 0 .21.05.28.06.06.16.11.29.12-.93.67-1.76 1.44-2.51 2.29v.74l.01 4.47h-.61v-5.18c-.76-.86-1.6-1.65-2.55-2.33.14-.01.24-.05.3-.12.05-.07.07-.16.05-.27.83.57 1.49 1.18 2.19 1.91v-3.67a14.78 14.78 0 0 0-2.54-2.32c.14-.02.23-.06.29-.13.06-.06.08-.15.06-.27.83.58 1.49 1.18 2.19 1.91l-.01-3.94c.23.09.44.12.61 0V289c.7-.72 1.35-1.31 2.18-1.88zm-5.77-.54c-1.73-3.63-5.94-3.08-8.36.82 3.86 1.33 5.68.05 8.36-.82zm6.17 0c1.74-3.63 5.94-3.08 8.36.82-3.86 1.33-5.67.05-8.36-.82zm-5.97 4.84c-1.9-3.99-6.53-3.39-9.18.9 4.23 1.46 6.23.05 9.18-.9zm7.01-14.21c-1.92.98-2.99.78-3.79 1.96-.13.19-.11.36.05.56.26.34.41.58.56.83.15.25.25.46.34.75.03.08.08.39.56.14 2.6-1.36 2.14-3.34 2.28-4.24zm-9.05.54c4.41.26 7.35 4.41 4.93 6.5-5.14-1.25-3.22-4.41-4.93-6.5zm-19.23 13.68c1.91-3.99 6.53-3.39 9.18.9-4.23 1.46-6.23.05-9.18-.9zm-.6-4.31c-.02.11 0 .21.06.27.06.07.15.11.29.12-.94.68-1.77 1.45-2.51 2.3v3.67c.69-.72 1.34-1.32 2.17-1.89-.02.12-.01.21.05.28.06.06.16.11.29.12-.93.67-1.76 1.44-2.51 2.29v.74l.01 4.47h-.61l-.01-5.18c-.75-.86-1.59-1.65-2.54-2.33.14-.01.24-.05.29-.12.06-.07.08-.16.06-.27.83.57 1.49 1.18 2.19 1.91v-3.67a14.78 14.78 0 0 0-2.54-2.32c.14-.02.23-.06.29-.13.06-.06.08-.15.05-.27.84.58 1.49 1.18 2.2 1.91l-.01-3.94c.23.09.44.12.61 0V289c.7-.72 1.35-1.31 2.17-1.88zm-5.76-.54c-1.73-3.63-5.94-3.08-8.36.82 3.86 1.33 5.68.05 8.36-.82zm6.17 0c1.73-3.63 5.94-3.08 8.36.82-3.86 1.33-5.68.05-8.36-.82zm-5.97 4.84c-1.9-3.99-6.53-3.39-9.18.9 4.23 1.46 6.23.05 9.18-.9zm7.01-14.21c-1.92.98-2.99.78-3.79 1.96-.13.19-.11.36.05.56.26.34.41.58.56.83.15.25.25.46.34.75.03.08.08.39.56.14 2.6-1.36 2.14-3.34 2.28-4.24zm-9.05.54c4.41.26 7.35 4.41 4.93 6.5-5.15-1.25-3.22-4.41-4.93-6.5zm-19.23 13.68c1.9-3.99 6.53-3.39 9.18.9-4.23 1.46-6.23.05-9.18-.9zm-.6-4.31c-.02.11 0 .21.06.27.05.07.15.11.29.12-.94.68-1.77 1.45-2.51 2.3v3.67c.69-.72 1.34-1.32 2.17-1.89-.02.12-.01.21.05.28.06.06.15.11.29.12-.93.67-1.76 1.44-2.51 2.29v.74l.01 4.47h-.61l-.01-5.18c-.75-.86-1.59-1.65-2.54-2.33.14-.01.24-.05.29-.12.06-.07.08-.16.06-.27.83.57 1.49 1.18 2.19 1.91v-3.67a15.16 15.16 0 0 0-2.54-2.32c.14-.02.23-.06.29-.13.06-.06.08-.15.05-.27.84.58 1.49 1.18 2.2 1.91l-.01-3.94c.23.09.44.12.61 0V289c.7-.72 1.35-1.31 2.17-1.88zm-5.76-.54c-1.73-3.63-5.94-3.08-8.36.82 3.86 1.33 5.68.05 8.36-.82zm6.17 0c1.73-3.63 5.94-3.08 8.36.82-3.86 1.33-5.67.05-8.36-.82zm-5.97 4.84c-1.9-3.99-6.53-3.39-9.18.9 4.23 1.46 6.23.05 9.18-.9zm7.01-14.21c-1.92.98-2.99.78-3.79 1.96-.13.19-.11.36.05.56.26.34.41.58.56.83.15.25.25.46.34.75.03.08.08.39.56.14 2.6-1.36 2.14-3.34 2.28-4.24zm-9.06.54c4.42.26 7.36 4.41 4.94 6.5-5.15-1.25-3.22-4.41-4.94-6.5zm-19.22 13.68c1.9-3.99 6.53-3.39 9.18.9-4.23 1.46-6.23.05-9.18-.9zm-.6-4.31c-.02.11 0 .21.06.27.05.07.15.11.29.12-.94.68-1.77 1.45-2.52 2.3l.01 3.67c.69-.72 1.34-1.32 2.17-1.89-.02.12-.01.21.05.28.06.06.15.11.29.12-.93.67-1.76 1.44-2.51 2.29v.74l.01 4.47h-.61l-.01-5.18c-.75-.86-1.59-1.65-2.54-2.33.14-.01.24-.05.29-.12.06-.07.08-.16.06-.27.83.57 1.49 1.18 2.19 1.91v-3.67a15.16 15.16 0 0 0-2.54-2.32c.14-.02.23-.06.29-.13.06-.06.08-.15.05-.27.84.58 1.49 1.18 2.2 1.91l-.01-3.94c.23.09.44.12.61 0V289c.7-.72 1.35-1.31 2.17-1.88zm-5.76-.54c-1.73-3.63-5.94-3.08-8.36.82 3.86 1.33 5.67.05 8.36-.82zm6.17 0c1.73-3.63 5.94-3.08 8.36.82-3.86 1.33-5.68.05-8.36-.82zm-5.97 4.84c-1.91-3.99-6.53-3.39-9.18.9 4.23 1.46 6.23.05 9.18-.9zm7-14.21c-1.91.98-2.98.78-3.78 1.96-.13.19-.11.36.05.56.26.34.41.58.55.83.16.25.26.46.35.75.03.08.08.39.56.14 2.6-1.36 2.14-3.34 2.27-4.24zm-9.05.54c4.42.26 7.36 4.41 4.94 6.5-5.15-1.25-3.22-4.41-4.94-6.5zm137.61 2.27c-.05-1.39-.15-2.78-.16-3.41 0-.22-.01-.44-.03-.66.31 1.16.58 2.14.7 2.51-.1.5-.27 1.02-.51 1.56zm51.37-15.83c-.13-.37-.93-1.42-1.26-1.95-.34-.52-1.98-2.55-2.33-2.98-.35-.43-1.61-1.93-2.15-2.46-.27-.26-.59-.48-.92-.65.04-.13.06-.24.05-.29-.05-.23-.12-.55-.02-.8.1-.24.23-.85.18-1.15-.06-.3-.03-.8-.05-1.01-.02-.21-.17-.19-.19-.02-.02.17-.1.6-.26.9-.13.25-.37.5-.62.81.06-.25.09-.53.06-.7-.06-.31-.03-.81-.05-1.02-.02-.2-.17-.18-.19-.01-.02.17-.1.6-.26.9-.15.3-.49.6-.77 1.01-.15.22-.29.48-.48.84l-.18.03c-.58.11-2.86.88-3.41 1.14-.54.26-3.41 1.34-4.13 1.76-.72.42-4.31 2.37-4.94 2.85-.63.48-6.69 4.13-8.49 4.43-2.74.46-7.15-.04-8.91-.4-1.75-.36-3.59-.6-4.53-.57-.94.04-3.62.72-4.69 1-.64.17-1.62.73-2.3 1.14-.53.33-.99.76-1.33 1.28-.64.95-.89 1.65-1.38 4.01-.6 2.94-1.82 9.23-1.94 10.61-.12 1.37-.13 4.12.67 6.22.21.55.45.91.7 1.12-.18 1.26-.01 2.52-.65 3.71-.45.85.3 1.75.66 2.4.35.65-.2 2.1-.33 2.37-.12.27.33.62 1.21.7.89.08 2.26.02 2.51-.1.25-.12-.05-.61-.46-1.29-.42-.69-1.2-1.1-1.25-1.59-.05-.49 0-1.83.07-2.14.07-.3.09-1.34.16-1.73.07-.4.38-3.91.89-4.78.26-.46.85-1.63 1.45-2.75.3 1.26.37 3.43.28 4.31-.1.9.21 3.59-.24 4.91-.32.91.51 1.7.93 2.3.43.6.07 2.11-.03 2.39-.09.29.4.58 1.28.55.89-.03 2.26.06 2.49-.08.23-.15-.13-.93-.62-1.55-.5-.63-1.33-.94-1.44-1.42-.11-.48-.21-1.82-.18-2.13.03-.31-.08-1.35-.06-1.75.02-.4-.09-3.92.31-4.85.4-.93 1.65-4.59 2.24-5.51.26-.42.73-1.58 1.19-2.9.35-1 1.49-1.48 2.45-1.03 1.02.49 2.2 1.02 3.06 1.3 1.72.57 4.44 1.26 7.46 1.07 2.79-.18 4.02-.1 4.39-.21-.02.7-.02 1.44 0 1.9.04.94-.06 2.87-.26 4.08-.21 1.22-.05 1.67.05 2.11.1.45-.06 1.79-.12 2.21-.06.43-.68 3.97-.75 4.58-.07.61.23.78.53.92.3.13.63.79.73.92.09.14.55.66.44.78-.12.13-.65.26-.41.81.24.56.95.58 1.12.61.17.03 1.65-.01 2.12-.04.47-.03.29-.19.23-.28-.05-.09-.58-.65-.96-.95-.1-.71-1.2-1.27-1.46-2.21s.2-4.1.24-4.89c.05-.8.42-1.35.59-2.95.1-1 .47-2.02.7-2.24.08.18.12.12.18.84.1 1.23.02 1.66.14 2.1.12.44.02 1.79-.02 2.22-.04.43-.51 3.99-.55 4.6-.05.61.26.78.57.89.31.12.67.77.77.9.1.13.58.63.47.76-.11.13-.64.28-.37.83.26.54.97.53 1.15.56.17.02 1.64-.08 2.11-.14.47-.05.29-.2.22-.29-.06-.08-.61-.62-1.01-.91-.12-.7-1.25-1.21-1.55-2.14-.3-.93.02-4.11.03-4.9.01-.8.34-1.37.46-2.97.11-1.6.64-4.35 1.26-6.23.38-1.16.59-2.11.68-2.84.75-.77 2.08-2.5 2.38-4.87.27-2.17 4.79-9.47 5.46-10.13.66-.66 1.53-.81 1.69-.63.52.71 2.03.56 2.17.55.14 0 .17.15.35.3.17.14 1.06.83 1.44.88.39.05 1.42.8 1.64.97.22.18.11.47.35.77.23.3 1.58.33 1.81.31.23-.02.23-.34.51-.35.27-.01.69-.22.9-.52.2-.3-.17-.59.12-1.03.29-.43.34-.77.2-1.13zm46.67 34.07c-.01-.21-.2-.93-.31-1.22-.02.11-.04.24-.04.35-.02.27-.08.91.11 1.23.01.03.03.05.06.07.02-.02.05-.03.05-.05.03-.06.15-.15.13-.38zm7.87-10.59c-.06-.01-.12-.03-.16-.03-.03 0-.09.02-.13.01-.05-.01-.12-.07-.18-.06-.06.01-.2-.01-.22.04-.01.05.07.14.07.2 0 .07-.12.43-.31.45-.18.03-.48-.13-.54-.21-.02.19-.08.72-.13.88-.04.15-.18.7-.23.86-.06.17-.49 1.86-.69 2.36-.2.51-.89 2.15-2.9 2.33-.45.06-1.5.82-1.59 1.41-.1.65-.73.96-.73.96s.02.35.07.61c.06.26.17.9.43 1.15.26.26.68.11.76.11.08 0 .17.02.19.05.02.02-.04.07-.04.07s.07.05.13.06c.05.01.33.09.26.17-.06.09-.32.04-.32.04s.04.04.03.07c0 .03.01.1-.13.08-.15-.01-.59-.08-.76-.12-.03 0-.06-.01-.09-.01.01.01.02.01.02.02.05.02.29.17.21.23-.09.06-.32-.04-.32-.04s.02.04.01.07c-.01.02-.02.09-.15.04-.14-.05-.55-.23-.7-.31-.05-.03-.12-.05-.18-.07-.05.01-.08.01-.1.01-.02 0-.03-.02-.04-.05-.08-.02-.14-.05-.17-.09-.07-.08.02-.18-.06-.23-.08-.05-.33-.01-.37.02-.04.04-.26.02-.32 0s.02-.17.06-.19c.05-.02.43-.08.47-.14.04-.05.19-.1.23-.33.04-.2.05-.92.02-1.24-.14-.05-.56-.17-.63-.67-.02-.19.01-.47.02-.55.02-.09-.08.2-.54.23-.47.02-1.31-.02-1.81-.66s-1-1.38-1.08-2.06c-.09-.69-.18-.46-.27-.78-.03-.12-.06-.17.11-.16-.15-.16-.59-.53-.66-.66-.07-.12-.06-.34.18-.33-.22-.24-.41-.55-.66-.8-.24-.26-.33-.8-.49-1.11-.16-.3-.93-.69-1.04-1.4-.11-.72-.04-1.46 1.19-1.07 1.23.39 2.1 1.39 2.56 1.63.46.24 1.55.72 2.47.77.92.05 2.74-.05 3.44-.38.69-.33 1.59-1.24 1.88-1.51.28-.27.48-.53 1.03-.62.54-.1.9-.13.99-.19.09-.06.26-.21.26-.21-.1-.26-.07-1.02.43-.45.1-.07.21.04.22.12.09-.04.21.04.19.16.15.04.18.11.15.17.12 0 .12.09.14.19.03.1.4.27.22.56.12.02.05.15.05.15s.31.09.25.45zm85.4 8.68c.52-.86.42-2.72.38-2.57-.1.39-.41 1.95-.38 2.57zm-21.35-12.24c.06-.96 1.44-3.35 2.55-4.65 1.12-1.3 3.23-1.6 4.9-1.54 1.67.06 6.84 1.01 8.83 1 1.97 0 3.97-.53 4.82-.47.85.07 3.27-.5 4.74-1.16l1.58-.74c1.3-.81 2.73-.74 3.19-.16.38.41.55.9.81 1.2.26.3.55.56.76.85.2.28.62 1.08.86 1.46.23.37.7 1.05.4 1.46-.06.11.06.66-.56.66-.02.24-.33.84-1.4.15-.12-.07-.9-.08-1.34-.18-.43-.1-1.08.44-1.28.88-.51 1.23-1.62 3.1-1.99 3.8-.38.7-1.04 2.11-1.98 2.56-.05.03-.12.06-.19.08-.71.52-1.32 2.09-1.45 2.39-.12.3-.04.72-.26 1.27s-.26 2.1-.26 2.26c-.01.15-.01.71.03.81.04.1.03.37.06.51s.35.56.41.68c.05.11.25.79.24.94-.01.14.29.5.37.6.08.11-.42.11-.7.04-.28-.07-.82-.15-1.01-.18-.19-.03-.33-.41-.35-.49-.07.43.02.86.13.99.1.12.36.46-.19.33s-1.84-.01-1.72-1.36c-.31-.73-.35-.85-.14-1.69.22-.83.5-2.02.58-2.48.07-.46.29-1.22.3-2.77 0-.43.05-.77.14-1.07-.77.11-1.41.19-1.66.19-.75.01-1.65-.24-2.3-.24-.64 0-1.87.29-2.71.28-2.56.1-4.48-.38-5.62-.79-.91.78-2.2 2.05-2.26 2.54 0 .3-.23 1.26-.05 2.16.09.51.28 1.41.47 1.86.15.35.37.62.46.84.15.37.14.41.53.81.12.11.16.36.21.56.04.2.22.72.42.79.21.08.02.43-.79.39-.38.04-.39-.1-.47-.1-.08.01-.34 0-.51-.62-.03-.12-.2-.42-.39-.5-.2-.09-.57-.99-.64-1.48-.06-.49-.51-1.77-.8-2.29-.29-.51-.75-1.08-.84-1.41-.04-.14-.02-.42.01-.73-.12.29-.23.61-.26.88-.05.52-.1 1.36-.03 1.96.04.39.14.72.15.96.01.37.05.57.23.95.07.16.02.4 0 .6-.03.2.05.54.21.69.17.14-.15.38-.95.29-.41-.03-.33-.24-.41-.27-.07-.02-.32-.13-.26-.77.01-.12-.06-.47-.21-.62-.15-.14-.2-1.13-.1-1.61.1-.49.12-1.85.01-2.44-.1-.59-.34-1.29-.31-1.63.02-.33.57-1.28.68-1.66.12-.37.1-1.31.05-1.48 0 0-.24-.52-.45-1.18-.04-.1-.07-.18-.08-.19-.08-.2-.65-1.42-.66-3.18-.4 2.33-1.61 1.42-1.55.46zM74.22 92.16c1.84 0 3.46.35 4.85 1.06 1.39.71 2.46 1.72 3.22 3.04.76 1.33 1.14 2.87 1.14 4.63 0 1.77-.38 3.3-1.14 4.6-.76 1.29-1.83 2.29-3.22 2.98-1.39.69-3.01 1.03-4.85 1.03h-5.67V92.16h5.67zm0 15.02c2.03 0 3.58-.55 4.66-1.65 1.08-1.09 1.63-2.64 1.63-4.64 0-2.01-.55-3.58-1.63-4.71-1.08-1.14-2.63-1.7-4.66-1.7H71.4v12.7h2.82zm24.63-4.89c0 .52-.03.98-.1 1.4H88.24c.08 1.1.49 1.98 1.22 2.64.74.67 1.64 1 2.7 1 1.53 0 2.61-.64 3.25-1.92h3.06c-.41 1.26-1.16 2.3-2.25 3.11-1.09.8-2.45 1.21-4.06 1.21-1.31 0-2.49-.3-3.53-.89a6.31 6.31 0 0 1-2.45-2.49c-.59-1.08-.88-2.32-.88-3.73 0-1.42.28-2.66.86-3.74.57-1.07 1.38-1.9 2.42-2.48 1.04-.58 2.23-.87 3.58-.87 1.3 0 2.46.28 3.47.85 1.01.56 1.8 1.36 2.37 2.38.57 1.02.85 2.2.85 3.53zm-2.97-.9c-.02-1.05-.39-1.89-1.12-2.52-.74-.63-1.64-.95-2.72-.95-.99 0-1.83.31-2.53.94-.69.62-1.11 1.47-1.24 2.53h7.61zm10.76 8.34c-1.09 0-2.05-.2-2.91-.59-.86-.39-1.54-.92-2.04-1.6-.49-.67-.76-1.42-.79-2.25h2.94c.05.58.33 1.06.84 1.46.5.39 1.14.58 1.91.58.79 0 1.41-.15 1.86-.46.44-.31.66-.7.66-1.19 0-.51-.25-.89-.74-1.14-.49-.25-1.27-.53-2.33-.83-1.03-.28-1.88-.55-2.52-.82-.65-.27-1.21-.67-1.69-1.22-.47-.55-.71-1.28-.71-2.17 0-.74.22-1.41.65-2.01.43-.61 1.05-1.09 1.86-1.44.81-.35 1.73-.52 2.78-.52 1.57 0 2.83.39 3.78 1.18.96.79 1.47 1.87 1.54 3.23h-2.85c-.05-.61-.3-1.1-.75-1.47-.45-.36-1.05-.55-1.82-.55-.75 0-1.32.14-1.72.43-.4.28-.6.65-.6 1.12 0 .37.13.67.4.92s.59.45.97.59c.39.14.95.32 1.7.54 1 .26 1.82.53 2.46.81.64.27 1.19.68 1.66 1.21.46.53.71 1.24.72 2.12 0 .78-.21 1.48-.65 2.1-.43.61-1.04 1.1-1.83 1.44-.79.35-1.72.53-2.78.53zm7.38-7.11c0-1.42.29-2.66.86-3.74.58-1.07 1.37-1.9 2.39-2.48 1.01-.58 2.18-.87 3.49-.87 1.67 0 3.04.39 4.13 1.18 1.09.79 1.83 1.92 2.21 3.38h-3.07c-.25-.68-.65-1.21-1.2-1.59-.55-.39-1.24-.58-2.07-.58-1.16 0-2.09.42-2.78 1.24-.69.82-1.04 1.97-1.04 3.46 0 1.48.35 2.63 1.04 3.46.69.84 1.62 1.25 2.78 1.25 1.65 0 2.74-.72 3.27-2.17h3.07c-.4 1.4-1.15 2.51-2.24 3.33-1.1.83-2.47 1.24-4.1 1.24-1.31 0-2.48-.3-3.49-.89-1.02-.59-1.81-1.42-2.39-2.49-.57-1.08-.86-2.32-.86-3.73zm28.38-6.87v13.75h-2.84v-1.62c-.45.57-1.04 1.01-1.76 1.34-.73.32-1.5.48-2.31.48-1.08 0-2.05-.22-2.91-.67-.86-.45-1.53-1.12-2.02-2-.49-.88-.74-1.94-.74-3.19v-8.09h2.82v7.66c0 1.23.31 2.18.93 2.84.61.65 1.45.98 2.52.98 1.06 0 1.91-.33 2.53-.98.62-.66.94-1.61.94-2.84v-7.66h2.84zm6.59 2.05c.48-.67 1.14-1.21 1.98-1.64.84-.42 1.78-.63 2.81-.63 1.22 0 2.31.29 3.3.87.98.58 1.75 1.41 2.32 2.48.56 1.08.85 2.3.85 3.69 0 1.38-.29 2.61-.85 3.7-.57 1.09-1.35 1.94-2.34 2.55-.99.6-2.08.91-3.28.91-1.06 0-2.01-.21-2.83-.63-.83-.41-1.48-.94-1.96-1.59v1.99h-2.85V91.03h2.85v6.77zm8.36 4.77c0-.95-.2-1.77-.59-2.46-.39-.69-.9-1.22-1.54-1.58a4.27 4.27 0 0 0-2.06-.53c-.72 0-1.4.18-2.04.55-.64.36-1.15.9-1.54 1.59-.4.7-.59 1.53-.59 2.48 0 .94.19 1.77.59 2.48.39.71.9 1.24 1.54 1.61.64.36 1.32.55 2.04.55.73 0 1.41-.19 2.06-.56.64-.38 1.15-.92 1.54-1.64.39-.71.59-1.55.59-2.49zm8.56-4.82c.42-.7.97-1.24 1.66-1.64.69-.39 1.51-.58 2.46-.58v2.94h-.73c-1.11 0-1.95.28-2.53.85-.57.57-.86 1.55-.86 2.95v7.23h-2.84V95.75h2.84v2zm5.79 4.82c0-1.39.29-2.61.86-3.67.58-1.07 1.36-1.9 2.35-2.49.99-.59 2.08-.88 3.28-.88 1.08 0 2.03.21 2.83.63.81.43 1.45.96 1.94 1.59v-2h2.87v13.75h-2.87v-2.04c-.49.65-1.14 1.19-1.98 1.62-.83.43-1.78.65-2.84.65-1.18 0-2.26-.31-3.24-.91-.99-.61-1.76-1.46-2.34-2.55-.57-1.09-.86-2.32-.86-3.7zm11.26.05c0-.95-.2-1.78-.59-2.48-.39-.69-.9-1.23-1.54-1.59-.63-.37-1.31-.55-2.04-.55s-1.42.18-2.05.53c-.63.36-1.14.89-1.53 1.58-.39.69-.59 1.51-.59 2.46 0 .94.2 1.78.59 2.49.39.72.9 1.26 1.54 1.64.65.37 1.32.56 2.04.56.73 0 1.41-.19 2.04-.55.64-.37 1.15-.9 1.54-1.61.39-.71.59-1.54.59-2.48zm12.15-.05c0-1.39.29-2.61.86-3.67.58-1.07 1.36-1.9 2.35-2.49.99-.59 2.08-.88 3.28-.88 1.08 0 2.03.21 2.83.63.81.43 1.45.96 1.94 1.59v-2h2.87v13.75h-2.87v-2.04c-.49.65-1.14 1.19-1.98 1.62-.83.43-1.78.65-2.84.65-1.18 0-2.26-.31-3.24-.91-.99-.61-1.76-1.46-2.34-2.55-.57-1.09-.86-2.32-.86-3.7zm11.26.05c0-.95-.2-1.78-.59-2.48-.39-.69-.9-1.23-1.54-1.59-.63-.37-1.31-.55-2.04-.55s-1.42.18-2.05.53c-.63.36-1.14.89-1.53 1.58-.39.69-.59 1.51-.59 2.46 0 .94.2 1.78.59 2.49.39.72.9 1.26 1.54 1.64.65.37 1.32.56 2.04.56.73 0 1.41-.19 2.04-.55.64-.37 1.15-.9 1.54-1.61.39-.71.59-1.54.59-2.48zm12.15-7.09c1.07 0 2.01.21 2.83.63.83.43 1.47.96 1.94 1.59v-2h2.87v13.98c0 1.26-.27 2.39-.8 3.38-.53.99-1.3 1.77-2.31 2.33-1.01.57-2.21.85-3.61.85-1.86 0-3.41-.43-4.64-1.31-1.23-.87-1.93-2.06-2.09-3.55h2.82c.21.71.67 1.29 1.38 1.73.71.44 1.55.66 2.53.66 1.15 0 2.08-.35 2.79-1.05.7-.7 1.06-1.71 1.06-3.04v-2.3c-.48.65-1.14 1.2-1.96 1.64-.83.44-1.76.66-2.81.66-1.2 0-2.29-.31-3.28-.91-.99-.61-1.77-1.46-2.35-2.55-.57-1.09-.86-2.32-.86-3.7 0-1.39.29-2.61.86-3.67.58-1.07 1.36-1.9 2.35-2.49.99-.59 2.08-.88 3.28-.88zm4.77 7.09c0-.95-.2-1.78-.59-2.48-.39-.69-.9-1.23-1.53-1.59-.64-.37-1.32-.55-2.05-.55-.73 0-1.41.18-2.05.53-.63.36-1.14.89-1.53 1.58-.39.69-.59 1.51-.59 2.46 0 .94.2 1.78.59 2.49.39.72.9 1.26 1.55 1.64.64.37 1.31.56 2.03.56.73 0 1.41-.19 2.05-.55.63-.37 1.14-.9 1.53-1.61.39-.71.59-1.54.59-2.48zm12.58 7.11c-1.3 0-2.47-.3-3.52-.89a6.36 6.36 0 0 1-2.47-2.49c-.6-1.08-.9-2.32-.9-3.73 0-1.4.31-2.64.92-3.72.62-1.08 1.46-1.92 2.52-2.5 1.07-.58 2.26-.87 3.57-.87 1.32 0 2.51.29 3.57.87 1.06.58 1.91 1.42 2.52 2.5.62 1.08.92 2.32.92 3.72 0 1.39-.31 2.63-.94 3.71a6.576 6.576 0 0 1-2.59 2.51c-1.09.59-2.29.89-3.6.89zm0-2.47c.73 0 1.41-.18 2.06-.53.64-.35 1.16-.87 1.56-1.57.39-.7.59-1.55.59-2.54 0-1-.19-1.85-.57-2.54-.38-.69-.89-1.21-1.52-1.56-.63-.35-1.32-.52-2.05-.52-.73 0-1.41.17-2.03.52-.63.35-1.12.87-1.49 1.56-.36.69-.55 1.54-.55 2.54 0 1.48.38 2.62 1.14 3.43.76.8 1.71 1.21 2.86 1.21zm12.8-9.51c.42-.7.97-1.24 1.66-1.64.69-.39 1.51-.58 2.46-.58v2.94h-.73c-1.11 0-1.95.28-2.53.85-.57.57-.86 1.55-.86 2.95v7.23h-2.84V95.75h2.84v2zm5.79 4.82c0-1.39.29-2.61.86-3.67.58-1.07 1.36-1.9 2.35-2.49.99-.59 2.08-.88 3.28-.88 1.08 0 2.03.21 2.83.63.81.43 1.45.96 1.94 1.59v-2h2.87v13.75h-2.87v-2.04c-.49.65-1.14 1.19-1.98 1.62-.83.43-1.78.65-2.84.65-1.18 0-2.26-.31-3.24-.91-.99-.61-1.76-1.46-2.34-2.55-.57-1.09-.86-2.32-.86-3.7zm11.26.05c0-.95-.2-1.78-.59-2.48-.39-.69-.9-1.23-1.53-1.59-.64-.37-1.32-.55-2.05-.55-.73 0-1.42.18-2.05.53-.63.36-1.14.89-1.53 1.58-.39.69-.59 1.51-.59 2.46 0 .94.2 1.78.59 2.49.39.72.9 1.26 1.54 1.64.65.37 1.32.56 2.04.56.73 0 1.41-.19 2.05-.55.63-.37 1.14-.9 1.53-1.61.39-.71.59-1.54.59-2.48zm12.15-.05c0-1.39.29-2.61.86-3.67.58-1.07 1.36-1.9 2.35-2.49.99-.59 2.08-.88 3.28-.88 1.08 0 2.03.21 2.83.63.81.43 1.45.96 1.94 1.59v-2H292v13.75h-2.87v-2.04c-.49.65-1.14 1.19-1.98 1.62-.83.43-1.78.65-2.84.65-1.18 0-2.26-.31-3.24-.91-.99-.61-1.76-1.46-2.34-2.55-.57-1.09-.86-2.32-.86-3.7zm11.26.05c0-.95-.2-1.78-.59-2.48-.39-.69-.9-1.23-1.53-1.59-.64-.37-1.32-.55-2.05-.55-.73 0-1.42.18-2.05.53-.63.36-1.14.89-1.53 1.58-.39.69-.59 1.51-.59 2.46 0 .94.2 1.78.59 2.49.39.72.9 1.26 1.54 1.64.65.37 1.32.56 2.04.56.73 0 1.41-.19 2.05-.55.63-.37 1.14-.9 1.53-1.61.39-.71.59-1.54.59-2.48zm11.6 7.11c-1.08 0-2.05-.2-2.91-.59-.85-.39-1.53-.92-2.03-1.6-.5-.67-.76-1.42-.8-2.25h2.95c.05.58.33 1.06.83 1.46.51.39 1.15.58 1.91.58.8 0 1.42-.15 1.86-.46.44-.31.66-.7.66-1.19 0-.51-.24-.89-.73-1.14-.49-.25-1.27-.53-2.34-.83-1.03-.28-1.87-.55-2.52-.82-.65-.27-1.21-.67-1.68-1.22-.48-.55-.71-1.28-.71-2.17 0-.74.21-1.41.64-2.01.44-.61 1.06-1.09 1.86-1.44.81-.35 1.74-.52 2.79-.52 1.56 0 2.82.39 3.78 1.18.96.79 1.47 1.87 1.53 3.23h-2.84c-.05-.61-.3-1.1-.75-1.47-.45-.36-1.06-.55-1.82-.55-.75 0-1.32.14-1.72.43-.4.28-.6.65-.6 1.12 0 .37.13.67.4.92.26.25.59.45.97.59.38.14.95.32 1.7.54.99.26 1.81.53 2.46.81.64.27 1.19.68 1.65 1.21.47.53.71 1.24.73 2.12 0 .78-.22 1.48-.65 2.1-.43.61-1.05 1.1-1.84 1.44-.79.35-1.71.53-2.78.53zm17.67-11.96c.48-.63 1.14-1.16 1.97-1.59.84-.44 1.78-.65 2.82-.65 1.2 0 2.3.29 3.29.88.99.59 1.76 1.42 2.33 2.49.57 1.06.85 2.28.85 3.67 0 1.38-.28 2.61-.85 3.7-.57 1.09-1.34 1.94-2.33 2.55-.99.6-2.09.91-3.29.91-1.04 0-1.98-.21-2.79-.64-.82-.42-1.48-.95-2-1.58v8.53h-2.84V95.75h2.84v2.02zm8.36 4.8c0-.95-.19-1.77-.58-2.46-.4-.69-.91-1.22-1.55-1.58-.64-.35-1.33-.53-2.06-.53-.72 0-1.39.18-2.03.55-.64.36-1.16.9-1.55 1.59-.39.7-.59 1.53-.59 2.48 0 .94.2 1.77.59 2.48.39.71.91 1.24 1.55 1.61.64.36 1.31.55 2.03.55.73 0 1.42-.19 2.06-.56.64-.38 1.15-.92 1.55-1.64.39-.71.58-1.55.58-2.49zm8.56-4.82c.42-.7.97-1.24 1.66-1.64.69-.39 1.51-.58 2.46-.58v2.94h-.72c-1.12 0-1.96.28-2.54.85-.57.57-.86 1.55-.86 2.95v7.23h-2.84V95.75h2.84v2zm8.19-3.82c-.52 0-.95-.17-1.3-.52-.35-.35-.52-.79-.52-1.3 0-.52.17-.95.52-1.3.35-.35.78-.52 1.3-.52.5 0 .92.17 1.27.52s.53.78.53 1.3c0 .51-.18.95-.53 1.3-.35.35-.77.52-1.27.52zm1.4 1.82v13.75h-2.85V95.75h2.85zm10.68-.22c1.08 0 2.05.22 2.91.67.85.45 1.52 1.12 2.01 2 .48.88.72 1.94.72 3.19v8.11h-2.82v-7.68c0-1.24-.31-2.18-.92-2.84-.62-.65-1.46-.98-2.52-.98-1.07 0-1.91.33-2.54.98-.62.66-.93 1.6-.93 2.84v7.68h-2.85V95.75h2.85v1.57c.46-.56 1.06-1 1.78-1.32.72-.31 1.49-.47 2.31-.47zm8.31 7.09c0-1.42.29-2.66.86-3.74a6.12 6.12 0 0 1 2.38-2.48c1.02-.58 2.18-.87 3.5-.87 1.66 0 3.04.39 4.13 1.18 1.09.79 1.82 1.92 2.21 3.38h-3.07c-.25-.68-.65-1.21-1.2-1.59-.55-.39-1.24-.58-2.07-.58-1.17 0-2.09.42-2.78 1.24-.69.82-1.04 1.97-1.04 3.46 0 1.48.35 2.63 1.04 3.46.69.84 1.61 1.25 2.78 1.25 1.65 0 2.74-.72 3.27-2.17h3.07c-.4 1.4-1.15 2.51-2.25 3.33-1.1.83-2.46 1.24-4.09 1.24-1.32 0-2.48-.3-3.5-.89a6.208 6.208 0 0 1-2.38-2.49c-.57-1.08-.86-2.32-.86-3.73zm17.37-8.69c-.52 0-.95-.17-1.3-.52-.35-.35-.52-.79-.52-1.3 0-.52.17-.95.52-1.3.35-.35.78-.52 1.3-.52.5 0 .92.17 1.27.52s.53.78.53 1.3c0 .51-.18.95-.53 1.3-.35.35-.77.52-1.27.52zm1.4 1.82v13.75h-2.85V95.75h2.85zm6.59 2.02c.48-.63 1.14-1.16 1.97-1.59.83-.44 1.77-.65 2.82-.65 1.2 0 2.29.29 3.28.88.99.59 1.77 1.42 2.33 2.49.57 1.06.85 2.28.85 3.67 0 1.38-.28 2.61-.85 3.7-.56 1.09-1.34 1.94-2.33 2.55-.99.6-2.08.91-3.28.91-1.05 0-1.98-.21-2.8-.64-.81-.42-1.48-.95-1.99-1.58v8.53h-2.85V95.75h2.85v2.02zm8.36 4.8c0-.95-.2-1.77-.59-2.46-.39-.69-.91-1.22-1.55-1.58-.64-.35-1.32-.53-2.06-.53-.71 0-1.39.18-2.03.55-.64.36-1.16.9-1.55 1.59-.39.7-.58 1.53-.58 2.48 0 .94.19 1.77.58 2.48.39.71.91 1.24 1.55 1.61a4.1 4.1 0 0 0 2.03.55c.74 0 1.42-.19 2.06-.56.64-.38 1.16-.92 1.55-1.64.39-.71.59-1.55.59-2.49zm4.76 0c0-1.39.29-2.61.86-3.67.58-1.07 1.36-1.9 2.35-2.49.99-.59 2.09-.88 3.28-.88 1.09 0 2.03.21 2.84.63.8.43 1.45.96 1.93 1.59v-2h2.87v13.75h-2.87v-2.04c-.48.65-1.14 1.19-1.97 1.62-.83.43-1.78.65-2.85.65-1.18 0-2.26-.31-3.24-.91-.98-.61-1.76-1.46-2.34-2.55-.57-1.09-.86-2.32-.86-3.7zm11.26.05c0-.95-.19-1.78-.59-2.48-.39-.69-.9-1.23-1.53-1.59-.63-.37-1.31-.55-2.05-.55-.73 0-1.41.18-2.04.53-.64.36-1.15.89-1.54 1.58-.39.69-.59 1.51-.59 2.46 0 .94.2 1.78.59 2.49.39.72.91 1.26 1.55 1.64.64.37 1.32.56 2.03.56.74 0 1.42-.19 2.05-.55.63-.37 1.14-.9 1.53-1.61.4-.71.59-1.54.59-2.48zm8.06-8.69c-.51 0-.95-.17-1.3-.52-.35-.35-.52-.79-.52-1.3 0-.52.17-.95.52-1.3.35-.35.79-.52 1.3-.52.5 0 .92.17 1.27.52s.53.78.53 1.3c0 .51-.18.95-.53 1.3-.35.35-.77.52-1.27.52zm1.4 1.82v13.75h-2.85V95.75h2.85zm8.73 13.98c-1.08 0-2.05-.2-2.9-.59-.86-.39-1.54-.92-2.04-1.6-.5-.67-.76-1.42-.8-2.25h2.95c.05.58.33 1.06.84 1.46.5.39 1.14.58 1.91.58.79 0 1.41-.15 1.85-.46.44-.31.66-.7.66-1.19 0-.51-.24-.89-.73-1.14-.49-.25-1.27-.53-2.33-.83-1.04-.28-1.88-.55-2.53-.82-.64-.27-1.21-.67-1.68-1.22-.47-.55-.71-1.28-.71-2.17 0-.74.21-1.41.65-2.01.43-.61 1.05-1.09 1.86-1.44.8-.35 1.73-.52 2.78-.52 1.56 0 2.82.39 3.78 1.18.96.79 1.47 1.87 1.53 3.23h-2.84c-.05-.61-.3-1.1-.75-1.47-.45-.36-1.05-.55-1.82-.55-.75 0-1.32.14-1.72.43-.4.28-.6.65-.6 1.12 0 .37.13.67.4.92.26.25.59.45.97.59.38.14.95.32 1.7.54 1 .26 1.82.53 2.46.81.64.27 1.19.68 1.66 1.21.46.53.7 1.24.72 2.12 0 .78-.22 1.48-.65 2.1-.43.61-1.04 1.1-1.83 1.44-.79.35-1.72.53-2.79.53zm20.59-11.66h-2.54v11.43h-2.87V98.07h-1.63v-2.32h1.63v-.97c0-1.58.42-2.73 1.26-3.46.84-.72 2.16-1.08 3.95-1.08v2.37c-.86 0-1.47.16-1.82.48-.35.33-.52.89-.52 1.69v.97h2.54v2.32zm14.98-2.32v13.75h-2.85v-1.62c-.45.57-1.03 1.01-1.76 1.34-.72.32-1.49.48-2.31.48-1.08 0-2.05-.22-2.9-.67-.86-.45-1.53-1.12-2.03-2-.49-.88-.73-1.94-.73-3.19v-8.09h2.82v7.66c0 1.23.31 2.18.92 2.84.62.65 1.46.98 2.52.98 1.07 0 1.91-.33 2.54-.98.62-.66.93-1.61.93-2.84v-7.66h2.85zm10.68-.22c1.08 0 2.05.22 2.91.67.85.45 1.52 1.12 2.01 2 .48.88.72 1.94.72 3.19v8.11h-2.82v-7.68c0-1.24-.31-2.18-.92-2.84-.62-.65-1.46-.98-2.52-.98-1.07 0-1.91.33-2.54.98-.62.66-.93 1.6-.93 2.84v7.68h-2.85V95.75h2.85v1.57c.46-.56 1.06-1 1.78-1.32.72-.31 1.49-.47 2.31-.47zm8.31 7.09c0-1.42.29-2.66.86-3.74a6.12 6.12 0 0 1 2.38-2.48c1.02-.58 2.18-.87 3.5-.87 1.66 0 3.04.39 4.13 1.18 1.09.79 1.83 1.92 2.21 3.38h-3.07c-.25-.68-.65-1.21-1.2-1.59-.55-.39-1.24-.58-2.07-.58-1.17 0-2.09.42-2.78 1.24-.69.82-1.04 1.97-1.04 3.46 0 1.48.35 2.63 1.04 3.46.69.84 1.61 1.25 2.78 1.25 1.65 0 2.74-.72 3.27-2.17h3.07c-.4 1.4-1.15 2.51-2.25 3.33-1.1.83-2.46 1.24-4.09 1.24-1.32 0-2.48-.3-3.5-.89a6.208 6.208 0 0 1-2.38-2.49c-.57-1.08-.86-2.32-.86-3.73zm17.37-8.69c-.52 0-.95-.17-1.3-.52-.35-.35-.52-.79-.52-1.3 0-.52.17-.95.52-1.3.35-.35.78-.52 1.3-.52.5 0 .92.17 1.27.52s.53.78.53 1.3c0 .51-.18.95-.53 1.3-.35.35-.77.52-1.27.52zm1.4 1.82v13.75h-2.85V95.75h2.85zm9.71 13.98c-1.3 0-2.47-.3-3.52-.89a6.36 6.36 0 0 1-2.47-2.49c-.6-1.08-.9-2.32-.9-3.73 0-1.4.31-2.64.92-3.72.62-1.08 1.46-1.92 2.52-2.5 1.07-.58 2.26-.87 3.57-.87 1.32 0 2.51.29 3.57.87 1.07.58 1.91 1.42 2.52 2.5.62 1.08.92 2.32.92 3.72 0 1.39-.31 2.63-.94 3.71a6.576 6.576 0 0 1-2.59 2.51c-1.09.59-2.29.89-3.6.89zm0-2.47c.73 0 1.41-.18 2.06-.53.64-.35 1.16-.87 1.56-1.57.39-.7.6-1.55.6-2.54 0-1-.2-1.85-.58-2.54-.38-.69-.89-1.21-1.52-1.56-.63-.35-1.32-.52-2.05-.52-.73 0-1.41.17-2.03.52-.63.35-1.12.87-1.49 1.56-.36.69-.55 1.54-.55 2.54 0 1.48.38 2.62 1.14 3.43.76.8 1.71 1.21 2.86 1.21zm16.89-11.73c1.09 0 2.05.22 2.91.67.86.45 1.53 1.12 2.01 2 .48.88.72 1.94.72 3.19v8.11h-2.82v-7.68c0-1.24-.3-2.18-.92-2.84-.61-.65-1.46-.98-2.52-.98s-1.91.33-2.53.98c-.63.66-.94 1.6-.94 2.84v7.68h-2.84V95.75h2.84v1.57c.47-.56 1.06-1 1.79-1.32a5.77 5.77 0 0 1 2.3-.47zm8.31 7.04c0-1.39.29-2.61.87-3.67.57-1.07 1.35-1.9 2.34-2.49.99-.59 2.09-.88 3.28-.88 1.09 0 2.03.21 2.84.63.8.43 1.45.96 1.93 1.59v-2h2.87v13.75h-2.87v-2.04c-.48.65-1.14 1.19-1.97 1.62-.83.43-1.78.65-2.85.65-1.18 0-2.26-.31-3.24-.91-.98-.61-1.76-1.46-2.33-2.55-.58-1.09-.87-2.32-.87-3.7zm11.26.05c0-.95-.19-1.78-.59-2.48-.39-.69-.9-1.23-1.53-1.59-.63-.37-1.31-.55-2.05-.55-.73 0-1.41.18-2.04.53-.64.36-1.15.89-1.54 1.58-.39.69-.59 1.51-.59 2.46 0 .94.2 1.78.59 2.49.39.72.91 1.26 1.55 1.64.64.37 1.32.56 2.03.56.74 0 1.42-.19 2.05-.55.63-.37 1.14-.9 1.53-1.61.4-.71.59-1.54.59-2.48zm9.46-11.59v18.47h-2.85V91.03h2.85zm5.19 2.9c-.51 0-.95-.17-1.3-.52-.35-.35-.52-.79-.52-1.3 0-.52.17-.95.52-1.3.35-.35.79-.52 1.3-.52.5 0 .92.17 1.27.52s.53.78.53 1.3c0 .51-.18.95-.53 1.3-.35.35-.77.52-1.27.52zm1.4 1.82v13.75h-2.85V95.75h2.85zm2.79 6.82c0-1.39.29-2.61.86-3.67.58-1.07 1.36-1.9 2.35-2.49.99-.59 2.09-.88 3.31-.88.9 0 1.78.19 2.66.58.87.4 1.56.92 2.08 1.56v-6.64h2.87v18.47h-2.87v-2.07c-.47.67-1.11 1.22-1.93 1.65-.83.43-1.77.65-2.84.65-1.19 0-2.29-.31-3.28-.91-.99-.61-1.77-1.46-2.35-2.55-.57-1.09-.86-2.32-.86-3.7zm11.26.05c0-.95-.2-1.78-.59-2.48-.39-.69-.9-1.23-1.53-1.59a3.99 3.99 0 0 0-2.05-.55c-.73 0-1.41.18-2.04.53-.64.36-1.15.89-1.54 1.58-.39.69-.59 1.51-.59 2.46 0 .94.2 1.78.59 2.49.39.72.91 1.26 1.55 1.64.64.37 1.32.56 2.03.56.73 0 1.42-.19 2.05-.55.63-.37 1.14-.9 1.53-1.61.39-.71.59-1.54.59-2.48zm5.66-.05c0-1.39.29-2.61.87-3.67.57-1.07 1.35-1.9 2.34-2.49.99-.59 2.09-.88 3.28-.88 1.09 0 2.03.21 2.84.63.8.43 1.45.96 1.93 1.59v-2h2.87v13.75h-2.87v-2.04c-.48.65-1.14 1.19-1.97 1.62-.83.43-1.78.65-2.85.65-1.18 0-2.26-.31-3.24-.91-.98-.61-1.76-1.46-2.33-2.55-.58-1.09-.87-2.32-.87-3.7zm11.26.05c0-.95-.19-1.78-.59-2.48-.39-.69-.9-1.23-1.53-1.59-.63-.37-1.31-.55-2.05-.55-.73 0-1.41.18-2.04.53-.64.36-1.15.89-1.54 1.58-.39.69-.58 1.51-.58 2.46 0 .94.19 1.78.58 2.49.39.72.91 1.26 1.55 1.64.64.37 1.32.56 2.03.56.74 0 1.42-.19 2.05-.55.63-.37 1.14-.9 1.53-1.61.4-.71.59-1.54.59-2.48zm5.67-.05c0-1.39.28-2.61.86-3.67.57-1.07 1.35-1.9 2.34-2.49.99-.59 2.1-.88 3.31-.88.9 0 1.78.19 2.66.58.87.4 1.57.92 2.08 1.56v-6.64h2.87v18.47h-2.87v-2.07c-.46.67-1.11 1.22-1.93 1.65-.82.43-1.77.65-2.83.65-1.2 0-2.3-.31-3.29-.91-.99-.61-1.77-1.46-2.34-2.55-.58-1.09-.86-2.32-.86-3.7zm11.25.05c0-.95-.19-1.78-.58-2.48-.4-.69-.91-1.23-1.54-1.59-.63-.37-1.31-.55-2.05-.55-.73 0-1.41.18-2.04.53-.63.36-1.15.89-1.54 1.58-.39.69-.58 1.51-.58 2.46 0 .94.19 1.78.58 2.49.39.72.91 1.26 1.55 1.64.64.37 1.32.56 2.03.56.74 0 1.42-.19 2.05-.55.63-.37 1.14-.9 1.54-1.61.39-.71.58-1.54.58-2.48zm19.22-.33c0 .52-.03.98-.1 1.4h-10.51c.09 1.1.49 1.98 1.23 2.64.73.67 1.63 1 2.69 1 1.53 0 2.61-.64 3.25-1.92h3.07a6.26 6.26 0 0 1-2.26 3.11c-1.09.8-2.44 1.21-4.06 1.21-1.31 0-2.49-.3-3.53-.89a6.31 6.31 0 0 1-2.45-2.49c-.59-1.08-.88-2.32-.88-3.73 0-1.42.29-2.66.86-3.74.57-1.07 1.38-1.9 2.42-2.48 1.04-.58 2.23-.87 3.58-.87 1.3 0 2.46.28 3.47.85 1.02.56 1.81 1.36 2.37 2.38.57 1.02.85 2.2.85 3.53zm-2.97-.9c-.02-1.05-.39-1.89-1.12-2.52-.73-.63-1.64-.95-2.72-.95-.99 0-1.83.31-2.52.94-.7.62-1.12 1.47-1.25 2.53h7.61zm10.76 8.34c-1.08 0-2.05-.2-2.91-.59-.86-.39-1.54-.92-2.03-1.6-.5-.67-.77-1.42-.8-2.25h2.94c.05.58.33 1.06.84 1.46.51.39 1.14.58 1.91.58.8 0 1.42-.15 1.86-.46.44-.31.66-.7.66-1.19 0-.51-.25-.89-.74-1.14-.49-.25-1.27-.53-2.33-.83-1.03-.28-1.87-.55-2.52-.82-.65-.27-1.21-.67-1.69-1.22-.47-.55-.71-1.28-.71-2.17 0-.74.22-1.41.65-2.01.43-.61 1.05-1.09 1.86-1.44.81-.35 1.73-.52 2.78-.52 1.57 0 2.83.39 3.78 1.18.96.79 1.47 1.87 1.54 3.23h-2.85c-.05-.61-.3-1.1-.75-1.47-.44-.36-1.05-.55-1.82-.55-.75 0-1.32.14-1.72.43-.4.28-.6.65-.6 1.12 0 .37.13.67.4.92s.59.45.97.59c.39.14.95.32 1.7.54 1 .26 1.82.53 2.46.81.64.27 1.19.68 1.66 1.21.46.53.71 1.24.72 2.12 0 .78-.21 1.48-.65 2.1-.43.61-1.04 1.1-1.83 1.44-.79.35-1.72.53-2.78.53zm13.87-7.16c0-1.39.29-2.61.86-3.67.58-1.07 1.36-1.9 2.35-2.49.99-.59 2.09-.88 3.31-.88.9 0 1.78.19 2.65.58.88.4 1.57.92 2.09 1.56v-6.64h2.87v18.47h-2.87v-2.07c-.47.67-1.11 1.22-1.94 1.65-.82.43-1.76.65-2.83.65-1.2 0-2.29-.31-3.28-.91-.99-.61-1.77-1.46-2.35-2.55-.57-1.09-.86-2.32-.86-3.7zm11.26.05c0-.95-.2-1.78-.59-2.48-.39-.69-.9-1.23-1.53-1.59a3.99 3.99 0 0 0-2.05-.55c-.73 0-1.41.18-2.05.53-.63.36-1.14.89-1.53 1.58-.39.69-.59 1.51-.59 2.46 0 .94.2 1.78.59 2.49.39.72.91 1.26 1.55 1.64.64.37 1.32.56 2.03.56.73 0 1.42-.19 2.05-.55.63-.37 1.14-.9 1.53-1.61.39-.71.59-1.54.59-2.48zm12.58 7.11c-1.3 0-2.47-.3-3.52-.89a6.36 6.36 0 0 1-2.47-2.49c-.6-1.08-.9-2.32-.9-3.73 0-1.4.31-2.64.92-3.72.62-1.08 1.46-1.92 2.52-2.5 1.07-.58 2.26-.87 3.57-.87 1.32 0 2.51.29 3.57.87 1.07.58 1.91 1.42 2.52 2.5.62 1.08.93 2.32.93 3.72 0 1.39-.32 2.63-.95 3.71a6.512 6.512 0 0 1-2.59 2.51c-1.09.59-2.29.89-3.6.89zm0-2.47c.73 0 1.42-.18 2.06-.53.64-.35 1.16-.87 1.56-1.57.4-.7.6-1.55.6-2.54 0-1-.2-1.85-.58-2.54-.38-.69-.89-1.21-1.52-1.56-.63-.35-1.32-.52-2.05-.52-.73 0-1.41.17-2.03.52-.63.35-1.12.87-1.49 1.56-.36.69-.55 1.54-.55 2.54 0 1.48.38 2.62 1.14 3.43.76.8 1.71 1.21 2.86 1.21zm15.5-6.47c0-1.69.39-3.22 1.18-4.56.79-1.35 1.87-2.4 3.22-3.16 1.36-.76 2.84-1.14 4.46-1.14 1.84 0 3.49.46 4.93 1.36 1.44.91 2.48 2.2 3.13 3.86h-3.42c-.45-.92-1.07-1.6-1.87-2.05-.8-.45-1.73-.67-2.77-.67-1.15 0-2.17.26-3.07.77-.9.52-1.6 1.26-2.11 2.22-.51.97-.76 2.09-.76 3.37 0 1.28.25 2.41.76 3.37.51.97 1.21 1.71 2.11 2.24.9.52 1.92.78 3.07.78 1.04 0 1.97-.22 2.77-.67.8-.45 1.42-1.13 1.87-2.05h3.42c-.65 1.67-1.69 2.95-3.13 3.85-1.44.89-3.09 1.34-4.93 1.34-1.63 0-3.12-.38-4.47-1.13a8.468 8.468 0 0 1-3.21-3.16c-.79-1.35-1.18-2.87-1.18-4.57zm29.25 8.71-4-6.93h-2.17v6.93h-2.84V92.16h5.99c1.33 0 2.46.23 3.38.7.92.46 1.61 1.09 2.07 1.87.46.78.69 1.65.69 2.62 0 1.13-.33 2.16-.99 3.08-.66.92-1.67 1.55-3.03 1.89l4.29 7.18h-3.39zm-6.17-9.21h3.15c1.06 0 1.87-.26 2.41-.79.54-.54.81-1.25.81-2.15 0-.9-.27-1.6-.8-2.11-.53-.51-1.34-.76-2.42-.76h-3.15v5.81zm31.2-8.13v17.34h-2.84V97.62l-5.3 11.88h-1.97l-5.31-11.88v11.88h-2.85V92.16h3.07l6.09 13.6 6.07-13.6h3.04zm13.08 5.61c.48-.63 1.14-1.16 1.97-1.59.83-.44 1.77-.65 2.82-.65 1.2 0 2.29.29 3.28.88.99.59 1.77 1.42 2.34 2.49.56 1.06.84 2.28.84 3.67 0 1.38-.28 2.61-.84 3.7-.57 1.09-1.35 1.94-2.34 2.55-.99.6-2.08.91-3.28.91-1.05 0-1.98-.21-2.8-.64-.81-.42-1.48-.95-1.99-1.58v8.53H760V95.75h2.85v2.02zm8.36 4.8c0-.95-.2-1.77-.59-2.46-.39-.69-.9-1.22-1.54-1.58a4.27 4.27 0 0 0-2.06-.53c-.72 0-1.4.18-2.04.55-.64.36-1.15.9-1.55 1.59-.39.7-.58 1.53-.58 2.48 0 .94.19 1.77.58 2.48.4.71.91 1.24 1.55 1.61.64.36 1.32.55 2.04.55.73 0 1.41-.19 2.06-.56.64-.38 1.15-.92 1.54-1.64.39-.71.59-1.55.59-2.49zm4.77 0c0-1.39.28-2.61.86-3.67.57-1.07 1.35-1.9 2.34-2.49.99-.59 2.09-.88 3.29-.88 1.08 0 2.02.21 2.83.63.8.43 1.45.96 1.93 1.59v-2h2.87v13.75h-2.87v-2.04c-.48.65-1.14 1.19-1.97 1.62-.83.43-1.78.65-2.85.65-1.18 0-2.26-.31-3.24-.91-.98-.61-1.76-1.46-2.33-2.55-.58-1.09-.86-2.32-.86-3.7zm11.25.05c0-.95-.19-1.78-.58-2.48-.4-.69-.91-1.23-1.54-1.59-.63-.37-1.31-.55-2.05-.55-.73 0-1.41.18-2.04.53-.63.36-1.15.89-1.54 1.58-.39.69-.58 1.51-.58 2.46 0 .94.19 1.78.58 2.49.39.72.91 1.26 1.55 1.64.64.37 1.32.56 2.03.56.74 0 1.42-.19 2.05-.55.63-.37 1.14-.9 1.54-1.61.39-.71.58-1.54.58-2.48zm9.46-4.87c.42-.7.97-1.24 1.66-1.64.69-.39 1.51-.58 2.46-.58v2.94h-.73c-1.11 0-1.95.28-2.53.85-.57.57-.86 1.55-.86 2.95v7.23h-2.84V95.75h2.84v2zm5.79 4.82c0-1.39.29-2.61.86-3.67.58-1.07 1.36-1.9 2.35-2.49.99-.59 2.08-.88 3.28-.88 1.08 0 2.03.21 2.83.63.81.43 1.45.96 1.94 1.59v-2h2.87v13.75h-2.87v-2.04c-.49.65-1.14 1.19-1.97 1.62-.84.43-1.79.65-2.85.65-1.18 0-2.26-.31-3.24-.91-.99-.61-1.76-1.46-2.34-2.55-.57-1.09-.86-2.32-.86-3.7zm11.26.05c0-.95-.2-1.78-.59-2.48-.39-.69-.9-1.23-1.53-1.59-.64-.37-1.32-.55-2.05-.55-.73 0-1.42.18-2.05.53-.63.36-1.14.89-1.53 1.58-.39.69-.59 1.51-.59 2.46 0 .94.2 1.78.59 2.49.39.72.9 1.26 1.54 1.64.65.37 1.32.56 2.04.56.73 0 1.41-.19 2.05-.55.63-.37 1.14-.9 1.53-1.61.39-.71.59-1.54.59-2.48zm12.15 0c0-1.42.29-2.66.86-3.74.58-1.07 1.37-1.9 2.39-2.48 1.01-.58 2.17-.87 3.49-.87 1.66 0 3.04.39 4.13 1.18 1.09.79 1.83 1.92 2.21 3.38h-3.07c-.25-.68-.65-1.21-1.2-1.59-.55-.39-1.24-.58-2.07-.58-1.17 0-2.09.42-2.78 1.24-.69.82-1.04 1.97-1.04 3.46 0 1.48.35 2.63 1.04 3.46.69.84 1.61 1.25 2.78 1.25 1.65 0 2.74-.72 3.27-2.17h3.07c-.4 1.4-1.15 2.51-2.25 3.33-1.1.83-2.46 1.24-4.09 1.24-1.32 0-2.48-.3-3.49-.89-1.02-.59-1.81-1.42-2.39-2.49-.57-1.08-.86-2.32-.86-3.73zm21.89 7.11c-1.3 0-2.47-.3-3.52-.89a6.36 6.36 0 0 1-2.47-2.49c-.6-1.08-.9-2.32-.9-3.73 0-1.4.31-2.64.92-3.72.62-1.08 1.46-1.92 2.52-2.5 1.07-.58 2.26-.87 3.57-.87 1.32 0 2.51.29 3.57.87 1.07.58 1.91 1.42 2.52 2.5.62 1.08.93 2.32.93 3.72 0 1.39-.32 2.63-.95 3.71a6.551 6.551 0 0 1-2.58 2.51c-1.09.59-2.3.89-3.61.89zm0-2.47c.73 0 1.42-.18 2.06-.53.64-.35 1.16-.87 1.56-1.57.4-.7.6-1.55.6-2.54 0-1-.19-1.85-.58-2.54-.38-.69-.89-1.21-1.52-1.56-.63-.35-1.31-.52-2.05-.52-.73 0-1.41.17-2.03.52-.62.35-1.12.87-1.49 1.56-.36.69-.54 1.54-.54 2.54 0 1.48.37 2.62 1.13 3.43.76.8 1.71 1.21 2.86 1.21zm12.8-9.51c.42-.7.97-1.24 1.66-1.64.69-.39 1.51-.58 2.46-.58v2.94h-.72c-1.12 0-1.96.28-2.54.85-.57.57-.86 1.55-.86 2.95v7.23h-2.84V95.75h2.84v2zm9.59 0c.41-.7.97-1.24 1.66-1.64.69-.39 1.51-.58 2.45-.58v2.94h-.72c-1.11 0-1.96.28-2.53.85-.58.57-.86 1.55-.86 2.95v7.23h-2.85V95.75h2.85v2zm19.34 4.54c0 .52-.03.98-.1 1.4H878.9c.08 1.1.49 1.98 1.22 2.64.74.67 1.64 1 2.7 1 1.53 0 2.61-.64 3.25-1.92h3.06c-.41 1.26-1.16 2.3-2.25 3.11-1.09.8-2.45 1.21-4.06 1.21-1.31 0-2.49-.3-3.53-.89a6.31 6.31 0 0 1-2.45-2.49c-.59-1.08-.88-2.32-.88-3.73 0-1.42.28-2.66.86-3.74.57-1.07 1.38-1.9 2.42-2.48 1.04-.58 2.23-.87 3.58-.87 1.3 0 2.46.28 3.47.85 1.01.56 1.8 1.36 2.37 2.38.57 1.02.85 2.2.85 3.53zm-2.97-.9c-.02-1.05-.39-1.89-1.12-2.52-.74-.63-1.64-.95-2.72-.95-.99 0-1.83.31-2.53.94-.69.62-1.11 1.47-1.24 2.53h7.61zm9.08-3.32v7.61c0 .52.12.89.37 1.12.24.22.65.33 1.23.33h1.75v2.37h-2.25c-1.28 0-2.26-.3-2.94-.89-.68-.6-1.03-1.58-1.03-2.93v-7.61h-1.62v-2.32h1.62v-3.42h2.87v3.42h3.35v2.32h-3.35zm11.93 11.66c-1.29 0-2.47-.3-3.52-.89a6.426 6.426 0 0 1-2.47-2.49c-.6-1.08-.89-2.32-.89-3.73 0-1.4.3-2.64.92-3.72.61-1.08 1.45-1.92 2.52-2.5 1.07-.58 2.25-.87 3.57-.87 1.31 0 2.5.29 3.57.87 1.06.58 1.9 1.42 2.52 2.5.61 1.08.92 2.32.92 3.72 0 1.39-.31 2.63-.95 3.71a6.486 6.486 0 0 1-2.58 2.51c-1.09.59-2.29.89-3.61.89zm0-2.47c.74 0 1.42-.18 2.06-.53.64-.35 1.16-.87 1.56-1.57.4-.7.6-1.55.6-2.54 0-1-.19-1.85-.57-2.54-.39-.69-.89-1.21-1.52-1.56-.64-.35-1.32-.52-2.05-.52-.73 0-1.41.17-2.04.52-.62.35-1.11.87-1.48 1.56-.37.69-.55 1.54-.55 2.54 0 1.48.38 2.62 1.14 3.43.75.8 1.71 1.21 2.85 1.21zm12.81-9.51c.41-.7.97-1.24 1.66-1.64.69-.39 1.51-.58 2.46-.58v2.94h-.73c-1.11 0-1.96.28-2.53.85-.58.57-.86 1.55-.86 2.95v7.23h-2.85V95.75h2.85v2zm19.34 4.54c0 .52-.03.98-.1 1.4h-10.51c.09 1.1.49 1.98 1.23 2.64.73.67 1.63 1 2.69 1 1.53 0 2.61-.64 3.25-1.92h3.07a6.26 6.26 0 0 1-2.26 3.11c-1.09.8-2.44 1.21-4.06 1.21-1.31 0-2.49-.3-3.53-.89-1.04-.59-1.85-1.42-2.45-2.49-.59-1.08-.88-2.32-.88-3.73 0-1.42.29-2.66.86-3.74.57-1.07 1.38-1.9 2.42-2.48 1.04-.58 2.23-.87 3.58-.87 1.3 0 2.46.28 3.47.85 1.02.56 1.81 1.36 2.37 2.38.57 1.02.85 2.2.85 3.53zm-2.97-.9c-.02-1.05-.39-1.89-1.12-2.52-.73-.63-1.64-.95-2.72-.95-.98 0-1.83.31-2.52.94-.7.62-1.12 1.47-1.25 2.53h7.61zm10.76 8.34c-1.08 0-2.05-.2-2.91-.59-.86-.39-1.54-.92-2.03-1.6-.5-.67-.77-1.42-.8-2.25h2.94c.05.58.33 1.06.84 1.46.51.39 1.14.58 1.91.58.8 0 1.42-.15 1.86-.46.44-.31.66-.7.66-1.19 0-.51-.25-.89-.74-1.14-.49-.25-1.27-.53-2.33-.83-1.03-.28-1.87-.55-2.52-.82-.65-.27-1.21-.67-1.69-1.22-.47-.55-.71-1.28-.71-2.17 0-.74.22-1.41.65-2.01.43-.61 1.05-1.09 1.86-1.44.81-.35 1.73-.52 2.78-.52 1.57 0 2.83.39 3.78 1.18.96.79 1.47 1.87 1.54 3.23h-2.85c-.05-.61-.3-1.1-.75-1.47-.44-.36-1.05-.55-1.82-.55-.75 0-1.32.14-1.72.43-.4.28-.6.65-.6 1.12 0 .37.13.67.4.92s.59.45.97.59c.39.14.95.32 1.7.54 1 .26 1.82.53 2.46.81.64.27 1.19.68 1.66 1.21.46.53.71 1.24.72 2.12 0 .78-.21 1.48-.65 2.1-.43.61-1.04 1.1-1.83 1.44-.79.35-1.72.53-2.78.53zm27.43-7.44c0 .52-.04.98-.1 1.4h-10.51c.08 1.1.49 1.98 1.22 2.64.73.67 1.63 1 2.7 1 1.53 0 2.61-.64 3.24-1.92h3.07c-.41 1.26-1.17 2.3-2.26 3.11-1.09.8-2.44 1.21-4.05 1.21-1.32 0-2.49-.3-3.53-.89a6.31 6.31 0 0 1-2.45-2.49c-.59-1.08-.89-2.32-.89-3.73 0-1.42.29-2.66.86-3.74a6.11 6.11 0 0 1 2.43-2.48c1.04-.58 2.23-.87 3.58-.87 1.29 0 2.45.28 3.47.85 1.01.56 1.8 1.36 2.37 2.38.56 1.02.85 2.2.85 3.53zm-2.97-.9c-.02-1.05-.4-1.89-1.13-2.52-.73-.63-1.64-.95-2.72-.95-.98 0-1.82.31-2.52.94-.7.62-1.11 1.47-1.25 2.53h7.62zm13.7-7.46c-.52 0-.95-.17-1.3-.52-.35-.35-.52-.79-.52-1.3 0-.52.17-.95.52-1.3.35-.35.78-.52 1.3-.52.5 0 .92.17 1.27.52s.52.78.52 1.3c0 .51-.17.95-.52 1.3-.35.35-.77.52-1.27.52zm1.4 1.82v13.75h-2.85V95.75h2.85zm20.39-.22c1.08 0 2.05.22 2.9.67.86.45 1.53 1.12 2.02 2 .5.88.74 1.94.74 3.19v8.11h-2.82v-7.68c0-1.24-.31-2.18-.92-2.84-.62-.65-1.46-.98-2.52-.98-1.07 0-1.91.33-2.54.98-.62.66-.93 1.6-.93 2.84v7.68h-2.82v-7.68c0-1.24-.31-2.18-.93-2.84-.61-.65-1.45-.98-2.52-.98-1.06 0-1.91.33-2.53.98-.62.66-.94 1.6-.94 2.84v7.68h-2.84V95.75h2.84v1.57c.47-.56 1.06-1 1.78-1.32.71-.31 1.48-.47 2.29-.47 1.1 0 2.08.23 2.95.7.86.46 1.53 1.14 1.99 2.02.42-.83 1.07-1.5 1.95-1.99a5.76 5.76 0 0 1 2.85-.73zm15.24 14.2c-1.29 0-2.47-.3-3.51-.89a6.384 6.384 0 0 1-2.48-2.49c-.59-1.08-.89-2.32-.89-3.73 0-1.4.3-2.64.92-3.72.62-1.08 1.46-1.92 2.52-2.5 1.07-.58 2.26-.87 3.57-.87s2.5.29 3.57.87c1.06.58 1.9 1.42 2.52 2.5.62 1.08.92 2.32.92 3.72 0 1.39-.31 2.63-.94 3.71a6.576 6.576 0 0 1-2.59 2.51c-1.09.59-2.29.89-3.61.89zm0-2.47c.74 0 1.42-.18 2.06-.53.64-.35 1.16-.87 1.56-1.57.4-.7.6-1.55.6-2.54 0-1-.19-1.85-.57-2.54-.38-.69-.89-1.21-1.52-1.56-.64-.35-1.32-.52-2.05-.52-.73 0-1.41.17-2.03.52-.63.35-1.12.87-1.49 1.56-.36.69-.55 1.54-.55 2.54 0 1.48.38 2.62 1.14 3.43.75.8 1.71 1.21 2.85 1.21zm12.81-9.46c.48-.67 1.14-1.21 1.98-1.64.84-.42 1.78-.63 2.81-.63 1.22 0 2.31.29 3.3.87.98.58 1.75 1.41 2.32 2.48.56 1.08.85 2.3.85 3.69 0 1.38-.29 2.61-.85 3.7-.57 1.09-1.35 1.94-2.34 2.55-.99.6-2.08.91-3.28.91-1.06 0-2.01-.21-2.83-.63-.82-.41-1.48-.94-1.96-1.59v1.99h-2.85V91.03h2.85v6.77zm8.36 4.77c0-.95-.19-1.77-.59-2.46-.39-.69-.9-1.22-1.54-1.58-.64-.35-1.33-.53-2.06-.53-.72 0-1.4.18-2.04.55-.64.36-1.15.9-1.54 1.59-.4.7-.59 1.53-.59 2.48 0 .94.19 1.77.59 2.48.39.71.9 1.24 1.54 1.61.64.36 1.32.55 2.04.55.73 0 1.42-.19 2.06-.56.64-.38 1.15-.92 1.54-1.64.4-.71.59-1.55.59-2.49zm7.16-8.64c-.51 0-.95-.17-1.29-.52a1.78 1.78 0 0 1-.53-1.3c0-.52.18-.95.53-1.3.34-.35.78-.52 1.29-.52.5 0 .93.17 1.28.52s.52.78.52 1.3c0 .51-.17.95-.52 1.3-.35.35-.78.52-1.28.52zm1.4 1.82v13.75h-2.84V95.75h2.84zm6.59-4.72v18.47h-2.85V91.03h2.85zm5.19 2.9c-.51 0-.95-.17-1.3-.52-.35-.35-.52-.79-.52-1.3 0-.52.17-.95.52-1.3.35-.35.79-.52 1.3-.52.5 0 .92.17 1.27.52s.53.78.53 1.3c0 .51-.18.95-.53 1.3-.35.35-.77.52-1.27.52zm1.4 1.82v13.75h-2.85V95.75h2.85zm2.79 6.82c0-1.39.29-2.61.86-3.67.58-1.07 1.36-1.9 2.35-2.49.99-.59 2.09-.88 3.28-.88 1.08 0 2.03.21 2.84.63.8.43 1.45.96 1.93 1.59v-2h2.87v13.75h-2.87v-2.04c-.48.65-1.14 1.19-1.97 1.62-.83.43-1.78.65-2.85.65-1.18 0-2.26-.31-3.24-.91-.98-.61-1.76-1.46-2.34-2.55-.57-1.09-.86-2.32-.86-3.7zm11.26.05c0-.95-.2-1.78-.59-2.48-.39-.69-.9-1.23-1.53-1.59a3.99 3.99 0 0 0-2.05-.55c-.73 0-1.41.18-2.04.53-.64.36-1.15.89-1.54 1.58-.39.69-.59 1.51-.59 2.46 0 .94.2 1.78.59 2.49.39.72.91 1.26 1.55 1.64.64.37 1.32.56 2.03.56.73 0 1.42-.19 2.05-.55.63-.37 1.14-.9 1.53-1.61.39-.71.59-1.54.59-2.48zm-1.15-10.56-5.51 2.72v-2.1l5.51-3.04v2.42zm10.61 5.69c.41-.7.97-1.24 1.66-1.64.69-.39 1.51-.58 2.46-.58v2.94h-.73c-1.11 0-1.96.28-2.53.85-.57.57-.86 1.55-.86 2.95v7.23h-2.85V95.75h2.85v2zm8.18-3.82c-.51 0-.94-.17-1.29-.52a1.78 1.78 0 0 1-.53-1.3c0-.52.18-.95.53-1.3.35-.35.78-.52 1.29-.52.5 0 .93.17 1.28.52s.52.78.52 1.3c0 .51-.17.95-.52 1.3-.35.35-.78.52-1.28.52zm1.4 1.82v13.75h-2.84V95.75h2.84zm2.8 6.82c0-1.39.29-2.61.86-3.67.57-1.07 1.36-1.9 2.34-2.49 1-.59 2.09-.88 3.29-.88 1.08 0 2.02.21 2.83.63.81.43 1.45.96 1.93 1.59v-2h2.87v13.75h-2.87v-2.04c-.48.65-1.14 1.19-1.97 1.62-.83.43-1.78.65-2.84.65-1.18 0-2.27-.31-3.25-.91-.98-.61-1.76-1.46-2.33-2.55-.57-1.09-.86-2.32-.86-3.7zm11.25.05c0-.95-.19-1.78-.58-2.48-.39-.69-.9-1.23-1.54-1.59-.63-.37-1.31-.55-2.04-.55-.74 0-1.42.18-2.05.53-.63.36-1.14.89-1.54 1.58-.39.69-.58 1.51-.58 2.46 0 .94.19 1.78.58 2.49.4.72.91 1.26 1.55 1.64.64.37 1.32.56 2.04.56.73 0 1.41-.19 2.04-.55.64-.37 1.15-.9 1.54-1.61.39-.71.58-1.54.58-2.48zm11.61 7.11c-1.08 0-2.05-.2-2.91-.59-.86-.39-1.53-.92-2.03-1.6-.5-.67-.77-1.42-.8-2.25h2.94c.05.58.33 1.06.84 1.46.51.39 1.14.58 1.91.58.8 0 1.42-.15 1.86-.46.44-.31.66-.7.66-1.19 0-.51-.25-.89-.74-1.14-.49-.25-1.27-.53-2.33-.83-1.03-.28-1.87-.55-2.52-.82-.65-.27-1.21-.67-1.69-1.22-.47-.55-.71-1.28-.71-2.17 0-.74.22-1.41.65-2.01.43-.61 1.05-1.09 1.86-1.44.81-.35 1.74-.52 2.78-.52 1.57 0 2.83.39 3.79 1.18.95.79 1.46 1.87 1.53 3.23h-2.84c-.05-.61-.3-1.1-.75-1.47-.45-.36-1.06-.55-1.83-.55-.74 0-1.32.14-1.72.43-.4.28-.6.65-.6 1.12 0 .37.14.67.4.92.27.25.59.45.98.59.38.14.94.32 1.69.54 1 .26 1.82.53 2.46.81.64.27 1.2.68 1.66 1.21.47.53.71 1.24.72 2.12 0 .78-.21 1.48-.64 2.1-.44.61-1.05 1.1-1.84 1.44-.79.35-1.72.53-2.78.53z" style="fill:#686af1"/><path d="M54.15 168.75c.83 0 1.52.69 1.52 1.53 0 .83-.69 1.52-1.52 1.52h-3.61v3.61c0 .84-.69 1.53-1.52 1.53-.84 0-1.53-.69-1.53-1.53v-3.61h-3.6c-.83 0-1.52-.69-1.52-1.52 0-.84.69-1.53 1.52-1.53h3.6v-3.61a1.526 1.526 0 0 1 3.05 0v3.61h3.61zm118.74 121.28h8.75v-8.78h-8.75v8.78zm0-13.15h8.75v-8.78h-8.75v8.78zm-13.14 13.15h8.75v-8.78h-8.75v8.78zm0-13.15h8.75v-8.78h-8.75v8.78zm-29.64 13.15h8.75v-8.78h-8.75v8.78zm0-13.15h8.75v-8.78h-8.75v8.78zm-13.13 13.15h8.76v-8.78h-8.76v8.78zm0-13.15h8.76v-8.78h-8.76v8.78zm854.3 3.14c-.05-1.39-.15-2.78-.16-3.41 0-.22-.01-.44-.03-.66.31 1.16.58 2.14.7 2.51-.1.5-.27 1.02-.51 1.56zm98.04 18.24c-.01-.21-.2-.93-.31-1.22-.02.11-.04.24-.04.35-.02.27-.08.91.11 1.23.01.03.03.05.06.07.02-.02.05-.03.05-.05.03-.06.15-.15.13-.38zm7.87-10.59c-.06-.01-.12-.03-.16-.03-.03 0-.09.02-.13.01-.05-.01-.12-.07-.18-.06-.06.01-.2-.01-.22.04-.01.05.07.14.07.2 0 .07-.12.43-.31.45-.18.03-.48-.13-.54-.21-.02.19-.08.72-.13.88-.04.15-.18.7-.23.86-.06.17-.49 1.86-.69 2.36-.2.51-.89 2.15-2.9 2.33-.45.06-1.5.82-1.59 1.41-.1.65-.73.96-.73.96s.02.35.07.61c.06.26.17.9.43 1.15.26.26.68.11.76.11.08 0 .17.02.19.05.02.02-.04.07-.04.07s.07.05.13.06c.05.01.33.09.26.17-.06.09-.32.04-.32.04s.04.04.03.07c0 .03.01.1-.13.08-.15-.01-.59-.08-.76-.12-.03 0-.06-.01-.09-.01.01.01.02.01.02.02.05.02.29.17.21.23-.09.06-.32-.04-.32-.04s.02.04.01.07c-.01.02-.02.09-.15.04-.14-.05-.55-.23-.7-.31-.05-.03-.12-.05-.18-.07-.05.01-.08.01-.1.01-.02 0-.03-.02-.04-.05-.08-.02-.14-.05-.17-.09-.07-.08.02-.18-.06-.23-.08-.05-.33-.01-.37.02-.04.04-.26.02-.32 0s.02-.17.06-.19c.05-.02.43-.08.47-.14.04-.05.19-.1.23-.33.04-.2.05-.92.02-1.24-.14-.05-.56-.17-.63-.67-.02-.19.01-.47.02-.55.02-.09-.08.2-.54.23-.47.02-1.31-.02-1.81-.66s-1-1.38-1.08-2.06c-.09-.69-.18-.46-.27-.78-.03-.12-.06-.17.11-.16-.15-.16-.59-.53-.66-.66-.07-.12-.06-.34.18-.33-.22-.24-.41-.55-.66-.8-.24-.26-.33-.8-.49-1.11-.16-.3-.93-.69-1.04-1.4-.11-.72-.04-1.46 1.19-1.07 1.23.39 2.1 1.39 2.56 1.63.46.24 1.55.72 2.47.77.92.05 2.74-.05 3.44-.38.69-.33 1.59-1.24 1.88-1.51.28-.27.48-.53 1.03-.62.54-.1.9-.13.99-.19.09-.06.26-.21.26-.21-.1-.26-.07-1.02.43-.45.1-.07.21.04.22.12.09-.04.21.04.19.16.15.04.18.11.15.17.12 0 .12.09.14.19.03.1.4.27.22.56.12.02.05.15.05.15s.31.09.25.45zm85.4 8.68c.52-.86.42-2.72.38-2.57-.1.39-.41 1.95-.38 2.57zm21.81-102.05c.83 0 1.52.69 1.52 1.53 0 .83-.69 1.52-1.52 1.52h-3.6v3.62c0 .83-.69 1.52-1.52 1.52-.84 0-1.53-.69-1.53-1.52v-3.62h-3.61c-.83 0-1.52-.69-1.52-1.52 0-.84.69-1.53 1.52-1.53h3.61v-3.61a1.526 1.526 0 0 1 3.05 0v3.61h3.6zm13.66-19.97v43.78h-13.31c-18.59 0-33.81 15.24-33.81 33.86 0 10.62 4.95 20.14 12.65 26.36-.52.1-.97.14-1.25.12-.85-.06-2.85.47-4.82.47-1.99.01-7.16-.94-8.83-1-1.67-.06-3.78.24-4.9 1.54-1.11 1.3-2.49 3.69-2.55 4.65-.06.96 1.15 1.87 1.55-.46.01 1.76.58 2.98.66 3.18.01.01.04.09.08.19.21.66.45 1.18.45 1.18.05.17.07 1.11-.05 1.48-.11.38-.66 1.33-.68 1.66-.03.34.21 1.04.31 1.63.11.59.09 1.95-.01 2.44-.1.48-.05 1.47.1 1.61.15.15.22.5.21.62-.06.64.19.75.26.77.08.03 0 .24.41.27.8.09 1.12-.15.95-.29-.16-.15-.24-.49-.21-.69.02-.2.07-.44 0-.6-.18-.38-.22-.58-.23-.95-.01-.24-.11-.57-.15-.96-.07-.6-.02-1.44.03-1.96.03-.27.14-.59.26-.88-.03.31-.05.59-.01.73.09.33.55.9.84 1.41.29.52.74 1.8.8 2.29.07.49.44 1.39.64 1.48.19.08.36.38.39.5.17.62.43.63.51.62.08 0 .09.14.47.1.81.04 1-.31.79-.39-.2-.07-.38-.59-.42-.79-.05-.2-.09-.45-.21-.56-.39-.4-.38-.44-.53-.81-.09-.22-.31-.49-.46-.84-.19-.45-.38-1.35-.47-1.86-.18-.9.05-1.86.05-2.16.06-.49 1.35-1.76 2.26-2.54 1.14.41 3.06.89 5.62.79.84.01 2.07-.28 2.71-.28.65 0 1.55.25 2.3.24.25 0 .89-.08 1.66-.19-.09.3-.14.64-.14 1.07-.01 1.55-.23 2.31-.3 2.77-.08.46-.36 1.65-.58 2.48-.21.84-.17.96.14 1.69-.12 1.35 1.17 1.23 1.72 1.36.55.13.29-.21.19-.33-.11-.13-.2-.56-.13-.99.02.08.16.46.35.49.19.03.73.11 1.01.18.28.07.78.07.7-.04-.08-.1-.38-.46-.37-.6.01-.15-.19-.83-.24-.94-.06-.12-.38-.54-.41-.68-.03-.14-.02-.41-.06-.51-.04-.1-.04-.66-.03-.81 0-.16.04-1.71.26-2.26.22-.55.14-.97.26-1.27.13-.3.74-1.87 1.45-2.39.07-.02.14-.05.19-.08.94-.45 1.6-1.86 1.98-2.56.37-.7 1.48-2.57 1.99-3.8.05-.1.12-.21.2-.31a33.4 33.4 0 0 0 14.45 3.28l13.31.03c-.8 11.07-8.98 14.24-17.44 13.62h-154.78c9.05-3.83 15.76-6.17 9.56-6.17h-15.85v-.42c-7.93-.69-14.29-7.1-14.93-15.06.6-.91 1.2-2.14 1.39-3.64.27-2.17 4.79-9.47 5.46-10.13.66-.66 1.53-.81 1.69-.63.52.71 2.03.56 2.17.55.14 0 .17.15.35.3.17.14 1.06.83 1.44.88.39.05 1.42.8 1.64.97.22.18.11.47.35.77.23.3 1.58.33 1.81.31.23-.02.23-.34.51-.35.27-.01.69-.22.9-.52.2-.3-.17-.59.12-1.03.29-.43.34-.77.2-1.13-.13-.37-.93-1.42-1.26-1.95-.19-.29-.79-1.06-1.34-1.75h48.1c14.68 0 26.68-12.04 26.68-26.74 0-14.71-12-26.74-26.68-26.74h-36.18c-7.85-1.23-13.89-8.06-13.89-16.24 0-9.04 7.38-16.44 16.41-16.44h163.57zm-88.77 93.66c.85 0 1.53.68 1.53 1.52s-.68 1.52-1.53 1.52h-3.6v3.61c0 .85-.68 1.52-1.52 1.52s-1.52-.67-1.52-1.52v-3.61h-3.6a1.52 1.52 0 1 1 0-3.04h3.6v-3.62a1.52 1.52 0 1 1 3.04 0v3.62h3.6zm19.92-71.97c2.34 0 4.22 1.89 4.22 4.23a4.214 4.214 0 1 1-8.43 0c0-2.34 1.89-4.23 4.21-4.23zm-195.03 8.82h-5.26v-5.28c0-1.22-1-2.22-2.23-2.22-1.21 0-2.22 1-2.22 2.22v5.28h-5.25c-1.23 0-2.22.99-2.22 2.22 0 1.21.99 2.22 2.22 2.22h5.25v5.27c0 1.22 1.01 2.22 2.22 2.22 1.23 0 2.23-1 2.23-2.22v-5.27h5.26c1.21 0 2.21-1.01 2.21-2.22 0-1.23-1-2.22-2.21-2.22zm37.44 56.68c3.71 0 7.11 1.34 9.74 3.55-1.05-.15-1.98-.23-2.56-.22-.94.04-3.62.72-4.69 1-.64.17-1.62.73-2.3 1.14-.53.33-.99.76-1.33 1.28-.64.95-.89 1.65-1.38 4.01-.6 2.94-1.82 9.23-1.94 10.61-.12 1.37-.13 4.12.67 6.22.21.55.45.91.7 1.12-.06.42-.08.85-.11 1.27-6.82-1.47-11.93-7.55-11.93-14.83 0-8.36 6.77-15.15 15.13-15.15zm14.74 18.59a15.146 15.146 0 0 1-11.16 11.3c0-1.23.04-3.07.31-3.7.4-.93 1.65-4.59 2.24-5.51.26-.42.73-1.58 1.19-2.9.35-1 1.49-1.48 2.45-1.03 1.02.49 2.2 1.02 3.06 1.3.54.18 1.19.37 1.91.54zm-13.28 11.66a14 14 0 0 1-1.46.07c-.36 0-.72-.01-1.08-.04.14-1.19.42-3.36.8-4.02.26-.46.85-1.63 1.45-2.75.3 1.26.37 3.43.28 4.31-.05.47.01 1.43.01 2.43zm-707.96 7.72H66.5a4.97 4.97 0 0 0-2.62-.74c-.95 0-1.85.27-2.61.74H17.53C4.62 300.95-.8 292.94.09 282.05V178.76a4.212 4.212 0 0 0 3.08-4.06c0-1.94-1.3-3.58-3.08-4.07v-21.85h125.63c12.25 0 22.28 10.04 22.28 22.32 0 10.15-6.88 18.79-16.2 21.46H54.49c-18.59 0-33.8 15.24-33.8 33.86 0 18.62 15.21 33.86 33.8 33.86h48.56v39.15h92.51v-39.15h60.38c10 2.19 17.55 11.16 17.55 21.81 0 7.02-3.27 13.31-8.37 17.4zm-148.14-39.21h8.76v3.45h-8.76v-3.45zm13.13 0h8.75v3.45h-8.75v-3.45zm29.64 0h8.75v3.45h-8.75v-3.45zm13.14 0h8.75v3.45h-8.75v-3.45zm10.87-112.82c11.11 0 20.12 9.72 20.12 21.71 0 11.98-9.01 21.7-20.12 21.7-11.12 0-20.13-9.72-20.13-21.7 0-11.99 9.01-21.71 20.13-21.71zm-51.07 86.02c1.22 0 2.21 1 2.21 2.22 0 1.23-.99 2.23-2.21 2.23h-5.26v5.26c0 .22-.03.43-.09.64h-4.26c-.07-.21-.1-.42-.1-.64v-5.26h-5.25c-1.22 0-2.22-1-2.22-2.23 0-1.22 1-2.22 2.22-2.22h5.25v-5.26c0-1.23 1.01-2.23 2.23-2.23s2.22 1 2.22 2.23v5.26h5.26z" style="fill:#797bf7"/><path d="M105.35 61.92c0-2.6.54-4.91 1.62-6.95 1.09-2.03 2.63-3.62 4.63-4.75 2-1.14 4.29-1.7 6.89-1.7 3.29 0 6.06.88 8.31 2.63 2.24 1.76 3.69 4.15 4.34 7.17h-7.9c-.47-.99-1.13-1.76-1.96-2.28-.84-.52-1.81-.79-2.91-.79-1.69 0-3.05.61-4.06 1.82-1.01 1.21-1.51 2.83-1.51 4.85 0 2.04.5 3.67 1.51 4.88s2.37 1.82 4.06 1.82c1.1 0 2.07-.26 2.91-.79.83-.52 1.49-1.28 1.96-2.28h7.9c-.65 3.02-2.1 5.41-4.34 7.17-2.25 1.76-5.02 2.64-8.31 2.64-2.6 0-4.89-.57-6.89-1.71-2-1.13-3.54-2.72-4.63-4.75-1.08-2.03-1.62-4.36-1.62-6.98zm849.63 204.16c0 .32-.03.64-.08.94a6.847 6.847 0 0 1 1.34 4.1c0 .79-.14 1.56-.38 2.28a8.842 8.842 0 0 1 2.27 5.92c0 4.45-3.29 8.12-7.57 8.73v11.44h-2.52v-11.44a8.819 8.819 0 0 1-7.56-8.73c0-2.27.85-4.35 2.26-5.92-.23-.72-.37-1.49-.37-2.28 0-1.54.49-2.95 1.33-4.1-.05-.3-.07-.62-.07-.94 0-3.14 2.53-5.68 5.67-5.68s5.68 2.54 5.68 5.68zm60.81 13.78c.34-.11.68-.14.99-.09-.84.49-1.65 1.15-2.27 2.02-.13-.8.4-1.62 1.28-1.93zm-2.4 6.74c.41 2.89 1.46 4.79 1.56 5.41.1.62 0 1.44 0 2.01-.01.57.53 1.68.62 2.17.08.5.02 2.29-.01 2.59-.03.3.05.7.46.22.43.42 1.63.84 1.36-.04-.16-.53-.38-3.12-.22-3.63.16-.5.52-1.25.74-1.75.23-.51.67-1.87.74-2.09.06-.22.1.53-.01 1.02-.1.49.02.92.43 1.2.2.12.26.93.36 1.42.11.49.33 2.2.37 2.83.04.62.28 1.55.62.93.23.37 1.56.92 1.19-.03-.37-.94-.45-2.85-.45-3.34 0-.68.13-1.9.3-2.52.05-.18.08-.29.11-.38.13-.5.69-.74 1.15-.5.87.48 1.8 1.35 5.62 1.39 5.65.07 8.72-2.81 8.97-2.28.02.03.04.07.05.1.19.39.31.8.36 1.22.09.79.15 1.54.14 2.14-.01.52-.07 1.79-.29 2.46-.23.67.13 1.76.5 1.03.09.53.8.89 1.34 1.09.54.19-.04-1.05-.07-1.36-.03-.28-.03-1.24.25-2.15.05.14.1.26.14.39.17.49.46 1.41.48 2.12.03.71.73 1.58.82.75.28.46 1.05.5 1.62.46.56-.04-.4-.95-.54-1.23s-.41-1.04-.42-2.23c-.01-1.19.21-3.98.54-4.81.34-.83 2.83-.92 3.79-.95.12 0 .23-.01.33-.01.47.01.93.1 1.38.26.91.32 2.13.1 2.35.07.28-.04 1.18.01 1.68-.18.51-.2 1.2-.54 1.58-.6.39-.07.83-.08 1.36-.2.18-.05.21-.29.13-.36.07-.08.05-.06.21-.26.15-.21.08-.52.13-.67.06-.15.32-.51.35-.91.04-.4-.08-.41-.18-.45-.09-.04-.28.12-.46.07-.19-.05-1.28-.83-1.83-1.24-.55-.4-1.05-1.09-1.19-1.59-.53-1.94-.84-1.78-.92-2.28-.09-.51.4-1.03.7-1.98.3-.94.02-1.53-.17-2.07-.19-.55-.51-.46-.74-.35-.23.11-.32.55-.45.86-.05.12-.25.39-.46.73-.12-.59-.44-.95-.69-1.31-.34-.47-.62-.29-.81-.12-.19.17-.15.61-.19.95-.02.2-.27.84-.37 1.47-1.21-.47-3.46-1.28-6.62-1.46-3.29-.19-7.3.65-10.56.54-3.26-.11-8.18-.61-10.34-.5-.57.02-1.35.18-2.19.5-.69-.49-1.66-.65-2.6-.32-1.45.5-2.26 1.95-1.82 3.25.08.22.19.43.33.61-.5 1.05-.75 2.34-.56 3.89zm73.81-5.24c-.16.9-.32 2.13-.72 2.8-.18.31-.49.74-.79 1.16.13-.63.12-1.36.07-1.76-.08-.69.38-1.04.39-1.61.01-.6-.17-1.27-.05-1.99.1-.57.43-2.87.57-3.96.19 1.41.67 4.59.53 5.36zm51.24-5.18c-.15-.08-.46-.59-.64-.93-.19-.35-1.63-2.27-1.82-2.93-.2-.67-.56-1.4-.7-1.94-.13-.54-.74-1.58-1.14-1.84-.12-.08-.21-.15-.29-.21a.253.253 0 0 1 .03-.41c.24-.17.6-.41.74-.56.22-.24 1.07-1.34 1.22-1.67.15-.32-.36-.04-.5.07l-1.11.95c-.08.07-.17.14-.28.21-1.6.87-2.41.75-2.61.37-.18-.31-.38-.65-.58-.88-.36-.41-.86-1-1.52-.15-.5.67-.41 1.01-.46 1.55-.01.07.01.16.04.26.04.13-.02.27-.14.32-.18.07-.36.14-.55.19-.32.07-.71.24-1.09.4-1.17.56-2.58.76-4.09.82-1.51.06-3.35-.26-4.7-.33s-7.23.6-10.95.4c-3.72-.21-9.84-.94-10.69-1.29-.85-.35-2.08-.84-3.29-.98-1.21-.13-3.87-.21-4.88.13-.84.28-1.88 1.16-2.3 2.38-.14.34-.25.73-.31 1.18-.37 2.76-.19 5.32-.25 5.96-.07.65-.77 4.24-1.17 4.95-.41.72-.98 2.01-.89 2.91.08.83.08 1.29-.07 1.61-.15.33-.07 1.04.12 1.57.18.53.63.84 1.02.5.39-.35.5-1.03.46-1.33-.01-.06.01-.16.04-.28.08.35.19.71.19 1-.01.46 0 2.31.01 2.78.02.46.14 1.1.12 1.53-.02.42.04 2.32-.06 2.66-.09.34-.39.85-.07 1.04.32.19.37-.41.5-.36.14.04.26.24.21.59-.06.34-.21.68-.13.98.08.29.44.77.52.81.07.05 1.9.14 2.29.12.39-.02.54.03.53-.11-.01-.13-.39-.44-.51-.59-.13-.14-.82-1-.91-1.51-.09-.5-.24-2.15-.25-3.1-.01-.95.14-3.28.67-4.14.27-.45.41-.72.52-.89.09-.17.34-.17.44 0 .09.15.21.38.35.82.27.79.51 1.76.6 2.07.1.3.5 1.67.77 2.22.27.56.73 1.4.77 1.61.03.22-.15.63-.16.76-.01.13.26.55.44.41.18-.13.43-.14.43-.02.01.12-.06.47-.02.62.05.15.5.94.68 1.08.18.13.58.17.95.18.38.02 1.57.1 1.79 0 .23-.11.35-.31.06-.57-.29-.25-1.49-1.38-1.69-1.74-.19-.35-1.33-2.62-1.51-3.58-.18-.94-.12-3.24-.06-3.68.01-.02.01-.04.02-.06.08-.19.23-.34.23-.24-.01.1-.04.59 0 .7.04.11.34.48.51.04.04.29.39.37.45-.01.07-.38.07-1.06.12-1.16.05-.11.34-.28.47-.12.13.16.22.54.21.75-.01.17.2.55.39.43.09-.06.21-.07.29 0 .16.15.39.15.47-.46.11-.84-.05-1.12.08-1.43.14-.32 1.52-.61 1.92-1.35.4-.74.89.1 1.15.19.25.09 1.84 1.22 4.81 1.19 2.98-.02 4.88-.22 5.7-.37.82-.15 2.17-.18 2.96-.18s1.05-.02 1.23.2c.18.22.17 1.51.14 1.8-.03.29-.28 1.69-.35 2.01-.08.33-.33 1.09-.17 1.48.15.39.39.69.16 1.78s-.47 2.06-.55 2.44c-.09.38-.35 1.03-.37 1.21-.02.18.12.39.2.28.08-.11.26-.25.32-.15.06.09-.02.54-.13.79-.12.25-.22.55-.09.68.14.12.52.55.78.63.27.07 1.2.22 1.54.24.33.02.79.03.89-.07.05.07.51.05.44-.34s-1-1.14-1.08-1.37c-.08-.22-.54-.82-.38-2.58.15-1.75.82-2.98 1.07-3.72.14-.38.31-.89.45-1.31.09-.26.46-.22.5.05.04.27.05.51.05.62-.01.22.14.19.28.85.13.66.11 1.87.14 2.22.04.35.03 2.82-.07 3.11-.11.29.33.46.46.23.13-.22.43-.04.36.21-.06.26-.27.66-.08.87.2.22.58.48.89.5.31.02 2.01.32 2.17.17.16-.14.27-.27-.04-.6-.3-.34-1.38-1.46-1.58-2.13-.2-.67-.67-2.29-.64-2.79.02-.5.36-1.01.49-1.31.13-.3.27-1.08.31-1.79.03-.71.02-1.68.23-1.89.22-.21 1.3-.22 1.66-.49.36-.26 2.71-1.82 3.5-4.79.36-1.35 1-2.5 1.66-3.4.01-.01.01-.02.02-.03 1.13-1.18 2.76-2.45 3.02-2.56.33-.15 1.96.36 2.38.44.43.07 1.99.3 2.59.26.59-.04.93.56 1.06.59.14.03.73.14 1.07.05.34-.09.4.18.77.03.36-.16 1.14-.64 1.31-1.52.01-.01.01-.03.01-.05 0-.43-.39-.69-.52-.76zm-526.48 8.53v-.72h-1.52v.72h1.52zm9.64 0v-.72h-1.52v.72h1.52zm3.1 4.03-3.1.66v-2.18h-1.52v2.51l-3.1.73s-.6 7.06 8.91 7.06c-1.32-1.26-2.64-4.89-1.19-8.78zm-16.7-3.63h18.68v1.72H608v-1.72zm19.07-.99h4.95v3.7h-4.95v-3.7zm1.65 4.09v.79h1.65v-.79h-1.65zm1.65-5.28h-1.65v.79h1.65v-.79zm-15.31 5.81-3.1.66v-2.18h-1.52v2.51l-3.1.73s-.59 7.06 8.91 7.06c-1.32-1.26-2.64-4.89-1.19-8.78zm208.85-2.59-5.55 9.73h-11.4l-5.56-9.73 1.67-2.78-4.73-2.78c-.55-3.33-1.94-6.11-3.89-8.61l.56-.28 10.84 6.95 1.11-2.23h11.4l5.55 9.73zm-60.58-32.51-13.9 1.11-6.67-16.12-13.34 2.5-.55-4.72 13.89-4.45 6.67 2.22 13.9 19.46zm14.45-1.67v-12.79l18.06 1.39 2.5 11.4h-20.56zm20.29-13.9-23.35-1.94v19.17l-43.35 3.62v18.9l5 3.33c2.22-2.5 5.56-4.17 9.45-4.17 6.67 0 12.23 5.28 12.51 11.67h4.17c-.56-1.38-.84-3.05-.84-5 0-10 8.34-18.34 18.62-18.34 4.45 0 8.89 1.67 11.95 4.44l2.22-.83 7.23-14.73-3.61-16.12zm-52.25 55.59c-2.5 0-4.17-1.67-4.17-4.17 0-2.22 1.67-4.17 4.17-4.17 2.22 0 4.17 1.95 4.17 4.17 0 2.5-1.95 4.17-4.17 4.17zm0-13.9c-5.56 0-10 4.44-10 9.73 0 5.55 4.44 10 10 10 5.28 0 9.73-4.45 9.73-10 0-5.29-4.45-9.73-9.73-9.73zm34.46 12.23c-4.72 0-8.34-3.61-8.34-8.34 0-4.44 3.62-8.06 8.34-8.06 4.45 0 8.06 3.62 8.06 8.06 0 4.73-3.61 8.34-8.06 8.34zm0-23.9c-8.62 0-15.84 6.94-15.84 15.56 0 8.62 7.22 15.84 15.84 15.84 8.61 0 15.56-7.22 15.56-15.84 0-8.62-6.95-15.56-15.56-15.56zm-686.1-2.08c0 .33-.03.64-.08.95a6.817 6.817 0 0 1 1.34 4.09c0 .8-.14 1.57-.38 2.29a8.749 8.749 0 0 1 2.27 5.91c0 4.45-3.29 8.12-7.56 8.74v11.44h-2.53v-11.44c-4.27-.62-7.56-4.29-7.56-8.74 0-2.27.86-4.35 2.27-5.91-.24-.72-.38-1.49-.38-2.29 0-1.53.49-2.95 1.34-4.09a5.676 5.676 0 0 1 5.6-6.63c3.14 0 5.67 2.54 5.67 5.68zm-70.8 33.42v-70.19c0-6.51 5.26-11.78 11.75-11.78h26.24c6.49 0 11.75 5.27 11.75 11.78v70.19H23.38zm22.67-70.85H37.3v8.76h8.75v-8.76zm0 13.15H37.3v8.78h8.75v-8.78zm0 13.22H37.3v8.78h8.75v-8.78zm0 13.15H37.3v8.78h8.75v-8.78zm0 13.16H37.3v8.78h8.75v-8.78zm13.14-52.68h-8.76v8.77h8.76v-8.77zm0 13.16h-8.76v8.77h8.76v-8.77zm0 13.21h-8.76v8.78h8.76v-8.78zm0 13.16h-8.76v8.77h8.76v-8.77zm0 13.15h-8.76v8.78h8.76v-8.78zm166.65 18.17v-33.12c0-3.7 1.74-7.18 4.69-9.4l15.1-11.38a8.43 8.43 0 0 1 10.16 0l15.1 11.38c2.95 2.22 4.69 5.7 4.69 9.4v33.12h-49.74zm22.67-32.02h-8.75v8.78h8.75v-8.78zm0 13.16h-8.75v8.77h8.75v-8.77zm13.14-13.16h-8.75v8.78h8.75v-8.78zm0 13.16h-8.75v8.77h8.75v-8.77zm-45.44-14.56c0 .33-.03.64-.07.95a6.876 6.876 0 0 1 1.33 4.09c0 .8-.13 1.57-.38 2.29a8.757 8.757 0 0 1 2.28 5.91c0 4.45-3.3 8.12-7.57 8.74v11.44h-2.52v-11.44c-4.28-.62-7.57-4.29-7.57-8.74 0-2.27.86-4.35 2.27-5.91-.24-.72-.38-1.49-.38-2.29 0-1.53.49-2.95 1.34-4.09a5.676 5.676 0 0 1 5.6-6.63c3.14 0 5.68 2.54 5.68 5.68h-.01zm80.02 0c0 .33-.03.64-.08.95a6.817 6.817 0 0 1 1.34 4.09c0 .8-.14 1.57-.38 2.29a8.797 8.797 0 0 1 2.27 5.91c0 4.45-3.29 8.12-7.56 8.74v11.44h-2.53v-11.44c-4.27-.62-7.56-4.29-7.56-8.74 0-2.27.86-4.35 2.27-5.91-.24-.72-.38-1.49-.38-2.29 0-1.53.49-2.95 1.34-4.09a5.676 5.676 0 0 1 5.6-6.63c3.14 0 5.67 2.54 5.67 5.68zm89.57 33.42v-42.64l18.99 5.99v-5.99l18.99 5.99v-5.99l18.32 5.78v-18.74h12.43v55.6H385.8zm19.04-24.84h-8.75v8.76h8.75v-8.76zm13.13 0h-8.75v8.76h8.75v-8.76zm13.14 0h-8.75v8.76h8.75v-8.76zm13.13 0h-8.75v8.76h8.75v-8.76zm-67.84-8.58c0 .33-.02.64-.07.95a6.847 6.847 0 0 1 1.34 4.1c0 .79-.14 1.56-.38 2.28a8.797 8.797 0 0 1 2.27 5.91c0 4.45-3.29 8.12-7.57 8.74v11.44h-2.52v-11.44c-4.27-.62-7.57-4.29-7.57-8.74 0-2.27.86-4.35 2.27-5.91a7.22 7.22 0 0 1-.38-2.28c0-1.54.5-2.95 1.34-4.1-.05-.3-.07-.62-.07-.95a5.66 5.66 0 0 1 5.67-5.67c3.14 0 5.68 2.53 5.68 5.67h-.01zm98.87 0c0 .33-.03.64-.08.95a6.847 6.847 0 0 1 1.34 4.1c0 .79-.14 1.56-.38 2.28a8.797 8.797 0 0 1 2.27 5.91c0 4.45-3.29 8.12-7.57 8.74v11.44h-2.52v-11.44c-4.27-.62-7.56-4.29-7.56-8.74 0-2.27.85-4.35 2.27-5.91a7.22 7.22 0 0 1-.38-2.28c0-1.54.49-2.95 1.33-4.1-.05-.3-.07-.62-.07-.95 0-3.14 2.53-5.67 5.68-5.67a5.66 5.66 0 0 1 5.67 5.67zm122.95 0c0 .33-.03.64-.07.95a6.876 6.876 0 0 1 1.33 4.09c0 .8-.14 1.57-.38 2.29a8.749 8.749 0 0 1 2.27 5.91c0 4.45-3.29 8.12-7.56 8.74v11.44h-2.52v-11.44c-4.28-.62-7.57-4.29-7.57-8.74 0-2.27.86-4.35 2.27-5.91-.24-.72-.38-1.49-.38-2.29 0-1.53.49-2.95 1.34-4.09a5.676 5.676 0 0 1 5.6-6.63c3.14 0 5.67 2.54 5.67 5.68zm-138.61-131.8H740.39c3.51 0 6.36 3.35 6.36 7.48v44.93c0 4.13-2.85 7.49-6.36 7.49H459.61c-3.51 0-6.36-3.36-6.36-7.49v-44.93c0-4.13 2.85-7.48 6.36-7.48zm528.34-80.3c1.42 0 2.66.28 3.72.86 1.06.57 1.88 1.34 2.46 2.32v-2.92h7.33v20.78c0 1.97-.37 3.75-1.12 5.33-.75 1.59-1.92 2.85-3.5 3.8-1.58.95-3.59 1.42-6.01 1.42-3.24 0-5.84-.76-7.79-2.28-1.94-1.52-3.05-3.59-3.33-6.21h7.23c.15.67.52 1.19 1.12 1.57.6.37 1.37.56 2.32.56 2.5 0 3.75-1.4 3.75-4.19v-2.7c-.58.97-1.4 1.75-2.46 2.32-1.06.58-2.3.86-3.72.86-1.67 0-3.19-.43-4.55-1.31-1.36-.87-2.43-2.12-3.22-3.76-.79-1.63-1.18-3.54-1.18-5.71s.39-4.07 1.18-5.69c.79-1.62 1.86-2.87 3.22-3.74 1.36-.88 2.88-1.31 4.55-1.31zm6.18 10.74c0-1.35-.37-2.41-1.11-3.18-.73-.78-1.64-1.16-2.71-1.16-1.1 0-2.01.38-2.74 1.14-.72.76-1.08 1.83-1.08 3.2 0 1.35.36 2.42 1.08 3.2.73.79 1.64 1.18 2.74 1.18 1.07 0 1.98-.39 2.71-1.16.74-.77 1.11-1.85 1.11-3.22zm18.86-6.78c.83-1.19 1.83-2.14 3-2.84 1.17-.7 2.43-1.05 3.78-1.05v7.83h-2.06c-1.6 0-2.78.31-3.56.93-.77.63-1.16 1.71-1.16 3.26v9.17h-7.33v-21h7.33v3.7zm8.2 6.78c0-2.17.39-4.07 1.18-5.69.79-1.62 1.86-2.87 3.22-3.74 1.36-.88 2.88-1.31 4.55-1.31 1.45 0 2.69.28 3.74.86 1.05.57 1.86 1.34 2.44 2.32v-2.92h7.33v21h-7.33v-2.92c-.58.97-1.39 1.75-2.46 2.32-1.06.58-2.3.86-3.72.86-1.67 0-3.19-.43-4.55-1.31-1.36-.87-2.43-2.12-3.22-3.76-.79-1.63-1.18-3.54-1.18-5.71zm15.13 0c0-1.35-.37-2.41-1.11-3.18-.73-.78-1.64-1.16-2.71-1.16-1.1 0-2.01.38-2.73 1.14-.73.76-1.09 1.83-1.09 3.2 0 1.35.36 2.42 1.09 3.2.72.79 1.63 1.18 2.73 1.18 1.07 0 1.98-.39 2.71-1.16.74-.77 1.11-1.85 1.11-3.22zm1.46-15.57-9.36 3.67v-4.98l9.36-4.23v5.54zm22.46 19.84v6.25h-3.18c-5.37 0-8.05-2.66-8.05-7.97v-6.93h-2.59v-6.1h2.59v-5.09h7.37v5.09h3.82v6.1h-3.82v7.04c0 .57.13.99.4 1.23.26.25.7.38 1.33.38h2.13zm7.07-16.7c-1.29 0-2.34-.35-3.12-1.07-.79-.71-1.18-1.6-1.18-2.67 0-1.1.39-2.01 1.18-2.74.78-.72 1.83-1.08 3.12-1.08 1.28 0 2.31.36 3.09 1.08.79.73 1.18 1.64 1.18 2.74 0 1.07-.39 1.96-1.18 2.67-.78.72-1.81 1.07-3.09 1.07zm3.64 1.95v21h-7.34v-21h7.34zm13.14 21.26c-1.9 0-3.59-.32-5.08-.95-1.48-.64-2.65-1.51-3.52-2.62a6.826 6.826 0 0 1-1.44-3.77h7.12c.1.68.41 1.2.93 1.58.53.37 1.17.56 1.95.56.6 0 1.07-.13 1.42-.38.35-.25.53-.57.53-.97 0-.52-.29-.91-.87-1.16-.57-.25-1.52-.52-2.84-.82-1.5-.3-2.75-.64-3.75-1.01-.99-.38-1.86-.99-2.6-1.84-.73-.85-1.1-1.99-1.1-3.44 0-1.25.34-2.38 1.01-3.39.67-1.01 1.67-1.82 2.98-2.42 1.31-.59 2.88-.89 4.73-.89 2.75 0 4.91.67 6.48 2.02 1.57 1.35 2.48 3.12 2.73 5.31h-6.62c-.13-.67-.42-1.19-.89-1.55-.46-.36-1.07-.54-1.85-.54-.6 0-1.05.11-1.36.33-.32.23-.47.54-.47.94 0 .5.28.88.86 1.14.57.26 1.5.53 2.77.81 1.52.32 2.79.68 3.8 1.08 1.01.4 1.9 1.04 2.66 1.93.76.89 1.14 2.09 1.14 3.61 0 1.23-.36 2.32-1.07 3.3-.71.97-1.72 1.74-3.03 2.3-1.31.56-2.85.84-4.62.84zm-939.7 0c-2.09 0-3.97-.43-5.63-1.31a9.643 9.643 0 0 1-3.91-3.74c-.95-1.62-1.43-3.53-1.43-5.73 0-2.17.48-4.07 1.44-5.69.97-1.62 2.28-2.87 3.94-3.74 1.66-.88 3.53-1.31 5.63-1.31s3.97.43 5.63 1.31c1.66.87 2.98 2.12 3.94 3.74s1.44 3.52 1.44 5.69c0 2.17-.48 4.08-1.44 5.71a9.662 9.662 0 0 1-3.95 3.76c-1.68.88-3.56 1.31-5.66 1.31zm0-6.36c1.03 0 1.88-.38 2.57-1.14.68-.76 1.03-1.86 1.03-3.28 0-1.42-.35-2.51-1.03-3.26-.69-.75-1.53-1.12-2.53-1.12-1 0-1.83.37-2.51 1.12-.67.75-1.01 1.84-1.01 3.26 0 1.45.33 2.55.98 3.29.64.75 1.48 1.13 2.5 1.13zm41.48-15.09c2.65 0 4.73.8 6.24 2.4 1.51 1.59 2.26 3.78 2.26 6.55v12.24h-7.34V63.9c0-1.12-.31-1.99-.93-2.62-.63-.62-1.48-.93-2.55-.93-1.07 0-1.92.31-2.54.93-.63.63-.94 1.5-.94 2.62v11.27h-7.34V63.9c0-1.12-.3-1.99-.91-2.62-.62-.62-1.46-.93-2.53-.93-1.1 0-1.96.31-2.58.93-.63.63-.94 1.5-.94 2.62v11.27h-7.34v-21h7.34v2.77c.65-.9 1.49-1.62 2.53-2.15 1.03-.54 2.22-.81 3.57-.81 1.55 0 2.93.34 4.14 1.01a7.39 7.39 0 0 1 2.86 2.85 8.703 8.703 0 0 1 2.96-2.79c1.22-.71 2.57-1.07 4.04-1.07zm32.57 10.45c0 .57-.04 1.14-.11 1.72h-13.89c.08 1.15.39 2 .96 2.56.56.56 1.27.84 2.15.84 1.22 0 2.1-.54 2.62-1.64h7.82a8.995 8.995 0 0 1-1.89 3.87c-.93 1.14-2.11 2.03-3.54 2.68-1.42.65-2.99.97-4.71.97-2.07 0-3.91-.43-5.52-1.31-1.61-.87-2.87-2.12-3.79-3.74-.91-1.62-1.36-3.53-1.36-5.73 0-2.2.45-4.1 1.35-5.71a9.226 9.226 0 0 1 3.76-3.72c1.61-.88 3.46-1.31 5.56-1.31 2.07 0 3.9.42 5.5 1.27a9.07 9.07 0 0 1 3.74 3.65c.9 1.58 1.35 3.45 1.35 5.6zm-7.48-1.84c0-.9-.3-1.6-.9-2.11-.6-.52-1.35-.77-2.25-.77-.9 0-1.63.24-2.21.73-.57.49-.95 1.2-1.12 2.15h6.48zm9.28 2.06c0-2.17.45-4.07 1.35-5.69.9-1.62 2.15-2.87 3.76-3.74 1.61-.88 3.45-1.31 5.52-1.31 2.67 0 4.92.73 6.74 2.19 1.82 1.46 2.99 3.5 3.52 6.12h-7.79c-.45-1.38-1.32-2.06-2.62-2.06-.92 0-1.65.38-2.19 1.14-.53.76-.8 1.88-.8 3.35 0 1.47.27 2.6.8 3.37.54.77 1.27 1.16 2.19 1.16 1.32 0 2.2-.69 2.62-2.06h7.79c-.53 2.6-1.7 4.63-3.52 6.1-1.82 1.48-4.07 2.21-6.74 2.21-2.07 0-3.91-.43-5.52-1.31-1.61-.87-2.86-2.12-3.76-3.74-.9-1.62-1.35-3.53-1.35-5.73zm43.99-.22c0 .57-.04 1.14-.11 1.72h-13.89c.07 1.15.39 2 .95 2.56.56.56 1.28.84 2.15.84 1.23 0 2.1-.54 2.62-1.64h7.83a9.226 9.226 0 0 1-1.89 3.87c-.94 1.14-2.12 2.03-3.54 2.68-1.42.65-3 .97-4.72.97-2.07 0-3.91-.43-5.52-1.31-1.61-.87-2.87-2.12-3.78-3.74-.91-1.62-1.37-3.53-1.37-5.73 0-2.2.45-4.1 1.35-5.71.9-1.61 2.15-2.85 3.76-3.72 1.61-.88 3.47-1.31 5.56-1.31 2.07 0 3.91.42 5.51 1.27a9.19 9.19 0 0 1 3.74 3.65c.9 1.58 1.35 3.45 1.35 5.6zm-7.49-1.84c0-.9-.3-1.6-.9-2.11-.6-.52-1.35-.77-2.24-.77-.9 0-1.64.24-2.21.73-.58.49-.95 1.2-1.13 2.15h6.48zm16.43 2.06c0-2.17.4-4.07 1.18-5.69.79-1.62 1.86-2.87 3.22-3.74 1.36-.88 2.88-1.31 4.55-1.31 1.45 0 2.7.28 3.74.86 1.05.57 1.86 1.34 2.44 2.32v-2.92h7.34v21h-7.34v-2.92a6.23 6.23 0 0 1-2.45 2.32c-1.06.58-2.31.86-3.73.86-1.67 0-3.19-.43-4.55-1.31-1.36-.87-2.43-2.12-3.22-3.76-.78-1.63-1.18-3.54-1.18-5.71zm15.13 0c0-1.35-.37-2.41-1.11-3.18-.73-.78-1.64-1.16-2.71-1.16-1.1 0-2.01.38-2.73 1.14-.73.76-1.09 1.83-1.09 3.2 0 1.35.36 2.42 1.09 3.2.72.79 1.63 1.18 2.73 1.18 1.07 0 1.98-.39 2.71-1.16.74-.77 1.11-1.85 1.11-3.22zm40.17-10.48v21h-7.38v-2.99c-.62.94-1.48 1.71-2.58 2.3-1.1.58-2.36.88-3.78.88-2.45 0-4.38-.81-5.79-2.42-1.41-1.61-2.11-3.8-2.11-6.57v-12.2h7.3v11.27c0 1.19.32 2.14.95 2.82.64.69 1.48 1.03 2.53 1.03 1.07 0 1.92-.34 2.55-1.03.62-.68.93-1.63.93-2.82V54.17h7.38zm13.14 21.26c-1.9 0-3.59-.32-5.07-.95-1.49-.64-2.66-1.51-3.52-2.62a6.826 6.826 0 0 1-1.44-3.77h7.11c.1.68.41 1.2.94 1.58.52.37 1.17.56 1.94.56.6 0 1.07-.13 1.42-.38.35-.25.53-.57.53-.97 0-.52-.29-.91-.86-1.16-.58-.25-1.53-.52-2.85-.82-1.5-.3-2.74-.64-3.74-1.01-1-.38-1.87-.99-2.6-1.84-.74-.85-1.11-1.99-1.11-3.44 0-1.25.34-2.38 1.01-3.39.68-1.01 1.67-1.82 2.98-2.42 1.31-.59 2.89-.89 4.73-.89 2.75 0 4.91.67 6.48 2.02 1.57 1.35 2.48 3.12 2.73 5.31h-6.62c-.13-.67-.42-1.19-.88-1.55-.46-.36-1.08-.54-1.85-.54-.6 0-1.06.11-1.37.33-.31.23-.47.54-.47.94 0 .5.29.88.86 1.14.58.26 1.5.53 2.77.81 1.52.32 2.79.68 3.8 1.08 1.01.4 1.9 1.04 2.66 1.93.76.89 1.14 2.09 1.14 3.61 0 1.23-.35 2.32-1.07 3.3-.71.97-1.72 1.74-3.03 2.3-1.31.56-2.85.84-4.62.84zm11.12-10.78c0-2.17.39-4.07 1.18-5.69.78-1.62 1.86-2.87 3.22-3.74 1.36-.88 2.87-1.31 4.54-1.31 1.45 0 2.7.28 3.75.86 1.05.57 1.86 1.34 2.43 2.32v-2.92h7.34v21h-7.34v-2.92c-.57.97-1.39 1.75-2.45 2.32-1.06.58-2.3.86-3.73.86-1.67 0-3.18-.43-4.54-1.31-1.36-.87-2.44-2.12-3.22-3.76-.79-1.63-1.18-3.54-1.18-5.71zm15.12 0c0-1.35-.37-2.41-1.1-3.18-.74-.78-1.64-1.16-2.72-1.16-1.1 0-2.01.38-2.73 1.14-.72.76-1.09 1.83-1.09 3.2 0 1.35.37 2.42 1.09 3.2.72.79 1.63 1.18 2.73 1.18 1.08 0 1.98-.39 2.72-1.16.73-.77 1.1-1.85 1.1-3.22zm18.87-6.78c.82-1.19 1.82-2.14 2.99-2.84 1.18-.7 2.44-1.05 3.79-1.05v7.83h-2.06c-1.6 0-2.79.31-3.56.93-.77.63-1.16 1.71-1.16 3.26v9.17h-7.34v-21h7.34v3.7zm26.32 17.56c-2.1 0-3.98-.43-5.64-1.31a9.643 9.643 0 0 1-3.91-3.74c-.95-1.62-1.42-3.53-1.42-5.73 0-2.17.48-4.07 1.44-5.69a9.756 9.756 0 0 1 3.93-3.74c1.66-.88 3.54-1.31 5.64-1.31 2.09 0 3.97.43 5.63 1.31 1.66.87 2.97 2.12 3.93 3.74s1.44 3.52 1.44 5.69c0 2.17-.48 4.08-1.44 5.71a9.662 9.662 0 0 1-3.95 3.76c-1.67.88-3.56 1.31-5.65 1.31zm0-6.36c1.02 0 1.88-.38 2.56-1.14.69-.76 1.03-1.86 1.03-3.28 0-1.42-.34-2.51-1.03-3.26-.68-.75-1.53-1.12-2.52-1.12-1 0-1.84.37-2.51 1.12-.68.75-1.01 1.84-1.01 3.26 0 1.45.32 2.55.97 3.29.65.75 1.48 1.13 2.51 1.13zm20.29-7.15c0-2.6.54-4.91 1.63-6.95 1.08-2.03 2.62-3.62 4.62-4.75 2-1.14 4.29-1.7 6.89-1.7 3.29 0 6.06.88 8.31 2.63 2.25 1.76 3.69 4.15 4.34 7.17h-7.9c-.47-.99-1.13-1.76-1.96-2.28-.84-.52-1.81-.79-2.9-.79-1.7 0-3.06.61-4.07 1.82-1.01 1.21-1.51 2.83-1.51 4.85 0 2.04.5 3.67 1.51 4.88s2.37 1.82 4.07 1.82c1.09 0 2.06-.26 2.9-.79.83-.52 1.49-1.28 1.96-2.28h7.9c-.65 3.02-2.09 5.41-4.34 7.17-2.25 1.76-5.02 2.64-8.31 2.64-2.6 0-4.89-.57-6.89-1.71-2-1.13-3.54-2.72-4.62-4.75-1.09-2.03-1.63-4.36-1.63-6.98zm42.64 13.25-5.24-9.73h-.79v9.73h-7.34V48.78h11.57c2.12 0 3.92.37 5.39 1.1 1.48.74 2.59 1.75 3.33 3.03.75 1.29 1.13 2.73 1.13 4.33 0 1.8-.5 3.37-1.48 4.73-.99 1.36-2.43 2.33-4.33 2.91l5.96 10.29h-8.2zm-6.03-14.75h3.63c1 0 1.75-.24 2.25-.71.5-.48.75-1.16.75-2.06 0-.85-.26-1.52-.77-2-.51-.49-1.25-.73-2.23-.73h-3.63v5.5zm48.22-11.64v26.39h-7.34V60.61l-4.98 14.56h-6.14l-5.01-14.67v14.67h-7.34V48.78h8.87l6.63 17.14 6.47-17.14h8.84zm18.68 0v26.39h-7.34V48.78h7.34zm31.63 5.2c2.65 0 4.73.8 6.24 2.4 1.51 1.59 2.26 3.78 2.26 6.55v12.24h-7.34V63.9c0-1.12-.31-1.99-.93-2.62-.63-.62-1.47-.93-2.55-.93-1.07 0-1.92.31-2.54.93-.63.63-.94 1.5-.94 2.62v11.27h-7.34V63.9c0-1.12-.3-1.99-.91-2.62-.62-.62-1.46-.93-2.53-.93-1.1 0-1.96.31-2.58.93-.63.63-.94 1.5-.94 2.62v11.27h-7.34v-21h7.34v2.77c.65-.9 1.49-1.62 2.53-2.15 1.03-.54 2.22-.81 3.57-.81 1.55 0 2.93.34 4.14 1.01a7.39 7.39 0 0 1 2.86 2.85 8.703 8.703 0 0 1 2.96-2.79c1.22-.71 2.57-1.07 4.04-1.07zm22.28 21.45c-2.1 0-3.98-.43-5.64-1.31a9.643 9.643 0 0 1-3.91-3.74c-.95-1.62-1.42-3.53-1.42-5.73 0-2.17.48-4.07 1.44-5.69a9.756 9.756 0 0 1 3.93-3.74c1.66-.88 3.54-1.31 5.64-1.31 2.09 0 3.97.43 5.63 1.31 1.66.87 2.97 2.12 3.93 3.74s1.44 3.52 1.44 5.69c0 2.17-.48 4.08-1.44 5.71a9.662 9.662 0 0 1-3.95 3.76c-1.67.88-3.55 1.31-5.65 1.31zm0-6.36c1.02 0 1.88-.38 2.56-1.14.69-.76 1.03-1.86 1.03-3.28 0-1.42-.34-2.51-1.03-3.26-.68-.75-1.53-1.12-2.52-1.12-1 0-1.84.37-2.51 1.12-.68.75-1.01 1.84-1.01 3.26 0 1.45.32 2.55.97 3.29.65.75 1.49 1.13 2.51 1.13zm21.37-11.98c.58-1 1.39-1.78 2.44-2.34 1.05-.56 2.28-.84 3.7-.84 1.68 0 3.19.43 4.55 1.31 1.36.87 2.44 2.12 3.22 3.74.79 1.62 1.18 3.52 1.18 5.69 0 2.17-.39 4.08-1.18 5.71-.78 1.64-1.86 2.89-3.22 3.76-1.36.88-2.87 1.31-4.55 1.31-1.42 0-2.65-.28-3.7-.84a6.046 6.046 0 0 1-2.44-2.34v2.92h-7.33v-27.7h7.33v9.62zm7.64 7.56c0-1.37-.37-2.44-1.1-3.2-.74-.76-1.64-1.14-2.72-1.14-1.07 0-1.97.38-2.71 1.16-.74.77-1.11 1.83-1.11 3.18 0 1.37.37 2.45 1.11 3.22.74.77 1.64 1.16 2.71 1.16 1.08 0 1.98-.39 2.72-1.18.73-.78 1.1-1.85 1.1-3.2zm14.19-12.43c-1.3 0-2.34-.35-3.13-1.07-.78-.71-1.17-1.6-1.17-2.67 0-1.1.39-2.01 1.17-2.74.79-.72 1.83-1.08 3.13-1.08 1.27 0 2.3.36 3.09 1.08.78.73 1.18 1.64 1.18 2.74 0 1.07-.4 1.96-1.18 2.67-.79.72-1.82 1.07-3.09 1.07zm3.63 1.95v21h-7.34v-21h7.34zm11.53-6.7v27.7h-7.34v-27.7h7.34zm7.9 4.75c-1.3 0-2.34-.35-3.12-1.07-.79-.71-1.18-1.6-1.18-2.67 0-1.1.39-2.01 1.18-2.74.78-.72 1.82-1.08 3.12-1.08 1.27 0 2.3.36 3.09 1.08.79.73 1.18 1.64 1.18 2.74 0 1.07-.39 1.96-1.18 2.67-.79.72-1.82 1.07-3.09 1.07zm3.63 1.95v21h-7.33v-21h7.33zm3 10.48c0-2.17.39-4.07 1.18-5.69.78-1.62 1.86-2.87 3.22-3.74 1.36-.88 2.87-1.31 4.54-1.31 1.45 0 2.7.28 3.75.86 1.05.57 1.86 1.34 2.43 2.32v-2.92h7.34v21h-7.34v-2.92c-.57.97-1.39 1.75-2.45 2.32-1.06.58-2.3.86-3.73.86-1.67 0-3.18-.43-4.54-1.31-1.36-.87-2.44-2.12-3.22-3.76-.79-1.63-1.18-3.54-1.18-5.71zm15.12 0c0-1.35-.37-2.41-1.1-3.18-.74-.78-1.64-1.16-2.72-1.16-1.09 0-2.01.38-2.73 1.14-.72.76-1.09 1.83-1.09 3.2 0 1.35.37 2.42 1.09 3.2.72.79 1.64 1.18 2.73 1.18 1.08 0 1.98-.39 2.72-1.16.73-.77 1.1-1.85 1.1-3.22zm1.46-15.57-9.36 3.67v-4.98l9.36-4.23v5.54zm17.41 8.79c.82-1.19 1.82-2.14 2.99-2.84 1.18-.7 2.44-1.05 3.79-1.05v7.83h-2.06c-1.6 0-2.79.31-3.56.93-.77.63-1.16 1.71-1.16 3.26v9.17h-7.34v-21h7.34v3.7zm13.1-5.65c-1.29 0-2.34-.35-3.12-1.07-.79-.71-1.18-1.6-1.18-2.67 0-1.1.39-2.01 1.18-2.74.78-.72 1.83-1.08 3.12-1.08 1.28 0 2.31.36 3.09 1.08.79.73 1.18 1.64 1.18 2.74 0 1.07-.39 1.96-1.18 2.67-.78.72-1.81 1.07-3.09 1.07zm3.63 1.95v21h-7.33v-21h7.33zm13.97 21.26c-2.1 0-3.98-.43-5.64-1.31a9.643 9.643 0 0 1-3.91-3.74c-.95-1.62-1.42-3.53-1.42-5.73 0-2.17.48-4.07 1.44-5.69a9.756 9.756 0 0 1 3.93-3.74c1.66-.88 3.54-1.31 5.64-1.31 2.09 0 3.97.43 5.63 1.31 1.66.87 2.97 2.12 3.93 3.74s1.44 3.52 1.44 5.69c0 2.17-.48 4.08-1.44 5.71a9.662 9.662 0 0 1-3.95 3.76c-1.67.88-3.56 1.31-5.65 1.31zm0-6.36c1.02 0 1.88-.38 2.56-1.14.69-.76 1.03-1.86 1.03-3.28 0-1.42-.34-2.51-1.03-3.26-.68-.75-1.53-1.12-2.52-1.12-1 0-1.84.37-2.51 1.12-.68.75-1.01 1.84-1.01 3.26 0 1.45.32 2.55.97 3.29.65.75 1.48 1.13 2.51 1.13zm19.99-4.42c0-2.17.39-4.07 1.18-5.69.78-1.62 1.86-2.87 3.24-3.74 1.37-.88 2.89-1.31 4.56-1.31 1.35 0 2.55.28 3.62.84 1.06.56 1.89 1.33 2.49 2.3v-9.58h7.37v27.7h-7.37v-2.92a6.27 6.27 0 0 1-2.44 2.32c-1.05.58-2.28.86-3.7.86-1.68 0-3.19-.43-4.55-1.31-1.36-.87-2.44-2.12-3.22-3.76-.79-1.63-1.18-3.54-1.18-5.71zm15.12 0c0-1.35-.36-2.41-1.1-3.18-.74-.78-1.64-1.16-2.71-1.16-1.1 0-2.01.38-2.74 1.14-.72.76-1.08 1.83-1.08 3.2 0 1.35.36 2.42 1.08 3.2.73.79 1.64 1.18 2.74 1.18 1.07 0 1.97-.39 2.71-1.16.74-.77 1.1-1.85 1.1-3.22zm31.6-.22c0 .57-.04 1.14-.11 1.72h-13.89c.07 1.15.39 2 .95 2.56.56.56 1.28.84 2.16.84 1.22 0 2.09-.54 2.62-1.64h7.82a8.995 8.995 0 0 1-1.89 3.87c-.94 1.14-2.12 2.03-3.54 2.68-1.42.65-2.99.97-4.71.97-2.08 0-3.92-.43-5.53-1.31-1.61-.87-2.87-2.12-3.78-3.74-.91-1.62-1.36-3.53-1.36-5.73 0-2.2.44-4.1 1.34-5.71a9.31 9.31 0 0 1 3.77-3.72c1.61-.88 3.46-1.31 5.56-1.31 2.07 0 3.9.42 5.5 1.27 1.6.85 2.84 2.06 3.74 3.65.9 1.58 1.35 3.45 1.35 5.6zm-7.49-1.84c0-.9-.3-1.6-.9-2.11-.6-.52-1.34-.77-2.24-.77-.9 0-1.64.24-2.21.73-.58.49-.95 1.2-1.12 2.15h6.47zm45.08-8.61c2.64 0 4.72.8 6.23 2.4 1.51 1.59 2.26 3.78 2.26 6.55v12.24h-7.33V63.9c0-1.12-.32-1.99-.94-2.62-.62-.62-1.47-.93-2.55-.93-1.07 0-1.92.31-2.54.93-.63.63-.94 1.5-.94 2.62v11.27h-7.33V63.9c0-1.12-.31-1.99-.92-2.62-.61-.62-1.46-.93-2.53-.93-1.1 0-1.96.31-2.58.93-.63.63-.94 1.5-.94 2.62v11.27h-7.34v-21h7.34v2.77c.65-.9 1.49-1.62 2.53-2.15 1.04-.54 2.23-.81 3.57-.81 1.55 0 2.93.34 4.14 1.01 1.21.68 2.17 1.62 2.87 2.85.74-1.15 1.73-2.08 2.95-2.79 1.23-.71 2.57-1.07 4.05-1.07zm11.3 10.67c0-2.17.39-4.07 1.18-5.69.79-1.62 1.86-2.87 3.22-3.74 1.36-.88 2.88-1.31 4.55-1.31 1.45 0 2.69.28 3.74.86 1.05.57 1.86 1.34 2.44 2.32v-2.92h7.33v21h-7.33v-2.92c-.58.97-1.4 1.75-2.46 2.32-1.06.58-2.3.86-3.72.86-1.67 0-3.19-.43-4.55-1.31-1.36-.87-2.43-2.12-3.22-3.76-.79-1.63-1.18-3.54-1.18-5.71zm15.13 0c0-1.35-.37-2.41-1.11-3.18-.74-.78-1.64-1.16-2.71-1.16-1.1 0-2.01.38-2.74 1.14-.72.76-1.08 1.83-1.08 3.2 0 1.35.36 2.42 1.08 3.2.73.79 1.64 1.18 2.74 1.18 1.07 0 1.97-.39 2.71-1.16.74-.77 1.11-1.85 1.11-3.22zm25.26-10.67c2.42 0 4.35.81 5.77 2.42 1.42 1.61 2.13 3.78 2.13 6.53v12.24h-7.33V63.9c0-1.2-.32-2.14-.94-2.82-.62-.69-1.46-1.03-2.51-1.03-1.1 0-1.96.34-2.58 1.03-.63.68-.94 1.62-.94 2.82v11.27h-7.33v-21h7.33v2.99c.65-.94 1.52-1.71 2.62-2.3 1.1-.59 2.36-.88 3.78-.88zm32.01 10.45c0 .57-.03 1.14-.11 1.72h-13.89c.08 1.15.39 2 .96 2.56.56.56 1.28.84 2.15.84 1.22 0 2.1-.54 2.62-1.64h7.82a8.995 8.995 0 0 1-1.89 3.87c-.93 1.14-2.11 2.03-3.53 2.68-1.43.65-3 .97-4.72.97-2.07 0-3.91-.43-5.52-1.31-1.61-.87-2.87-2.12-3.78-3.74-.92-1.62-1.37-3.53-1.37-5.73 0-2.2.45-4.1 1.35-5.71.9-1.61 2.15-2.85 3.76-3.72 1.61-.88 3.46-1.31 5.56-1.31 2.07 0 3.9.42 5.5 1.27 1.6.85 2.85 2.06 3.75 3.65.89 1.58 1.34 3.45 1.34 5.6zm-7.48-1.84c0-.9-.3-1.6-.9-2.11-.6-.52-1.35-.77-2.25-.77-.9 0-1.63.24-2.21.73-.57.49-.95 1.2-1.12 2.15h6.48zm14.18-10.37c-1.29 0-2.34-.35-3.12-1.07-.79-.71-1.18-1.6-1.18-2.67 0-1.1.39-2.01 1.18-2.74.78-.72 1.83-1.08 3.12-1.08 1.28 0 2.31.36 3.09 1.08.79.73 1.18 1.64 1.18 2.74 0 1.07-.39 1.96-1.18 2.67-.78.72-1.81 1.07-3.09 1.07zm3.64 1.95v21h-7.34v-21h7.34zm11.53 3.7c.82-1.19 1.82-2.14 2.99-2.84 1.17-.7 2.43-1.05 3.78-1.05v7.83h-2.06c-1.59 0-2.78.31-3.55.93-.78.63-1.16 1.71-1.16 3.26v9.17h-7.34v-21h7.34v3.7zm8.19 6.78c0-2.17.4-4.07 1.18-5.69.79-1.62 1.86-2.87 3.22-3.74 1.36-.88 2.88-1.31 4.55-1.31 1.45 0 2.7.28 3.75.86 1.04.57 1.85 1.34 2.43 2.32v-2.92h7.34v21h-7.34v-2.92a6.23 6.23 0 0 1-2.45 2.32c-1.06.58-2.31.86-3.73.86-1.67 0-3.19-.43-4.55-1.31-1.36-.87-2.43-2.12-3.22-3.76-.78-1.63-1.18-3.54-1.18-5.71zm15.13 0c0-1.35-.37-2.41-1.11-3.18-.73-.78-1.64-1.16-2.71-1.16-1.1 0-2.01.38-2.73 1.14-.73.76-1.09 1.83-1.09 3.2 0 1.35.36 2.42 1.09 3.2.72.79 1.63 1.18 2.73 1.18 1.07 0 1.98-.39 2.71-1.16.74-.77 1.11-1.85 1.11-3.22z" style="fill:#00d29b;fill-rule:nonzero"/><path d="M488.48 156.6v2.79h-3.79v11.52h-3.48v-11.52h-3.79v-2.79h11.06zm12.48 8.44c0 .32-.02.66-.06 1.02h-7.89c.05.7.28 1.24.68 1.62.4.37.9.56 1.48.56.87 0 1.48-.37 1.82-1.1h3.7c-.19.74-.53 1.42-1.02 2.01-.5.6-1.12 1.07-1.87 1.41-.75.34-1.58.51-2.51.51-1.11 0-2.1-.24-2.97-.71a5.134 5.134 0 0 1-2.04-2.04c-.49-.89-.74-1.92-.74-3.1 0-1.18.25-2.22.73-3.1.48-.88 1.16-1.56 2.03-2.04.87-.47 1.86-.71 2.99-.71 1.1 0 2.08.23 2.94.69.85.46 1.52 1.12 2.01 1.98.48.86.72 1.85.72 3zm-3.57-.92c0-.6-.2-1.07-.61-1.43-.41-.35-.92-.53-1.53-.53-.58 0-1.07.17-1.48.51-.4.34-.64.82-.74 1.45h4.36zm10.03 6.95c-.99 0-1.87-.17-2.65-.51-.77-.34-1.38-.81-1.83-1.4-.45-.59-.7-1.25-.76-1.98h3.45c.04.39.22.71.55.95.32.25.72.37 1.2.37.44 0 .77-.08 1.01-.25.24-.17.36-.39.36-.67 0-.32-.17-.56-.51-.72-.34-.16-.89-.33-1.65-.52-.82-.19-1.5-.39-2.04-.6-.55-.21-1.02-.54-1.41-1-.39-.45-.59-1.07-.59-1.84 0-.66.18-1.25.54-1.79.36-.53.89-.96 1.59-1.27.7-.31 1.53-.47 2.5-.47 1.42 0 2.55.35 3.37 1.06.82.71 1.29 1.64 1.42 2.81h-3.22c-.06-.39-.23-.7-.52-.93-.3-.24-.68-.35-1.16-.35-.4 0-.72.08-.93.23-.22.16-.33.37-.33.64 0 .33.17.58.52.74.35.16.89.32 1.62.49.84.22 1.53.43 2.06.64.53.21 1 .55 1.4 1.02.4.47.6 1.1.62 1.89 0 .66-.19 1.25-.56 1.78-.38.52-.91.93-1.61 1.23-.7.3-1.51.45-2.44.45zm13.09-3.12v2.96h-1.78c-1.26 0-2.24-.31-2.95-.93-.71-.62-1.06-1.63-1.06-3.03v-4.52h-1.39v-2.9h1.39v-2.77h3.48v2.77h2.29v2.9h-2.29v4.56c0 .34.09.59.25.74.16.15.43.22.81.22h1.25zm12.66-2.91c0 .32-.03.66-.07 1.02h-7.88c.05.7.28 1.24.68 1.62.4.37.89.56 1.48.56.87 0 1.47-.37 1.81-1.1h3.71c-.19.74-.53 1.42-1.03 2.01-.5.6-1.12 1.07-1.86 1.41-.75.34-1.59.51-2.51.51-1.12 0-2.11-.24-2.98-.71a5.134 5.134 0 0 1-2.04-2.04c-.48-.89-.73-1.92-.73-3.1 0-1.18.24-2.22.72-3.1a5.11 5.11 0 0 1 2.03-2.04c.87-.47 1.87-.71 3-.71 1.1 0 2.08.23 2.93.69.86.46 1.53 1.12 2.01 1.98.48.86.73 1.85.73 3zm-3.57-.92c0-.6-.2-1.07-.61-1.43-.41-.35-.92-.53-1.53-.53-.59 0-1.08.17-1.48.51-.4.34-.65.82-.74 1.45h4.36zm14.04-4.75c.81 0 1.51.16 2.11.49.61.33 1.07.75 1.4 1.28v-1.61h3.48v11.36c0 1.04-.2 1.99-.62 2.84a4.68 4.68 0 0 1-1.89 2.03c-.85.5-1.91.75-3.17.75-1.69 0-3.05-.4-4.1-1.19-1.05-.8-1.64-1.87-1.79-3.23h3.44c.11.43.37.78.78 1.03.4.25.91.37 1.5.37.73 0 1.3-.2 1.73-.62.42-.41.64-1.07.64-1.98v-1.61c-.34.53-.81.96-1.41 1.29-.6.33-1.29.5-2.1.5-.94 0-1.78-.24-2.54-.72-.77-.49-1.37-1.17-1.81-2.06-.44-.89-.66-1.92-.66-3.09s.22-2.2.66-3.08c.44-.88 1.04-1.56 1.81-2.04.76-.47 1.6-.71 2.54-.71zm3.51 5.85c0-.87-.24-1.56-.73-2.06-.48-.5-1.06-.75-1.76-.75-.69 0-1.28.25-1.76.74-.48.5-.72 1.18-.72 2.05 0 .87.24 1.56.72 2.07.48.51 1.07.76 1.76.76.7 0 1.28-.25 1.76-.75.49-.5.73-1.19.73-2.06zm9.5-3.79c.41-.63.92-1.12 1.53-1.48.61-.36 1.29-.54 2.03-.54v3.69h-.95c-.87 0-1.53.19-1.96.56-.44.37-.65 1.03-.65 1.97v5.28h-3.49v-11.38h3.49v1.9zm4.54 3.77c0-1.17.22-2.2.67-3.08.44-.88 1.04-1.56 1.8-2.04.76-.47 1.61-.71 2.55-.71.8 0 1.5.16 2.11.49.6.33 1.07.75 1.39 1.28v-1.61h3.49v11.38h-3.49v-1.61c-.34.53-.81.95-1.41 1.28-.61.33-1.31.49-2.11.49-.93 0-1.77-.24-2.53-.72-.76-.49-1.36-1.17-1.8-2.06-.45-.89-.67-1.92-.67-3.09zm8.52.02c0-.87-.24-1.56-.72-2.06s-1.07-.75-1.76-.75c-.7 0-1.28.25-1.77.74-.48.5-.72 1.18-.72 2.05 0 .87.24 1.56.72 2.07.49.51 1.07.76 1.77.76.69 0 1.28-.25 1.76-.75s.72-1.19.72-2.06zm.27-8.52-4.91 2.06v-2.41l4.91-2.36v2.71zm12.09 11.25v2.96h-1.78c-1.26 0-2.25-.31-2.95-.93-.71-.62-1.06-1.63-1.06-3.03v-4.52h-1.39v-2.9h1.39v-2.77h3.48v2.77h2.29v2.9h-2.29v4.56c0 .34.08.59.25.74.16.15.43.22.81.22h1.25zm3.69-9.6c-.62 0-1.12-.18-1.5-.54-.39-.36-.58-.8-.58-1.33 0-.55.19-1 .58-1.36.38-.36.88-.54 1.5-.54.59 0 1.09.18 1.47.54.39.36.58.81.58 1.36 0 .53-.19.97-.58 1.33-.38.36-.88.54-1.47.54zm1.73 1.18v11.38H584v-11.38h3.49zm7.15 11.54c-.99 0-1.87-.17-2.65-.51-.77-.34-1.38-.81-1.83-1.4-.45-.59-.7-1.25-.76-1.98h3.45c.04.39.22.71.55.95.33.25.73.37 1.2.37.44 0 .77-.08 1.01-.25.24-.17.36-.39.36-.67 0-.32-.17-.56-.51-.72-.34-.16-.89-.33-1.65-.52-.82-.19-1.5-.39-2.04-.6-.54-.21-1.01-.54-1.41-1-.39-.45-.59-1.07-.59-1.84 0-.66.18-1.25.54-1.79.36-.53.89-.96 1.59-1.27.7-.31 1.53-.47 2.5-.47 1.43 0 2.55.35 3.37 1.06.82.71 1.3 1.64 1.42 2.81h-3.22c-.06-.39-.23-.7-.52-.93-.29-.24-.68-.35-1.15-.35-.41 0-.72.08-.94.23-.22.16-.33.37-.33.64 0 .33.18.58.52.74.35.16.89.32 1.62.49.85.22 1.53.43 2.06.64.53.21 1 .55 1.4 1.02.4.47.61 1.1.62 1.89 0 .66-.19 1.25-.56 1.78-.37.52-.91.93-1.61 1.23-.7.3-1.51.45-2.44.45zm14.56-9.93c.34-.53.81-.95 1.4-1.28.6-.33 1.3-.49 2.1-.49.94 0 1.79.24 2.55.71.76.48 1.36 1.16 1.8 2.04.45.88.67 1.91.67 3.08 0 1.17-.22 2.2-.67 3.09-.44.89-1.04 1.57-1.8 2.06-.76.48-1.61.72-2.55.72-.79 0-1.48-.16-2.09-.49-.6-.33-1.07-.75-1.41-1.26v7.01h-3.49v-16.8h3.49v1.61zm4.97 4.06c0-.87-.24-1.55-.72-2.05a2.43 2.43 0 0 0-1.79-.74c-.69 0-1.28.25-1.76.75s-.72 1.19-.72 2.06c0 .87.24 1.56.72 2.06s1.07.75 1.76.75c.7 0 1.29-.25 1.78-.76s.73-1.2.73-2.07zm10.56 5.87c-1.11 0-2.12-.24-3.01-.71a5.282 5.282 0 0 1-2.1-2.04c-.51-.89-.76-1.92-.76-3.1 0-1.17.26-2.2.77-3.09.52-.89 1.23-1.57 2.12-2.05.9-.47 1.91-.71 3.02-.71s2.12.24 3.02.71c.89.48 1.6 1.16 2.12 2.05.51.89.77 1.92.77 3.09s-.26 2.2-.78 3.09c-.53.89-1.24 1.57-2.14 2.05-.91.47-1.92.71-3.03.71zm0-3.02c.66 0 1.23-.24 1.7-.73s.7-1.19.7-2.1c0-.91-.22-1.61-.68-2.1-.45-.49-1.01-.73-1.68-.73-.68 0-1.24.24-1.69.72-.45.48-.67 1.19-.67 2.11 0 .91.22 1.61.66 2.1.44.49.99.73 1.66.73zm11.29-6.62c.41-.63.92-1.12 1.53-1.48.61-.36 1.29-.54 2.04-.54v3.69h-.96c-.87 0-1.52.19-1.96.56-.43.37-.65 1.03-.65 1.97v5.28h-3.48v-11.38h3.48v1.9zm9.34-1.2c.05-1.46.53-2.58 1.42-3.37.9-.79 2.12-1.18 3.65-1.18 1.02 0 1.9.18 2.62.53.73.35 1.28.84 1.65 1.45.38.61.56 1.3.56 2.06 0 .89-.22 1.62-.67 2.19-.45.56-.97.95-1.57 1.15v.08c.78.26 1.39.69 1.84 1.29.44.59.67 1.36.67 2.3 0 .84-.19 1.59-.58 2.23-.39.65-.95 1.15-1.69 1.52-.74.37-1.62.55-2.64.55-1.63 0-2.94-.4-3.91-1.2-.97-.81-1.48-2.01-1.54-3.63h3.39c.01.6.18 1.07.51 1.41.32.35.8.52 1.42.52.53 0 .94-.15 1.24-.45.29-.31.43-.71.43-1.22 0-.65-.2-1.12-.62-1.41-.41-.3-1.07-.44-1.98-.44h-.66v-2.84h.66c.69 0 1.25-.11 1.68-.35.43-.24.64-.66.64-1.28 0-.48-.14-.87-.41-1.14-.27-.27-.64-.4-1.12-.4-.52 0-.9.15-1.15.46-.25.32-.4.7-.44 1.17h-3.4zm12.21 3.03c0-2.33.45-4.17 1.35-5.52.91-1.35 2.36-2.02 4.38-2.02 2.01 0 3.46.67 4.37 2.02.9 1.35 1.35 3.19 1.35 5.52 0 2.37-.45 4.22-1.35 5.57-.91 1.34-2.36 2.02-4.37 2.02-2.02 0-3.47-.68-4.38-2.02-.9-1.35-1.35-3.2-1.35-5.57zm8.03 0c0-1.37-.15-2.43-.45-3.17-.3-.74-.92-1.11-1.85-1.11-.94 0-1.56.37-1.86 1.11-.3.74-.45 1.8-.45 3.17 0 .93.06 1.69.16 2.3.11.6.33 1.09.67 1.46.33.38.82.56 1.48.56.65 0 1.14-.18 1.47-.56.34-.37.56-.86.67-1.46.1-.61.16-1.37.16-2.3zm9.23 1.94c0-1.17.22-2.2.66-3.08.45-.88 1.05-1.56 1.81-2.04.76-.47 1.61-.71 2.55-.71.74 0 1.43.16 2.04.47.62.31 1.11.73 1.46 1.26v-5.28h3.49v15.09h-3.49v-1.63c-.32.54-.79.97-1.39 1.3-.61.33-1.31.49-2.11.49-.94 0-1.79-.24-2.55-.72-.76-.49-1.36-1.17-1.81-2.06-.44-.89-.66-1.92-.66-3.09zm8.52.02c0-.87-.24-1.56-.72-2.06s-1.07-.75-1.76-.75c-.7 0-1.29.25-1.77.74-.48.5-.72 1.18-.72 2.05 0 .87.24 1.56.72 2.07.48.51 1.07.76 1.77.76.69 0 1.28-.25 1.76-.75s.72-1.19.72-2.06zm7.77-6.87c-.61 0-1.11-.18-1.5-.54-.39-.36-.58-.8-.58-1.33 0-.55.19-1 .58-1.36.39-.36.89-.54 1.5-.54.6 0 1.09.18 1.48.54.38.36.58.81.58 1.36 0 .53-.2.97-.58 1.33-.39.36-.88.54-1.48.54zm1.73 1.18v11.38h-3.48v-11.38h3.48zm1.84 5.67c0-1.17.22-2.2.66-3.08.44-.88 1.04-1.56 1.8-2.04.76-.47 1.61-.71 2.55-.71.8 0 1.51.16 2.11.49.6.33 1.07.75 1.4 1.28v-1.61h3.48v11.38h-3.48v-1.61c-.34.53-.82.95-1.42 1.28-.6.33-1.31.49-2.11.49-.92 0-1.77-.24-2.53-.72-.76-.49-1.36-1.17-1.8-2.06-.44-.89-.66-1.92-.66-3.09zm8.52.02c0-.87-.25-1.56-.73-2.06s-1.07-.75-1.76-.75-1.28.25-1.76.74c-.49.5-.73 1.18-.73 2.05 0 .87.24 1.56.73 2.07.48.51 1.07.76 1.76.76s1.28-.25 1.76-.75.73-1.19.73-2.06zm10.64 5.85c-1 0-1.88-.17-2.65-.51-.78-.34-1.39-.81-1.84-1.4-.45-.59-.7-1.25-.75-1.98h3.44c.04.39.23.71.55.95.33.25.73.37 1.2.37.44 0 .78-.08 1.01-.25.24-.17.36-.39.36-.67 0-.32-.17-.56-.51-.72-.34-.16-.89-.33-1.65-.52-.81-.19-1.49-.39-2.04-.6a3.45 3.45 0 0 1-1.4-1c-.4-.45-.6-1.07-.6-1.84 0-.66.18-1.25.54-1.79.37-.53.89-.96 1.59-1.27.7-.31 1.54-.47 2.5-.47 1.43 0 2.55.35 3.37 1.06.83.71 1.3 1.64 1.42 2.81h-3.22c-.05-.39-.23-.7-.52-.93-.29-.24-.68-.35-1.15-.35-.41 0-.72.08-.94.23a.74.74 0 0 0-.32.64c0 .33.17.58.52.74.34.16.88.32 1.62.49.84.22 1.52.43 2.05.64.53.21 1 .55 1.4 1.02.4.47.61 1.1.62 1.89 0 .66-.18 1.25-.56 1.78-.37.52-.91.93-1.61 1.23-.7.3-1.51.45-2.43.45z" style="fill:#fefefe;fill-rule:nonzero"/></svg>