<svg xmlns="http://www.w3.org/2000/svg" xml:space="preserve" width="335px" height="505px" version="1.1" style="shape-rendering:geometricPrecision; text-rendering:geometricPrecision; image-rendering:optimizeQuality; fill-rule:evenodd; clip-rule:evenodd" viewBox="0 0 255.44 384.87"><defs><style type="text/css"><![CDATA[.fil00 {fill:#F0F0F0}.fil1 {fill:white}]]></style></defs><g><path class="fil00" d="M163.42 337.42c0,-26.77 -21.13,-47.91 -53.52,-47.91 -32.87,0 -53.99,21.14 -53.99,47.91 0,26.78 21.12,47.45 53.99,47.45 32.39,0 53.52,-20.67 53.52,-47.45zm-137.08 -208.09l0 0 86.84 0c0,-16.45 8.45,-28.66 26.77,-28.66 15.02,0 24.88,9.39 25.35,25.83 0.94,27.25 -25.83,34.76 -65.73,34.76l-33.8 0 2.81 93.48 81.23 0 2.34 -34.29c60.57,-0.93 103.29,-35.23 103.29,-93.48 0,-67.17 -47.42,-101.46 -113.15,-101.46 -79.34,0 -117.84,47.44 -115.95,103.82z"/><path class="fil1" d="M36.83 109.53c0,-7.14 -5.61,-12.79 -14.23,-12.79 -8.73,0 -14.34,5.65 -14.34,12.79 0,7.15 5.61,12.67 14.34,12.67 8.62,0 14.23,-5.52 14.23,-12.67zm124.06 15.09c0,-10.67 -8.43,-19.09 -21.34,-19.09 -13.1,0 -21.52,8.42 -21.52,19.09 0,10.67 8.42,18.9 21.52,18.9 12.91,0 21.34,-8.23 21.34,-18.9zm-54.66 -82.89l0 0 34.63 0c0,-6.55 3.37,-11.41 10.67,-11.41 5.99,0 9.92,3.74 10.11,10.29 0.37,10.85 -10.3,13.84 -26.21,13.84l-13.48 0 1.13 37.24 32.38 0 0.94 -13.66c24.14,-0.37 41.17,-14.03 41.17,-37.24 0,-26.75 -18.9,-40.41 -45.11,-40.41 -31.62,0 -46.97,18.9 -46.23,41.35zm-105.83 12.25l0 0 23.08 0c0,-4.38 2.25,-7.65 7.11,-7.65 4,0 6.62,2.51 6.74,6.9 0.25,7.27 -6.86,9.28 -17.47,9.28l-8.98 0 0.75 24.96 21.59 0 0.61 -9.16c16.11,-0.26 27.46,-9.41 27.46,-24.95 0,-17.94 -12.6,-27.09 -30.07,-27.09 -21.09,0 -31.32,12.67 -30.82,27.71z"/></g></svg>