<svg xmlns="http://www.w3.org/2000/svg" xml:space="preserve" width="100%" height="100%" version="1.1" style="shape-rendering:geometricPrecision; text-rendering:geometricPrecision; image-rendering:optimizeQuality; fill-rule:evenodd; clip-rule:evenodd" viewBox="0 0 21000 29700"><defs><style type="text/css"><![CDATA[.fil0{fill:#00D29B}]]></style></defs><g><path class="fil0" d="M11640.97 11136.28c50.06,0 90.65,40.59 90.65,90.65 0,50.07 -40.59,90.65 -90.65,90.65 -50.07,0 -90.65,-40.58 -90.65,-90.65 0,-50.06 40.58,-90.65 90.65,-90.65zm-754.25 -170l968.3 0c13.84,0 26.41,5.64 35.5,14.74 9.1,9.1 14.75,21.67 14.75,35.5l0 746.18c0,13.83 -5.65,26.4 -14.75,35.5 -9.09,9.1 -21.66,14.74 -35.5,14.74l-968.3 0c-13.84,0 -26.41,-5.64 -35.5,-14.74 -9.1,-9.1 -14.75,-21.67 -14.75,-35.5l0 -746.18c0,-13.83 5.65,-26.4 14.75,-35.5 9.09,-9.1 21.66,-14.74 35.5,-14.74zm968.3 35.33l-968.3 0c-4.09,0 -7.81,1.68 -10.53,4.39 -2.71,2.71 -4.39,6.44 -4.39,10.52l0 746.18c0,4.08 1.68,7.81 4.39,10.52 2.72,2.71 6.44,4.39 10.53,4.39l968.3 0c4.09,0 7.81,-1.68 10.53,-4.39 2.71,-2.71 4.39,-6.44 4.39,-10.52l0 -746.18c0,-4.08 -1.68,-7.81 -4.39,-10.52 -2.72,-2.71 -6.44,-4.39 -10.53,-4.39zm-577.35 656.92c2.74,-4.93 49.78,-51.44 59.78,-61.44 3.22,-3.21 174.23,-177.93 179.98,-181.73l46.87 41.84c5.66,5.12 9.87,9.08 15.33,14.34l15.68 14c30.11,25.66 64.59,59.49 93.72,84.32l77.43 69.36 -0.12 19.26 -79.17 0.2c-134.99,1.04 -274.11,0.14 -409.5,-0.15zm-51.34 -1.3c-2.23,3.22 -1.29,2.15 -6.77,2.15 -38.45,0.06 -233.43,0.91 -244.09,-0.34 -2.63,-6.84 -0.91,-119.84 -0.87,-137.17 0.29,-6.53 0.31,-2.43 1.67,-4l227.8 -211.68 178.26 193.13c-1.85,3.93 -16.92,18.11 -19.88,20.7 -2.53,2.21 -2.91,2.71 -5.22,5.46l-91.99 93.16c-7.93,7.12 -33.65,36.04 -38.91,38.59zm540.09 -536l0.1 468.54c-5.65,-2.74 -18.44,-15.7 -24.09,-21.07l-15.8 -13.89c-3.12,-2.52 -4.31,-4.06 -7.34,-6.89 -12.77,-11.92 -35.71,-30.34 -46.91,-42.11l-109.19 -98.53c-3.15,-2.79 -5.49,-4.01 -8.4,-7.01l-31.12 -28.23c-2.7,-2.18 -3.98,-3.81 -7.42,-6.59 -3.36,1.19 -72.22,71.79 -81.34,81.03l-25.25 25.71c-0.13,0.11 -0.61,0.66 -0.7,0.46 -0.1,-0.21 -0.49,0.28 -0.73,0.42l-25.76 -27.37c-3.76,-4.26 -8.04,-8.33 -12.69,-13.57l-163.15 -177.23c-4.56,1.65 -24.5,21.99 -29.46,26.39 -15.08,13.42 -58.55,55.74 -72.74,67.36l-28.61 27.18c-10.46,9.42 -97.54,91.54 -100.41,92.25l0.17 -347.14 790.84 0.29zm35.93 539.05l0.27 -23.43c-1.49,-60.12 -0.05,-122.28 -0.07,-182.64l0.06 -320.49c-0.12,-15.41 0.17,-27.12 -8.46,-36.92 -8.42,-9.54 -17.77,-12.15 -34.57,-12.09 -15.02,0.06 -30.09,0.18 -45.11,0.07l-637.41 -0.06c-30.46,0.01 -60.94,0.13 -91.4,0.07 -33.54,-0.06 -46.02,10.67 -46.31,44.18 -1.06,121.31 0.15,243.05 0.04,364.41 -0.03,26.29 -2.8,166.95 2.59,180.18 10.73,26.32 38.01,21.27 69.8,21.28l728.81 0.01c28.24,-0.08 61.83,1.94 61.76,-34.57zm-161.38 -487.17c29.72,0 53.82,24.1 53.82,53.82 0,29.72 -24.1,53.82 -53.82,53.82 -29.72,0 -53.82,-24.1 -53.82,-53.82 0,-29.72 24.1,-53.82 53.82,-53.82z"/></g></svg>