<svg xmlns="http://www.w3.org/2000/svg" xml:space="preserve" width="36" height="28" style="shape-rendering:geometricPrecision;text-rendering:geometricPrecision;image-rendering:optimizeQuality;fill-rule:evenodd;clip-rule:evenodd" viewBox="0 0 39.83 30.97"><path d="M33.36 10.42c.95-1.3 2.37-2.48 4.26-3.55 1.32-.68 1.99-1.8 1.99-3.36 0-1.05-.32-1.93-.91-2.55C38.09.33 37.24 0 36.11 0c-1.24 0-2.63.5-4.19 1.52-1.55 1.01-3.02 2.39-4.35 4.12-1.36 1.74-2.47 3.79-3.32 6.12-.87 2.35-1.28 4.83-1.28 7.48 0 3.7.82 6.58 2.47 8.64 1.63 2.08 3.74 3.09 6.27 3.09 2.3 0 4.21-.72 5.77-2.21 1.55-1.47 2.35-3.31 2.35-5.48 0-2.22-.8-4.1-2.35-5.6-1.56-1.49-3.28-2.24-5.19-2.24h-.68c.2-2.05.79-3.72 1.75-5.02zm-23.04-.02c1.05-1.36 2.5-2.52 4.33-3.53 1.32-.72 1.98-1.83 1.98-3.36 0-1.03-.31-1.87-.93-2.52C15.08.33 14.24 0 13.14 0c-1.65 0-3.52.86-5.62 2.61-2.11 1.73-3.91 4.1-5.34 7.06C.72 12.66 0 15.84 0 19.24c0 3.75.82 6.62 2.49 8.62 1.66 2.02 3.73 3.02 6.24 3.02 2.31 0 4.22-.7 5.77-2.14 1.56-1.43 2.34-3.25 2.34-5.46 0-2.22-.78-4.1-2.34-5.6-1.55-1.49-3.3-2.24-5.26-2.24h-.72c.15-2.03.74-3.7 1.8-5.04z" style="fill:#6667f0"/></svg>