<svg xmlns="http://www.w3.org/2000/svg" xml:space="preserve" width="450" height="75" style="shape-rendering:geometricPrecision;text-rendering:geometricPrecision;image-rendering:optimizeQuality;fill-rule:evenodd;clip-rule:evenodd"><path d="m41.67 0 12.87 24.71 28.79 3.96-20.83 19.2L67.42 75 41.67 62.21 15.92 75l4.91-27.13L0 28.67l28.79-3.96L41.67 0zm366.66 0 12.88 24.71L450 28.67l-20.83 19.2L434.08 75l-25.75-12.79L382.58 75l4.92-27.13-20.83-19.2 28.79-3.96L408.33 0zm-91.66 0 12.87 24.71 28.79 3.96-20.83 19.2L342.42 75l-25.75-12.79L290.92 75l4.91-27.13L275 28.67l28.79-3.96L316.67 0zM225 0l12.87 24.71 28.8 3.96-20.84 19.2L250.75 75 225 62.21 199.25 75l4.92-27.13-20.84-19.2 28.8-3.96L225 0zm-91.67 0 12.88 24.71L175 28.67l-20.83 19.2L159.08 75l-25.75-12.79L107.58 75l4.92-27.13-20.83-19.2 28.79-3.96L133.33 0z" style="fill:#ffdf1a"/></svg>