<svg xmlns="http://www.w3.org/2000/svg" xml:space="preserve" width="284" height="237" style="shape-rendering:geometricPrecision;text-rendering:geometricPrecision;image-rendering:optimizeQuality;fill-rule:evenodd;clip-rule:evenodd" viewBox="0 0 1039.3 866.2"><path d="M88.6 391.9C109.3 172 294.4 0 519.7 0c154.8 0 297.7 82.6 375.1 216.6l-75 43.3C759.9 156.3 648 86.6 519.7 86.6c-175.6 0-320.6 130.6-343.3 300l14.7-14.7c9.7-9.8 26.2-9.9 36.1-.5l.4.5 24.7 24.7c9.8 9.8 9.7 26.8 0 36.6l-104 104.3-.5.5c-4.7 4.5-10.8 6.8-16.9 7H128.7c-6.1-.2-12.2-2.5-16.9-7l-.5-.5-104-104.3c-9.7-9.8-9.8-26.8 0-36.6L32 371.9l.4-.5c9.9-9.4 26.4-9.3 36.1.5l20.1 20zM928 328.7l-.4-.5c-4.8-4.5-10.9-6.8-17-6.9h-.3l-.3-.1h-.3l-.2.1-.1-.1h-.3l-.4.1h-.2c-6.2.1-12.3 2.4-17 6.9l-.5.5-104 104.4c-9.7 9.7-9.7 26.7 0 36.5l24.7 24.8.4.4c9.9 9.4 26.4 9.3 36.1-.4l14.9-14.9c-22.6 169.4-167.7 300.1-343.4 300.1-128.2 0-240.2-69.7-300.1-173.2l-75 43.3C222 783.7 365 866.2 519.7 866.2c225.3 0 410.4-172 431.2-391.8l19.9 20c9.8 9.7 26.2 9.8 36.1.4l.5-.4 24.6-24.8c9.8-9.8 9.7-26.8 0-36.5L928 328.7z" style="fill:#00d39b"/></svg>