<svg xmlns="http://www.w3.org/2000/svg" xml:space="preserve" width="231" height="212" style="shape-rendering:geometricPrecision;text-rendering:geometricPrecision;image-rendering:optimizeQuality;fill-rule:evenodd;clip-rule:evenodd" viewBox="0 0 980.9 903.7"><path d="M807.9 638.9H494.8c-14.7 0-28.6 2.9-41.2 8.2-13.1 5.4-25 13.4-34.9 23.4-10 9.9-18 21.7-23.5 34.9-5.2 12.6-8.1 26.6-8.1 41.2v86.5l528.5-41.7v-44.8c0-14.6-2.9-28.6-8.1-41.2-5.4-13.1-13.4-25-23.4-34.9-9.9-10-21.8-18-34.9-23.4-12.7-5.3-26.6-8.2-41.3-8.2zM402.2 286H102.1v-59.3h312.7V286h-12.6zm-.1 131.9h-300v-59.3h312.5v59.3h-12.5zm.1 142.8h-300v-59.3h312.6v59.3h-12.6zM11.4 63.6 708.2 0v137.4l-15.6-3.9c-6.6-1.7-13.2-3-20-3.9-6.8-1-13.6-1.6-20.4-1.9l-12.2-.4V81.4L68.2 133.7v480.6c0 5.9 1.9 11.2 5.1 14.8 2.7 3.2 6.4 5.2 10.4 5.2h240.5l-9.3 18.3c-3.6 7.1-6.6 14.6-9 22.3-2.3 7.4-3.9 15.2-4.9 23.3l-1.2 11.2H83.7c-23.5 0-44.6-10.9-59.8-28.6C9.1 663.7 0 640.2 0 614.3V64.7l11.4-1.1zm483.4 510h81.3c-20.8-9.1-39.4-22-55.2-37.7-16.6-16.7-30-36.6-39.2-58.8-8.8-21.3-13.7-44.7-13.7-69.1v-74.5c0-24.5 4.9-47.8 13.7-69.2 9.2-22.1 22.6-42 39.2-58.7 16.7-16.6 36.6-30.1 58.8-39.3 21.3-8.8 44.7-13.7 69.1-13.7h5.1c24.4 0 47.8 4.9 69.1 13.7 22.2 9.2 42.1 22.6 58.8 39.3 16.7 16.7 30.1 36.6 39.3 58.7 8.8 21.4 13.7 44.7 13.7 69.2V408c0 24.4-4.9 47.8-13.7 69.1-9.2 22.2-22.6 42.1-39.3 58.8-15.8 15.7-34.4 28.6-55.2 37.7h81.3c23.4 0 45.7 4.7 66.2 13.2 21.1 8.7 40.2 21.6 56.1 37.5 31.4 31.3 50.7 74.5 50.7 122.3v105.1c-219.7 17.3-439.4 34.6-659.1 52V746.6c0-23.4 4.7-45.7 13.1-66.1 8.9-21.3 21.7-40.3 37.6-56.2 31.3-31.3 74.5-50.7 122.3-50.7zm154-50h5.1c15.8 0 30.7-3.1 44.3-8.7 14.1-5.9 26.8-14.5 37.5-25.1 10.6-10.7 19.2-23.4 25.1-37.5 5.6-13.6 8.7-28.5 8.7-44.3v-74.5c0-15.8-3.1-30.7-8.7-44.3-5.9-14.1-14.5-26.8-25.1-37.5-10.7-10.6-23.4-19.2-37.5-25.1-13.6-5.6-28.5-8.7-44.3-8.7h-5.1c-15.7 0-30.7 3.1-44.2 8.7-14.1 5.9-26.8 14.5-37.5 25.2-10.7 10.6-19.3 23.3-25.1 37.4-5.6 13.6-8.7 28.5-8.7 44.3V408c0 15.8 3.1 30.7 8.7 44.3 5.8 14.1 14.4 26.8 25.1 37.5 10.7 10.6 23.4 19.2 37.5 25.1 13.5 5.6 28.5 8.7 44.2 8.7z" style="fill:#00d39b;fill-rule:nonzero"/></svg>