<svg xmlns="http://www.w3.org/2000/svg" xml:space="preserve" width="43" height="50" style="shape-rendering:geometricPrecision;text-rendering:geometricPrecision;image-rendering:optimizeQuality;fill-rule:evenodd;clip-rule:evenodd" viewBox="0 0 3.76 4.37"><path d="m3.46 2.12-.27-.31c-.34-.4-.89-.52-1.36-.34L.57 0 0 .5v.57L.43.7l.18.22-.43.37.19.22.43-.38.18.22-.43.37.42.49c-.25.45-.21 1.02.14 1.42l.27.31c.44.52 1.21.58 1.72.13l.23-.21c.52-.44.57-1.22.13-1.74zm-.95 1.53-.43-.51.5-.43.44.5-.51.44z" style="fill:#6769ef"/></svg>