<svg xmlns="http://www.w3.org/2000/svg" xml:space="preserve" width="62" height="62" style="shape-rendering:geometricPrecision;text-rendering:geometricPrecision;image-rendering:optimizeQuality;fill-rule:evenodd;clip-rule:evenodd" viewBox="0 0 15.77 15.77"><path d="M.78 12.27c-.15.16-.27.29-.38.41-1.29 1.47.82 3.82 2.44 2.86.44-.24.71-.59 1.06-.94 1.02-1.05 2.45-2.49 3.98-4.02 1.54 1.53 2.97 2.97 3.99 4.02.35.35.62.7 1.06.94 1.62.96 3.73-1.39 2.44-2.86-.11-.12-.24-.25-.39-.41-1.05-1.07-2.66-2.68-4.38-4.4 1.72-1.71 3.32-3.31 4.37-4.38.47-.51.73-.66.8-1.51.01-.24-.08-.56-.14-.73-.36-.94-1.64-1.62-2.72-1.03-.39.21-.36.24-.7.59-1.05 1.06-2.63 2.65-4.33 4.34C6.19 3.46 4.6 1.87 3.56.81 3.22.46 3.24.43 2.85.22 1.78-.37.49.31.13 1.25c-.05.17-.15.49-.13.73.07.85.32 1 .8 1.51 1.05 1.07 2.65 2.67 4.37 4.38-1.72 1.72-3.33 3.33-4.39 4.4z" style="fill:#bdbfc1"/></svg>