<svg xmlns="http://www.w3.org/2000/svg" xml:space="preserve" width="50" height="50" style="shape-rendering:geometricPrecision;text-rendering:geometricPrecision;image-rendering:optimizeQuality;fill-rule:evenodd;clip-rule:evenodd" viewBox="0 0 2.51 2.51"><path d="M.59 1c-.15 0-.27.11-.27.25s.12.26.27.26c.14 0 .26-.12.26-.26S.73 1 .59 1zM1.93.69c.32 0 .58.25.58.55v.58H2.2v-.57a.265.265 0 0 0-.53 0v.57h-.32V.69h.24l.03.09c.09-.06.2-.09.31-.09zM.59.69c.32 0 .58.25.58.56 0 .31-.26.57-.58.57A.58.58 0 0 1 0 1.25C0 .94.26.69.59.69zM0 0h2.51v.3H.37L.32.44H0V0zm2.51 2.51H0v-.3h2.15l.05-.14h.31v.44z" style="fill:#6769ef"/></svg>