<svg xmlns="http://www.w3.org/2000/svg" xml:space="preserve" width="43" height="50" style="shape-rendering:geometricPrecision;text-rendering:geometricPrecision;image-rendering:optimizeQuality;fill-rule:evenodd;clip-rule:evenodd" viewBox="0 0 2.66 3.09"><path d="M1.71 1.81c.41-.31.49-.89.19-1.3L1.79.37A.902.902 0 0 0 .51.19l-.14.1c-.41.31-.49.89-.19 1.3l.11.14c.3.41.88.49 1.28.19l.14-.11zM1.1.59.59.98l.38.53.52-.39L1.1.59zm.92 1.23-.53.4.64.87.53-.4-.64-.87zM.94 1.78.31.95l.83-.63.62.84-.82.62z" style="fill:#686af0"/></svg>