<svg xmlns="http://www.w3.org/2000/svg" xml:space="preserve" width="281" height="321" style="shape-rendering:geometricPrecision;text-rendering:geometricPrecision;image-rendering:optimizeQuality;fill-rule:evenodd;clip-rule:evenodd" viewBox="0 0 369.4 423.2"><path d="M30.4 141.2C11.5 99 30.6 49.3 72.8 30.4c11.1-4.9 22.7-7.3 34.1-7.3 32.1 0 62.8 18.5 76.7 49.7 18.8 42.2-.2 91.9-42.4 110.8-42.2 18.9-91.9-.1-110.8-42.4zm315.9 243.1-44.4 3.7-71.6 6.2-44.4 3.8v-91.8c0-10.4 5-20.4 13.4-26.7l55-41.4c3.5-2.6 7.6-3.9 11.8-3.9 4.2 0 8.3 1.3 11.8 3.9l55 41.4c8.4 6.3 13.4 16.3 13.4 26.7v78.1zm-180.6-95.8-17.4-39.1 37.2-16.7 9.4 21.1-9.5 7.2c-9.3 7-16.1 16.7-19.7 27.5zM346.8 261l-55-41.4c-15.1-11.3-36.3-11.4-51.4 0l-26.5 20-16.7-37.4-79.5 35.5 45.1 101v84.5c170-14.6 48.2-4.2 206.6-17.7v-99.3c0-17.7-8.4-34.6-22.6-45.2zM79.6 45.6 89 66.7c22.2-9.9 48.4.1 58.3 22.3l21.1-9.4c-15.1-33.9-55-49.1-88.8-34zm125.1 17.8C180.6 9.5 117.2-14.8 63.3 9.3 9.5 33.4-14.8 96.8 9.3 150.7c17.8 39.7 56.9 63.3 97.9 63.3 14.5 0 29.3-3 43.5-9.3 53.8-24.1 78.1-87.5 54-141.3z" style="fill:#00d39b;fill-rule:nonzero"/></svg>