<svg xmlns="http://www.w3.org/2000/svg" xml:space="preserve" width="43" height="50" style="shape-rendering:geometricPrecision;text-rendering:geometricPrecision;image-rendering:optimizeQuality;fill-rule:evenodd;clip-rule:evenodd" viewBox="0 0 16.51 19.2"><path d="M16.51 12.47a8.797 8.797 0 0 1-2.11 3.38A16.517 16.517 0 0 0 3.87 13.5c-1.12.13-2.2.36-3.22.69-.25-.4-.47-.83-.65-1.28 2.1-1.28 4.51-2.1 6.97-2.34.94-.1 1.54-.09 2.5-.06 2.52.12 4.91.81 7.04 1.96zm-8.5-4.29c-.06.08-.79.97-.93 1.13-.2.22.08.47.27.25.12-.13.85-1.02.9-1.09.06.07.9.96 1.02 1.09.19.22.47-.03.27-.25-.14-.16-.98-1.05-1.05-1.13l.04-.05.74-.86c.82.31 3.98 1.37 5.32.04C16.92 5 16.44.19 16.44.19s-4.78-.94-7.48 1.35c-.31.26-.54.55-.71.84-.16-.29-.39-.58-.7-.84C4.85-.75.07.19.07.19S-.41 5 1.92 7.31c1.34 1.33 4.5.27 5.32-.04l.74.86.03.05zm.97-1.13-.73.83-.72-.83c.16-.24.47-.76.72-1.41.25.65.57 1.17.73 1.41zM7.04 19.14c-1.29-.17-2.5-.63-3.55-1.3 1.24.3 2.43.74 3.55 1.3zm3-.11c-2.4-1.5-5.2-2.4-8.17-2.51.23.24.48.47.74.68 2.23.25 4.34.94 6.24 2 .41-.03.8-.09 1.19-.17zm2.09-.91A16.547 16.547 0 0 0 1.17 15.5c.08.11.16.22.25.32 3.5-.08 6.82.93 9.58 2.77.39-.13.77-.29 1.13-.47zm1.8-1.36c-3.08-1.95-6.82-2.9-10.72-2.46-.84.09-1.65.25-2.43.45l.13.2c.41-.08.83-.15 1.25-.2 4-.45 7.83.57 10.96 2.62.28-.19.55-.39.81-.61z" style="fill:#6769ef"/></svg>