<svg xmlns="http://www.w3.org/2000/svg" xml:space="preserve" width="25" height="20" style="shape-rendering:geometricPrecision;text-rendering:geometricPrecision;image-rendering:optimizeQuality;fill-rule:evenodd;clip-rule:evenodd"><path d="M10.01 13.62 4.9 7.18l-.43-.54c-.15-.19-.29-.32-.49-.47C2.31 4.95 0 6.08 0 8.1c0 1.08.75 1.77 1.42 2.61l.61.79 6.33 7.92c1.05.91 2.76.73 3.6-.42.22-.29.07-.17.43-.58L24.15 4.27c.55-.69.85-.9.85-1.98 0-.3-.15-.7-.24-.91C24.21.24 22.52-.48 21.23.37c-.47.31-.44.34-.83.81l-9.62 11.57-.37.45c-.13.15-.23.31-.4.42z" style="fill:#00d29b"/></svg>