<svg xmlns="http://www.w3.org/2000/svg" xml:space="preserve" width="62" height="62" style="shape-rendering:geometricPrecision;text-rendering:geometricPrecision;image-rendering:optimizeQuality;fill-rule:evenodd;clip-rule:evenodd" viewBox="0 0 38.13 38.13"><path d="M17.89 36.64c-1.56 1.53-4.14 2.18-5.95.51-.93-.8-1.39-1.75-2.03-2.76-5.05-8-4.05-6.12-8.72-13.47C.32 19.48-.2 19.01.07 16.97c.08-.56.46-1.28.69-1.65 1.32-2.02 4.71-2.96 6.95-1.04.81.7.75.75 1.37 1.74 3.16 4.96 4.11 6.36 5.71 8.8 4.68-7.24 10.46-16.06 14.26-22.04.62-.98.56-1.03 1.37-1.73 2.24-1.92 5.63-.98 6.96 1.03.22.38.61 1.09.68 1.66.27 2.04-.25 2.51-1.12 3.94-4.15 6.54-10.58 16.24-15.5 23.93-.89 1.39-2.37 3.88-3.55 5.03z" style="fill:#00d29b"/></svg>