<svg xmlns="http://www.w3.org/2000/svg" xml:space="preserve" width="236" height="197" style="shape-rendering:geometricPrecision;text-rendering:geometricPrecision;image-rendering:optimizeQuality;fill-rule:evenodd;clip-rule:evenodd" viewBox="0 0 428.3 356.8"><defs><style>.str0{stroke:#00d39b;stroke-width:3.6;stroke-miterlimit:22.9256}.fil0{fill:#00d39b;fill-rule:nonzero}</style></defs><g id="__x0023_Layer_x0020_1"><path class="fil0 str0" d="M165.1 234.3c4.2 0 8.4-.4 12.2-1.2l106.6-18.3c15.3-2.7 27.9-14.2 31.7-29.5L343.2 81V69.2h-55.5C261.4 32.5 219 10.7 173.9 10.7c-45.1 0-87.5 21.8-113.9 58.5H10.7v13.4l97.5 123.8c14.1 17.9 34.7 27.9 56.9 27.9zM173.9 26c37 0 70.7 15.7 94.7 43.2H79.1C102.8 41.7 136.8 26 173.9 26zm152.8 58.5-25.6 97c-2.3 9.2-10.3 16.5-19.8 18L175 218.2c-3 .4-6.5.8-9.9.8-17.6 0-34-8.1-44.7-21.8L31.7 84.5h295z"/><path d="M179.4 243.6c-4.5.9-9.4 1.4-14.3 1.4-12.7 0-25.1-2.9-36.3-8.4-11.1-5.5-21-13.4-29.1-23.6L2.6 89.6C1 87.7 0 85.3 0 82.6V69.2c0-5.9 4.8-10.7 10.7-10.7h44c13.7-17.7 31-31.8 50.4-41.8C126.1 5.9 149.7 0 173.9 0c24.2 0 47.7 5.9 68.8 16.7 19.4 10 36.7 24.1 50.4 41.8h50.1c5.9 0 10.7 4.8 10.7 10.7V81c0 .9-.2 1.8-.4 2.8L326 187.9c-2.4 9.7-7.6 18.2-14.5 24.6-7.1 6.6-16 11.1-25.7 12.8-53.4 8-87.8 14.4-106.4 18.3zm-14.3-9.3c4.2 0 8.4-.4 12.2-1.2l106.6-18.3c15.3-2.7 27.9-14.2 31.7-29.5L343.2 81V69.2h-55.5C261.4 32.5 219 10.7 173.9 10.7c-45.1 0-87.5 21.8-113.9 58.5H10.7v13.4l97.5 123.8c14.1 17.9 34.7 27.9 56.9 27.9zM173.9 26c37 0 70.7 15.7 94.7 43.2H79.1C102.8 41.7 136.8 26 173.9 26zm152.8 58.5-25.6 97c-2.3 9.2-10.3 16.5-19.8 18L175 218.2c-3 .4-6.5.8-9.9.8-17.6 0-34-8.1-44.7-21.8L31.7 84.5h295zM221.4 46.9c-14.5-6.6-30.6-10.2-47.5-10.2-17 0-33.2 3.6-47.9 10.2-6.9 3.2-13.5 7.1-19.6 11.6h134.8c-6.2-4.6-12.8-8.5-19.8-11.6zm69.4 131.9 22-83.6h-259l75 95.4c4.4 5.6 9.9 10 16.1 13 6.1 3 13 4.6 20.2 4.6 1.4 0 2.9 0 4.2-.2 1.4-.1 2.8-.2 4.2-.4l105.9-18.7v.1l.2-.1c2.7-.4 5.2-1.7 7.1-3.4 2-1.8 3.4-4.1 4-6.6l.1-.1z" style="fill:#00d39b"/><path class="fil0 str0" d="m371.8 123.8-30.9 119.6-219.1 37.5c-7.6-22.2-28.6-37.9-53.1-37.9-30.9 0-56.2 25.3-56.2 56.2 0 31 25.3 55.8 56.6 55.8s56.2-25.2 56.2-56.2v-3.4l130-21.4 28.3 60.7c4.6 9.6 13.7 15.7 24.4 15.7h2.7c11.5-1.1 21-8.8 23.7-20.2l49.7-191.5h42.4v-15.3h-54.7v.4zM110 298.8c0 22.6-18.4 40.9-40.9 40.9-22.6 0-40.9-18.3-40.9-40.9 0-22.5 18.3-40.9 40.9-40.9 17.2 0 31.7 10.7 37.8 25.6l-44.3 8.1 2.7 14.9 44.7-8.1v.4zm209.5 27.9c-1.5 5.7-6.5 8.4-10.3 8.8-3.8.4-9.2-1.1-11.9-6.9l-26.7-57.3 66.1-11.8-17.2 67.2z"/></g></svg>