<svg xmlns="http://www.w3.org/2000/svg" xml:space="preserve" width="229" height="229" style="shape-rendering:geometricPrecision;text-rendering:geometricPrecision;image-rendering:optimizeQuality;fill-rule:evenodd;clip-rule:evenodd" viewBox="0 0 2285.7 2284.7"><path d="m0 1923.9 1059.2-96.5v290H383.4v167.3h1518.9v-167.3h-675.8v-305.3l1059.2-96.6V299c0-152.1-129.9-299-261.1-299H261C129.8 0 0 146.9 0 299v1624.9zM473.3 1526l-118.6-118.5-133.2 133.2L354.7 1674 488 1540.7l-14.7-14.7zm-118.6-59.8 74.5 74.5-74.5 74.5-74.5-74.5 74.5-74.5zm-187.3 277.3V299c0-59.9 42-108.6 93.6-108.6h1763.6c51.7 0 93.8 48.7 93.8 108.6v1238.7c-650.4 68.6-1300.7 137.2-1951 205.8z" style="fill:#00d39b;fill-rule:nonzero"/></svg>