<svg xmlns="http://www.w3.org/2000/svg" xml:space="preserve" width="272" height="278" style="shape-rendering:geometricPrecision;text-rendering:geometricPrecision;image-rendering:optimizeQuality;fill-rule:evenodd;clip-rule:evenodd" viewBox="0 0 345.5 353"><path d="M22.5 240.7v-85.2c0-4 .5-7.9 1.4-11.7.9-3.9 2.3-7.7 4-11.2 1.8-3.6 4-7 6.6-10.1 2.5-3 5.4-5.8 8.5-8.1l116.4-87.6c1-.7 2-1.3 3-1.9.9-.5 2-.9 3.2-1.3 1.2-.4 2.4-.7 3.5-.9 1-.1 2.3-.2 3.7-.2 1.4 0 2.7.1 3.7.2 1 .2 2.1.5 3.4.9v-.1c1.1.4 2.2.9 3.2 1.4 1.1.6 2.1 1.2 3 1.9l116.5 87.6c3.1 2.3 5.9 5.1 8.5 8.1 2.5 3.1 4.7 6.5 6.5 10.1 1.8 3.5 3.1 7.3 4.1 11.2.9 3.8 1.3 7.7 1.3 11.7v147.3L22.5 328.5v-87.8zm213.9-122.9c4.7 12.4 4.8 26.6-1.1 39.7-5.8 13.1-16.4 22.6-28.9 27.3-12.4 4.8-26.6 4.8-39.7-1v-.1c-13.1-5.8-22.6-16.4-27.3-28.8-4.8-12.5-4.8-26.7 1-39.8 4.3-9.5 11-17.1 19.2-22.4 8.4-5.4 18.3-8.4 28.4-8.4 3.6 0 7.2.4 10.8 1.2 3.5.7 6.9 1.8 10.3 3.4 13.1 5.8 22.5 16.4 27.3 28.9zm-60.9 98.9L127.8 195l-42.2 92.6 58 26.5 42.2-92.7-10.3-4.7zm-36.4 8.3 16.7 7.6-23.4 51.4-16.7-7.6 23.4-51.4zm62.8-113.8 7.2-16.1-2.5-1c-11.6-5.2-24.2-5.1-35.2-.9-11.1 4.2-20.5 12.6-25.7 24.3-.3.7-.6 1.5-.9 2.3L163 128l1-2.4c2.9-6.5 8.3-11.3 14.5-13.7 6.3-2.4 13.5-2.4 20 .5l2.3 1.1 1.1-2.3zM162.2 69c-17.3 6.6-32 19.8-40.1 37.9-8.1 18.2-8.1 37.9-1.5 55.1 6.6 17.2 19.8 32 37.9 40.1 4.7 2.1 9.5 3.6 14.3 4.7 5 1 10 1.5 15 1.5 14 0 27.7-4.1 39.3-11.6 11.3-7.3 20.7-17.8 26.5-31 8.1-18.1 8.1-37.9 1.5-55.1-6.5-17.2-19.7-32-37.8-40.1-18.2-8.1-37.9-8-55.1-1.5zM0 155.5V353l345.5-29.6V155.5c0-5.7-.7-11.4-2-16.9-1.3-5.6-3.3-11-5.8-16-2.6-5.1-5.7-10-9.3-14.4-3.6-4.3-7.7-8.2-12.4-11.7L199.6 8.9c-2-1.4-4-2.7-6.1-3.8-2.1-1.1-4.3-2.1-6.6-2.8v-.1c-2.1-.7-4.4-1.2-7-1.6-2.5-.4-4.9-.6-7.1-.6-2.2 0-4.6.2-7.1.6-2.4.4-4.8.9-7 1.7h-.1c-2.1.6-4.3 1.6-6.6 2.8-2.1 1.1-4.1 2.4-6 3.8L29.5 96.5c-4.6 3.5-8.8 7.4-12.3 11.7-3.7 4.4-6.8 9.3-9.4 14.4-2.5 5.1-4.5 10.4-5.8 16-1.3 5.5-2 11.2-2 16.9z" style="fill:#00d39b;fill-rule:nonzero"/></svg>