<svg xmlns="http://www.w3.org/2000/svg" xml:space="preserve" width="225" height="195" style="shape-rendering:geometricPrecision;text-rendering:geometricPrecision;image-rendering:optimizeQuality;fill-rule:evenodd;clip-rule:evenodd" viewBox="0 0 222.4 192.4"><path d="M121.6 141.2h-54c-2.8 0-5.2-2.3-5.2-5.2V48.5c0-2.9 2.4-5.3 5.2-5.3h53.9c2.9 0 5.2 2.4 5.2 5.2v15.8h28.1c2.8 0 5.2 2.5 5.2 5.3V136c0 2.8-2.3 5.2-5.2 5.2h-33.2zm11.5-20.2h12.5v11.5h5.6V73h-24.5v59.5h5.3V121h1.1zm10.1 2.3h-8.9v9.2h8.9v-9.2zm-9.7-23.2H146v14h-13.6v-14h1.1zm10.2 2.4h-9v9.2h9v-9.2zm-10.2-23.1H146v13.9h-13.6V79.4h1.1zm10.2 2.3h-9V91h9v-9.3zM88.6 121h12.5v11.5H118V52H71.2v80.5h16.3V121h1.1zm10.1 2.3h-8.9v9.2h8.9v-9.2zm.4-23.9h12.5v13.9H97.9V99.4h1.2zm10.1 2.4h-8.9v9.2h8.9v-9.2zm-30.9-2.4h12.5v13.9H77.2V99.4h1.1zm10.2 2.4h-9v9.2h9v-9.2zm10.6-22.1h12.5v13.9H97.9V79.7h1.2zm10.1 2.3h-8.9v9.2h8.9V82zm-30.9-2.3h12.5v13.9H77.2V79.7h1.1zM88.5 82h-9v9.2h9V82zm10.6-23.1h12.5v13.9H97.9V58.9h1.2zm10.1 2.3h-8.9v9.3h8.9v-9.3zm-30.9-2.3h12.5v13.9H77.2V58.9h1.1zm10.2 2.3h-9v9.3h9v-9.3zm133.9-26.4v118.7c0 7.2.9 16.5-7.7 17.6L6.4 192.3l-.2.1c-5.3.4-6.2-4.8-6.2-8.8V11.1C0 5 5 0 11.1 0h200.3c6 0 11 5 11 11.1v23.7zM18.5 18.4V172.5l185.3-18.9V18.5l-185.3-.1z" style="fill:#00d39b"/></svg>