<svg xmlns="http://www.w3.org/2000/svg" xml:space="preserve" width="43" height="50" style="shape-rendering:geometricPrecision;text-rendering:geometricPrecision;image-rendering:optimizeQuality;fill-rule:evenodd;clip-rule:evenodd" viewBox="0 0 9.73 11.32"><path d="m2.32 2.03 2.55.67c-.26.04-.52.13-.75.26-.66.38-1.08 1.07-1.24 1.91l2.71-1.6c-.31.48-.85 1.66-1.1 3.12h1.53c-.13-1.45.02-2.85.22-3.12l2.25 2.61c.13-.84-.04-1.63-.54-2.21-.22-.26-.49-.45-.79-.59l2.57.68C9.37 3 8.79 2.43 8.06 2.24c-.27-.07-.55-.09-.82-.06L9.35.98c-.79-.3-1.59-.3-2.25.08-.39.22-.7.56-.91.96-.08-.44-.25-.84-.54-1.18C5.15.26 4.4-.01 3.56 0l1.51 1.76c-.17-.1-.35-.18-.55-.23-.74-.2-1.51 0-2.2.5zm4.01 5.08H5.05l-1.7-.01C1.5 7.12 0 8.65 0 10.54v.78l9.71-.78c0-1.9-1.51-3.43-3.38-3.43z" style="fill:#6769ef"/></svg>