<svg xmlns="http://www.w3.org/2000/svg" xml:space="preserve" width="25" height="25" style="shape-rendering:geometricPrecision;text-rendering:geometricPrecision;image-rendering:optimizeQuality;fill-rule:evenodd;clip-rule:evenodd"><path d="M9.98 18.78h-.06c-.48-.01-.94-.23-1.26-.59l-3.89-4.35c-.47-.52-.42-1.32.1-1.78.52-.47 1.32-.42 1.78.1l3.37 3.77 8.45-8.17c.5-.48 1.3-.47 1.79.04.48.5.47 1.3-.03 1.78l-9.01 8.7c-.33.32-.78.5-1.24.5z" style="fill:#00d29b;fill-rule:nonzero"/><path d="M12.5 1.8C6.6 1.8 1.8 6.6 1.8 12.5c0 5.9 4.8 10.7 10.7 10.7 5.9 0 10.7-4.8 10.7-10.7 0-5.9-4.8-10.7-10.7-10.7zm0 23.2C5.61 25 0 19.39 0 12.5S5.61 0 12.5 0 25 5.61 25 12.5 19.39 25 12.5 25z" style="fill:#00d29b"/></svg>