<svg xmlns="http://www.w3.org/2000/svg" xml:space="preserve" width="100%" height="100%" version="1.1" style="shape-rendering:geometricPrecision; text-rendering:geometricPrecision; image-rendering:optimizeQuality; fill-rule:evenodd; clip-rule:evenodd" viewBox="0 0 406.38 406.38"><defs><style type="text/css"><![CDATA[.fil0 {fill:#313846}.fil1 {fill:#E72F4D}]]></style></defs><g><path class="fil0" d="M393.69 387.34l-380.62 0 0 -47.88 325.5 0 7.37 -22.99 47.75 0 0 22.99 0 0.63 0 47.25zm-380.62 -368.3l380.62 0 0 47.88 -325.5 0 -7.37 22.99 -47.75 0 0 -22.99 0 -0.64 0 -47.24z"/><path class="fil1" d="M101.72 112.64c49.02,0 88.9,40.25 88.9,89.92 0,49.65 -39.88,89.91 -88.9,89.91 -49.15,0 -89.03,-40.26 -89.03,-89.91 0,-49.67 39.88,-89.92 89.03,-89.92zm0 49.15l0 0c-22.35,0 -40.39,18.16 -40.39,40.77 0,22.6 18.04,40.76 40.39,40.76 22.22,0 40.38,-18.16 40.38,-40.76 0,-22.61 -18.16,-40.77 -40.38,-40.77zm203.96 -49.15c48.13,0 87.12,39.37 88.01,88.26l0 91.57 -47.75 0 0 -90.42c0,-22.48 -18.16,-40.64 -40.26,-40.64 -22.1,0 -40.14,18.16 -40.14,40.64l0 90.42 -47.75 0 0 -20.2 0 -69.71 0 -1.66 0 -88.64 36.07 0 4.7 14.48c13.72,-8.89 29.85,-14.1 47.12,-14.1z"/></g></svg>