<svg xmlns="http://www.w3.org/2000/svg" xml:space="preserve" width="25px" height="20px" version="1.1" style="shape-rendering:geometricPrecision; text-rendering:geometricPrecision; image-rendering:optimizeQuality; fill-rule:evenodd; clip-rule:evenodd" viewBox="0 0 25 20"><defs><style type="text/css"><![CDATA[.fil0 {fill:#00D29B}]]></style></defs><g><path class="fil0" d="M10.01 13.62l-5.11 -6.44 -0.43 -0.54c-0.15,-0.19 -0.29,-0.32 -0.49,-0.47 -1.67,-1.22 -3.98,-0.09 -3.98,1.93 0,1.08 0.75,1.77 1.42,2.61l0.61 0.79 6.33 7.92c1.05,0.91 2.76,0.73 3.6,-0.42 0.22,-0.29 0.07,-0.17 0.43,-0.58l11.76 -14.15c0.55,-0.69 0.85,-0.9 0.85,-1.98 0,-0.3 -0.15,-0.7 -0.24,-0.91 -0.55,-1.14 -2.24,-1.86 -3.53,-1.01 -0.47,0.31 -0.44,0.34 -0.83,0.81l-9.62 11.57 -0.37 0.45c-0.13,0.15 -0.23,0.31 -0.4,0.42z"/></g></svg>