<svg xmlns="http://www.w3.org/2000/svg" xml:space="preserve" width="43" height="50" style="shape-rendering:geometricPrecision;text-rendering:geometricPrecision;image-rendering:optimizeQuality;fill-rule:evenodd;clip-rule:evenodd" viewBox="0 0 4.65 5.4"><path d="M0 1.99v2.92c0 .27.22.49.5.49h3.65a.5.5 0 0 0 .5-.49V1.99H0zm1.13 1.25H.97l-.16.59-.11-.59H.49l.21.92h.19l.16-.58.16.58h.18l.22-.92h-.22l-.11.59-.15-.59zm1.27 0h-.16l-.15.59-.11-.59h-.22l.21.92h.19l.16-.58.16.58h.19l.21-.92h-.21l-.11.59-.16-.59zm1.28 0h-.17l-.15.59-.11-.59h-.21l.21.92h.19l.16-.58.15.58h.19l.22-.92h-.22l-.11.59-.15-.59zm.29-2.12L3.7.86l.27-.27.26.27-.26.26zM4.65 0 0 .37V1.5h4.65V0z" style="fill:#686af0"/></svg>